<?xml version="1.0" encoding="UTF-8" standalone="no"?>
<!-- Created with Inkscape (http://www.inkscape.org/) -->

<svg
   width="171.33221mm"
   height="37.135651mm"
   viewBox="0 0 171.33221 37.135651"
   version="1.1"
   id="svg5"
   xml:space="preserve"
   inkscape:version="1.2 (dc2aeda, 2022-05-15)"
   sodipodi:docname="rosco_6502.svg"
   xmlns:inkscape="http://www.inkscape.org/namespaces/inkscape"
   xmlns:sodipodi="http://sodipodi.sourceforge.net/DTD/sodipodi-0.dtd"
   xmlns="http://www.w3.org/2000/svg"
   xmlns:svg="http://www.w3.org/2000/svg"><sodipodi:namedview
     id="namedview7"
     pagecolor="#ffffff"
     bordercolor="#666666"
     borderopacity="1.0"
     inkscape:showpageshadow="2"
     inkscape:pageopacity="0.0"
     inkscape:pagecheckerboard="0"
     inkscape:deskcolor="#d1d1d1"
     inkscape:document-units="mm"
     showgrid="false"
     inkscape:zoom="0.914906"
     inkscape:cx="274.34512"
     inkscape:cy="113.12638"
     inkscape:window-width="1513"
     inkscape:window-height="997"
     inkscape:window-x="454"
     inkscape:window-y="201"
     inkscape:window-maximized="0"
     inkscape:current-layer="layer1" /><defs
     id="defs2" /><g
     inkscape:label="Layer 1"
     inkscape:groupmode="layer"
     id="layer1"
     transform="translate(-20.08271,-120.84741)"><path
       style="fill:#000000;stroke-width:0.281334"
       d="m 101.10683,154.46639 v -3.51667 h 0.42201 0.42199 v 3.51667 3.51667 h -0.42199 -0.42201 z m 24.47602,0 v -3.51667 h 0.42201 0.42199 v 3.51667 3.51667 h -0.42199 -0.42201 z m -21.94403,2.81685 v -0.42551 h 10.29212 10.29214 l -0.11723,0.35166 -0.11707,0.35167 -10.17497,0.0739 -10.17499,0.0738 z M 20.082726,145.48717 v -3.54012 h 0.43066 0.43066 l -0.079,3.42335 -0.079,3.42334 -0.351669,0.11676 -0.351667,0.11675 z m 7.877344,-0.0235 V 141.947 h 0.422 0.422001 v 3.51667 3.51667 h -0.422001 -0.422 z m 8.158677,0 V 141.947 h 0.422001 0.422 v 3.51667 3.51667 h -0.422 -0.422001 z m 16.317355,0 V 141.947 h 0.422 0.422 v 3.51667 3.51667 h -0.422 -0.422 z m 16.317354,0.0235 v -3.54012 h 0.430659 0.43066 l -0.079,3.42335 -0.079,3.42334 -0.351667,0.11676 -0.351667,0.11675 v -3.54012 z m 16.317354,0 v -3.54012 h 0.430659 0.43066 l -0.079,3.42335 -0.079,3.42334 -0.351667,0.11676 -0.351667,0.11675 v -3.54012 z m 16.03602,-0.0235 V 141.947 h 0.42201 0.42199 v 3.51667 3.51667 h -0.42199 -0.42201 z m 24.47602,0 V 141.947 h 0.42201 0.42199 v 3.51667 3.51667 h -0.42199 -0.42201 z m 16.31736,0.0235 v -3.54012 h 0.43066 0.43065 l -0.0789,3.42335 -0.079,3.42334 -0.35166,0.11676 -0.35167,0.11675 v -3.54012 z m 16.31734,0 v -3.54012 h 0.43068 0.43065 l -0.079,3.42335 -0.0789,3.42334 -0.35167,0.11676 -0.35168,0.11675 v -3.54012 z m 16.31737,0 v -3.54012 h 0.43065 0.43066 l -0.0789,3.42335 -0.0789,3.42334 -0.35166,0.11676 -0.35167,0.11675 v -3.54012 z m 16.03602,-0.0235 V 141.947 h 0.422 0.42199 v 3.51667 3.51667 h -0.42199 -0.422 z m -168.237545,2.8257 v -0.43433 h 2.133448 2.133448 l -0.116289,0.35168 -0.116289,0.35167 -2.017165,0.0826 -2.017166,0.0826 z m 16.317354,-0.006 v -0.42748 h 6.212787 6.212786 l -0.117038,0.35167 -0.117038,0.35166 -6.095745,0.0758 -6.095747,0.0758 v -0.42748 z m 16.317356,-0.005 v -0.42199 h 6.048673 6.048674 v 0.42199 0.42202 h -6.048674 -6.048673 z m 16.223576,0.23446 -0.187556,-0.18756 v -0.23445 -0.23444 h 6.189341 6.18934 v 0.42199 0.42202 h -6.001784 -6.001787 z m 16.317354,0 -0.187556,-0.18756 v -0.23445 -0.23444 h 6.189337 6.189349 v 0.42199 0.42202 h -6.001781 -6.001795 z m 16.129785,-0.23095 v -0.4255 h 10.29212 10.29214 l -0.11723,0.35167 -0.11707,0.35166 -10.17497,0.0739 -10.17499,0.0738 z m 24.47603,0.002 v -0.42748 h 6.2128 6.21278 l -0.11708,0.35167 -0.11707,0.35166 -6.09574,0.0758 -6.09575,0.0758 v -0.42748 z m 16.22358,0.22895 -0.18755,-0.18755 v -0.23444 -0.23444 h 6.18935 6.18933 v 0.42199 0.42201 h -6.00178 -6.00178 z m 16.31736,0 -0.18755,-0.18755 v -0.23444 -0.23444 h 6.18933 6.18935 v 0.42199 0.42201 h -6.0018 -6.00178 z m 16.3228,0.005 -0.19301,-0.19299 v -0.23444 -0.23445 h 6.21278 6.2128 l -0.11707,0.35166 -0.11707,0.35167 -5.90277,0.0758 -5.90275,0.0758 z M 20.082726,136.48464 v -3.54012 h 0.43066 0.43066 l -0.079,3.42337 -0.079,3.42335 -0.351669,0.11675 -0.351667,0.11675 z m 16.036021,-0.0234 v -3.51667 h 0.422001 0.422 v 3.51667 3.51667 h -0.422 -0.422001 z m 16.317355,0 v -3.51667 h 0.422 0.422 v 3.51667 3.51667 h -0.422 -0.422 z m 16.317354,0.0234 v -3.54012 h 0.430659 0.43066 l -0.079,3.42337 -0.079,3.42335 -0.351667,0.11675 -0.351667,0.11675 v -3.54013 z m 16.317354,0 v -3.54012 h 0.430659 0.43066 l -0.079,3.42337 -0.079,3.42335 -0.351667,0.11675 -0.351667,0.11675 v -3.54013 z m 16.03602,-0.0234 v -3.51667 h 0.42201 0.42199 v 3.51667 3.51667 h -0.42199 -0.42201 z m 24.47602,0 v -3.51667 h 0.42201 0.42199 v 3.51667 3.51667 h -0.42199 -0.42201 z m 16.31736,0.0234 v -3.54012 h 0.43066 0.43065 l -0.0789,3.42337 -0.079,3.42335 -0.35166,0.11675 -0.35167,0.11675 v -3.54013 z m 16.31734,0 v -3.54012 h 0.43068 0.43065 l -0.079,3.42337 -0.0789,3.42335 -0.35167,0.11675 -0.35168,0.11675 v -3.54013 z m 8.15868,0 v -3.54012 h 0.43066 0.43067 l -0.0789,3.42337 -0.0789,3.42335 -0.35166,0.11675 -0.35167,0.11675 v -3.54013 z m 8.15869,0 v -3.54012 h 0.43065 0.43066 l -0.0789,3.42337 -0.0789,3.42335 -0.35166,0.11675 -0.35167,0.11675 v -3.54013 z m 16.03602,-0.0234 v -3.51667 h 0.422 0.42199 v 3.51667 3.51667 h -0.42199 -0.422 z m -160.078867,2.82567 v -0.43432 h 2.133448 2.133446 l -0.116289,0.35167 -0.116273,0.35166 -2.017165,0.0826 -2.017165,0.0826 z m 24.476032,0 v -0.43432 h 2.133446 2.133448 l -0.116289,0.35167 -0.116273,0.35166 -2.017165,0.0826 -2.017166,0.0826 z m 24.382253,0.22211 -0.187557,-0.18755 v -0.23444 -0.23444 h 2.110004 2.110001 v 0.42199 0.42201 h -1.922445 -1.922448 z m 64.995472,0.008 -0.19495,-0.19494 v -0.23444 -0.23446 h 4.24344 4.24346 l -0.11691,0.35167 -0.11691,0.35168 -3.93164,0.0777 -3.93163,0.0777 z m 36.57337,0 -0.19495,-0.19494 v -0.23444 -0.23446 h 4.24346 4.24345 l -0.11691,0.35167 -0.11692,0.35168 -3.93163,0.0777 -3.93164,0.0777 z M 44.277424,137.58717 v -0.70333 h 0.562667 0.562668 v 0.70333 0.70333 h -0.562668 -0.562667 z m 48.670722,0 v -0.70333 h 0.56267 0.562671 v 0.70333 0.70333 h -0.562671 -0.56267 z m 40.793384,0 v -0.70333 h 0.56267 0.56267 v 0.70333 0.70333 h -0.56267 -0.56267 z m -70.427192,-0.8909 -0.187557,-0.18755 v -0.3751 -0.37512 h 1.82867 1.828667 v 0.56267 0.56267 h -1.641111 -1.641115 z m 62.268512,-9.23711 v -3.51667 h 0.42201 0.42199 v 3.51667 3.51667 h -0.42199 -0.42201 z m 16.31736,0.0234 v -3.54012 h 0.43066 0.43065 l -0.0789,3.42335 -0.079,3.42337 -0.35166,0.11675 -0.35167,0.11675 v -3.54012 z m 16.31734,0 v -3.54012 h 0.43068 0.43065 l -0.079,3.42335 -0.0789,3.42337 -0.35167,0.11675 -0.35168,0.11675 v -3.54012 z m 16.31737,0 v -3.54012 h 0.43065 0.43066 l -0.0789,3.42335 -0.0789,3.42337 -0.35166,0.11675 -0.35167,0.11675 v -3.54012 z m 16.03602,-0.0234 v -3.51667 h 0.422 0.42199 v 3.51667 3.51667 h -0.42199 -0.422 z m -168.237545,2.81882 v -0.42749 h 6.212787 6.212785 l -0.117039,0.35167 -0.117038,0.35167 -6.095745,0.0758 -6.095747,0.0758 z m 16.317354,0 v -0.42749 h 6.212787 6.212786 l -0.117038,0.35167 -0.117038,0.35167 -6.095745,0.0758 -6.095747,0.0758 z m 16.317356,-0.005 v -0.42199 h 6.048673 6.048674 v 0.42199 0.422 h -6.048674 -6.048673 z m 16.223576,0.23445 -0.187556,-0.18755 v -0.23445 -0.23446 h 6.189341 6.18934 v 0.42201 0.422 h -6.001784 -6.001787 z m 16.317354,0 -0.187556,-0.18755 v -0.23445 -0.23446 h 6.189337 6.189349 v 0.42201 0.422 h -6.001781 -6.001795 z m 48.764495,-0.2221 v -0.43434 h 2.13346 2.13344 l -0.11628,0.35167 -0.11627,0.35167 -2.01717,0.0826 -2.01716,0.0826 z m 12.09735,-0.0128 v -0.42201 h 4.07934 4.07934 v 0.42201 0.42199 h -4.07934 -4.07934 z m 28.60225,0.23444 -0.18755,-0.18757 v -0.23444 -0.23444 h 4.07934 4.07934 v 0.42201 0.42199 h -3.89178 -3.89178 z m -48.85828,-9.23164 v -0.42749 h 6.2128 6.21278 l -0.11708,0.35166 -0.11707,0.35168 -6.09574,0.0758 -6.09575,0.0758 z m 16.22358,0.22895 -0.18755,-0.18755 v -0.23444 -0.23444 h 6.18935 6.18933 v 0.42199 0.422 h -6.00178 -6.00178 z m 16.31736,0 -0.18755,-0.18755 v -0.23444 -0.23444 h 6.18933 6.18935 v 0.42199 0.422 h -6.0018 -6.00178 z m 16.3228,0.005 -0.19301,-0.19299 v -0.23444 -0.23444 h 6.21278 6.2128 l -0.11707,0.35165 -0.11707,0.35168 -5.90277,0.0758 -5.90275,0.0758 z"
       id="path2313" /></g></svg>
