%TF.GenerationSoftware,KiCad,Pcbnew,(6.0.0-0)*%
%TF.CreationDate,2022-07-02T22:59:05+01:00*%
%TF.ProjectId,rosco_6502,726f7363-6f5f-4363-9530-322e6b696361,0*%
%TF.SameCoordinates,Original*%
%TF.FileFunction,Legend,Bot*%
%TF.FilePolarity,Positive*%
%FSLAX46Y46*%
G04 Gerber Fmt 4.6, Leading zero omitted, Abs format (unit mm)*
G04 Created by KiCad (PCBNEW (6.0.0-0)) date 2022-07-02 22:59:05*
%MOMM*%
%LPD*%
G01*
G04 APERTURE LIST*
%ADD10C,0.300000*%
G04 APERTURE END LIST*
D10*
X160571428Y-51375714D02*
X160642857Y-51447142D01*
X160857142Y-51518571D01*
X161000000Y-51518571D01*
X161214285Y-51447142D01*
X161357142Y-51304285D01*
X161428571Y-51161428D01*
X161500000Y-50875714D01*
X161500000Y-50661428D01*
X161428571Y-50375714D01*
X161357142Y-50232857D01*
X161214285Y-50090000D01*
X161000000Y-50018571D01*
X160857142Y-50018571D01*
X160642857Y-50090000D01*
X160571428Y-50161428D01*
X159714285Y-51518571D02*
X159857142Y-51447142D01*
X159928571Y-51375714D01*
X160000000Y-51232857D01*
X160000000Y-50804285D01*
X159928571Y-50661428D01*
X159857142Y-50590000D01*
X159714285Y-50518571D01*
X159500000Y-50518571D01*
X159357142Y-50590000D01*
X159285714Y-50661428D01*
X159214285Y-50804285D01*
X159214285Y-51232857D01*
X159285714Y-51375714D01*
X159357142Y-51447142D01*
X159500000Y-51518571D01*
X159714285Y-51518571D01*
X158571428Y-50518571D02*
X158571428Y-52018571D01*
X158571428Y-50590000D02*
X158428571Y-50518571D01*
X158142857Y-50518571D01*
X158000000Y-50590000D01*
X157928571Y-50661428D01*
X157857142Y-50804285D01*
X157857142Y-51232857D01*
X157928571Y-51375714D01*
X158000000Y-51447142D01*
X158142857Y-51518571D01*
X158428571Y-51518571D01*
X158571428Y-51447142D01*
X157357142Y-50518571D02*
X157000000Y-51518571D01*
X156642857Y-50518571D02*
X157000000Y-51518571D01*
X157142857Y-51875714D01*
X157214285Y-51947142D01*
X157357142Y-52018571D01*
X156071428Y-51518571D02*
X156071428Y-50518571D01*
X156071428Y-50804285D02*
X156000000Y-50661428D01*
X155928571Y-50590000D01*
X155785714Y-50518571D01*
X155642857Y-50518571D01*
X155142857Y-51518571D02*
X155142857Y-50518571D01*
X155142857Y-50018571D02*
X155214285Y-50090000D01*
X155142857Y-50161428D01*
X155071428Y-50090000D01*
X155142857Y-50018571D01*
X155142857Y-50161428D01*
X153785714Y-50518571D02*
X153785714Y-51732857D01*
X153857142Y-51875714D01*
X153928571Y-51947142D01*
X154071428Y-52018571D01*
X154285714Y-52018571D01*
X154428571Y-51947142D01*
X153785714Y-51447142D02*
X153928571Y-51518571D01*
X154214285Y-51518571D01*
X154357142Y-51447142D01*
X154428571Y-51375714D01*
X154500000Y-51232857D01*
X154500000Y-50804285D01*
X154428571Y-50661428D01*
X154357142Y-50590000D01*
X154214285Y-50518571D01*
X153928571Y-50518571D01*
X153785714Y-50590000D01*
X153071428Y-51518571D02*
X153071428Y-50018571D01*
X152428571Y-51518571D02*
X152428571Y-50732857D01*
X152500000Y-50590000D01*
X152642857Y-50518571D01*
X152857142Y-50518571D01*
X153000000Y-50590000D01*
X153071428Y-50661428D01*
X151928571Y-50518571D02*
X151357142Y-50518571D01*
X151714285Y-50018571D02*
X151714285Y-51304285D01*
X151642857Y-51447142D01*
X151500000Y-51518571D01*
X151357142Y-51518571D01*
X149285714Y-52090000D02*
X149357142Y-52018571D01*
X149500000Y-51804285D01*
X149571428Y-51661428D01*
X149642857Y-51447142D01*
X149714285Y-51090000D01*
X149714285Y-50804285D01*
X149642857Y-50447142D01*
X149571428Y-50232857D01*
X149500000Y-50090000D01*
X149357142Y-49875714D01*
X149285714Y-49804285D01*
X148071428Y-51447142D02*
X148214285Y-51518571D01*
X148500000Y-51518571D01*
X148642857Y-51447142D01*
X148714285Y-51375714D01*
X148785714Y-51232857D01*
X148785714Y-50804285D01*
X148714285Y-50661428D01*
X148642857Y-50590000D01*
X148500000Y-50518571D01*
X148214285Y-50518571D01*
X148071428Y-50590000D01*
X147571428Y-52090000D02*
X147500000Y-52018571D01*
X147357142Y-51804285D01*
X147285714Y-51661428D01*
X147214285Y-51447142D01*
X147142857Y-51090000D01*
X147142857Y-50804285D01*
X147214285Y-50447142D01*
X147285714Y-50232857D01*
X147357142Y-50090000D01*
X147500000Y-49875714D01*
X147571428Y-49804285D01*
X146500000Y-50161428D02*
X146428571Y-50090000D01*
X146285714Y-50018571D01*
X145928571Y-50018571D01*
X145785714Y-50090000D01*
X145714285Y-50161428D01*
X145642857Y-50304285D01*
X145642857Y-50447142D01*
X145714285Y-50661428D01*
X146571428Y-51518571D01*
X145642857Y-51518571D01*
X144714285Y-50018571D02*
X144571428Y-50018571D01*
X144428571Y-50090000D01*
X144357142Y-50161428D01*
X144285714Y-50304285D01*
X144214285Y-50590000D01*
X144214285Y-50947142D01*
X144285714Y-51232857D01*
X144357142Y-51375714D01*
X144428571Y-51447142D01*
X144571428Y-51518571D01*
X144714285Y-51518571D01*
X144857142Y-51447142D01*
X144928571Y-51375714D01*
X145000000Y-51232857D01*
X145071428Y-50947142D01*
X145071428Y-50590000D01*
X145000000Y-50304285D01*
X144928571Y-50161428D01*
X144857142Y-50090000D01*
X144714285Y-50018571D01*
X143642857Y-50161428D02*
X143571428Y-50090000D01*
X143428571Y-50018571D01*
X143071428Y-50018571D01*
X142928571Y-50090000D01*
X142857142Y-50161428D01*
X142785714Y-50304285D01*
X142785714Y-50447142D01*
X142857142Y-50661428D01*
X143714285Y-51518571D01*
X142785714Y-51518571D01*
X142214285Y-50161428D02*
X142142857Y-50090000D01*
X142000000Y-50018571D01*
X141642857Y-50018571D01*
X141500000Y-50090000D01*
X141428571Y-50161428D01*
X141357142Y-50304285D01*
X141357142Y-50447142D01*
X141428571Y-50661428D01*
X142285714Y-51518571D01*
X141357142Y-51518571D01*
X138714285Y-51518571D02*
X139214285Y-50804285D01*
X139571428Y-51518571D02*
X139571428Y-50018571D01*
X139000000Y-50018571D01*
X138857142Y-50090000D01*
X138785714Y-50161428D01*
X138714285Y-50304285D01*
X138714285Y-50518571D01*
X138785714Y-50661428D01*
X138857142Y-50732857D01*
X139000000Y-50804285D01*
X139571428Y-50804285D01*
X137857142Y-51518571D02*
X138000000Y-51447142D01*
X138071428Y-51375714D01*
X138142857Y-51232857D01*
X138142857Y-50804285D01*
X138071428Y-50661428D01*
X138000000Y-50590000D01*
X137857142Y-50518571D01*
X137642857Y-50518571D01*
X137500000Y-50590000D01*
X137428571Y-50661428D01*
X137357142Y-50804285D01*
X137357142Y-51232857D01*
X137428571Y-51375714D01*
X137500000Y-51447142D01*
X137642857Y-51518571D01*
X137857142Y-51518571D01*
X136785714Y-51447142D02*
X136642857Y-51518571D01*
X136357142Y-51518571D01*
X136214285Y-51447142D01*
X136142857Y-51304285D01*
X136142857Y-51232857D01*
X136214285Y-51090000D01*
X136357142Y-51018571D01*
X136571428Y-51018571D01*
X136714285Y-50947142D01*
X136785714Y-50804285D01*
X136785714Y-50732857D01*
X136714285Y-50590000D01*
X136571428Y-50518571D01*
X136357142Y-50518571D01*
X136214285Y-50590000D01*
X135571428Y-51447142D02*
X135428571Y-51518571D01*
X135142857Y-51518571D01*
X135000000Y-51447142D01*
X134928571Y-51304285D01*
X134928571Y-51232857D01*
X135000000Y-51090000D01*
X135142857Y-51018571D01*
X135357142Y-51018571D01*
X135500000Y-50947142D01*
X135571428Y-50804285D01*
X135571428Y-50732857D01*
X135500000Y-50590000D01*
X135357142Y-50518571D01*
X135142857Y-50518571D01*
X135000000Y-50590000D01*
X132642857Y-50732857D02*
X132428571Y-50804285D01*
X132357142Y-50875714D01*
X132285714Y-51018571D01*
X132285714Y-51232857D01*
X132357142Y-51375714D01*
X132428571Y-51447142D01*
X132571428Y-51518571D01*
X133142857Y-51518571D01*
X133142857Y-50018571D01*
X132642857Y-50018571D01*
X132500000Y-50090000D01*
X132428571Y-50161428D01*
X132357142Y-50304285D01*
X132357142Y-50447142D01*
X132428571Y-50590000D01*
X132500000Y-50661428D01*
X132642857Y-50732857D01*
X133142857Y-50732857D01*
X131000000Y-51518571D02*
X131000000Y-50732857D01*
X131071428Y-50590000D01*
X131214285Y-50518571D01*
X131500000Y-50518571D01*
X131642857Y-50590000D01*
X131000000Y-51447142D02*
X131142857Y-51518571D01*
X131500000Y-51518571D01*
X131642857Y-51447142D01*
X131714285Y-51304285D01*
X131714285Y-51161428D01*
X131642857Y-51018571D01*
X131500000Y-50947142D01*
X131142857Y-50947142D01*
X131000000Y-50875714D01*
X130285714Y-51518571D02*
X130285714Y-50518571D01*
X130285714Y-50661428D02*
X130214285Y-50590000D01*
X130071428Y-50518571D01*
X129857142Y-50518571D01*
X129714285Y-50590000D01*
X129642857Y-50732857D01*
X129642857Y-51518571D01*
X129642857Y-50732857D02*
X129571428Y-50590000D01*
X129428571Y-50518571D01*
X129214285Y-50518571D01*
X129071428Y-50590000D01*
X129000000Y-50732857D01*
X129000000Y-51518571D01*
X128500000Y-50518571D02*
X127928571Y-50518571D01*
X128285714Y-51518571D02*
X128285714Y-50232857D01*
X128214285Y-50090000D01*
X128071428Y-50018571D01*
X127928571Y-50018571D01*
X127214285Y-51518571D02*
X127357142Y-51447142D01*
X127428571Y-51375714D01*
X127500000Y-51232857D01*
X127500000Y-50804285D01*
X127428571Y-50661428D01*
X127357142Y-50590000D01*
X127214285Y-50518571D01*
X127000000Y-50518571D01*
X126857142Y-50590000D01*
X126785714Y-50661428D01*
X126714285Y-50804285D01*
X126714285Y-51232857D01*
X126785714Y-51375714D01*
X126857142Y-51447142D01*
X127000000Y-51518571D01*
X127214285Y-51518571D01*
X126071428Y-51518571D02*
X126071428Y-50518571D01*
X126071428Y-50804285D02*
X126000000Y-50661428D01*
X125928571Y-50590000D01*
X125785714Y-50518571D01*
X125642857Y-50518571D01*
X124500000Y-51518571D02*
X124500000Y-50018571D01*
X124500000Y-51447142D02*
X124642857Y-51518571D01*
X124928571Y-51518571D01*
X125071428Y-51447142D01*
X125142857Y-51375714D01*
X125214285Y-51232857D01*
X125214285Y-50804285D01*
X125142857Y-50661428D01*
X125071428Y-50590000D01*
X124928571Y-50518571D01*
X124642857Y-50518571D01*
X124500000Y-50590000D01*
X121428571Y-51518571D02*
X121500000Y-51518571D01*
X121642857Y-51447142D01*
X121857142Y-51232857D01*
X122214285Y-50804285D01*
X122357142Y-50590000D01*
X122428571Y-50375714D01*
X122428571Y-50232857D01*
X122357142Y-50090000D01*
X122214285Y-50018571D01*
X122142857Y-50018571D01*
X122000000Y-50090000D01*
X121928571Y-50232857D01*
X121928571Y-50304285D01*
X122000000Y-50447142D01*
X122071428Y-50518571D01*
X122500000Y-50804285D01*
X122571428Y-50875714D01*
X122642857Y-51018571D01*
X122642857Y-51232857D01*
X122571428Y-51375714D01*
X122500000Y-51447142D01*
X122357142Y-51518571D01*
X122142857Y-51518571D01*
X122000000Y-51447142D01*
X121928571Y-51375714D01*
X121714285Y-51090000D01*
X121642857Y-50875714D01*
X121642857Y-50732857D01*
X118785714Y-51375714D02*
X118857142Y-51447142D01*
X119071428Y-51518571D01*
X119214285Y-51518571D01*
X119428571Y-51447142D01*
X119571428Y-51304285D01*
X119642857Y-51161428D01*
X119714285Y-50875714D01*
X119714285Y-50661428D01*
X119642857Y-50375714D01*
X119571428Y-50232857D01*
X119428571Y-50090000D01*
X119214285Y-50018571D01*
X119071428Y-50018571D01*
X118857142Y-50090000D01*
X118785714Y-50161428D01*
X117928571Y-51518571D02*
X118071428Y-51447142D01*
X118142857Y-51375714D01*
X118214285Y-51232857D01*
X118214285Y-50804285D01*
X118142857Y-50661428D01*
X118071428Y-50590000D01*
X117928571Y-50518571D01*
X117714285Y-50518571D01*
X117571428Y-50590000D01*
X117500000Y-50661428D01*
X117428571Y-50804285D01*
X117428571Y-51232857D01*
X117500000Y-51375714D01*
X117571428Y-51447142D01*
X117714285Y-51518571D01*
X117928571Y-51518571D01*
X116785714Y-50518571D02*
X116785714Y-51518571D01*
X116785714Y-50661428D02*
X116714285Y-50590000D01*
X116571428Y-50518571D01*
X116357142Y-50518571D01*
X116214285Y-50590000D01*
X116142857Y-50732857D01*
X116142857Y-51518571D01*
X115642857Y-50518571D02*
X115071428Y-50518571D01*
X115428571Y-50018571D02*
X115428571Y-51304285D01*
X115357142Y-51447142D01*
X115214285Y-51518571D01*
X115071428Y-51518571D01*
X114571428Y-51518571D02*
X114571428Y-50518571D01*
X114571428Y-50804285D02*
X114500000Y-50661428D01*
X114428571Y-50590000D01*
X114285714Y-50518571D01*
X114142857Y-50518571D01*
X113642857Y-51518571D02*
X113642857Y-50518571D01*
X113642857Y-50018571D02*
X113714285Y-50090000D01*
X113642857Y-50161428D01*
X113571428Y-50090000D01*
X113642857Y-50018571D01*
X113642857Y-50161428D01*
X112928571Y-51518571D02*
X112928571Y-50018571D01*
X112928571Y-50590000D02*
X112785714Y-50518571D01*
X112500000Y-50518571D01*
X112357142Y-50590000D01*
X112285714Y-50661428D01*
X112214285Y-50804285D01*
X112214285Y-51232857D01*
X112285714Y-51375714D01*
X112357142Y-51447142D01*
X112500000Y-51518571D01*
X112785714Y-51518571D01*
X112928571Y-51447142D01*
X110928571Y-50518571D02*
X110928571Y-51518571D01*
X111571428Y-50518571D02*
X111571428Y-51304285D01*
X111500000Y-51447142D01*
X111357142Y-51518571D01*
X111142857Y-51518571D01*
X111000000Y-51447142D01*
X110928571Y-51375714D01*
X110428571Y-50518571D02*
X109857142Y-50518571D01*
X110214285Y-50018571D02*
X110214285Y-51304285D01*
X110142857Y-51447142D01*
X110000000Y-51518571D01*
X109857142Y-51518571D01*
X109142857Y-51518571D02*
X109285714Y-51447142D01*
X109357142Y-51375714D01*
X109428571Y-51232857D01*
X109428571Y-50804285D01*
X109357142Y-50661428D01*
X109285714Y-50590000D01*
X109142857Y-50518571D01*
X108928571Y-50518571D01*
X108785714Y-50590000D01*
X108714285Y-50661428D01*
X108642857Y-50804285D01*
X108642857Y-51232857D01*
X108714285Y-51375714D01*
X108785714Y-51447142D01*
X108928571Y-51518571D01*
X109142857Y-51518571D01*
X108000000Y-51518571D02*
X108000000Y-50518571D01*
X108000000Y-50804285D02*
X107928571Y-50661428D01*
X107857142Y-50590000D01*
X107714285Y-50518571D01*
X107571428Y-50518571D01*
X107142857Y-51447142D02*
X107000000Y-51518571D01*
X106714285Y-51518571D01*
X106571428Y-51447142D01*
X106500000Y-51304285D01*
X106500000Y-51232857D01*
X106571428Y-51090000D01*
X106714285Y-51018571D01*
X106928571Y-51018571D01*
X107071428Y-50947142D01*
X107142857Y-50804285D01*
X107142857Y-50732857D01*
X107071428Y-50590000D01*
X106928571Y-50518571D01*
X106714285Y-50518571D01*
X106571428Y-50590000D01*
M02*
