%TF.GenerationSoftware,KiCad,Pcbnew,7.0.9*%
%TF.CreationDate,2024-03-17T20:45:13+00:00*%
%TF.ProjectId,rosco_6502,726f7363-6f5f-4363-9530-322e6b696361,5*%
%TF.SameCoordinates,Original*%
%TF.FileFunction,Copper,L4,Bot*%
%TF.FilePolarity,Positive*%
%FSLAX46Y46*%
G04 Gerber Fmt 4.6, Leading zero omitted, Abs format (unit mm)*
G04 Created by KiCad (PCBNEW 7.0.9) date 2024-03-17 20:45:13*
%MOMM*%
%LPD*%
G01*
G04 APERTURE LIST*
G04 Aperture macros list*
%AMRoundRect*
0 Rectangle with rounded corners*
0 $1 Rounding radius*
0 $2 $3 $4 $5 $6 $7 $8 $9 X,Y pos of 4 corners*
0 Add a 4 corners polygon primitive as box body*
4,1,4,$2,$3,$4,$5,$6,$7,$8,$9,$2,$3,0*
0 Add four circle primitives for the rounded corners*
1,1,$1+$1,$2,$3*
1,1,$1+$1,$4,$5*
1,1,$1+$1,$6,$7*
1,1,$1+$1,$8,$9*
0 Add four rect primitives between the rounded corners*
20,1,$1+$1,$2,$3,$4,$5,0*
20,1,$1+$1,$4,$5,$6,$7,0*
20,1,$1+$1,$6,$7,$8,$9,0*
20,1,$1+$1,$8,$9,$2,$3,0*%
G04 Aperture macros list end*
%TA.AperFunction,ComponentPad*%
%ADD10R,1.700000X1.700000*%
%TD*%
%TA.AperFunction,ComponentPad*%
%ADD11O,1.700000X1.700000*%
%TD*%
%TA.AperFunction,ComponentPad*%
%ADD12C,1.600000*%
%TD*%
%TA.AperFunction,ComponentPad*%
%ADD13R,1.800000X1.800000*%
%TD*%
%TA.AperFunction,ComponentPad*%
%ADD14C,1.800000*%
%TD*%
%TA.AperFunction,ComponentPad*%
%ADD15O,1.600000X1.600000*%
%TD*%
%TA.AperFunction,ComponentPad*%
%ADD16R,2.400000X1.600000*%
%TD*%
%TA.AperFunction,ComponentPad*%
%ADD17O,2.400000X1.600000*%
%TD*%
%TA.AperFunction,ComponentPad*%
%ADD18R,1.600000X1.600000*%
%TD*%
%TA.AperFunction,ComponentPad*%
%ADD19C,7.000000*%
%TD*%
%TA.AperFunction,ComponentPad*%
%ADD20C,1.500000*%
%TD*%
%TA.AperFunction,ComponentPad*%
%ADD21C,1.600200*%
%TD*%
%TA.AperFunction,ComponentPad*%
%ADD22O,3.048000X1.524000*%
%TD*%
%TA.AperFunction,ComponentPad*%
%ADD23R,3.500000X3.500000*%
%TD*%
%TA.AperFunction,ComponentPad*%
%ADD24RoundRect,0.750000X0.750000X1.000000X-0.750000X1.000000X-0.750000X-1.000000X0.750000X-1.000000X0*%
%TD*%
%TA.AperFunction,ComponentPad*%
%ADD25RoundRect,0.875000X0.875000X0.875000X-0.875000X0.875000X-0.875000X-0.875000X0.875000X-0.875000X0*%
%TD*%
%TA.AperFunction,ComponentPad*%
%ADD26R,1.422400X1.422400*%
%TD*%
%TA.AperFunction,ComponentPad*%
%ADD27C,1.422400*%
%TD*%
%TA.AperFunction,ViaPad*%
%ADD28C,0.800000*%
%TD*%
%TA.AperFunction,Conductor*%
%ADD29C,0.250000*%
%TD*%
%TA.AperFunction,Conductor*%
%ADD30C,0.300000*%
%TD*%
%TA.AperFunction,Conductor*%
%ADD31C,0.700000*%
%TD*%
%TA.AperFunction,Conductor*%
%ADD32C,0.400000*%
%TD*%
G04 APERTURE END LIST*
D10*
%TO.P,JP4,1,A*%
%TO.N,VCC*%
X113020000Y-54340000D03*
D11*
%TO.P,JP4,2,B*%
%TO.N,Net-(JP4-B)*%
X115560000Y-54340000D03*
%TD*%
D12*
%TO.P,C9,1*%
%TO.N,GND*%
X91500000Y-114000000D03*
%TO.P,C9,2*%
%TO.N,VCC*%
X94000000Y-114000000D03*
%TD*%
%TO.P,C10,1*%
%TO.N,GND*%
X167000000Y-122030000D03*
%TO.P,C10,2*%
%TO.N,VCC*%
X169500000Y-122030000D03*
%TD*%
D13*
%TO.P,LED1,1,K*%
%TO.N,Net-(IC3-OP5)*%
X122000000Y-145000000D03*
D14*
%TO.P,LED1,2,A*%
%TO.N,Net-(LED1-A)*%
X124540000Y-145000000D03*
%TD*%
D12*
%TO.P,C19,1*%
%TO.N,VCC*%
X147610000Y-112030000D03*
%TO.P,C19,2*%
%TO.N,Net-(IC4-CV)*%
X150110000Y-112030000D03*
%TD*%
D10*
%TO.P,J1,1,Pin_1*%
%TO.N,GND*%
X96650000Y-144500000D03*
D11*
%TO.P,J1,2,Pin_2*%
%TO.N,RTSA*%
X99190000Y-144500000D03*
%TO.P,J1,3,Pin_3*%
%TO.N,VCCUA*%
X101730000Y-144500000D03*
%TO.P,J1,4,Pin_4*%
%TO.N,RXDA*%
X104270000Y-144500000D03*
%TO.P,J1,5,Pin_5*%
%TO.N,TXDA*%
X106810000Y-144500000D03*
%TO.P,J1,6,Pin_6*%
%TO.N,CTSA*%
X109350000Y-144500000D03*
%TD*%
D12*
%TO.P,C3,1*%
%TO.N,GND*%
X142108300Y-55500000D03*
%TO.P,C3,2*%
%TO.N,VCC*%
X144608300Y-55500000D03*
%TD*%
%TO.P,R9,1*%
%TO.N,Net-(S1-S)*%
X154140000Y-103000000D03*
D15*
%TO.P,R9,2*%
%TO.N,GND*%
X164300000Y-103000000D03*
%TD*%
D12*
%TO.P,C15,1*%
%TO.N,GND*%
X124910000Y-102670000D03*
%TO.P,C15,2*%
%TO.N,VCC*%
X127410000Y-102670000D03*
%TD*%
%TO.P,R10,1*%
%TO.N,VCC*%
X98550000Y-113830000D03*
D15*
%TO.P,R10,2*%
%TO.N,Net-(X1-EN)*%
X108710000Y-113830000D03*
%TD*%
D12*
%TO.P,C1,1*%
%TO.N,GND*%
X97858300Y-55500000D03*
%TO.P,C1,2*%
%TO.N,VCC*%
X100358300Y-55500000D03*
%TD*%
D16*
%TO.P,U4,1,~{Mr}*%
%TO.N,~{RESET}*%
X164450000Y-127130000D03*
D17*
%TO.P,U4,2,Q0*%
%TO.N,BANK0*%
X164450000Y-129670000D03*
%TO.P,U4,3,D0*%
%TO.N,D0*%
X164450000Y-132210000D03*
%TO.P,U4,4,D1*%
%TO.N,D1*%
X164450000Y-134750000D03*
%TO.P,U4,5,Q1*%
%TO.N,BANK1*%
X164450000Y-137290000D03*
%TO.P,U4,6,D2*%
%TO.N,D2*%
X164450000Y-139830000D03*
%TO.P,U4,7,Q2*%
%TO.N,BANK2*%
X164450000Y-142370000D03*
%TO.P,U4,8,GND*%
%TO.N,GND*%
X164450000Y-144910000D03*
%TO.P,U4,9,Cp*%
%TO.N,BANKCLK*%
X172070000Y-144910000D03*
%TO.P,U4,10,Q3*%
%TO.N,BANK3*%
X172070000Y-142370000D03*
%TO.P,U4,11,D3*%
%TO.N,D3*%
X172070000Y-139830000D03*
%TO.P,U4,12,Q4*%
%TO.N,BANK5*%
X172070000Y-137290000D03*
%TO.P,U4,13,D4*%
%TO.N,D5*%
X172070000Y-134750000D03*
%TO.P,U4,14,D5*%
%TO.N,D4*%
X172070000Y-132210000D03*
%TO.P,U4,15,Q5*%
%TO.N,BANK4*%
X172070000Y-129670000D03*
%TO.P,U4,16,VCC*%
%TO.N,VCC*%
X172070000Y-127130000D03*
%TD*%
D16*
%TO.P,U2,1,A14*%
%TO.N,GND*%
X157430000Y-60500000D03*
D17*
%TO.P,U2,2,A12*%
%TO.N,A12*%
X157430000Y-63040000D03*
%TO.P,U2,3,A7*%
%TO.N,A7*%
X157430000Y-65580000D03*
%TO.P,U2,4,A6*%
%TO.N,A6*%
X157430000Y-68120000D03*
%TO.P,U2,5,A5*%
%TO.N,A5*%
X157430000Y-70660000D03*
%TO.P,U2,6,A4*%
%TO.N,A4*%
X157430000Y-73200000D03*
%TO.P,U2,7,A3*%
%TO.N,A3*%
X157430000Y-75740000D03*
%TO.P,U2,8,A2*%
%TO.N,A2*%
X157430000Y-78280000D03*
%TO.P,U2,9,A1*%
%TO.N,A1*%
X157430000Y-80820000D03*
%TO.P,U2,10,A0*%
%TO.N,A0*%
X157430000Y-83360000D03*
%TO.P,U2,11,DQ0*%
%TO.N,D0*%
X157430000Y-85900000D03*
%TO.P,U2,12,DQ1*%
%TO.N,D1*%
X157430000Y-88440000D03*
%TO.P,U2,13,DQ2*%
%TO.N,D2*%
X157430000Y-90980000D03*
%TO.P,U2,14,VSS*%
%TO.N,GND*%
X157430000Y-93520000D03*
%TO.P,U2,15,DQ3*%
%TO.N,D3*%
X172670000Y-93520000D03*
%TO.P,U2,16,DQ4*%
%TO.N,D4*%
X172670000Y-90980000D03*
%TO.P,U2,17,DQ5*%
%TO.N,D5*%
X172670000Y-88440000D03*
%TO.P,U2,18,DQ6*%
%TO.N,D6*%
X172670000Y-85900000D03*
%TO.P,U2,19,DQ7*%
%TO.N,D7*%
X172670000Y-83360000D03*
%TO.P,U2,20,CE#*%
%TO.N,~{LOWRAM}*%
X172670000Y-80820000D03*
%TO.P,U2,21,A10*%
%TO.N,A10*%
X172670000Y-78280000D03*
%TO.P,U2,22,OE#*%
%TO.N,~{RD}*%
X172670000Y-75740000D03*
%TO.P,U2,23,A11*%
%TO.N,A11*%
X172670000Y-73200000D03*
%TO.P,U2,24,A9*%
%TO.N,A9*%
X172670000Y-70660000D03*
%TO.P,U2,25,A8*%
%TO.N,A8*%
X172670000Y-68120000D03*
%TO.P,U2,26,A13*%
%TO.N,A13*%
X172670000Y-65580000D03*
%TO.P,U2,27,WE#*%
%TO.N,~{WR}*%
X172670000Y-63040000D03*
%TO.P,U2,28,VCC*%
%TO.N,VCC*%
X172670000Y-60500000D03*
%TD*%
D16*
%TO.P,IC2,1,I1/CLK*%
%TO.N,A15*%
X138250000Y-117030000D03*
D17*
%TO.P,IC2,2,I2*%
%TO.N,A14*%
X138250000Y-119570000D03*
%TO.P,IC2,3,I3*%
%TO.N,A13*%
X138250000Y-122110000D03*
%TO.P,IC2,4,I4/PD*%
%TO.N,A12*%
X138250000Y-124650000D03*
%TO.P,IC2,5,I5*%
%TO.N,A11*%
X138250000Y-127190000D03*
%TO.P,IC2,6,I6*%
%TO.N,A10*%
X138250000Y-129730000D03*
%TO.P,IC2,7,I7*%
%TO.N,A9*%
X138250000Y-132270000D03*
%TO.P,IC2,8,I8*%
%TO.N,A8*%
X138250000Y-134810000D03*
%TO.P,IC2,9,I9*%
%TO.N,A7*%
X138250000Y-137350000D03*
%TO.P,IC2,10,I10*%
%TO.N,A6*%
X138250000Y-139890000D03*
%TO.P,IC2,11,I11*%
%TO.N,A5*%
X138250000Y-142430000D03*
%TO.P,IC2,12,GND*%
%TO.N,GND*%
X138250000Y-144970000D03*
%TO.P,IC2,13,I13*%
%TO.N,A4*%
X145870000Y-144970000D03*
%TO.P,IC2,14,IO1*%
%TO.N,A3*%
X145870000Y-142430000D03*
%TO.P,IC2,15,IO2*%
%TO.N,A2*%
X145870000Y-139890000D03*
%TO.P,IC2,16,IO3*%
%TO.N,A1*%
X145870000Y-137350000D03*
%TO.P,IC2,17,I04*%
%TO.N,A0*%
X145870000Y-134810000D03*
%TO.P,IC2,18,IO5*%
%TO.N,~{LOWRAM}*%
X145870000Y-132270000D03*
%TO.P,IC2,19,IO6*%
%TO.N,~{BANKRAM}*%
X145870000Y-129730000D03*
%TO.P,IC2,20,IO7*%
%TO.N,~{IO}*%
X145870000Y-127190000D03*
%TO.P,IC2,21,IO8*%
%TO.N,~{ROM}*%
X145870000Y-124650000D03*
%TO.P,IC2,22,IO9*%
%TO.N,BANKSEL*%
X145870000Y-122110000D03*
%TO.P,IC2,23,IO10*%
%TO.N,~{DUASEL}*%
X145870000Y-119570000D03*
%TO.P,IC2,24,VCC*%
%TO.N,VCC*%
X145870000Y-117030000D03*
%TD*%
D18*
%TO.P,X1,1,EN*%
%TO.N,Net-(X1-EN)*%
X113000000Y-112310000D03*
D12*
%TO.P,X1,4,GND*%
%TO.N,GND*%
X120620000Y-112310000D03*
%TO.P,X1,5,OUT*%
%TO.N,CLK*%
X120620000Y-104690000D03*
%TO.P,X1,8,Vcc*%
%TO.N,VCC*%
X113000000Y-104690000D03*
%TD*%
%TO.P,R1,1*%
%TO.N,VCC*%
X88000000Y-60580000D03*
D15*
%TO.P,R1,2*%
%TO.N,RDY*%
X88000000Y-70740000D03*
%TD*%
D19*
%TO.P,H4,1,1*%
%TO.N,GND*%
X179550000Y-144550000D03*
%TD*%
D18*
%TO.P,C20,1*%
%TO.N,Net-(IC4-THR)*%
X170000000Y-103000000D03*
D12*
%TO.P,C20,2*%
%TO.N,GND*%
X172500000Y-103000000D03*
%TD*%
D10*
%TO.P,J3,1,Pin_1*%
%TO.N,SPICS*%
X117000000Y-119650000D03*
D11*
%TO.P,J3,2,Pin_2*%
%TO.N,SPICLK*%
X117000000Y-122190000D03*
%TO.P,J3,3,Pin_3*%
%TO.N,SPIMOSI*%
X117000000Y-124730000D03*
%TO.P,J3,4,Pin_4*%
%TO.N,SPIMISO*%
X117000000Y-127270000D03*
%TO.P,J3,5,Pin_5*%
%TO.N,VCC*%
X117000000Y-129810000D03*
%TO.P,J3,6,Pin_6*%
%TO.N,GND*%
X117000000Y-132350000D03*
%TD*%
D10*
%TO.P,JP2,1,A*%
%TO.N,VCCUB*%
X87250000Y-112725000D03*
D11*
%TO.P,JP2,2,B*%
%TO.N,VCC*%
X87250000Y-115265000D03*
%TD*%
D12*
%TO.P,R8,1*%
%TO.N,Net-(IC4-THR)*%
X154140000Y-107000000D03*
D15*
%TO.P,R8,2*%
%TO.N,VCC*%
X164300000Y-107000000D03*
%TD*%
D20*
%TO.P,Q1,1,1*%
%TO.N,Net-(IC3-X1{slash}CLK)*%
X125550000Y-119000000D03*
%TO.P,Q1,2,2*%
%TO.N,Net-(IC3-X2)*%
X130430000Y-119000000D03*
%TD*%
D16*
%TO.P,IC5,1,I1/CLK*%
%TO.N,CLK*%
X151450000Y-117055000D03*
D17*
%TO.P,IC5,2,I2*%
%TO.N,~{DUADTACK}*%
X151450000Y-119595000D03*
%TO.P,IC5,3,I3*%
%TO.N,~{DUASEL}*%
X151450000Y-122135000D03*
%TO.P,IC5,4,I4/PD*%
%TO.N,R{slash}~{W}*%
X151450000Y-124675000D03*
%TO.P,IC5,5,I5*%
%TO.N,HWRST*%
X151450000Y-127215000D03*
%TO.P,IC5,6,I6*%
%TO.N,BANKSEL*%
X151450000Y-129755000D03*
%TO.P,IC5,7,I7*%
%TO.N,~{VP}*%
X151450000Y-132295000D03*
%TO.P,IC5,8,I8*%
%TO.N,~{ML}*%
X151450000Y-134835000D03*
%TO.P,IC5,9,I9*%
%TO.N,IRQ*%
X151450000Y-137375000D03*
%TO.P,IC5,10,I10*%
%TO.N,~{ROM}*%
X151450000Y-139915000D03*
%TO.P,IC5,11,I11*%
%TO.N,~{IO}*%
X151450000Y-142455000D03*
%TO.P,IC5,12,GND*%
%TO.N,GND*%
X151450000Y-144995000D03*
%TO.P,IC5,13,I13*%
%TO.N,unconnected-(IC5-I13-Pad13)*%
X159070000Y-144995000D03*
%TO.P,IC5,14,IO1*%
%TO.N,BANKCLK*%
X159070000Y-142455000D03*
%TO.P,IC5,15,IO2*%
%TO.N,unconnected-(IC5-IO2-Pad15)*%
X159070000Y-139915000D03*
%TO.P,IC5,16,IO3*%
%TO.N,unconnected-(IC5-IO3-Pad16)*%
X159070000Y-137375000D03*
%TO.P,IC5,17,I04*%
%TO.N,~{ROMOE}*%
X159070000Y-134835000D03*
%TO.P,IC5,18,IO5*%
%TO.N,unconnected-(IC5-IO5-Pad18)*%
X159070000Y-132295000D03*
%TO.P,IC5,19,IO6*%
%TO.N,NMI*%
X159070000Y-129755000D03*
%TO.P,IC5,20,IO7*%
%TO.N,~{RESET}*%
X159070000Y-127215000D03*
%TO.P,IC5,21,IO8*%
%TO.N,~{RD}*%
X159070000Y-124675000D03*
%TO.P,IC5,22,IO9*%
%TO.N,~{WR}*%
X159070000Y-122135000D03*
%TO.P,IC5,23,IO10*%
%TO.N,RDY*%
X159070000Y-119595000D03*
%TO.P,IC5,24,VCC*%
%TO.N,VCC*%
X159070000Y-117055000D03*
%TD*%
D12*
%TO.P,C4,1*%
%TO.N,GND*%
X163858300Y-55500000D03*
%TO.P,C4,2*%
%TO.N,VCC*%
X166358300Y-55500000D03*
%TD*%
%TO.P,C8,1*%
%TO.N,GND*%
X154500000Y-112030000D03*
%TO.P,C8,2*%
%TO.N,VCC*%
X157000000Y-112030000D03*
%TD*%
D19*
%TO.P,H1,1,1*%
%TO.N,GND*%
X88450000Y-53450000D03*
%TD*%
D12*
%TO.P,R4,1*%
%TO.N,VCC*%
X88000000Y-97920000D03*
D15*
%TO.P,R4,2*%
%TO.N,NMI*%
X88000000Y-108080000D03*
%TD*%
D21*
%TO.P,C13,1*%
%TO.N,GND*%
X121190000Y-126000000D03*
X123730000Y-126000000D03*
%TO.P,C13,2*%
%TO.N,Net-(IC3-X1{slash}CLK)*%
X126270000Y-126000000D03*
%TD*%
D12*
%TO.P,R3,1*%
%TO.N,VCC*%
X88000000Y-85500000D03*
D15*
%TO.P,R3,2*%
%TO.N,IRQ*%
X88000000Y-95660000D03*
%TD*%
D18*
%TO.P,C16,1*%
%TO.N,VCC*%
X103997621Y-54860000D03*
D12*
%TO.P,C16,2*%
%TO.N,GND*%
X106497621Y-54860000D03*
%TD*%
D10*
%TO.P,J5,1,Pin_1*%
%TO.N,A0*%
X178225000Y-63425000D03*
D11*
%TO.P,J5,2,Pin_2*%
%TO.N,VCC*%
X180765000Y-63425000D03*
%TO.P,J5,3,Pin_3*%
%TO.N,A1*%
X178225000Y-65965000D03*
%TO.P,J5,4,Pin_4*%
%TO.N,CLK*%
X180765000Y-65965000D03*
%TO.P,J5,5,Pin_5*%
%TO.N,A2*%
X178225000Y-68505000D03*
%TO.P,J5,6,Pin_6*%
%TO.N,GND*%
X180765000Y-68505000D03*
%TO.P,J5,7,Pin_7*%
%TO.N,A3*%
X178225000Y-71045000D03*
%TO.P,J5,8,Pin_8*%
%TO.N,R{slash}~{W}*%
X180765000Y-71045000D03*
%TO.P,J5,9,Pin_9*%
%TO.N,A4*%
X178225000Y-73585000D03*
%TO.P,J5,10,Pin_10*%
%TO.N,~{RESET}*%
X180765000Y-73585000D03*
%TO.P,J5,11,Pin_11*%
%TO.N,A5*%
X178225000Y-76125000D03*
%TO.P,J5,12,Pin_12*%
%TO.N,RDY*%
X180765000Y-76125000D03*
%TO.P,J5,13,Pin_13*%
%TO.N,A6*%
X178225000Y-78665000D03*
%TO.P,J5,14,Pin_14*%
%TO.N,NMI*%
X180765000Y-78665000D03*
%TO.P,J5,15,Pin_15*%
%TO.N,A7*%
X178225000Y-81205000D03*
%TO.P,J5,16,Pin_16*%
%TO.N,IRQ*%
X180765000Y-81205000D03*
%TO.P,J5,17,Pin_17*%
%TO.N,A8*%
X178225000Y-83745000D03*
%TO.P,J5,18,Pin_18*%
%TO.N,SYNC*%
X180765000Y-83745000D03*
%TO.P,J5,19,Pin_19*%
%TO.N,A9*%
X178225000Y-86285000D03*
%TO.P,J5,20,Pin_20*%
%TO.N,BE*%
X180765000Y-86285000D03*
%TO.P,J5,21,Pin_21*%
%TO.N,A10*%
X178225000Y-88825000D03*
%TO.P,J5,22,Pin_22*%
%TO.N,D7*%
X180765000Y-88825000D03*
%TO.P,J5,23,Pin_23*%
%TO.N,A11*%
X178225000Y-91365000D03*
%TO.P,J5,24,Pin_24*%
%TO.N,D6*%
X180765000Y-91365000D03*
%TO.P,J5,25,Pin_25*%
%TO.N,A12*%
X178225000Y-93905000D03*
%TO.P,J5,26,Pin_26*%
%TO.N,D5*%
X180765000Y-93905000D03*
%TO.P,J5,27,Pin_27*%
%TO.N,A13*%
X178225000Y-96445000D03*
%TO.P,J5,28,Pin_28*%
%TO.N,D4*%
X180765000Y-96445000D03*
%TO.P,J5,29,Pin_29*%
%TO.N,A14*%
X178225000Y-98985000D03*
%TO.P,J5,30,Pin_30*%
%TO.N,D3*%
X180765000Y-98985000D03*
%TO.P,J5,31,Pin_31*%
%TO.N,A15*%
X178225000Y-101525000D03*
%TO.P,J5,32,Pin_32*%
%TO.N,D2*%
X180765000Y-101525000D03*
%TO.P,J5,33,Pin_33*%
%TO.N,~{VP}*%
X178225000Y-104065000D03*
%TO.P,J5,34,Pin_34*%
%TO.N,D1*%
X180765000Y-104065000D03*
%TO.P,J5,35,Pin_35*%
%TO.N,~{ML}*%
X178225000Y-106605000D03*
%TO.P,J5,36,Pin_36*%
%TO.N,D0*%
X180765000Y-106605000D03*
%TD*%
D18*
%TO.P,C17,1*%
%TO.N,VCC*%
X176338600Y-124500000D03*
D12*
%TO.P,C17,2*%
%TO.N,GND*%
X178838600Y-124500000D03*
%TD*%
%TO.P,R7,1*%
%TO.N,VCC*%
X154140000Y-99000000D03*
D15*
%TO.P,R7,2*%
%TO.N,~{RESET}*%
X164300000Y-99000000D03*
%TD*%
D18*
%TO.P,IC4,1,GND*%
%TO.N,GND*%
X129700000Y-103700000D03*
D15*
%TO.P,IC4,2,TR*%
%TO.N,Net-(IC4-THR)*%
X129700000Y-106240000D03*
%TO.P,IC4,3,Q*%
%TO.N,HWRST*%
X129700000Y-108780000D03*
%TO.P,IC4,4,R*%
%TO.N,VCC*%
X129700000Y-111320000D03*
%TO.P,IC4,5,CV*%
%TO.N,Net-(IC4-CV)*%
X137320000Y-111320000D03*
%TO.P,IC4,6,THR*%
%TO.N,Net-(IC4-THR)*%
X137320000Y-108780000D03*
%TO.P,IC4,7,DIS*%
%TO.N,unconnected-(IC4-DIS-Pad7)*%
X137320000Y-106240000D03*
%TO.P,IC4,8,VCC*%
%TO.N,VCC*%
X137320000Y-103700000D03*
%TD*%
D10*
%TO.P,J2,1,Pin_1*%
%TO.N,GND*%
X87000000Y-121650000D03*
D11*
%TO.P,J2,2,Pin_2*%
%TO.N,RTSB*%
X87000000Y-124190000D03*
%TO.P,J2,3,Pin_3*%
%TO.N,VCCUB*%
X87000000Y-126730000D03*
%TO.P,J2,4,Pin_4*%
%TO.N,RXDB*%
X87000000Y-129270000D03*
%TO.P,J2,5,Pin_5*%
%TO.N,TXDB*%
X87000000Y-131810000D03*
%TO.P,J2,6,Pin_6*%
%TO.N,CTSB*%
X87000000Y-134350000D03*
%TD*%
D16*
%TO.P,U3,1,NC*%
%TO.N,unconnected-(U3-NC-Pad1)*%
X135470000Y-60500000D03*
D17*
%TO.P,U3,2,A16*%
%TO.N,Net-(JP4-B)*%
X135470000Y-63040000D03*
%TO.P,U3,3,A15*%
%TO.N,BANK5*%
X135470000Y-65580000D03*
%TO.P,U3,4,A12*%
%TO.N,A12*%
X135470000Y-68120000D03*
%TO.P,U3,5,A7*%
%TO.N,A7*%
X135470000Y-70660000D03*
%TO.P,U3,6,A6*%
%TO.N,A6*%
X135470000Y-73200000D03*
%TO.P,U3,7,A5*%
%TO.N,A5*%
X135470000Y-75740000D03*
%TO.P,U3,8,A4*%
%TO.N,A4*%
X135470000Y-78280000D03*
%TO.P,U3,9,A3*%
%TO.N,A3*%
X135470000Y-80820000D03*
%TO.P,U3,10,A2*%
%TO.N,A2*%
X135470000Y-83360000D03*
%TO.P,U3,11,A1*%
%TO.N,A1*%
X135470000Y-85900000D03*
%TO.P,U3,12,A0*%
%TO.N,A0*%
X135470000Y-88440000D03*
%TO.P,U3,13,D0*%
%TO.N,D0*%
X135470000Y-90980000D03*
%TO.P,U3,14,D1*%
%TO.N,D1*%
X135470000Y-93520000D03*
%TO.P,U3,15,D2*%
%TO.N,D2*%
X135470000Y-96060000D03*
%TO.P,U3,16,GND*%
%TO.N,GND*%
X135470000Y-98600000D03*
%TO.P,U3,17,D3*%
%TO.N,D3*%
X150710000Y-98600000D03*
%TO.P,U3,18,D4*%
%TO.N,D4*%
X150710000Y-96060000D03*
%TO.P,U3,19,D5*%
%TO.N,D5*%
X150710000Y-93520000D03*
%TO.P,U3,20,D6*%
%TO.N,D6*%
X150710000Y-90980000D03*
%TO.P,U3,21,D7*%
%TO.N,D7*%
X150710000Y-88440000D03*
%TO.P,U3,22,CE*%
%TO.N,~{ROMOE}*%
X150710000Y-85900000D03*
%TO.P,U3,23,A10*%
%TO.N,A10*%
X150710000Y-83360000D03*
%TO.P,U3,24,OE*%
%TO.N,~{RD}*%
X150710000Y-80820000D03*
%TO.P,U3,25,A11*%
%TO.N,A11*%
X150710000Y-78280000D03*
%TO.P,U3,26,A9*%
%TO.N,A9*%
X150710000Y-75740000D03*
%TO.P,U3,27,A8*%
%TO.N,A8*%
X150710000Y-73200000D03*
%TO.P,U3,28,A13*%
%TO.N,A13*%
X150710000Y-70660000D03*
%TO.P,U3,29,A14*%
%TO.N,BANK4*%
X150710000Y-68120000D03*
%TO.P,U3,30,NC*%
%TO.N,unconnected-(U3-NC-Pad30)*%
X150710000Y-65580000D03*
%TO.P,U3,31,PGM*%
%TO.N,~{WR}*%
X150710000Y-63040000D03*
%TO.P,U3,32,VCC*%
%TO.N,VCC*%
X150710000Y-60500000D03*
%TD*%
D21*
%TO.P,C14,1*%
%TO.N,GND*%
X129190000Y-126000000D03*
X131730000Y-126000000D03*
%TO.P,C14,2*%
%TO.N,Net-(IC3-X2)*%
X134270000Y-126000000D03*
%TD*%
D22*
%TO.P,S1,1,S*%
%TO.N,Net-(S1-S)*%
X141788800Y-103739400D03*
%TO.P,S1,2,S1*%
%TO.N,unconnected-(S1-S1-Pad2)*%
X148291200Y-103739400D03*
%TO.P,S1,3,P*%
%TO.N,Net-(IC4-THR)*%
X141788800Y-108260600D03*
%TO.P,S1,4,P1*%
%TO.N,unconnected-(S1-P1-Pad4)*%
X148291200Y-108260600D03*
%TD*%
D18*
%TO.P,C18,1*%
%TO.N,VCC*%
X178000000Y-132000000D03*
D12*
%TO.P,C18,2*%
%TO.N,GND*%
X180500000Y-132000000D03*
%TD*%
D19*
%TO.P,H3,1,1*%
%TO.N,GND*%
X88450000Y-144550000D03*
%TD*%
D10*
%TO.P,JP1,1,A*%
%TO.N,VCCUA*%
X116000000Y-142725000D03*
D11*
%TO.P,JP1,2,B*%
%TO.N,VCC*%
X116000000Y-145265000D03*
%TD*%
D19*
%TO.P,H2,1,1*%
%TO.N,GND*%
X179550000Y-53450000D03*
%TD*%
D12*
%TO.P,R5,1*%
%TO.N,Net-(LED1-A)*%
X122695000Y-134743900D03*
D15*
%TO.P,R5,2*%
%TO.N,VCC*%
X132855000Y-134743900D03*
%TD*%
D12*
%TO.P,R12,1*%
%TO.N,VCC*%
X132855000Y-130987800D03*
D15*
%TO.P,R12,2*%
%TO.N,Net-(IC3-\u002AIACK)*%
X122695000Y-130987800D03*
%TD*%
D12*
%TO.P,R6,1*%
%TO.N,VCC*%
X122695000Y-138500000D03*
D15*
%TO.P,R6,2*%
%TO.N,Net-(LED2-A)*%
X132855000Y-138500000D03*
%TD*%
D23*
%TO.P,J7,1*%
%TO.N,VCC*%
X169320000Y-114957500D03*
D24*
%TO.P,J7,2*%
%TO.N,GND*%
X175320000Y-114957500D03*
D25*
%TO.P,J7,3*%
%TO.N,N/C*%
X172320000Y-110257500D03*
%TD*%
D10*
%TO.P,J4,1,Pin_1*%
%TO.N,SPICS2*%
X117000000Y-137500000D03*
%TD*%
D26*
%TO.P,IC3,1,NC*%
%TO.N,unconnected-(IC3-NC-Pad1)*%
X103270000Y-121650000D03*
D27*
%TO.P,IC3,2,A1*%
%TO.N,A0*%
X100730000Y-119110000D03*
%TO.P,IC3,3,IP3*%
%TO.N,GND*%
X100730000Y-121650000D03*
%TO.P,IC3,4,A2*%
%TO.N,A1*%
X98190000Y-119110000D03*
%TO.P,IC3,5,IP1*%
%TO.N,CTSB*%
X98190000Y-121650000D03*
%TO.P,IC3,6,A3*%
%TO.N,A2*%
X95650000Y-119110000D03*
%TO.P,IC3,7,A4*%
%TO.N,A3*%
X93110000Y-121650000D03*
%TO.P,IC3,8,IP0*%
%TO.N,CTSA*%
X95650000Y-121650000D03*
%TO.P,IC3,9,\u002AR/\u002AW*%
%TO.N,R{slash}~{W}*%
X93110000Y-124190000D03*
%TO.P,IC3,10,\u002ADTALK*%
%TO.N,~{DUADTACK}*%
X95650000Y-124190000D03*
%TO.P,IC3,11,RXDB*%
%TO.N,RXDB*%
X93110000Y-126730000D03*
%TO.P,IC3,12,NC*%
%TO.N,unconnected-(IC3-NC-Pad12)*%
X95650000Y-126730000D03*
%TO.P,IC3,13,TXDB*%
%TO.N,TXDB*%
X93110000Y-129270000D03*
%TO.P,IC3,14,OP1*%
%TO.N,RTSB*%
X95650000Y-129270000D03*
%TO.P,IC3,15,OP3*%
%TO.N,Net-(IC3-OP3)*%
X93110000Y-131810000D03*
%TO.P,IC3,16,OP5*%
%TO.N,Net-(IC3-OP5)*%
X95650000Y-131810000D03*
%TO.P,IC3,17,OP7*%
%TO.N,SPICS2*%
X93110000Y-134350000D03*
%TO.P,IC3,18,D1*%
%TO.N,D1*%
X95650000Y-136890000D03*
%TO.P,IC3,19,D3*%
%TO.N,D3*%
X95650000Y-134350000D03*
%TO.P,IC3,20,D5*%
%TO.N,D5*%
X98190000Y-136890000D03*
%TO.P,IC3,21,D7*%
%TO.N,D7*%
X98190000Y-134350000D03*
%TO.P,IC3,22,GND*%
%TO.N,GND*%
X100730000Y-136890000D03*
%TO.P,IC3,23,NC*%
%TO.N,unconnected-(IC3-NC-Pad23)*%
X100730000Y-134350000D03*
%TO.P,IC3,24,INTR*%
%TO.N,IRQ*%
X103270000Y-136890000D03*
%TO.P,IC3,25,D6*%
%TO.N,D6*%
X103270000Y-134350000D03*
%TO.P,IC3,26,D4*%
%TO.N,D4*%
X105810000Y-136890000D03*
%TO.P,IC3,27,D2*%
%TO.N,D2*%
X105810000Y-134350000D03*
%TO.P,IC3,28,D0*%
%TO.N,D0*%
X108350000Y-136890000D03*
%TO.P,IC3,29,OP6*%
%TO.N,SPIMOSI*%
X110890000Y-134350000D03*
%TO.P,IC3,30,OP4*%
%TO.N,SPICLK*%
X108350000Y-134350000D03*
%TO.P,IC3,31,OP2*%
%TO.N,SPICS*%
X110890000Y-131810000D03*
%TO.P,IC3,32,OP0*%
%TO.N,RTSA*%
X108350000Y-131810000D03*
%TO.P,IC3,33,TXDA*%
%TO.N,TXDA*%
X110890000Y-129270000D03*
%TO.P,IC3,34,NC*%
%TO.N,unconnected-(IC3-NC-Pad34)*%
X108350000Y-129270000D03*
%TO.P,IC3,35,RXDA*%
%TO.N,RXDA*%
X110890000Y-126730000D03*
%TO.P,IC3,36,X1/CLK*%
%TO.N,Net-(IC3-X1{slash}CLK)*%
X108350000Y-126730000D03*
%TO.P,IC3,37,X2*%
%TO.N,Net-(IC3-X2)*%
X110890000Y-124190000D03*
%TO.P,IC3,38,\u002ARESET*%
%TO.N,~{RESET}*%
X108350000Y-124190000D03*
%TO.P,IC3,39,CS*%
%TO.N,~{DUASEL}*%
X110890000Y-121650000D03*
%TO.P,IC3,40,IP2*%
%TO.N,SPIMISO*%
X108350000Y-119110000D03*
%TO.P,IC3,41,\u002AIACK*%
%TO.N,Net-(IC3-\u002AIACK)*%
X108350000Y-121650000D03*
%TO.P,IC3,42,IP5*%
%TO.N,unconnected-(IC3-IP5-Pad42)*%
X105810000Y-119110000D03*
%TO.P,IC3,43,IP4*%
%TO.N,unconnected-(IC3-IP4-Pad43)*%
X105810000Y-121650000D03*
%TO.P,IC3,44,VCC*%
%TO.N,VCC*%
X103270000Y-119110000D03*
%TD*%
D12*
%TO.P,R11,1*%
%TO.N,VCC*%
X163080000Y-109560000D03*
D15*
%TO.P,R11,2*%
%TO.N,~{DUADTACK}*%
X163080000Y-119720000D03*
%TD*%
D12*
%TO.P,C2,1*%
%TO.N,GND*%
X119875000Y-55500000D03*
%TO.P,C2,2*%
%TO.N,VCC*%
X122375000Y-55500000D03*
%TD*%
%TO.P,C11,1*%
%TO.N,GND*%
X125500000Y-109750000D03*
%TO.P,C11,2*%
%TO.N,VCC*%
X125500000Y-107250000D03*
%TD*%
%TO.P,C12,1*%
%TO.N,GND*%
X141000000Y-112030000D03*
%TO.P,C12,2*%
%TO.N,VCC*%
X143500000Y-112030000D03*
%TD*%
%TO.P,R2,1*%
%TO.N,VCC*%
X88000000Y-73000000D03*
D15*
%TO.P,R2,2*%
%TO.N,BE*%
X88000000Y-83160000D03*
%TD*%
D10*
%TO.P,J6,1,Pin_1*%
%TO.N,VCC*%
X178015000Y-138330000D03*
D11*
%TO.P,J6,2,Pin_2*%
%TO.N,GND*%
X180555000Y-138330000D03*
%TD*%
D16*
%TO.P,IC1,1,~{VP}*%
%TO.N,~{VP}*%
X91608300Y-60500000D03*
D17*
%TO.P,IC1,2,RDY*%
%TO.N,RDY*%
X91608300Y-63040000D03*
%TO.P,IC1,3,\u03D51*%
%TO.N,unconnected-(IC1-\u03D51-Pad3)*%
X91608300Y-65580000D03*
%TO.P,IC1,4,~{IRQ}*%
%TO.N,IRQ*%
X91608300Y-68120000D03*
%TO.P,IC1,5,~{ML}*%
%TO.N,~{ML}*%
X91608300Y-70660000D03*
%TO.P,IC1,6,~{NMI}*%
%TO.N,NMI*%
X91608300Y-73200000D03*
%TO.P,IC1,7,SYNC*%
%TO.N,SYNC*%
X91608300Y-75740000D03*
%TO.P,IC1,8,VDD*%
%TO.N,VCC*%
X91608300Y-78280000D03*
%TO.P,IC1,9,A0*%
%TO.N,A0*%
X91608300Y-80820000D03*
%TO.P,IC1,10,A1*%
%TO.N,A1*%
X91608300Y-83360000D03*
%TO.P,IC1,11,A2*%
%TO.N,A2*%
X91608300Y-85900000D03*
%TO.P,IC1,12,A3*%
%TO.N,A3*%
X91608300Y-88440000D03*
%TO.P,IC1,13,A4*%
%TO.N,A4*%
X91608300Y-90980000D03*
%TO.P,IC1,14,A5*%
%TO.N,A5*%
X91608300Y-93520000D03*
%TO.P,IC1,15,A6*%
%TO.N,A6*%
X91608300Y-96060000D03*
%TO.P,IC1,16,A7*%
%TO.N,A7*%
X91608300Y-98600000D03*
%TO.P,IC1,17,A8*%
%TO.N,A8*%
X91608300Y-101140000D03*
%TO.P,IC1,18,A9*%
%TO.N,A9*%
X91608300Y-103680000D03*
%TO.P,IC1,19,A10*%
%TO.N,A10*%
X91608300Y-106220000D03*
%TO.P,IC1,20,A11*%
%TO.N,A11*%
X91608300Y-108760000D03*
%TO.P,IC1,21,VSS*%
%TO.N,GND*%
X106848300Y-108760000D03*
%TO.P,IC1,22,A12*%
%TO.N,A12*%
X106848300Y-106220000D03*
%TO.P,IC1,23,A13*%
%TO.N,A13*%
X106848300Y-103680000D03*
%TO.P,IC1,24,A14*%
%TO.N,A14*%
X106848300Y-101140000D03*
%TO.P,IC1,25,A15*%
%TO.N,A15*%
X106848300Y-98600000D03*
%TO.P,IC1,26,D7*%
%TO.N,D7*%
X106848300Y-96060000D03*
%TO.P,IC1,27,D6*%
%TO.N,D6*%
X106848300Y-93520000D03*
%TO.P,IC1,28,D5*%
%TO.N,D5*%
X106848300Y-90980000D03*
%TO.P,IC1,29,D4*%
%TO.N,D4*%
X106848300Y-88440000D03*
%TO.P,IC1,30,D3*%
%TO.N,D3*%
X106848300Y-85900000D03*
%TO.P,IC1,31,D2*%
%TO.N,D2*%
X106848300Y-83360000D03*
%TO.P,IC1,32,D1*%
%TO.N,D1*%
X106848300Y-80820000D03*
%TO.P,IC1,33,D0*%
%TO.N,D0*%
X106848300Y-78280000D03*
%TO.P,IC1,34,R/~{W}*%
%TO.N,R{slash}~{W}*%
X106848300Y-75740000D03*
%TO.P,IC1,35,nc*%
%TO.N,unconnected-(IC1-nc-Pad35)*%
X106848300Y-73200000D03*
%TO.P,IC1,36,BE*%
%TO.N,BE*%
X106848300Y-70660000D03*
%TO.P,IC1,37,\u03D50*%
%TO.N,CLK*%
X106848300Y-68120000D03*
%TO.P,IC1,38,~{SO}*%
%TO.N,VCC*%
X106848300Y-65580000D03*
%TO.P,IC1,39,\u03D52*%
%TO.N,unconnected-(IC1-\u03D52-Pad39)*%
X106848300Y-63040000D03*
%TO.P,IC1,40,~{RES}*%
%TO.N,~{RESET}*%
X106848300Y-60500000D03*
%TD*%
D13*
%TO.P,LED2,1,K*%
%TO.N,Net-(IC3-OP3)*%
X131000000Y-145000000D03*
D14*
%TO.P,LED2,2,A*%
%TO.N,Net-(LED2-A)*%
X133540000Y-145000000D03*
%TD*%
D16*
%TO.P,U1,1,A18*%
%TO.N,BANK3*%
X113500000Y-60500000D03*
D17*
%TO.P,U1,2,A16*%
%TO.N,BANK1*%
X113500000Y-63040000D03*
%TO.P,U1,3,A14*%
%TO.N,A15*%
X113500000Y-65580000D03*
%TO.P,U1,4,A12*%
%TO.N,A12*%
X113500000Y-68120000D03*
%TO.P,U1,5,A7*%
%TO.N,A7*%
X113500000Y-70660000D03*
%TO.P,U1,6,A6*%
%TO.N,A6*%
X113500000Y-73200000D03*
%TO.P,U1,7,A5*%
%TO.N,A5*%
X113500000Y-75740000D03*
%TO.P,U1,8,A4*%
%TO.N,A4*%
X113500000Y-78280000D03*
%TO.P,U1,9,A3*%
%TO.N,A3*%
X113500000Y-80820000D03*
%TO.P,U1,10,A2*%
%TO.N,A2*%
X113500000Y-83360000D03*
%TO.P,U1,11,A1*%
%TO.N,A1*%
X113500000Y-85900000D03*
%TO.P,U1,12,A0*%
%TO.N,A0*%
X113500000Y-88440000D03*
%TO.P,U1,13,DQ0*%
%TO.N,D0*%
X113500000Y-90980000D03*
%TO.P,U1,14,DQ1*%
%TO.N,D1*%
X113500000Y-93520000D03*
%TO.P,U1,15,DQ2*%
%TO.N,D2*%
X113500000Y-96060000D03*
%TO.P,U1,16,VSS*%
%TO.N,GND*%
X113500000Y-98600000D03*
%TO.P,U1,17,DQ3*%
%TO.N,D3*%
X128740000Y-98600000D03*
%TO.P,U1,18,DQ4*%
%TO.N,D4*%
X128740000Y-96060000D03*
%TO.P,U1,19,DQ5*%
%TO.N,D5*%
X128740000Y-93520000D03*
%TO.P,U1,20,DQ6*%
%TO.N,D6*%
X128740000Y-90980000D03*
%TO.P,U1,21,DQ7*%
%TO.N,D7*%
X128740000Y-88440000D03*
%TO.P,U1,22,CE#*%
%TO.N,~{BANKRAM}*%
X128740000Y-85900000D03*
%TO.P,U1,23,A10*%
%TO.N,A10*%
X128740000Y-83360000D03*
%TO.P,U1,24,OE#*%
%TO.N,~{RD}*%
X128740000Y-80820000D03*
%TO.P,U1,25,A11*%
%TO.N,A11*%
X128740000Y-78280000D03*
%TO.P,U1,26,A9*%
%TO.N,A9*%
X128740000Y-75740000D03*
%TO.P,U1,27,A8*%
%TO.N,A8*%
X128740000Y-73200000D03*
%TO.P,U1,28,A13*%
%TO.N,A13*%
X128740000Y-70660000D03*
%TO.P,U1,29,WE#*%
%TO.N,~{WR}*%
X128740000Y-68120000D03*
%TO.P,U1,30,A17*%
%TO.N,BANK2*%
X128740000Y-65580000D03*
%TO.P,U1,31,A15*%
%TO.N,BANK0*%
X128740000Y-63040000D03*
%TO.P,U1,32,VCC*%
%TO.N,VCC*%
X128740000Y-60500000D03*
%TD*%
D12*
%TO.P,R14,1*%
%TO.N,Net-(JP4-B)*%
X137260000Y-57000000D03*
D15*
%TO.P,R14,2*%
%TO.N,GND*%
X127100000Y-57000000D03*
%TD*%
D28*
%TO.N,BANK4*%
X143660000Y-72440000D03*
%TO.N,BANK5*%
X138780000Y-67030000D03*
%TO.N,~{VP}*%
X155415879Y-60386154D03*
%TO.N,RDY*%
X150810000Y-55560000D03*
%TO.N,A12*%
X104173000Y-73875200D03*
X155867200Y-61945700D03*
%TO.N,A13*%
X137363300Y-75017300D03*
X152534305Y-68683895D03*
X138217500Y-98084500D03*
%TO.N,A14*%
X135495000Y-106062000D03*
%TO.N,~{ML}*%
X101032000Y-117755000D03*
%TO.N,SYNC*%
X100406000Y-92290400D03*
%TO.N,D5*%
X109213000Y-96194100D03*
X182119000Y-116490000D03*
%TO.N,A0*%
X119015000Y-119610000D03*
%TO.N,D4*%
X180710000Y-116490000D03*
X111402000Y-97043400D03*
%TO.N,A1*%
X97345300Y-88790000D03*
%TO.N,D3*%
X104824000Y-95474600D03*
%TO.N,D2*%
X170983500Y-100236800D03*
X116658200Y-101195000D03*
X134114300Y-101603300D03*
%TO.N,A3*%
X133782400Y-76658900D03*
X125414100Y-80792200D03*
X166086000Y-69975300D03*
X132509300Y-77441900D03*
%TO.N,D1*%
X94720800Y-87969600D03*
%TO.N,A4*%
X88170000Y-102280000D03*
X139208100Y-76519200D03*
%TO.N,A5*%
X159804000Y-75190900D03*
%TO.N,R{slash}~{W}*%
X167850000Y-60860000D03*
X145383200Y-101195000D03*
X127766100Y-105148600D03*
X102616000Y-75438000D03*
%TO.N,A6*%
X122305000Y-85972300D03*
%TO.N,A7*%
X169830000Y-54950002D03*
X124060000Y-109593000D03*
X183362500Y-63836700D03*
X169861300Y-59354500D03*
X159804000Y-60880100D03*
%TO.N,~{RD}*%
X155184400Y-123971300D03*
%TO.N,A8*%
X145529658Y-69513642D03*
X130150000Y-115075000D03*
%TO.N,A9*%
X146491600Y-74237100D03*
X134441500Y-119490000D03*
%TO.N,A10*%
X131551000Y-121025000D03*
%TO.N,A11*%
X134893000Y-122317000D03*
%TO.N,~{RESET}*%
X140790000Y-69860000D03*
X147489400Y-65570500D03*
X150198300Y-102919800D03*
%TO.N,~{LOWRAM}*%
X144110000Y-109250000D03*
X163736800Y-84049800D03*
X142720400Y-132514400D03*
X153369100Y-95082858D03*
X155197200Y-109180500D03*
X169856400Y-90301200D03*
%TO.N,~{BANKRAM}*%
X136750000Y-126270000D03*
%TO.N,~{DUASEL}*%
X118110000Y-112866000D03*
%TO.N,Net-(IC3-\u002AIACK)*%
X119006992Y-121553008D03*
%TO.N,TXDA*%
X113288000Y-134462000D03*
%TO.N,HWRST*%
X144504000Y-115980000D03*
%TO.N,BANK1*%
X154180000Y-58920000D03*
%TO.N,BANK4*%
X155979600Y-136965600D03*
%TD*%
D29*
%TO.N,BANK5*%
X166713100Y-141120000D02*
X163060000Y-141120000D01*
X151690300Y-102741300D02*
X146687600Y-97738600D01*
X146687600Y-97738600D02*
X146687600Y-77219800D01*
X163060000Y-141120000D02*
X160585000Y-138645000D01*
X145144600Y-75676800D02*
X145144600Y-72839700D01*
X144209800Y-71904900D02*
X144204900Y-71904900D01*
X170543100Y-137290000D02*
X166713100Y-141120000D01*
X160585000Y-138645000D02*
X158334700Y-138645000D01*
X172070000Y-137290000D02*
X170543100Y-137290000D01*
X154397700Y-115593500D02*
X151690300Y-112886100D01*
X158334700Y-138645000D02*
X156823700Y-137134000D01*
X151690300Y-112886100D02*
X151690300Y-102741300D01*
X139330000Y-67030000D02*
X138780000Y-67030000D01*
X156823700Y-137134000D02*
X156823700Y-136492700D01*
X156823700Y-136492700D02*
X154397700Y-134066700D01*
X154397700Y-134066700D02*
X154397700Y-115593500D01*
X146687600Y-77219800D02*
X145144600Y-75676800D01*
X145144600Y-72839700D02*
X144209800Y-71904900D01*
X144204900Y-71904900D02*
X139330000Y-67030000D01*
%TO.N,D1*%
X179590000Y-105240000D02*
X179590000Y-114550000D01*
X179590000Y-114550000D02*
X167460000Y-126680000D01*
X167460000Y-131740000D02*
X164450000Y-134750000D01*
X167460000Y-126680000D02*
X167460000Y-131740000D01*
%TO.N,~{VP}*%
X178165000Y-104065000D02*
X161350000Y-87250000D01*
X161350000Y-87250000D02*
X155960000Y-87250000D01*
X155960000Y-87250000D02*
X154970000Y-86260000D01*
X178225000Y-104065000D02*
X178165000Y-104065000D01*
X154970000Y-86260000D02*
X154970000Y-60832033D01*
X154970000Y-60832033D02*
X155415879Y-60386154D01*
%TO.N,D0*%
X157483000Y-85875000D02*
X162085000Y-85875000D01*
X177833299Y-102795000D02*
X181175000Y-102795000D01*
X162085000Y-85875000D02*
X176070000Y-99860000D01*
X181940000Y-105430000D02*
X180765000Y-106605000D01*
X176070000Y-99860000D02*
X176070000Y-101031701D01*
X176070000Y-101031701D02*
X177833299Y-102795000D01*
X181175000Y-102795000D02*
X181940000Y-103560000D01*
X181940000Y-103560000D02*
X181940000Y-105430000D01*
%TO.N,A5*%
X138250000Y-142430000D02*
X136570000Y-142430000D01*
X131410000Y-136160000D02*
X122315000Y-127065000D01*
X134520000Y-140380000D02*
X134520000Y-137230000D01*
X122315000Y-127065000D02*
X122315000Y-125534000D01*
X134520000Y-137230000D02*
X133450000Y-136160000D01*
X133450000Y-136160000D02*
X131410000Y-136160000D01*
X136570000Y-142430000D02*
X134520000Y-140380000D01*
X122315000Y-125534000D02*
X121850000Y-125069000D01*
X121850000Y-125069000D02*
X121850000Y-91590000D01*
X121850000Y-91590000D02*
X121550000Y-91290000D01*
X121550000Y-91290000D02*
X121550000Y-82265000D01*
X121550000Y-82265000D02*
X115025000Y-75740000D01*
X115025000Y-75740000D02*
X113500000Y-75740000D01*
%TO.N,A13*%
X133891000Y-74606800D02*
X133055500Y-75442300D01*
X133055500Y-76959900D02*
X133290000Y-77194400D01*
X133055500Y-75442300D02*
X133055500Y-76959900D01*
X136334300Y-89783700D02*
X138217500Y-91666900D01*
X133290000Y-77194400D02*
X133290000Y-88293800D01*
X133290000Y-88293800D02*
X134779900Y-89783700D01*
X134779900Y-89783700D02*
X136334300Y-89783700D01*
X138217500Y-91666900D02*
X138217500Y-98084500D01*
%TO.N,A9*%
X128740000Y-75740000D02*
X129779500Y-75740000D01*
X129779500Y-75740000D02*
X132680000Y-78640500D01*
X132680000Y-78640500D02*
X132680000Y-90188500D01*
X136262800Y-92250000D02*
X137022800Y-93010000D01*
X132680000Y-90188500D02*
X134741500Y-92250000D01*
X137022800Y-99744800D02*
X134150000Y-102617600D01*
X134741500Y-92250000D02*
X136262800Y-92250000D01*
X137022800Y-93010000D02*
X137022800Y-99744800D01*
X134150000Y-102617600D02*
X134150000Y-119198500D01*
X134150000Y-119198500D02*
X134441500Y-119490000D01*
%TO.N,~{BANKRAM}*%
X129140000Y-85900000D02*
X131570000Y-88330000D01*
X131570000Y-88330000D02*
X131570000Y-100116400D01*
X132550000Y-101096400D02*
X132550000Y-121948000D01*
X128740000Y-85900000D02*
X129140000Y-85900000D01*
X131570000Y-100116400D02*
X132550000Y-101096400D01*
X132550000Y-121948000D02*
X136750000Y-126148000D01*
X136750000Y-126148000D02*
X136750000Y-126270000D01*
%TO.N,A11*%
X128740000Y-78280000D02*
X130265000Y-78280000D01*
X133375000Y-95495300D02*
X133375000Y-121375000D01*
X130265000Y-78280000D02*
X132090000Y-80105000D01*
X132090000Y-80105000D02*
X132090000Y-94210300D01*
X132090000Y-94210300D02*
X133375000Y-95495300D01*
X133375000Y-121375000D02*
X134317000Y-122317000D01*
X134317000Y-122317000D02*
X134893000Y-122317000D01*
%TO.N,A10*%
X129530000Y-87170000D02*
X130890000Y-88530000D01*
X130890000Y-88530000D02*
X130890000Y-100600000D01*
X131880000Y-120696000D02*
X131551000Y-121025000D01*
X128340000Y-83360000D02*
X127215000Y-84485000D01*
X127215000Y-84485000D02*
X127215000Y-86383800D01*
X127215000Y-86383800D02*
X128001000Y-87170000D01*
X128001000Y-87170000D02*
X129530000Y-87170000D01*
X130890000Y-100600000D02*
X131880000Y-101590000D01*
X131880000Y-101590000D02*
X131880000Y-120696000D01*
%TO.N,~{RESET}*%
X164300000Y-99000000D02*
X164300000Y-100126900D01*
X161950700Y-102476200D02*
X161950700Y-121270700D01*
X164300000Y-100126900D02*
X161950700Y-102476200D01*
X161950700Y-121270700D02*
X164450000Y-123770000D01*
X164450000Y-123770000D02*
X164450000Y-127130000D01*
%TO.N,~{WR}*%
X159070000Y-122135000D02*
X158375000Y-122135000D01*
X157230000Y-120990000D02*
X157230000Y-116321000D01*
X153494100Y-65824100D02*
X150710000Y-63040000D01*
X157230000Y-116321000D02*
X159670000Y-113881000D01*
X159670000Y-113881000D02*
X159670000Y-99023782D01*
X158375000Y-122135000D02*
X157230000Y-120990000D01*
X159670000Y-99023782D02*
X153494100Y-92847882D01*
X153494100Y-92847882D02*
X153494100Y-65824100D01*
%TO.N,BANK0*%
X164450000Y-129670000D02*
X162203000Y-127423000D01*
X139376016Y-66040000D02*
X138180000Y-66040000D01*
X153044100Y-93661842D02*
X153044100Y-75973288D01*
X162203000Y-127423000D02*
X162203000Y-125770000D01*
X158170000Y-113345000D02*
X158170000Y-98787742D01*
X138180000Y-66040000D02*
X137370000Y-66850000D01*
X156620000Y-122360000D02*
X156620000Y-114895000D01*
X137370000Y-66850000D02*
X132960000Y-66850000D01*
X157665000Y-123405000D02*
X156620000Y-122360000D01*
X159838000Y-123405000D02*
X157665000Y-123405000D01*
X162203000Y-125770000D02*
X159838000Y-123405000D01*
X156620000Y-114895000D02*
X158170000Y-113345000D01*
X158170000Y-98787742D02*
X153044100Y-93661842D01*
X153044100Y-75973288D02*
X151396212Y-74325400D01*
X151396212Y-74325400D02*
X147661416Y-74325400D01*
X147661416Y-74325400D02*
X139376016Y-66040000D01*
X132960000Y-66850000D02*
X129969900Y-63859900D01*
%TO.N,A8*%
X129320000Y-115905000D02*
X130150000Y-115075000D01*
X133000000Y-129520000D02*
X133000000Y-125401752D01*
X129320000Y-121721752D02*
X129320000Y-115905000D01*
D30*
%TO.N,Net-(IC3-X2)*%
X130430000Y-119000000D02*
X130430000Y-122160000D01*
D29*
%TO.N,A8*%
X133000000Y-125401752D02*
X129320000Y-121721752D01*
X138250000Y-134770000D02*
X133000000Y-129520000D01*
X138250000Y-134792000D02*
X138250000Y-134770000D01*
D30*
%TO.N,Net-(IC3-X2)*%
X130430000Y-122160000D02*
X134270000Y-126000000D01*
%TO.N,Net-(IC3-X1{slash}CLK)*%
X125550000Y-119000000D02*
X125550000Y-125280000D01*
X125550000Y-125280000D02*
X126270000Y-126000000D01*
%TO.N,Net-(LED1-A)*%
X124540000Y-135265000D02*
X124540000Y-145000000D01*
X122695000Y-134743900D02*
X124018900Y-134743900D01*
X124018900Y-134743900D02*
X124540000Y-135265000D01*
%TO.N,Net-(LED2-A)*%
X132855000Y-138500000D02*
X132855000Y-144315000D01*
X132855000Y-144315000D02*
X133540000Y-145000000D01*
D29*
%TO.N,A6*%
X138250000Y-139890000D02*
X136670000Y-139890000D01*
X122400000Y-86067300D02*
X122305000Y-85972300D01*
X135100000Y-134710000D02*
X133760000Y-133370000D01*
X136670000Y-139890000D02*
X135100000Y-138320000D01*
X135100000Y-138320000D02*
X135100000Y-134710000D01*
X133760000Y-133370000D02*
X129790000Y-133370000D01*
X129790000Y-133370000D02*
X127396000Y-130976000D01*
X127396000Y-130976000D02*
X127396000Y-118402000D01*
X127396000Y-118402000D02*
X122400000Y-113406000D01*
X122400000Y-113406000D02*
X122400000Y-86067300D01*
%TO.N,A7*%
X128454000Y-122494000D02*
X130460000Y-124500000D01*
X124060000Y-113295000D02*
X128454000Y-117689000D01*
X131770000Y-132280000D02*
X134710000Y-132280000D01*
X128454000Y-117689000D02*
X128454000Y-122494000D01*
X130460000Y-124500000D02*
X130460000Y-130970000D01*
X124060000Y-109593000D02*
X124060000Y-113295000D01*
X130460000Y-130970000D02*
X131770000Y-132280000D01*
X134710000Y-132280000D02*
X136210000Y-133780000D01*
X136210000Y-133780000D02*
X136210000Y-136690000D01*
X136210000Y-136690000D02*
X136870000Y-137350000D01*
X136870000Y-137350000D02*
X138250000Y-137350000D01*
%TO.N,A13*%
X138217500Y-98084500D02*
X138584100Y-98451100D01*
X138584100Y-98451100D02*
X138584100Y-114779800D01*
X138584100Y-114779800D02*
X140290000Y-116485700D01*
X140290000Y-121100000D02*
X139280000Y-122110000D01*
X140290000Y-116485700D02*
X140290000Y-121100000D01*
X139280000Y-122110000D02*
X138250000Y-122110000D01*
%TO.N,A9*%
X134441500Y-119490000D02*
X134745000Y-119793500D01*
X134745000Y-120615000D02*
X137510000Y-123380000D01*
X137510000Y-123380000D02*
X139430000Y-123380000D01*
X139430000Y-123380000D02*
X140320000Y-124270000D01*
X134745000Y-119793500D02*
X134745000Y-120615000D01*
X140320000Y-124270000D02*
X140320000Y-131510000D01*
X140320000Y-131510000D02*
X139560000Y-132270000D01*
X139560000Y-132270000D02*
X138250000Y-132270000D01*
%TO.N,A3*%
X133916300Y-86391900D02*
X134694400Y-87170000D01*
X136244200Y-87170000D02*
X139036000Y-89961800D01*
X135470000Y-80820000D02*
X133916300Y-82373700D01*
X140870000Y-115491600D02*
X140870000Y-138956900D01*
X133916300Y-82373700D02*
X133916300Y-86391900D01*
X139036000Y-113657600D02*
X140870000Y-115491600D01*
X140870000Y-138956900D02*
X144343100Y-142430000D01*
X134694400Y-87170000D02*
X136244200Y-87170000D01*
X139036000Y-89961800D02*
X139036000Y-113657600D01*
X144343100Y-142430000D02*
X145870000Y-142430000D01*
%TO.N,A1*%
X136996900Y-85900000D02*
X139525500Y-88428600D01*
X139525500Y-88428600D02*
X139525500Y-112526000D01*
X139525500Y-112526000D02*
X141570000Y-114570500D01*
X135470000Y-85900000D02*
X136996900Y-85900000D01*
X141570000Y-114570500D02*
X141570000Y-134576900D01*
X144343100Y-137350000D02*
X145870000Y-137350000D01*
X141570000Y-134576900D02*
X144343100Y-137350000D01*
%TO.N,~{IO}*%
X151450000Y-142455000D02*
X149925000Y-142455000D01*
X149925000Y-142455000D02*
X148660000Y-141190000D01*
X148660000Y-128455000D02*
X147395000Y-127190000D01*
X148660000Y-141190000D02*
X148660000Y-128455000D01*
X147395000Y-127190000D02*
X145870000Y-127190000D01*
%TO.N,~{ROM}*%
X151450000Y-139915000D02*
X150675000Y-139915000D01*
X150675000Y-139915000D02*
X149306000Y-138546000D01*
X149306000Y-138546000D02*
X149306000Y-128086000D01*
X149306000Y-128086000D02*
X145870000Y-124650000D01*
%TO.N,BANK2*%
X133760000Y-71380000D02*
X134310000Y-71930000D01*
X134310000Y-71930000D02*
X136219300Y-71930000D01*
X129140000Y-65580000D02*
X133760000Y-70200000D01*
X136219300Y-71930000D02*
X144649000Y-80359700D01*
X133760000Y-70200000D02*
X133760000Y-71380000D01*
X145139000Y-133540000D02*
X146608000Y-133540000D01*
X144649000Y-108312984D02*
X145115000Y-108778984D01*
X145115000Y-108778984D02*
X145115000Y-113103000D01*
X148032000Y-142172000D02*
X149620000Y-143760000D01*
X149620000Y-143760000D02*
X162660000Y-143760000D01*
X143329000Y-131730000D02*
X145139000Y-133540000D01*
X144649000Y-80359700D02*
X144649000Y-108312984D01*
X146608000Y-133540000D02*
X148032000Y-134964000D01*
X145115000Y-113103000D02*
X143329000Y-114889000D01*
X143329000Y-114889000D02*
X143329000Y-131730000D01*
X148032000Y-134964000D02*
X148032000Y-142172000D01*
X162660000Y-143760000D02*
X164050000Y-142370000D01*
D31*
%TO.N,VCCUB*%
X87000000Y-126730000D02*
X89080000Y-124650000D01*
X89080000Y-124650000D02*
X89080000Y-114555000D01*
X89080000Y-114555000D02*
X87250000Y-112725000D01*
D29*
%TO.N,IRQ*%
X101520000Y-138640000D02*
X94010000Y-138640000D01*
X89890000Y-111842000D02*
X86850000Y-108802000D01*
X94010000Y-138640000D02*
X89890000Y-134520000D01*
X103270000Y-136890000D02*
X101520000Y-138640000D01*
X89890000Y-134520000D02*
X89890000Y-111842000D01*
X86850000Y-96810000D02*
X88000000Y-95660000D01*
X86850000Y-108802000D02*
X86850000Y-96810000D01*
D31*
%TO.N,VCCUA*%
X101730000Y-144500000D02*
X103790000Y-146560000D01*
X103790000Y-146560000D02*
X112165000Y-146560000D01*
X112165000Y-146560000D02*
X116000000Y-142725000D01*
D29*
%TO.N,RTSA*%
X108350000Y-131810000D02*
X106863000Y-133297000D01*
X106863000Y-133297000D02*
X106863000Y-137308000D01*
X99671000Y-144500000D02*
X99190000Y-144500000D01*
X106863000Y-137308000D02*
X99671000Y-144500000D01*
%TO.N,D1*%
X94720800Y-87969600D02*
X95139700Y-88388500D01*
X95139700Y-88388500D02*
X95139700Y-116110300D01*
X95139700Y-116110300D02*
X94280000Y-116970000D01*
X94280000Y-116970000D02*
X94280000Y-135520000D01*
X94280000Y-135520000D02*
X95650000Y-136890000D01*
%TO.N,A3*%
X91608300Y-88440000D02*
X93133600Y-88440000D01*
X93133600Y-88440000D02*
X93133600Y-112875000D01*
X93133600Y-112875000D02*
X92740000Y-113268600D01*
X92740000Y-113268600D02*
X92740000Y-121280000D01*
X92740000Y-121280000D02*
X93110000Y-121650000D01*
X133782400Y-76658900D02*
X133945000Y-76821500D01*
X133945000Y-76821500D02*
X133945000Y-79295000D01*
X133945000Y-79295000D02*
X135470000Y-80820000D01*
%TO.N,A4*%
X135470000Y-78280000D02*
X137447300Y-78280000D01*
X137447300Y-78280000D02*
X139208100Y-76519200D01*
%TO.N,BANK3*%
X115810000Y-65890000D02*
X114820000Y-66880000D01*
X128004000Y-130173000D02*
X130661000Y-132830000D01*
X112090000Y-66880000D02*
X111370000Y-67600000D01*
X111370000Y-67600000D02*
X111370000Y-71010000D01*
X114820000Y-66880000D02*
X112090000Y-66880000D01*
X114414600Y-71940000D02*
X123060000Y-80585400D01*
X115810000Y-62410000D02*
X115810000Y-65890000D01*
X123060000Y-113147000D02*
X128004000Y-118091000D01*
X111370000Y-71010000D02*
X112300000Y-71940000D01*
X114719900Y-61319900D02*
X115810000Y-62410000D01*
X136451000Y-138620000D02*
X138977000Y-138620000D01*
X112300000Y-71940000D02*
X114414600Y-71940000D01*
X128004000Y-118091000D02*
X128004000Y-130173000D01*
X135600000Y-134250000D02*
X135600000Y-137769000D01*
X123060000Y-80585400D02*
X123060000Y-113147000D01*
X144014000Y-145120000D02*
X145047000Y-146153000D01*
X130661000Y-132830000D02*
X134180000Y-132830000D01*
X134180000Y-132830000D02*
X135600000Y-134250000D01*
X138977000Y-138620000D02*
X144014000Y-143658000D01*
X135600000Y-137769000D02*
X136451000Y-138620000D01*
X145047000Y-146153000D02*
X167887000Y-146153000D01*
X144014000Y-143658000D02*
X144014000Y-145120000D01*
X167887000Y-146153000D02*
X170850100Y-143189900D01*
%TO.N,R{slash}~{W}*%
X127766100Y-105148600D02*
X126196200Y-103578700D01*
X109253700Y-63376300D02*
X108320000Y-64310000D01*
X126196200Y-85319800D02*
X124647900Y-83771500D01*
X126196200Y-103578700D02*
X126196200Y-85319800D01*
X110970000Y-58930000D02*
X109253700Y-60646300D01*
X124647900Y-83771500D02*
X124647900Y-69161000D01*
X114416900Y-58930000D02*
X110970000Y-58930000D01*
X124647900Y-69161000D02*
X114416900Y-58930000D01*
X108320000Y-64310000D02*
X103190600Y-64310000D01*
X109253700Y-60646300D02*
X109253700Y-63376300D01*
X103190600Y-64310000D02*
X102620000Y-64880600D01*
X102620000Y-64880600D02*
X102620000Y-53740000D01*
X160510000Y-57520000D02*
X161430000Y-57520000D01*
X161430000Y-57520000D02*
X161640000Y-57730000D01*
X102620000Y-53740000D02*
X104070000Y-52290000D01*
X104070000Y-52290000D02*
X155280000Y-52290000D01*
X155280000Y-52290000D02*
X160510000Y-57520000D01*
X161640000Y-57730000D02*
X165960000Y-57730000D01*
X165960000Y-57730000D02*
X167850000Y-59620000D01*
X167850000Y-59620000D02*
X167850000Y-60860000D01*
%TO.N,BE*%
X88000000Y-83160000D02*
X85720000Y-80880000D01*
X85720000Y-80880000D02*
X85720000Y-61030000D01*
X85720000Y-61030000D02*
X88370000Y-58380000D01*
X171830000Y-51650000D02*
X182610000Y-62430000D01*
X90810000Y-58380000D02*
X97540000Y-51650000D01*
X88370000Y-58380000D02*
X90810000Y-58380000D01*
X97540000Y-51650000D02*
X171830000Y-51650000D01*
X182610000Y-62430000D02*
X182610000Y-84440000D01*
X182610000Y-84440000D02*
X180765000Y-86285000D01*
%TO.N,~{RESET}*%
X107830000Y-60500000D02*
X110390000Y-57940000D01*
X110390000Y-57940000D02*
X110390000Y-54390000D01*
X111710000Y-53070000D02*
X149020600Y-53070000D01*
X110390000Y-54390000D02*
X111710000Y-53070000D01*
X149030600Y-53070000D02*
X150100000Y-53070000D01*
X150100000Y-53070000D02*
X155326016Y-53070000D01*
X149030600Y-64029300D02*
X149030600Y-54139400D01*
X149030600Y-54139400D02*
X150100000Y-53070000D01*
X155326016Y-53070000D02*
X164116016Y-61860000D01*
X164116016Y-61860000D02*
X168850000Y-61860000D01*
X168850000Y-61860000D02*
X171410000Y-59300000D01*
X178332000Y-59300000D02*
X181940000Y-62908800D01*
X171410000Y-59300000D02*
X178332000Y-59300000D01*
X181940000Y-62908800D02*
X181940000Y-72410000D01*
X181940000Y-72410000D02*
X180765000Y-73585000D01*
%TO.N,A10*%
X137850000Y-129730000D02*
X135405000Y-127285000D01*
X135405000Y-127285000D02*
X135405000Y-125530000D01*
X131551000Y-121676000D02*
X131551000Y-121025000D01*
X135405000Y-125530000D02*
X131551000Y-121676000D01*
%TO.N,~{RESET}*%
X150198300Y-102919800D02*
X145330000Y-98051500D01*
X145330000Y-98051500D02*
X145330000Y-77779500D01*
X145330000Y-77779500D02*
X140800000Y-73249500D01*
X140800000Y-73249500D02*
X140800000Y-69870000D01*
X140800000Y-69870000D02*
X140790000Y-69860000D01*
%TO.N,BANK4*%
X155979600Y-136965600D02*
X153494000Y-134480000D01*
X145940000Y-77525300D02*
X144336100Y-75921400D01*
X151238400Y-102931900D02*
X145940000Y-97633500D01*
X153494000Y-116441500D02*
X151238400Y-114185900D01*
X151238400Y-114185900D02*
X151238400Y-102931900D01*
X153494000Y-134480000D02*
X153494000Y-116441500D01*
X145940000Y-97633500D02*
X145940000Y-77525300D01*
X144336100Y-75921400D02*
X144336100Y-73116100D01*
X144336100Y-73116100D02*
X143660000Y-72440000D01*
%TO.N,RDY*%
X159470000Y-119595000D02*
X161070000Y-117995000D01*
X161070000Y-117995000D02*
X161070000Y-99787386D01*
X153944100Y-92661486D02*
X153944100Y-65637704D01*
X153360000Y-58110000D02*
X150810000Y-55560000D01*
X161070000Y-99787386D02*
X153944100Y-92661486D01*
X153944100Y-65637704D02*
X153360000Y-65053604D01*
X153360000Y-65053604D02*
X153360000Y-58110000D01*
%TO.N,BANK1*%
X154180000Y-58920000D02*
X154394100Y-59134100D01*
X154394100Y-92475090D02*
X159189010Y-97270000D01*
X159189010Y-97270000D02*
X166040000Y-97270000D01*
X154394100Y-59134100D02*
X154394100Y-92475090D01*
X166640000Y-130250000D02*
X165920000Y-130970000D01*
X167245000Y-98475000D02*
X167245000Y-113025000D01*
X167245000Y-113025000D02*
X165050000Y-115220000D01*
X165050000Y-115220000D02*
X165050000Y-123480000D01*
X166040000Y-97270000D02*
X167245000Y-98475000D01*
X165050000Y-123480000D02*
X166640000Y-125070000D01*
X166640000Y-125070000D02*
X166640000Y-130250000D01*
X165920000Y-130970000D02*
X162550000Y-130970000D01*
X161360000Y-134600000D02*
X164050000Y-137290000D01*
X162550000Y-130970000D02*
X161360000Y-132160000D01*
X161360000Y-132160000D02*
X161360000Y-134600000D01*
%TO.N,A12*%
X155455000Y-81472386D02*
X155455000Y-80167614D01*
X155478000Y-62334900D02*
X155867200Y-61945700D01*
X156564010Y-84485000D02*
X155478000Y-83398990D01*
X155478000Y-80144614D02*
X155478000Y-62334900D01*
X178225000Y-93905000D02*
X176425000Y-92105000D01*
X155478000Y-83398990D02*
X155478000Y-81495386D01*
X170054000Y-92105000D02*
X162434000Y-84485000D01*
X176425000Y-92105000D02*
X170054000Y-92105000D01*
X155455000Y-80167614D02*
X155478000Y-80144614D01*
X162434000Y-84485000D02*
X156564010Y-84485000D01*
X155478000Y-81495386D02*
X155455000Y-81472386D01*
%TO.N,A13*%
X152534305Y-68683895D02*
X152534305Y-68835695D01*
X152534305Y-68835695D02*
X150710000Y-70660000D01*
%TO.N,A8*%
X149216016Y-73200000D02*
X145529658Y-69513642D01*
X150710000Y-73200000D02*
X149216016Y-73200000D01*
%TO.N,Net-(JP4-B)*%
X137260000Y-57000000D02*
X135450000Y-55190000D01*
X135450000Y-55190000D02*
X125900000Y-55190000D01*
X125900000Y-55190000D02*
X123700000Y-57390000D01*
X123700000Y-57390000D02*
X118610000Y-57390000D01*
X118610000Y-57390000D02*
X115560000Y-54340000D01*
%TO.N,RDY*%
X88000000Y-65123000D02*
X90083000Y-63040000D01*
X90083000Y-63040000D02*
X91608300Y-63040000D01*
X88000000Y-70740000D02*
X88000000Y-65123000D01*
%TO.N,A12*%
X155867200Y-61945700D02*
X156335700Y-61945700D01*
X103641000Y-104538000D02*
X103641000Y-74407500D01*
X156335700Y-61945700D02*
X157430000Y-63040000D01*
X103641000Y-74407500D02*
X104173000Y-73875200D01*
X105323000Y-106220000D02*
X103641000Y-104538000D01*
X106848000Y-106220000D02*
X105323000Y-106220000D01*
%TO.N,A13*%
X130266900Y-70660000D02*
X133891000Y-74284100D01*
X128740000Y-70660000D02*
X130266900Y-70660000D01*
X133891000Y-74606800D02*
X136952800Y-74606800D01*
X136952800Y-74606800D02*
X137363300Y-75017300D01*
X133891000Y-74284100D02*
X133891000Y-74606800D01*
%TO.N,IRQ*%
X89125300Y-70203000D02*
X89125300Y-92231908D01*
X88000000Y-93357208D02*
X88000000Y-95660000D01*
X91208300Y-68120000D02*
X89125300Y-70203000D01*
X89125300Y-92231908D02*
X88000000Y-93357208D01*
%TO.N,A14*%
X135495000Y-118340000D02*
X135495000Y-106062000D01*
X138250000Y-119570000D02*
X136725000Y-119570000D01*
X136725000Y-119570000D02*
X135495000Y-118340000D01*
%TO.N,~{ML}*%
X101161000Y-79812700D02*
X101161000Y-117626000D01*
X92008300Y-70660000D02*
X101161000Y-79812700D01*
X101161000Y-117626000D02*
X101032000Y-117755000D01*
%TO.N,A15*%
X113500000Y-65580000D02*
X111975000Y-65580000D01*
X105302000Y-84103100D02*
X104091000Y-85313800D01*
X104091000Y-85313800D02*
X104091000Y-97368300D01*
X111975000Y-65580000D02*
X110705000Y-66850000D01*
X105302000Y-67660200D02*
X105302000Y-84103100D01*
X110705000Y-66850000D02*
X106112000Y-66850000D01*
X105323000Y-98600000D02*
X106848000Y-98600000D01*
X106112000Y-66850000D02*
X105302000Y-67660200D01*
X104091000Y-97368300D02*
X105323000Y-98600000D01*
%TO.N,NMI*%
X89590000Y-98673604D02*
X89590000Y-75218300D01*
X87340000Y-107420000D02*
X87340000Y-100923604D01*
X88000000Y-108080000D02*
X87340000Y-107420000D01*
X89590000Y-75218300D02*
X91608300Y-73200000D01*
X87340000Y-100923604D02*
X89590000Y-98673604D01*
%TO.N,D7*%
X98190000Y-134350000D02*
X98190000Y-133713000D01*
X102234000Y-125936000D02*
X104318000Y-123851000D01*
X104318000Y-114082000D02*
X109030000Y-109370000D01*
X109030000Y-109370000D02*
X109030000Y-97770000D01*
X104318000Y-123851000D02*
X104318000Y-114082000D01*
X98190000Y-133713000D02*
X102234000Y-129669000D01*
X109030000Y-97770000D02*
X107320000Y-96060000D01*
X102234000Y-129669000D02*
X102234000Y-125936000D01*
%TO.N,SYNC*%
X93133600Y-75740000D02*
X100406000Y-83012900D01*
X91608300Y-75740000D02*
X93133600Y-75740000D01*
X100406000Y-83012900D02*
X100406000Y-92290400D01*
%TO.N,D6*%
X106863000Y-122805267D02*
X106863000Y-118231000D01*
X106863000Y-118231000D02*
X105530000Y-116898000D01*
X105530000Y-114142792D02*
X110020000Y-109652792D01*
X103270000Y-134350000D02*
X103270000Y-126398267D01*
X108374000Y-93520000D02*
X106848300Y-93520000D01*
X110020000Y-109652792D02*
X110020000Y-95166000D01*
X110020000Y-95166000D02*
X108374000Y-93520000D01*
X105530000Y-116898000D02*
X105530000Y-114142792D01*
X103270000Y-126398267D02*
X106863000Y-122805267D01*
%TO.N,D5*%
X109213000Y-96194100D02*
X107809000Y-94790000D01*
X107809000Y-94790000D02*
X106094000Y-94790000D01*
X177906000Y-92729700D02*
X179590000Y-92729700D01*
X109213000Y-96194100D02*
X109480000Y-96461100D01*
X105323000Y-94018500D02*
X105323000Y-90980000D01*
X104773800Y-118680791D02*
X104773800Y-124258200D01*
X99226500Y-133314000D02*
X99226500Y-135853500D01*
X102684000Y-129856000D02*
X99226500Y-133314000D01*
X105323000Y-90980000D02*
X106848000Y-90980000D01*
X102684000Y-126348000D02*
X102684000Y-129856000D01*
X109480000Y-96461100D02*
X109480000Y-109556396D01*
X179590000Y-92729700D02*
X180765000Y-93905000D01*
X99226500Y-135853500D02*
X98190000Y-136890000D01*
X174196900Y-89020900D02*
X177906000Y-92729700D01*
X173591000Y-88415000D02*
X174196900Y-89020900D01*
X104970000Y-118484591D02*
X104773800Y-118680791D01*
X104773800Y-124258200D02*
X102684000Y-126348000D01*
X109480000Y-109556396D02*
X104970000Y-114066396D01*
X106094000Y-94790000D02*
X105323000Y-94018500D01*
X104970000Y-114066396D02*
X104970000Y-118484591D01*
%TO.N,A0*%
X177050000Y-63425000D02*
X178225000Y-63425000D01*
X158574000Y-79525000D02*
X167465000Y-70634200D01*
X93133600Y-80820000D02*
X99674500Y-87360900D01*
X119423000Y-119202000D02*
X119015000Y-119610000D01*
X167465000Y-70634200D02*
X167465000Y-68665000D01*
X155929000Y-81780700D02*
X155929000Y-81309990D01*
X155905000Y-81285990D02*
X155905000Y-80354010D01*
X156734010Y-79525000D02*
X158574000Y-79525000D01*
X99674500Y-87360900D02*
X99674500Y-118055000D01*
X91608300Y-80820000D02*
X93133600Y-80820000D01*
X99674500Y-118055000D02*
X100730000Y-119110000D01*
X119423000Y-92837400D02*
X119423000Y-119202000D01*
X115025000Y-88440000D02*
X119423000Y-92837400D01*
X157469000Y-83321000D02*
X155929000Y-81780700D01*
X155905000Y-80354010D02*
X156734010Y-79525000D01*
X171845000Y-64285000D02*
X176190000Y-64285000D01*
X167465000Y-68665000D02*
X171845000Y-64285000D01*
X176190000Y-64285000D02*
X177050000Y-63425000D01*
X113500000Y-88440000D02*
X115025000Y-88440000D01*
X155929000Y-81309990D02*
X155905000Y-81285990D01*
%TO.N,D4*%
X106020000Y-114290000D02*
X106020000Y-115970000D01*
X110480000Y-97965400D02*
X110480000Y-109830000D01*
X106848300Y-88440000D02*
X108374000Y-88440000D01*
X106020000Y-115970000D02*
X107313000Y-117263000D01*
X108374000Y-88440000D02*
X110623000Y-90689800D01*
X110623000Y-96264900D02*
X111402000Y-97043400D01*
X107313000Y-117263000D02*
X107313000Y-126491000D01*
X110480000Y-109830000D02*
X106020000Y-114290000D01*
X107313000Y-126491000D02*
X104768000Y-129036000D01*
X111402000Y-97043400D02*
X110480000Y-97965400D01*
X110623000Y-90689800D02*
X110623000Y-96264900D01*
X104768000Y-135848000D02*
X105810000Y-136890000D01*
X104768000Y-129036000D02*
X104768000Y-135848000D01*
%TO.N,A1*%
X159275000Y-80795000D02*
X170580000Y-69490000D01*
X91608300Y-83360000D02*
X93133600Y-83360000D01*
X171483900Y-66796100D02*
X177393900Y-66796100D01*
X170580000Y-67700000D02*
X171483900Y-66796100D01*
X177393900Y-66796100D02*
X178225000Y-65965000D01*
X97345300Y-118265000D02*
X98190000Y-119110000D01*
X93133600Y-83360000D02*
X97345300Y-87571700D01*
X170580000Y-69490000D02*
X170580000Y-67700000D01*
X97345300Y-87915300D02*
X97345300Y-118265000D01*
X97345300Y-87915300D02*
X97345300Y-88790000D01*
X157455000Y-80795000D02*
X159275000Y-80795000D01*
X97345300Y-87571700D02*
X97345300Y-87915300D01*
%TO.N,D3*%
X104824000Y-96033600D02*
X104824000Y-95474600D01*
X182844000Y-138196000D02*
X181210000Y-139830000D01*
X174196900Y-94968800D02*
X177038000Y-97809700D01*
X95650000Y-134350000D02*
X101783000Y-128217000D01*
X108570000Y-98000000D02*
X107920400Y-97350400D01*
X108570000Y-109075000D02*
X108570000Y-98000000D01*
X172723000Y-93495000D02*
X174196900Y-94968800D01*
X181210000Y-139830000D02*
X172070000Y-139830000D01*
X105323000Y-85900000D02*
X104824000Y-86399000D01*
X101783000Y-115862000D02*
X108570000Y-109075000D01*
X182844000Y-101064000D02*
X182844000Y-138196000D01*
X106848000Y-85900000D02*
X105323000Y-85900000D01*
X101783000Y-128217000D02*
X101783000Y-115862000D01*
X106141000Y-97350400D02*
X104824000Y-96033600D01*
X104824000Y-86399000D02*
X104824000Y-95474600D01*
X177038000Y-97809700D02*
X179590000Y-97809700D01*
X107920400Y-97350400D02*
X106141000Y-97350400D01*
X180765000Y-98985000D02*
X182844000Y-101064000D01*
X179590000Y-97809700D02*
X180765000Y-98985000D01*
%TO.N,A2*%
X91608300Y-85900000D02*
X93677000Y-85900000D01*
X93677000Y-85900000D02*
X95650000Y-87873000D01*
X95650000Y-87873000D02*
X95650000Y-119110000D01*
%TO.N,D2*%
X112037000Y-96060000D02*
X111074000Y-95096600D01*
X105810000Y-134350000D02*
X105810000Y-129510000D01*
X105810000Y-129510000D02*
X107310000Y-128010000D01*
X108244009Y-112705000D02*
X108255000Y-112705000D01*
X135470000Y-96060000D02*
X133943100Y-96060000D01*
X133943100Y-101432100D02*
X134114300Y-101603300D01*
X106619000Y-114330009D02*
X108244009Y-112705000D01*
X109650000Y-118390000D02*
X106619000Y-115359000D01*
X168260000Y-127106000D02*
X168260000Y-137545000D01*
X170983500Y-100236800D02*
X161726700Y-90980000D01*
X161726700Y-90980000D02*
X157430000Y-90980000D01*
X113900000Y-96060000D02*
X116658200Y-98818200D01*
X110960000Y-98600000D02*
X113500000Y-96060000D01*
X116658200Y-98818200D02*
X116658200Y-101195000D01*
X165975000Y-139830000D02*
X164450000Y-139830000D01*
X182394000Y-103154000D02*
X182394000Y-112973000D01*
X182394000Y-112973000D02*
X168260000Y-127106000D01*
X111074000Y-86060300D02*
X108374000Y-83360000D01*
X107310000Y-128010000D02*
X108960000Y-128010000D01*
X110960000Y-110000000D02*
X110960000Y-98600000D01*
X111074000Y-95096600D02*
X111074000Y-86060300D01*
X168260000Y-137545000D02*
X165975000Y-139830000D01*
X109650000Y-127320000D02*
X109650000Y-118390000D01*
X113500000Y-96060000D02*
X112037000Y-96060000D01*
X108374000Y-83360000D02*
X106848300Y-83360000D01*
X108255000Y-112705000D02*
X110960000Y-110000000D01*
X180765000Y-101525000D02*
X182394000Y-103154000D01*
X133943100Y-96060000D02*
X133943100Y-101432100D01*
X106619000Y-115359000D02*
X106619000Y-114330009D01*
X108960000Y-128010000D02*
X109650000Y-127320000D01*
%TO.N,A3*%
X160960000Y-76080000D02*
X166086000Y-70954000D01*
X157430000Y-75740000D02*
X158956900Y-75740000D01*
X158956900Y-75740000D02*
X159296900Y-76080000D01*
X129581200Y-72016100D02*
X130856200Y-73291100D01*
X125414100Y-80792200D02*
X125414100Y-74360900D01*
X127758900Y-72016100D02*
X129581200Y-72016100D01*
X159296900Y-76080000D02*
X160960000Y-76080000D01*
X130856200Y-73291100D02*
X130856200Y-75788800D01*
X130856200Y-75788800D02*
X132509300Y-77441900D01*
X166086000Y-70954000D02*
X166086000Y-69975300D01*
X125414100Y-74360900D02*
X127758900Y-72016100D01*
%TO.N,D1*%
X111524000Y-93069600D02*
X111524000Y-83970700D01*
X180765000Y-104065000D02*
X179590000Y-105240000D01*
X177588000Y-105240000D02*
X179590000Y-105240000D01*
X111524000Y-83970700D02*
X108374000Y-80820000D01*
X157483000Y-88415000D02*
X160763000Y-88415000D01*
X111975000Y-93520000D02*
X111524000Y-93069600D01*
X160763000Y-88415000D02*
X177588000Y-105240000D01*
X108374000Y-80820000D02*
X106848300Y-80820000D01*
X113500000Y-93520000D02*
X111975000Y-93520000D01*
%TO.N,A4*%
X91608300Y-90980000D02*
X90083300Y-92505000D01*
X90083300Y-100366700D02*
X88170000Y-102280000D01*
X90083300Y-92505000D02*
X90083300Y-100366700D01*
%TO.N,D0*%
X115149000Y-129966000D02*
X116575000Y-128540000D01*
X118231992Y-127707008D02*
X118231992Y-119367008D01*
X118972000Y-118627000D02*
X118972000Y-96018000D01*
X108374000Y-78280000D02*
X106848300Y-78280000D01*
X111975000Y-89021200D02*
X111975000Y-81881100D01*
X111975000Y-81881100D02*
X108374000Y-78280000D01*
X117399000Y-128540000D02*
X118231992Y-127707008D01*
X113717000Y-90763000D02*
X111975000Y-89021200D01*
X118231992Y-119367008D02*
X118972000Y-118627000D01*
X109821000Y-136890000D02*
X115149000Y-131562000D01*
X108350000Y-136890000D02*
X109821000Y-136890000D01*
X116575000Y-128540000D02*
X117399000Y-128540000D01*
X115149000Y-131562000D02*
X115149000Y-129966000D01*
X118972000Y-96018000D02*
X113717000Y-90763000D01*
%TO.N,A5*%
X159850000Y-75144900D02*
X159804000Y-75190900D01*
X159850000Y-73080000D02*
X159850000Y-75144900D01*
X157430000Y-70660000D02*
X159850000Y-73080000D01*
%TO.N,R{slash}~{W}*%
X152976900Y-121664900D02*
X152177000Y-120865000D01*
X102620000Y-65710000D02*
X102620000Y-64880600D01*
X152976900Y-123548100D02*
X152976900Y-121664900D01*
X145565000Y-101376800D02*
X145383200Y-101195000D01*
X148818100Y-115470700D02*
X145565000Y-112217600D01*
X148818100Y-118959900D02*
X148818100Y-115470700D01*
X150723200Y-120865000D02*
X148818100Y-118959900D01*
X102616000Y-75438000D02*
X102616000Y-65714000D01*
X152177000Y-120865000D02*
X150723200Y-120865000D01*
X102616000Y-65714000D02*
X102620000Y-65710000D01*
X145565000Y-112217600D02*
X145565000Y-101376800D01*
X151850000Y-124675000D02*
X152976900Y-123548100D01*
%TO.N,A6*%
X170250000Y-65030000D02*
X167185000Y-68095000D01*
X122610000Y-81910000D02*
X122610000Y-85667300D01*
X122610000Y-85667300D02*
X122305000Y-85972300D01*
X171670000Y-61839600D02*
X170250000Y-63260000D01*
X179400000Y-76681800D02*
X179400000Y-62429200D01*
X179400000Y-62429200D02*
X178811000Y-61839600D01*
X113900000Y-73200000D02*
X122610000Y-81910000D01*
X167185000Y-68095000D02*
X157483000Y-68095000D01*
X178592000Y-78297600D02*
X178592000Y-77489700D01*
X178592000Y-77489700D02*
X179400000Y-76681800D01*
X178811000Y-61839600D02*
X171670000Y-61839600D01*
X170250000Y-63260000D02*
X170250000Y-65030000D01*
%TO.N,A7*%
X169861300Y-59354500D02*
X169861300Y-54981302D01*
X178225000Y-81205000D02*
X179495000Y-82475000D01*
X180282400Y-87503300D02*
X181283500Y-87503300D01*
X181283500Y-87503300D02*
X183362500Y-85424300D01*
X159804000Y-63206000D02*
X157430000Y-65580000D01*
X159804000Y-60880100D02*
X159804000Y-63206000D01*
X123744000Y-109278000D02*
X123744000Y-80504400D01*
X124060000Y-109593000D02*
X123744000Y-109278000D01*
X179495000Y-86715900D02*
X180282400Y-87503300D01*
X169861300Y-54981302D02*
X169830000Y-54950002D01*
X183362500Y-85424300D02*
X183362500Y-63836700D01*
X179495000Y-82475000D02*
X179495000Y-86715900D01*
X123744000Y-80504400D02*
X113900000Y-70660000D01*
%TO.N,~{RD}*%
X150710000Y-80820000D02*
X149183100Y-80820000D01*
X155184400Y-115199600D02*
X152142200Y-112157400D01*
X152142200Y-102554100D02*
X148731100Y-99143000D01*
X152142200Y-112157400D02*
X152142200Y-102554100D01*
X148731100Y-99143000D02*
X148731100Y-81272000D01*
X155184400Y-123971300D02*
X155184400Y-115199600D01*
X148731100Y-81272000D02*
X149183100Y-80820000D01*
%TO.N,A8*%
X177858000Y-82973700D02*
X178225000Y-83340700D01*
X128740000Y-73200000D02*
X126755000Y-75185000D01*
X175699000Y-70240300D02*
X175699000Y-80410800D01*
X173554000Y-68095000D02*
X174196900Y-68738000D01*
X175699000Y-80410800D02*
X177858000Y-82569700D01*
X131296000Y-103171100D02*
X131296000Y-113929000D01*
X174196900Y-68738000D02*
X175699000Y-70240300D01*
X126755000Y-98630100D02*
X131296000Y-103171100D01*
X177858000Y-82569700D02*
X177858000Y-82973700D01*
X126755000Y-75185000D02*
X126755000Y-98630100D01*
X177858000Y-82973700D02*
X177858000Y-83377700D01*
X131296000Y-113929000D02*
X130150000Y-115075000D01*
D32*
%TO.N,CLK*%
X110260000Y-78070000D02*
X110260000Y-71531700D01*
X111750000Y-79560000D02*
X110260000Y-78070000D01*
X110260000Y-71531700D02*
X106848200Y-68120100D01*
X120620000Y-104690000D02*
X120620000Y-83770000D01*
X116410000Y-79560000D02*
X111750000Y-79560000D01*
X120620000Y-83770000D02*
X116410000Y-79560000D01*
D29*
%TO.N,A9*%
X177858000Y-85109700D02*
X177858000Y-85918000D01*
X174249000Y-70635000D02*
X175170000Y-71556000D01*
X147994500Y-75740000D02*
X146491600Y-74237100D01*
X175170000Y-82421700D02*
X177858000Y-85109700D01*
X172695000Y-70635000D02*
X174249000Y-70635000D01*
X150710000Y-75740000D02*
X147994500Y-75740000D01*
X175170000Y-71556000D02*
X175170000Y-82421700D01*
%TO.N,A10*%
X177924000Y-88086700D02*
X178225000Y-88387700D01*
X177924000Y-87649700D02*
X174650000Y-84375700D01*
X174650000Y-79291000D02*
X173614000Y-78255000D01*
X174650000Y-84375700D02*
X174650000Y-79291000D01*
X177924000Y-88523700D02*
X177924000Y-88086700D01*
X177924000Y-88086700D02*
X177924000Y-87649700D01*
%TO.N,A11*%
X171143100Y-73757900D02*
X171143100Y-73200000D01*
X173507000Y-84605000D02*
X177050000Y-88148000D01*
X177050000Y-88148000D02*
X177050000Y-90189700D01*
X171392600Y-74007400D02*
X169900000Y-75500000D01*
X134761000Y-123239000D02*
X138250000Y-126728000D01*
X169900000Y-75500000D02*
X169900000Y-82700000D01*
X171392600Y-74007400D02*
X171143100Y-73757900D01*
X172225000Y-73175000D02*
X171392600Y-74007400D01*
X171805000Y-84605000D02*
X173507000Y-84605000D01*
X134761000Y-122449000D02*
X134761000Y-123239000D01*
X172670000Y-73200000D02*
X171143100Y-73200000D01*
X134893000Y-122317000D02*
X134761000Y-122449000D01*
X177050000Y-90189700D02*
X178225000Y-91365000D01*
X169900000Y-82700000D02*
X171805000Y-84605000D01*
%TO.N,~{RESET}*%
X149030600Y-64029300D02*
X147489400Y-65570500D01*
%TO.N,~{LOWRAM}*%
X169856400Y-90169400D02*
X163736800Y-84049800D01*
X142720400Y-132514400D02*
X142367600Y-132161600D01*
X142367600Y-132161600D02*
X142367600Y-110992400D01*
X169856400Y-90301200D02*
X169856400Y-90169400D01*
X155272000Y-96985758D02*
X153369100Y-95082858D01*
X142367600Y-110992400D02*
X144110000Y-109250000D01*
X155197200Y-109180500D02*
X155272000Y-109105700D01*
X155272000Y-109105700D02*
X155272000Y-96985758D01*
%TO.N,BANKSEL*%
X149756000Y-128740000D02*
X150771000Y-129755000D01*
X145870000Y-122440000D02*
X149756000Y-126326000D01*
X149756000Y-126326000D02*
X149756000Y-128740000D01*
%TO.N,~{DUASEL}*%
X110890000Y-120086000D02*
X118110000Y-112866000D01*
X151450000Y-122135000D02*
X149925000Y-122135000D01*
X110890000Y-121650000D02*
X110890000Y-120086000D01*
X149925000Y-122135000D02*
X149925000Y-122099000D01*
X147395000Y-119570000D02*
X145870000Y-119570000D01*
X149925000Y-122099000D02*
X147395000Y-119570000D01*
%TO.N,SPIMOSI*%
X110890000Y-134350000D02*
X114474000Y-130766000D01*
X114474000Y-130766000D02*
X114474000Y-127256000D01*
X114474000Y-127256000D02*
X117000000Y-124730000D01*
%TO.N,SPICLK*%
X108350000Y-134350000D02*
X109620000Y-133080000D01*
X113519000Y-130677000D02*
X113519000Y-125671000D01*
X109620000Y-133080000D02*
X111115000Y-133080000D01*
X111115000Y-133080000D02*
X113519000Y-130677000D01*
X113519000Y-125671000D02*
X117000000Y-122190000D01*
%TO.N,Net-(IC3-\u002AIACK)*%
X119296992Y-127589992D02*
X119296992Y-121843008D01*
X119296992Y-121843008D02*
X119006992Y-121553008D01*
X122695000Y-130988000D02*
X121568100Y-129861100D01*
X121568100Y-129861100D02*
X119296992Y-127589992D01*
%TO.N,SPICS*%
X110890000Y-131810000D02*
X112882000Y-129818000D01*
X112882000Y-129818000D02*
X112882000Y-123768000D01*
X112882000Y-123768000D02*
X117000000Y-119650000D01*
%TO.N,TXDA*%
X106810000Y-143325000D02*
X113288000Y-136846000D01*
X106810000Y-144500000D02*
X106810000Y-143325000D01*
X113288000Y-136846000D02*
X113288000Y-134462000D01*
%TO.N,RXDA*%
X109620000Y-128000000D02*
X110890000Y-126730000D01*
X107314000Y-133903000D02*
X108136000Y-133080000D01*
X108136000Y-133080000D02*
X108556000Y-133080000D01*
X104270000Y-143325000D02*
X107314000Y-140281000D01*
X104270000Y-144500000D02*
X104270000Y-143325000D01*
X108556000Y-133080000D02*
X109620000Y-132016000D01*
X107314000Y-140281000D02*
X107314000Y-133903000D01*
X109620000Y-132016000D02*
X109620000Y-128000000D01*
%TO.N,HWRST*%
X148501000Y-122401000D02*
X148501000Y-124266000D01*
X144313000Y-120041000D02*
X145112000Y-120840000D01*
X148501000Y-124266000D02*
X151450000Y-127215000D01*
X145112000Y-120840000D02*
X146940000Y-120840000D01*
X146940000Y-120840000D02*
X148501000Y-122401000D01*
X144504000Y-115980000D02*
X144313000Y-116171000D01*
X144313000Y-116171000D02*
X144313000Y-120041000D01*
%TO.N,~{ROMOE}*%
X152594100Y-90870400D02*
X151576800Y-89853100D01*
X149183100Y-88976600D02*
X149183100Y-85900000D01*
X159070000Y-134835000D02*
X157543100Y-134835000D01*
X149183100Y-85900000D02*
X150710000Y-85900000D01*
X155947000Y-115190900D02*
X152594100Y-111838000D01*
X151576800Y-89853100D02*
X150059600Y-89853100D01*
X152594100Y-111838000D02*
X152594100Y-90870400D01*
X157543100Y-134835000D02*
X155947000Y-133238900D01*
X155947000Y-133238900D02*
X155947000Y-115190900D01*
X150059600Y-89853100D02*
X149183100Y-88976600D01*
%TO.N,Net-(LED1-A)*%
X124019000Y-134744000D02*
X122695100Y-134744000D01*
X124540000Y-135265000D02*
X124019000Y-134744000D01*
%TO.N,BANK3*%
X113900000Y-60500000D02*
X114719900Y-61319900D01*
X170850100Y-143189900D02*
X171670000Y-142370000D01*
%TO.N,BANK0*%
X129969900Y-63859900D02*
X130266900Y-63562900D01*
X130266900Y-63562900D02*
X130266900Y-63040000D01*
X129969900Y-63859900D02*
X129150000Y-63040000D01*
X128740000Y-63040000D02*
X130266900Y-63040000D01*
D32*
%TO.N,Net-(X1-EN)*%
X108710000Y-113830000D02*
X111480000Y-113830000D01*
X111480000Y-113830000D02*
X113000000Y-112310000D01*
D29*
%TO.N,Net-(JP4-B)*%
X137260000Y-61250000D02*
X137260000Y-57000000D01*
X135470000Y-63040000D02*
X137260000Y-61250000D01*
%TD*%
M02*
