M48
; DRILL file {KiCad 7.0.9} date Sunday, March 10, 2024 at 06:16:33 PM
; FORMAT={-:-/ absolute / inch / decimal}
; #@! TF.CreationDate,2024-03-10T18:16:33+00:00
; #@! TF.GenerationSoftware,Kicad,Pcbnew,7.0.9
; #@! TF.FileFunction,Plated,1,4,PTH
FMAT,2
INCH
; #@! TA.AperFunction,Plated,PTH,ViaDrill
T1C0.0157
; #@! TA.AperFunction,Plated,PTH,ComponentDrill
T2C0.0315
; #@! TA.AperFunction,Plated,PTH,ComponentDrill
T3C0.0320
; #@! TA.AperFunction,Plated,PTH,ComponentDrill
T4C0.0354
; #@! TA.AperFunction,Plated,PTH,ComponentDrill
T5C0.0394
; #@! TA.AperFunction,Plated,PTH,ComponentDrill
T6C0.0400
; #@! TA.AperFunction,Plated,PTH,ComponentDrill
T7C0.1378
%
G90
G05
T1
X3.4713Y-4.0268
X3.7292Y-3.4634
X3.8325Y-3.4957
X3.953Y-3.6335
X3.9776Y-4.636
X4.04Y-2.97
X4.1013Y-2.9085
X4.1269Y-3.7588
X4.2997Y-3.7872
X4.3859Y-3.8206
X4.4602Y-5.2938
X4.5928Y-3.9841
X4.65Y-4.4435
X4.6853Y-4.7856
X4.6856Y-4.7091
X4.8152Y-3.3847
X4.8843Y-4.3147
X4.9376Y-3.1808
X5.0302Y-4.1397
X5.124Y-4.5305
X5.1792Y-4.7715
X5.2169Y-3.0489
X5.267Y-3.0181
X5.2801Y-4.0001
X5.293Y-4.7043
X5.3107Y-4.8156
X5.3344Y-4.1757
X5.3839Y-4.9713
X5.408Y-2.9534
X5.4416Y-3.8616
X5.4806Y-3.0098
X5.5977Y-2.7502
X5.6189Y-5.2171
X5.6736Y-4.3012
X5.6776Y-2.8309
X5.6825Y-2.9063
X5.6891Y-4.5661
X5.7116Y-2.7547
X5.7237Y-3.9841
X5.7674Y-2.9227
X5.8067Y-2.5815
X5.8838Y-2.8369
X5.9133Y-4.052
X5.9374Y-2.1874
X6.0053Y-2.7041
X6.0382Y-3.7434
X6.0701Y-2.3197
X6.1096Y-4.8808
X6.1101Y-4.2984
X6.1187Y-2.3774
X6.1365Y-2.4388
X6.1409Y-5.3923
X6.2915Y-2.3969
X6.2915Y-2.9603
X6.4463Y-3.309
X6.5388Y-2.7549
X6.6083Y-2.3961
X6.6862Y-2.1634
X6.6873Y-3.5552
X6.6875Y-2.3368
X6.7316Y-3.9463
X7.1146Y-4.5862
X7.17Y-4.5862
X7.219Y-2.5133
T2
X3.4646Y-2.385
X3.4646Y-2.785
X3.4646Y-2.874
X3.4646Y-3.274
X3.4646Y-3.3661
X3.4646Y-3.7661
X3.4646Y-3.8551
X3.4646Y-4.2551
X3.6024Y-4.4882
X3.6066Y-2.3819
X3.6066Y-2.4819
X3.6066Y-2.5819
X3.6066Y-2.6819
X3.6066Y-2.7819
X3.6066Y-2.8819
X3.6066Y-2.9819
X3.6066Y-3.0819
X3.6066Y-3.1819
X3.6066Y-3.2819
X3.6066Y-3.3819
X3.6066Y-3.4819
X3.6066Y-3.5819
X3.6066Y-3.6819
X3.6066Y-3.7819
X3.6066Y-3.8819
X3.6066Y-3.9819
X3.6066Y-4.0819
X3.6066Y-4.1819
X3.6066Y-4.2819
X3.6657Y-4.7894
X3.6657Y-4.8894
X3.6657Y-4.9894
X3.6657Y-5.0894
X3.6657Y-5.1894
X3.6657Y-5.2894
X3.7008Y-4.4882
X3.7657Y-4.6894
X3.7657Y-4.7894
X3.7657Y-4.8894
X3.7657Y-4.9894
X3.7657Y-5.0894
X3.7657Y-5.1894
X3.7657Y-5.2894
X3.7657Y-5.3894
X3.8527Y-2.185
X3.8657Y-4.6894
X3.8657Y-4.7894
X3.8657Y-5.2894
X3.8657Y-5.3894
X3.8799Y-4.4815
X3.9511Y-2.185
X3.9657Y-4.6894
X3.9657Y-4.7894
X3.9657Y-5.2894
X3.9657Y-5.3894
X4.0657Y-4.6894
X4.0657Y-4.7894
X4.0657Y-5.2894
X4.0657Y-5.3894
X4.0944Y-2.1598
X4.1657Y-4.6894
X4.1657Y-4.7894
X4.1657Y-5.2894
X4.1657Y-5.3894
X4.1928Y-2.1598
X4.2066Y-2.3819
X4.2066Y-2.4819
X4.2066Y-2.5819
X4.2066Y-2.6819
X4.2066Y-2.7819
X4.2066Y-2.8819
X4.2066Y-2.9819
X4.2066Y-3.0819
X4.2066Y-3.1819
X4.2066Y-3.2819
X4.2066Y-3.3819
X4.2066Y-3.4819
X4.2066Y-3.5819
X4.2066Y-3.6819
X4.2066Y-3.7819
X4.2066Y-3.8819
X4.2066Y-3.9819
X4.2066Y-4.0819
X4.2066Y-4.1819
X4.2066Y-4.2819
X4.2657Y-4.6894
X4.2657Y-4.7894
X4.2657Y-4.8894
X4.2657Y-4.9894
X4.2657Y-5.0894
X4.2657Y-5.1894
X4.2657Y-5.2894
X4.2657Y-5.3894
X4.2799Y-4.4815
X4.3657Y-4.7894
X4.3657Y-4.8894
X4.3657Y-4.9894
X4.3657Y-5.0894
X4.3657Y-5.1894
X4.3657Y-5.2894
X4.4488Y-4.1217
X4.4488Y-4.4217
X4.4685Y-2.3819
X4.4685Y-2.4819
X4.4685Y-2.5819
X4.4685Y-2.6819
X4.4685Y-2.7819
X4.4685Y-2.8819
X4.4685Y-2.9819
X4.4685Y-3.0819
X4.4685Y-3.1819
X4.4685Y-3.2819
X4.4685Y-3.3819
X4.4685Y-3.4819
X4.4685Y-3.5819
X4.4685Y-3.6819
X4.4685Y-3.7819
X4.4685Y-3.8819
X4.7195Y-2.185
X4.7488Y-4.1217
X4.7488Y-4.4217
X4.8179Y-2.185
X4.8305Y-5.157
X4.8305Y-5.3049
X4.8305Y-5.4528
X4.9177Y-4.0421
X4.9409Y-4.2224
X4.9409Y-4.3209
X4.9429Y-4.685
X5.0039Y-2.2441
X5.0161Y-4.0421
X5.0685Y-2.3819
X5.0685Y-2.4819
X5.0685Y-2.5819
X5.0685Y-2.6819
X5.0685Y-2.7819
X5.0685Y-2.8819
X5.0685Y-2.9819
X5.0685Y-3.0819
X5.0685Y-3.1819
X5.0685Y-3.2819
X5.0685Y-3.3819
X5.0685Y-3.4819
X5.0685Y-3.5819
X5.0685Y-3.6819
X5.0685Y-3.7819
X5.0685Y-3.8819
X5.1063Y-4.0827
X5.1063Y-4.1827
X5.1063Y-4.2827
X5.1063Y-4.3827
X5.135Y-4.685
X5.2008Y-2.5228
X5.2008Y-2.9228
X5.2305Y-5.157
X5.2305Y-5.3049
X5.2305Y-5.4528
X5.3335Y-2.3819
X5.3335Y-2.4819
X5.3335Y-2.5819
X5.3335Y-2.6819
X5.3335Y-2.7819
X5.3335Y-2.8819
X5.3335Y-2.9819
X5.3335Y-3.0819
X5.3335Y-3.1819
X5.3335Y-3.2819
X5.3335Y-3.3819
X5.3335Y-3.4819
X5.3335Y-3.5819
X5.3335Y-3.6819
X5.3335Y-3.7819
X5.3335Y-3.8819
X5.4039Y-2.2441
X5.4063Y-4.0827
X5.4063Y-4.1827
X5.4063Y-4.2827
X5.4063Y-4.3827
X5.4429Y-4.6075
X5.4429Y-4.7075
X5.4429Y-4.8075
X5.4429Y-4.9075
X5.4429Y-5.0075
X5.4429Y-5.1075
X5.4429Y-5.2075
X5.4429Y-5.3075
X5.4429Y-5.4075
X5.4429Y-5.5075
X5.4429Y-5.6075
X5.4429Y-5.7075
X5.5512Y-4.4106
X5.5948Y-2.185
X5.6496Y-4.4106
X5.6932Y-2.185
X5.7429Y-4.6075
X5.7429Y-4.7075
X5.7429Y-4.8075
X5.7429Y-4.9075
X5.7429Y-5.0075
X5.7429Y-5.1075
X5.7429Y-5.2075
X5.7429Y-5.3075
X5.7429Y-5.4075
X5.7429Y-5.5075
X5.7429Y-5.6075
X5.7429Y-5.7075
X5.8114Y-4.4106
X5.9098Y-4.4106
X5.9335Y-2.3819
X5.9335Y-2.4819
X5.9335Y-2.5819
X5.9335Y-2.6819
X5.9335Y-2.7819
X5.9335Y-2.8819
X5.9335Y-2.9819
X5.9335Y-3.0819
X5.9335Y-3.1819
X5.9335Y-3.2819
X5.9335Y-3.3819
X5.9335Y-3.4819
X5.9335Y-3.5819
X5.9335Y-3.6819
X5.9335Y-3.7819
X5.9335Y-3.8819
X5.9626Y-4.6085
X5.9626Y-4.7085
X5.9626Y-4.8085
X5.9626Y-4.9085
X5.9626Y-5.0085
X5.9626Y-5.1085
X5.9626Y-5.2085
X5.9626Y-5.3085
X5.9626Y-5.4085
X5.9626Y-5.5085
X5.9626Y-5.6085
X5.9626Y-5.7085
X6.0685Y-3.8976
X6.0685Y-4.0551
X6.0685Y-4.2126
X6.0827Y-4.4106
X6.1811Y-4.4106
X6.198Y-2.3819
X6.198Y-2.4819
X6.198Y-2.5819
X6.198Y-2.6819
X6.198Y-2.7819
X6.198Y-2.8819
X6.198Y-2.9819
X6.198Y-3.0819
X6.198Y-3.1819
X6.198Y-3.2819
X6.198Y-3.3819
X6.198Y-3.4819
X6.198Y-3.5819
X6.198Y-3.6819
X6.2626Y-4.6085
X6.2626Y-4.7085
X6.2626Y-4.8085
X6.2626Y-4.9085
X6.2626Y-5.0085
X6.2626Y-5.1085
X6.2626Y-5.2085
X6.2626Y-5.3085
X6.2626Y-5.4085
X6.2626Y-5.5085
X6.2626Y-5.6085
X6.2626Y-5.7085
X6.4205Y-4.3134
X6.4205Y-4.7134
X6.4511Y-2.185
X6.4685Y-3.8976
X6.4685Y-4.0551
X6.4685Y-4.2126
X6.4744Y-5.0051
X6.4744Y-5.1051
X6.4744Y-5.2051
X6.4744Y-5.3051
X6.4744Y-5.4051
X6.4744Y-5.5051
X6.4744Y-5.6051
X6.4744Y-5.7051
X6.5495Y-2.185
X6.5748Y-4.8043
X6.6732Y-4.8043
X6.6929Y-4.0551
X6.7744Y-5.0051
X6.7744Y-5.1051
X6.7744Y-5.2051
X6.7744Y-5.3051
X6.7744Y-5.4051
X6.7744Y-5.5051
X6.7744Y-5.6051
X6.7744Y-5.7051
X6.7913Y-4.0551
X6.798Y-2.3819
X6.798Y-2.4819
X6.798Y-2.5819
X6.798Y-2.6819
X6.798Y-2.7819
X6.798Y-2.8819
X6.798Y-2.9819
X6.798Y-3.0819
X6.798Y-3.1819
X6.798Y-3.2819
X6.798Y-3.3819
X6.798Y-3.4819
X6.798Y-3.5819
X6.798Y-3.6819
X6.9425Y-4.9016
X7.0079Y-5.1969
X7.0409Y-4.9016
X7.1063Y-5.1969
T3
X4.7713Y-4.9606
X4.8713Y-4.9606
X4.9713Y-4.9606
X5.0862Y-4.9606
X5.1862Y-4.9606
X5.2862Y-4.9606
T4
X4.8031Y-5.7087
X4.9031Y-5.7087
X5.1575Y-5.7087
X5.2575Y-5.7087
T5
X3.4252Y-4.7894
X3.4252Y-4.8894
X3.4252Y-4.9894
X3.4252Y-5.0894
X3.4252Y-5.1894
X3.4252Y-5.2894
X3.435Y-4.438
X3.435Y-4.538
X3.8051Y-5.689
X3.9051Y-5.689
X4.0051Y-5.689
X4.1051Y-5.689
X4.2051Y-5.689
X4.3051Y-5.689
X4.4496Y-2.1394
X4.4496Y-2.2394
X4.5496Y-2.1394
X4.5496Y-2.2394
X4.5669Y-5.6191
X4.5669Y-5.7191
X4.6063Y-4.7106
X4.6063Y-4.8106
X4.6063Y-4.9106
X4.6063Y-5.0106
X4.6063Y-5.1106
X4.6063Y-5.2106
X4.6063Y-5.4134
X7.0085Y-5.4461
X7.0167Y-2.497
X7.0167Y-2.597
X7.0167Y-2.697
X7.0167Y-2.797
X7.0167Y-2.897
X7.0167Y-2.997
X7.0167Y-3.097
X7.0167Y-3.197
X7.0167Y-3.297
X7.0167Y-3.397
X7.0167Y-3.497
X7.0167Y-3.597
X7.0167Y-3.697
X7.0167Y-3.797
X7.0167Y-3.897
X7.0167Y-3.997
X7.0167Y-4.097
X7.0167Y-4.197
X7.1085Y-5.4461
X7.1167Y-2.497
X7.1167Y-2.597
X7.1167Y-2.697
X7.1167Y-2.797
X7.1167Y-2.897
X7.1167Y-2.997
X7.1167Y-3.097
X7.1167Y-3.197
X7.1167Y-3.297
X7.1167Y-3.397
X7.1167Y-3.497
X7.1167Y-3.597
X7.1167Y-3.697
X7.1167Y-3.797
X7.1167Y-3.897
X7.1167Y-3.997
X7.1167Y-4.097
X7.1167Y-4.197
T6
X5.5822Y-4.0842
X5.5822Y-4.2622
X5.8382Y-4.0842
X5.8382Y-4.2622
T7
X3.4823Y-2.1043
X3.4823Y-5.6909
X7.0689Y-2.1043
X7.0689Y-5.6909
T5
G00X6.6661Y-4.5653
M15
G01X6.6661Y-4.4865
M16
G05
G00X6.8236Y-4.3408
M15
G01X6.7449Y-4.3408
M16
G05
G00X6.9024Y-4.5653
M15
G01X6.9024Y-4.4865
M16
G05
T0
M30
