%TF.GenerationSoftware,KiCad,Pcbnew,(6.0.0-0)*%
%TF.CreationDate,2022-06-19T00:41:26+01:00*%
%TF.ProjectId,rosco_6502,726f7363-6f5f-4363-9530-322e6b696361,0*%
%TF.SameCoordinates,Original*%
%TF.FileFunction,Legend,Top*%
%TF.FilePolarity,Positive*%
%FSLAX46Y46*%
G04 Gerber Fmt 4.6, Leading zero omitted, Abs format (unit mm)*
G04 Created by KiCad (PCBNEW (6.0.0-0)) date 2022-06-19 00:41:26*
%MOMM*%
%LPD*%
G01*
G04 APERTURE LIST*
%ADD10C,0.150000*%
%ADD11C,0.300000*%
%ADD12C,0.120650*%
%ADD13C,0.120000*%
%ADD14C,0.152400*%
%ADD15C,0.254000*%
%ADD16C,0.050800*%
G04 APERTURE END LIST*
D10*
X180541904Y-135220000D02*
X180446666Y-135172380D01*
X180303809Y-135172380D01*
X180160951Y-135220000D01*
X180065713Y-135315238D01*
X180018094Y-135410476D01*
X179970475Y-135600952D01*
X179970475Y-135743809D01*
X180018094Y-135934285D01*
X180065713Y-136029523D01*
X180160951Y-136124761D01*
X180303809Y-136172380D01*
X180399047Y-136172380D01*
X180541904Y-136124761D01*
X180589523Y-136077142D01*
X180589523Y-135743809D01*
X180399047Y-135743809D01*
X181018094Y-136172380D02*
X181018094Y-135172380D01*
X181589523Y-136172380D01*
X181589523Y-135172380D01*
X182065713Y-136172380D02*
X182065713Y-135172380D01*
X182303809Y-135172380D01*
X182446666Y-135220000D01*
X182541904Y-135315238D01*
X182589523Y-135410476D01*
X182637142Y-135600952D01*
X182637142Y-135743809D01*
X182589523Y-135934285D01*
X182541904Y-136029523D01*
X182446666Y-136124761D01*
X182303809Y-136172380D01*
X182065713Y-136172380D01*
X175694761Y-135142380D02*
X175218571Y-135142380D01*
X175170952Y-135618571D01*
X175218571Y-135570952D01*
X175313809Y-135523333D01*
X175551904Y-135523333D01*
X175647142Y-135570952D01*
X175694761Y-135618571D01*
X175742380Y-135713809D01*
X175742380Y-135951904D01*
X175694761Y-136047142D01*
X175647142Y-136094761D01*
X175551904Y-136142380D01*
X175313809Y-136142380D01*
X175218571Y-136094761D01*
X175170952Y-136047142D01*
X176028095Y-135142380D02*
X176361428Y-136142380D01*
X176694761Y-135142380D01*
X177028095Y-136142380D02*
X177028095Y-135142380D01*
X177266190Y-135142380D01*
X177409047Y-135190000D01*
X177504285Y-135285238D01*
X177551904Y-135380476D01*
X177599523Y-135570952D01*
X177599523Y-135713809D01*
X177551904Y-135904285D01*
X177504285Y-135999523D01*
X177409047Y-136094761D01*
X177266190Y-136142380D01*
X177028095Y-136142380D01*
X178599523Y-136047142D02*
X178551904Y-136094761D01*
X178409047Y-136142380D01*
X178313809Y-136142380D01*
X178170952Y-136094761D01*
X178075714Y-135999523D01*
X178028095Y-135904285D01*
X177980476Y-135713809D01*
X177980476Y-135570952D01*
X178028095Y-135380476D01*
X178075714Y-135285238D01*
X178170952Y-135190000D01*
X178313809Y-135142380D01*
X178409047Y-135142380D01*
X178551904Y-135190000D01*
X178599523Y-135237619D01*
D11*
X163536871Y-77904761D02*
X162870204Y-76952380D01*
X162394014Y-77904761D02*
X162394014Y-75904761D01*
X163155919Y-75904761D01*
X163346395Y-76000000D01*
X163441633Y-76095238D01*
X163536871Y-76285714D01*
X163536871Y-76571428D01*
X163441633Y-76761904D01*
X163346395Y-76857142D01*
X163155919Y-76952380D01*
X162394014Y-76952380D01*
X164774966Y-75904761D02*
X165155919Y-75904761D01*
X165346395Y-76000000D01*
X165536871Y-76190476D01*
X165632109Y-76571428D01*
X165632109Y-77238095D01*
X165536871Y-77619047D01*
X165346395Y-77809523D01*
X165155919Y-77904761D01*
X164774966Y-77904761D01*
X164584490Y-77809523D01*
X164394014Y-77619047D01*
X164298776Y-77238095D01*
X164298776Y-76571428D01*
X164394014Y-76190476D01*
X164584490Y-76000000D01*
X164774966Y-75904761D01*
X166489252Y-77904761D02*
X166489252Y-75904761D01*
X167155919Y-77333333D01*
X167822585Y-75904761D01*
X167822585Y-77904761D01*
X118363095Y-75247142D02*
X118648809Y-75342380D01*
X118744047Y-75437619D01*
X118839285Y-75628095D01*
X118839285Y-75913809D01*
X118744047Y-76104285D01*
X118648809Y-76199523D01*
X118458333Y-76294761D01*
X117696428Y-76294761D01*
X117696428Y-74294761D01*
X118363095Y-74294761D01*
X118553571Y-74390000D01*
X118648809Y-74485238D01*
X118744047Y-74675714D01*
X118744047Y-74866190D01*
X118648809Y-75056666D01*
X118553571Y-75151904D01*
X118363095Y-75247142D01*
X117696428Y-75247142D01*
X119601190Y-75723333D02*
X120553571Y-75723333D01*
X119410714Y-76294761D02*
X120077380Y-74294761D01*
X120744047Y-76294761D01*
X121410714Y-76294761D02*
X121410714Y-74294761D01*
X122553571Y-76294761D01*
X122553571Y-74294761D01*
X123505952Y-76294761D02*
X123505952Y-74294761D01*
X124648809Y-76294761D02*
X123791666Y-75151904D01*
X124648809Y-74294761D02*
X123505952Y-75437619D01*
X119744047Y-79514761D02*
X119077380Y-78562380D01*
X118601190Y-79514761D02*
X118601190Y-77514761D01*
X119363095Y-77514761D01*
X119553571Y-77610000D01*
X119648809Y-77705238D01*
X119744047Y-77895714D01*
X119744047Y-78181428D01*
X119648809Y-78371904D01*
X119553571Y-78467142D01*
X119363095Y-78562380D01*
X118601190Y-78562380D01*
X120505952Y-78943333D02*
X121458333Y-78943333D01*
X120315476Y-79514761D02*
X120982142Y-77514761D01*
X121648809Y-79514761D01*
X122315476Y-79514761D02*
X122315476Y-77514761D01*
X122982142Y-78943333D01*
X123648809Y-77514761D01*
X123648809Y-79514761D01*
D10*
X84523809Y-136452380D02*
X84523809Y-137261904D01*
X84571428Y-137357142D01*
X84619047Y-137404761D01*
X84714285Y-137452380D01*
X84904761Y-137452380D01*
X85000000Y-137404761D01*
X85047619Y-137357142D01*
X85095238Y-137261904D01*
X85095238Y-136452380D01*
X85523809Y-137166666D02*
X86000000Y-137166666D01*
X85428571Y-137452380D02*
X85761904Y-136452380D01*
X86095238Y-137452380D01*
X87000000Y-137452380D02*
X86666666Y-136976190D01*
X86428571Y-137452380D02*
X86428571Y-136452380D01*
X86809523Y-136452380D01*
X86904761Y-136500000D01*
X86952380Y-136547619D01*
X87000000Y-136642857D01*
X87000000Y-136785714D01*
X86952380Y-136880952D01*
X86904761Y-136928571D01*
X86809523Y-136976190D01*
X86428571Y-136976190D01*
X87285714Y-136452380D02*
X87857142Y-136452380D01*
X87571428Y-137452380D02*
X87571428Y-136452380D01*
X89285714Y-136928571D02*
X89428571Y-136976190D01*
X89476190Y-137023809D01*
X89523809Y-137119047D01*
X89523809Y-137261904D01*
X89476190Y-137357142D01*
X89428571Y-137404761D01*
X89333333Y-137452380D01*
X88952380Y-137452380D01*
X88952380Y-136452380D01*
X89285714Y-136452380D01*
X89380952Y-136500000D01*
X89428571Y-136547619D01*
X89476190Y-136642857D01*
X89476190Y-136738095D01*
X89428571Y-136833333D01*
X89380952Y-136880952D01*
X89285714Y-136928571D01*
X88952380Y-136928571D01*
X100595238Y-146452380D02*
X100595238Y-147261904D01*
X100642857Y-147357142D01*
X100690476Y-147404761D01*
X100785714Y-147452380D01*
X100976190Y-147452380D01*
X101071428Y-147404761D01*
X101119047Y-147357142D01*
X101166666Y-147261904D01*
X101166666Y-146452380D01*
X101595238Y-147166666D02*
X102071428Y-147166666D01*
X101500000Y-147452380D02*
X101833333Y-146452380D01*
X102166666Y-147452380D01*
X103071428Y-147452380D02*
X102738095Y-146976190D01*
X102500000Y-147452380D02*
X102500000Y-146452380D01*
X102880952Y-146452380D01*
X102976190Y-146500000D01*
X103023809Y-146547619D01*
X103071428Y-146642857D01*
X103071428Y-146785714D01*
X103023809Y-146880952D01*
X102976190Y-146928571D01*
X102880952Y-146976190D01*
X102500000Y-146976190D01*
X103357142Y-146452380D02*
X103928571Y-146452380D01*
X103642857Y-147452380D02*
X103642857Y-146452380D01*
X104976190Y-147166666D02*
X105452380Y-147166666D01*
X104880952Y-147452380D02*
X105214285Y-146452380D01*
X105547619Y-147452380D01*
D11*
X97809523Y-128904761D02*
X97809523Y-126904761D01*
X98285714Y-126904761D01*
X98571428Y-127000000D01*
X98761904Y-127190476D01*
X98857142Y-127380952D01*
X98952380Y-127761904D01*
X98952380Y-128047619D01*
X98857142Y-128428571D01*
X98761904Y-128619047D01*
X98571428Y-128809523D01*
X98285714Y-128904761D01*
X97809523Y-128904761D01*
X99809523Y-126904761D02*
X99809523Y-128523809D01*
X99904761Y-128714285D01*
X100000000Y-128809523D01*
X100190476Y-128904761D01*
X100571428Y-128904761D01*
X100761904Y-128809523D01*
X100857142Y-128714285D01*
X100952380Y-128523809D01*
X100952380Y-126904761D01*
X101809523Y-128333333D02*
X102761904Y-128333333D01*
X101619047Y-128904761D02*
X102285714Y-126904761D01*
X102952380Y-128904761D01*
X104761904Y-128904761D02*
X104095238Y-127952380D01*
X103619047Y-128904761D02*
X103619047Y-126904761D01*
X104380952Y-126904761D01*
X104571428Y-127000000D01*
X104666666Y-127095238D01*
X104761904Y-127285714D01*
X104761904Y-127571428D01*
X104666666Y-127761904D01*
X104571428Y-127857142D01*
X104380952Y-127952380D01*
X103619047Y-127952380D01*
X105333333Y-126904761D02*
X106476190Y-126904761D01*
X105904761Y-128904761D02*
X105904761Y-126904761D01*
X118892857Y-51518571D02*
X118892857Y-50518571D01*
X118892857Y-50804285D02*
X118964285Y-50661428D01*
X119035714Y-50590000D01*
X119178571Y-50518571D01*
X119321428Y-50518571D01*
X120035714Y-51518571D02*
X119892857Y-51447142D01*
X119821428Y-51375714D01*
X119750000Y-51232857D01*
X119750000Y-50804285D01*
X119821428Y-50661428D01*
X119892857Y-50590000D01*
X120035714Y-50518571D01*
X120250000Y-50518571D01*
X120392857Y-50590000D01*
X120464285Y-50661428D01*
X120535714Y-50804285D01*
X120535714Y-51232857D01*
X120464285Y-51375714D01*
X120392857Y-51447142D01*
X120250000Y-51518571D01*
X120035714Y-51518571D01*
X121107142Y-51447142D02*
X121250000Y-51518571D01*
X121535714Y-51518571D01*
X121678571Y-51447142D01*
X121750000Y-51304285D01*
X121750000Y-51232857D01*
X121678571Y-51090000D01*
X121535714Y-51018571D01*
X121321428Y-51018571D01*
X121178571Y-50947142D01*
X121107142Y-50804285D01*
X121107142Y-50732857D01*
X121178571Y-50590000D01*
X121321428Y-50518571D01*
X121535714Y-50518571D01*
X121678571Y-50590000D01*
X123035714Y-51447142D02*
X122892857Y-51518571D01*
X122607142Y-51518571D01*
X122464285Y-51447142D01*
X122392857Y-51375714D01*
X122321428Y-51232857D01*
X122321428Y-50804285D01*
X122392857Y-50661428D01*
X122464285Y-50590000D01*
X122607142Y-50518571D01*
X122892857Y-50518571D01*
X123035714Y-50590000D01*
X123892857Y-51518571D02*
X123750000Y-51447142D01*
X123678571Y-51375714D01*
X123607142Y-51232857D01*
X123607142Y-50804285D01*
X123678571Y-50661428D01*
X123750000Y-50590000D01*
X123892857Y-50518571D01*
X124107142Y-50518571D01*
X124250000Y-50590000D01*
X124321428Y-50661428D01*
X124392857Y-50804285D01*
X124392857Y-51232857D01*
X124321428Y-51375714D01*
X124250000Y-51447142D01*
X124107142Y-51518571D01*
X123892857Y-51518571D01*
X124678571Y-51661428D02*
X125821428Y-51661428D01*
X126821428Y-50018571D02*
X126535714Y-50018571D01*
X126392857Y-50090000D01*
X126321428Y-50161428D01*
X126178571Y-50375714D01*
X126107142Y-50661428D01*
X126107142Y-51232857D01*
X126178571Y-51375714D01*
X126250000Y-51447142D01*
X126392857Y-51518571D01*
X126678571Y-51518571D01*
X126821428Y-51447142D01*
X126892857Y-51375714D01*
X126964285Y-51232857D01*
X126964285Y-50875714D01*
X126892857Y-50732857D01*
X126821428Y-50661428D01*
X126678571Y-50590000D01*
X126392857Y-50590000D01*
X126250000Y-50661428D01*
X126178571Y-50732857D01*
X126107142Y-50875714D01*
X128321428Y-50018571D02*
X127607142Y-50018571D01*
X127535714Y-50732857D01*
X127607142Y-50661428D01*
X127750000Y-50590000D01*
X128107142Y-50590000D01*
X128250000Y-50661428D01*
X128321428Y-50732857D01*
X128392857Y-50875714D01*
X128392857Y-51232857D01*
X128321428Y-51375714D01*
X128250000Y-51447142D01*
X128107142Y-51518571D01*
X127750000Y-51518571D01*
X127607142Y-51447142D01*
X127535714Y-51375714D01*
X129321428Y-50018571D02*
X129464285Y-50018571D01*
X129607142Y-50090000D01*
X129678571Y-50161428D01*
X129750000Y-50304285D01*
X129821428Y-50590000D01*
X129821428Y-50947142D01*
X129750000Y-51232857D01*
X129678571Y-51375714D01*
X129607142Y-51447142D01*
X129464285Y-51518571D01*
X129321428Y-51518571D01*
X129178571Y-51447142D01*
X129107142Y-51375714D01*
X129035714Y-51232857D01*
X128964285Y-50947142D01*
X128964285Y-50590000D01*
X129035714Y-50304285D01*
X129107142Y-50161428D01*
X129178571Y-50090000D01*
X129321428Y-50018571D01*
X130392857Y-50161428D02*
X130464285Y-50090000D01*
X130607142Y-50018571D01*
X130964285Y-50018571D01*
X131107142Y-50090000D01*
X131178571Y-50161428D01*
X131250000Y-50304285D01*
X131250000Y-50447142D01*
X131178571Y-50661428D01*
X130321428Y-51518571D01*
X131250000Y-51518571D01*
X133035714Y-51518571D02*
X133035714Y-50518571D01*
X133035714Y-50804285D02*
X133107142Y-50661428D01*
X133178571Y-50590000D01*
X133321428Y-50518571D01*
X133464285Y-50518571D01*
X134250000Y-50018571D02*
X134392857Y-50018571D01*
X134535714Y-50090000D01*
X134607142Y-50161428D01*
X134678571Y-50304285D01*
X134750000Y-50590000D01*
X134750000Y-50947142D01*
X134678571Y-51232857D01*
X134607142Y-51375714D01*
X134535714Y-51447142D01*
X134392857Y-51518571D01*
X134250000Y-51518571D01*
X134107142Y-51447142D01*
X134035714Y-51375714D01*
X133964285Y-51232857D01*
X133892857Y-50947142D01*
X133892857Y-50590000D01*
X133964285Y-50304285D01*
X134035714Y-50161428D01*
X134107142Y-50090000D01*
X134250000Y-50018571D01*
X136964285Y-52090000D02*
X136892857Y-52018571D01*
X136750000Y-51804285D01*
X136678571Y-51661428D01*
X136607142Y-51447142D01*
X136535714Y-51090000D01*
X136535714Y-50804285D01*
X136607142Y-50447142D01*
X136678571Y-50232857D01*
X136750000Y-50090000D01*
X136892857Y-49875714D01*
X136964285Y-49804285D01*
X137964285Y-50018571D02*
X137964285Y-51090000D01*
X137892857Y-51304285D01*
X137750000Y-51447142D01*
X137535714Y-51518571D01*
X137392857Y-51518571D01*
X139321428Y-50518571D02*
X139321428Y-51518571D01*
X138678571Y-50518571D02*
X138678571Y-51304285D01*
X138750000Y-51447142D01*
X138892857Y-51518571D01*
X139107142Y-51518571D01*
X139250000Y-51447142D01*
X139321428Y-51375714D01*
X140250000Y-51518571D02*
X140107142Y-51447142D01*
X140035714Y-51304285D01*
X140035714Y-50018571D01*
X140678571Y-50518571D02*
X141035714Y-51518571D01*
X141392857Y-50518571D02*
X141035714Y-51518571D01*
X140892857Y-51875714D01*
X140821428Y-51947142D01*
X140678571Y-52018571D01*
X143035714Y-50161428D02*
X143107142Y-50090000D01*
X143250000Y-50018571D01*
X143607142Y-50018571D01*
X143750000Y-50090000D01*
X143821428Y-50161428D01*
X143892857Y-50304285D01*
X143892857Y-50447142D01*
X143821428Y-50661428D01*
X142964285Y-51518571D01*
X143892857Y-51518571D01*
X144821428Y-50018571D02*
X144964285Y-50018571D01*
X145107142Y-50090000D01*
X145178571Y-50161428D01*
X145250000Y-50304285D01*
X145321428Y-50590000D01*
X145321428Y-50947142D01*
X145250000Y-51232857D01*
X145178571Y-51375714D01*
X145107142Y-51447142D01*
X144964285Y-51518571D01*
X144821428Y-51518571D01*
X144678571Y-51447142D01*
X144607142Y-51375714D01*
X144535714Y-51232857D01*
X144464285Y-50947142D01*
X144464285Y-50590000D01*
X144535714Y-50304285D01*
X144607142Y-50161428D01*
X144678571Y-50090000D01*
X144821428Y-50018571D01*
X145892857Y-50161428D02*
X145964285Y-50090000D01*
X146107142Y-50018571D01*
X146464285Y-50018571D01*
X146607142Y-50090000D01*
X146678571Y-50161428D01*
X146750000Y-50304285D01*
X146750000Y-50447142D01*
X146678571Y-50661428D01*
X145821428Y-51518571D01*
X146750000Y-51518571D01*
X147321428Y-50161428D02*
X147392857Y-50090000D01*
X147535714Y-50018571D01*
X147892857Y-50018571D01*
X148035714Y-50090000D01*
X148107142Y-50161428D01*
X148178571Y-50304285D01*
X148178571Y-50447142D01*
X148107142Y-50661428D01*
X147250000Y-51518571D01*
X148178571Y-51518571D01*
X148678571Y-52090000D02*
X148750000Y-52018571D01*
X148892857Y-51804285D01*
X148964285Y-51661428D01*
X149035714Y-51447142D01*
X149107142Y-51090000D01*
X149107142Y-50804285D01*
X149035714Y-50447142D01*
X148964285Y-50232857D01*
X148892857Y-50090000D01*
X148750000Y-49875714D01*
X148678571Y-49804285D01*
D10*
X168178571Y-141291905D02*
X168226190Y-141149048D01*
X168273809Y-141101429D01*
X168369047Y-141053810D01*
X168511904Y-141053810D01*
X168607142Y-141101429D01*
X168654761Y-141149048D01*
X168702380Y-141244286D01*
X168702380Y-141625239D01*
X167702380Y-141625239D01*
X167702380Y-141291905D01*
X167750000Y-141196667D01*
X167797619Y-141149048D01*
X167892857Y-141101429D01*
X167988095Y-141101429D01*
X168083333Y-141149048D01*
X168130952Y-141196667D01*
X168178571Y-141291905D01*
X168178571Y-141625239D01*
X168416666Y-140672858D02*
X168416666Y-140196667D01*
X168702380Y-140768096D02*
X167702380Y-140434762D01*
X168702380Y-140101429D01*
X168702380Y-139768096D02*
X167702380Y-139768096D01*
X168702380Y-139196667D01*
X167702380Y-139196667D01*
X168702380Y-138720477D02*
X167702380Y-138720477D01*
X168702380Y-138149048D02*
X168130952Y-138577620D01*
X167702380Y-138149048D02*
X168273809Y-138720477D01*
X168702380Y-136387143D02*
X168226190Y-136720477D01*
X168702380Y-136958572D02*
X167702380Y-136958572D01*
X167702380Y-136577620D01*
X167750000Y-136482381D01*
X167797619Y-136434762D01*
X167892857Y-136387143D01*
X168035714Y-136387143D01*
X168130952Y-136434762D01*
X168178571Y-136482381D01*
X168226190Y-136577620D01*
X168226190Y-136958572D01*
X168178571Y-135958572D02*
X168178571Y-135625239D01*
X168702380Y-135482381D02*
X168702380Y-135958572D01*
X167702380Y-135958572D01*
X167702380Y-135482381D01*
X167750000Y-134530001D02*
X167702380Y-134625239D01*
X167702380Y-134768096D01*
X167750000Y-134910953D01*
X167845238Y-135006191D01*
X167940476Y-135053810D01*
X168130952Y-135101429D01*
X168273809Y-135101429D01*
X168464285Y-135053810D01*
X168559523Y-135006191D01*
X168654761Y-134910953D01*
X168702380Y-134768096D01*
X168702380Y-134672858D01*
X168654761Y-134530001D01*
X168607142Y-134482381D01*
X168273809Y-134482381D01*
X168273809Y-134672858D01*
X168702380Y-134053810D02*
X167702380Y-134053810D01*
X168654761Y-133625239D02*
X168702380Y-133482381D01*
X168702380Y-133244286D01*
X168654761Y-133149048D01*
X168607142Y-133101429D01*
X168511904Y-133053810D01*
X168416666Y-133053810D01*
X168321428Y-133101429D01*
X168273809Y-133149048D01*
X168226190Y-133244286D01*
X168178571Y-133434762D01*
X168130952Y-133530001D01*
X168083333Y-133577620D01*
X167988095Y-133625239D01*
X167892857Y-133625239D01*
X167797619Y-133577620D01*
X167750000Y-133530001D01*
X167702380Y-133434762D01*
X167702380Y-133196667D01*
X167750000Y-133053810D01*
X167702380Y-132768096D02*
X167702380Y-132196667D01*
X168702380Y-132482381D02*
X167702380Y-132482381D01*
X168178571Y-131863334D02*
X168178571Y-131530001D01*
X168702380Y-131387143D02*
X168702380Y-131863334D01*
X167702380Y-131863334D01*
X167702380Y-131387143D01*
X168702380Y-130387143D02*
X168226190Y-130720477D01*
X168702380Y-130958572D02*
X167702380Y-130958572D01*
X167702380Y-130577620D01*
X167750000Y-130482381D01*
X167797619Y-130434762D01*
X167892857Y-130387143D01*
X168035714Y-130387143D01*
X168130952Y-130434762D01*
X168178571Y-130482381D01*
X168226190Y-130577620D01*
X168226190Y-130958572D01*
D11*
X141545271Y-76294761D02*
X140592890Y-76294761D01*
X140592890Y-74294761D01*
X142592890Y-74294761D02*
X142973842Y-74294761D01*
X143164319Y-74390000D01*
X143354795Y-74580476D01*
X143450033Y-74961428D01*
X143450033Y-75628095D01*
X143354795Y-76009047D01*
X143164319Y-76199523D01*
X142973842Y-76294761D01*
X142592890Y-76294761D01*
X142402414Y-76199523D01*
X142211938Y-76009047D01*
X142116700Y-75628095D01*
X142116700Y-74961428D01*
X142211938Y-74580476D01*
X142402414Y-74390000D01*
X142592890Y-74294761D01*
X144116700Y-74294761D02*
X144592890Y-76294761D01*
X144973842Y-74866190D01*
X145354795Y-76294761D01*
X145830985Y-74294761D01*
X141735747Y-79514761D02*
X141069080Y-78562380D01*
X140592890Y-79514761D02*
X140592890Y-77514761D01*
X141354795Y-77514761D01*
X141545271Y-77610000D01*
X141640509Y-77705238D01*
X141735747Y-77895714D01*
X141735747Y-78181428D01*
X141640509Y-78371904D01*
X141545271Y-78467142D01*
X141354795Y-78562380D01*
X140592890Y-78562380D01*
X142497652Y-78943333D02*
X143450033Y-78943333D01*
X142307176Y-79514761D02*
X142973842Y-77514761D01*
X143640509Y-79514761D01*
X144307176Y-79514761D02*
X144307176Y-77514761D01*
X144973842Y-78943333D01*
X145640509Y-77514761D01*
X145640509Y-79514761D01*
X142821428Y-98678571D02*
X142321428Y-97964285D01*
X141964285Y-98678571D02*
X141964285Y-97178571D01*
X142535714Y-97178571D01*
X142678571Y-97250000D01*
X142750000Y-97321428D01*
X142821428Y-97464285D01*
X142821428Y-97678571D01*
X142750000Y-97821428D01*
X142678571Y-97892857D01*
X142535714Y-97964285D01*
X141964285Y-97964285D01*
X143464285Y-97892857D02*
X143964285Y-97892857D01*
X144178571Y-98678571D02*
X143464285Y-98678571D01*
X143464285Y-97178571D01*
X144178571Y-97178571D01*
X144750000Y-98607142D02*
X144964285Y-98678571D01*
X145321428Y-98678571D01*
X145464285Y-98607142D01*
X145535714Y-98535714D01*
X145607142Y-98392857D01*
X145607142Y-98250000D01*
X145535714Y-98107142D01*
X145464285Y-98035714D01*
X145321428Y-97964285D01*
X145035714Y-97892857D01*
X144892857Y-97821428D01*
X144821428Y-97750000D01*
X144750000Y-97607142D01*
X144750000Y-97464285D01*
X144821428Y-97321428D01*
X144892857Y-97250000D01*
X145035714Y-97178571D01*
X145392857Y-97178571D01*
X145607142Y-97250000D01*
X146250000Y-97892857D02*
X146750000Y-97892857D01*
X146964285Y-98678571D02*
X146250000Y-98678571D01*
X146250000Y-97178571D01*
X146964285Y-97178571D01*
X147392857Y-97178571D02*
X148250000Y-97178571D01*
X147821428Y-98678571D02*
X147821428Y-97178571D01*
D10*
X119604761Y-128523810D02*
X119652380Y-128380953D01*
X119652380Y-128142858D01*
X119604761Y-128047620D01*
X119557142Y-128000001D01*
X119461904Y-127952381D01*
X119366666Y-127952381D01*
X119271428Y-128000001D01*
X119223809Y-128047620D01*
X119176190Y-128142858D01*
X119128571Y-128333334D01*
X119080952Y-128428572D01*
X119033333Y-128476191D01*
X118938095Y-128523810D01*
X118842857Y-128523810D01*
X118747619Y-128476191D01*
X118700000Y-128428572D01*
X118652380Y-128333334D01*
X118652380Y-128095239D01*
X118700000Y-127952381D01*
X119652380Y-127523810D02*
X118652380Y-127523810D01*
X118652380Y-127142858D01*
X118700000Y-127047620D01*
X118747619Y-127000001D01*
X118842857Y-126952381D01*
X118985714Y-126952381D01*
X119080952Y-127000001D01*
X119128571Y-127047620D01*
X119176190Y-127142858D01*
X119176190Y-127523810D01*
X119652380Y-126523810D02*
X118652380Y-126523810D01*
X118604761Y-125333334D02*
X119890476Y-126190477D01*
X119604761Y-125047620D02*
X119652380Y-124904762D01*
X119652380Y-124666667D01*
X119604761Y-124571429D01*
X119557142Y-124523810D01*
X119461904Y-124476191D01*
X119366666Y-124476191D01*
X119271428Y-124523810D01*
X119223809Y-124571429D01*
X119176190Y-124666667D01*
X119128571Y-124857143D01*
X119080952Y-124952381D01*
X119033333Y-125000001D01*
X118938095Y-125047620D01*
X118842857Y-125047620D01*
X118747619Y-125000001D01*
X118700000Y-124952381D01*
X118652380Y-124857143D01*
X118652380Y-124619048D01*
X118700000Y-124476191D01*
X119652380Y-124047620D02*
X118652380Y-124047620D01*
X118652380Y-123809524D01*
X118700000Y-123666667D01*
X118795238Y-123571429D01*
X118890476Y-123523810D01*
X119080952Y-123476191D01*
X119223809Y-123476191D01*
X119414285Y-123523810D01*
X119509523Y-123571429D01*
X119604761Y-123666667D01*
X119652380Y-123809524D01*
X119652380Y-124047620D01*
X154750000Y-134696667D02*
X154702380Y-134791905D01*
X154702380Y-134934762D01*
X154750000Y-135077620D01*
X154845238Y-135172858D01*
X154940476Y-135220477D01*
X155130952Y-135268096D01*
X155273809Y-135268096D01*
X155464285Y-135220477D01*
X155559523Y-135172858D01*
X155654761Y-135077620D01*
X155702380Y-134934762D01*
X155702380Y-134839524D01*
X155654761Y-134696667D01*
X155607142Y-134649048D01*
X155273809Y-134649048D01*
X155273809Y-134839524D01*
X155702380Y-133744286D02*
X155702380Y-134220477D01*
X154702380Y-134220477D01*
X154702380Y-133410953D02*
X155511904Y-133410953D01*
X155607142Y-133363334D01*
X155654761Y-133315715D01*
X155702380Y-133220477D01*
X155702380Y-133030001D01*
X155654761Y-132934762D01*
X155607142Y-132887143D01*
X155511904Y-132839524D01*
X154702380Y-132839524D01*
X155178571Y-132363334D02*
X155178571Y-132030001D01*
X155702380Y-131887143D02*
X155702380Y-132363334D01*
X154702380Y-132363334D01*
X154702380Y-131887143D01*
X155702380Y-130220477D02*
X155702380Y-130696667D01*
X154702380Y-130696667D01*
X154702380Y-129696667D02*
X154702380Y-129506191D01*
X154750000Y-129410953D01*
X154845238Y-129315715D01*
X155035714Y-129268096D01*
X155369047Y-129268096D01*
X155559523Y-129315715D01*
X155654761Y-129410953D01*
X155702380Y-129506191D01*
X155702380Y-129696667D01*
X155654761Y-129791905D01*
X155559523Y-129887143D01*
X155369047Y-129934762D01*
X155035714Y-129934762D01*
X154845238Y-129887143D01*
X154750000Y-129791905D01*
X154702380Y-129696667D01*
X154750000Y-128315715D02*
X154702380Y-128410953D01*
X154702380Y-128553810D01*
X154750000Y-128696667D01*
X154845238Y-128791905D01*
X154940476Y-128839524D01*
X155130952Y-128887143D01*
X155273809Y-128887143D01*
X155464285Y-128839524D01*
X155559523Y-128791905D01*
X155654761Y-128696667D01*
X155702380Y-128553810D01*
X155702380Y-128458572D01*
X155654761Y-128315715D01*
X155607142Y-128268096D01*
X155273809Y-128268096D01*
X155273809Y-128458572D01*
X155702380Y-127839524D02*
X154702380Y-127839524D01*
X155607142Y-126791905D02*
X155654761Y-126839524D01*
X155702380Y-126982381D01*
X155702380Y-127077620D01*
X155654761Y-127220477D01*
X155559523Y-127315715D01*
X155464285Y-127363334D01*
X155273809Y-127410953D01*
X155130952Y-127410953D01*
X154940476Y-127363334D01*
X154845238Y-127315715D01*
X154750000Y-127220477D01*
X154702380Y-127077620D01*
X154702380Y-126982381D01*
X154750000Y-126839524D01*
X154797619Y-126791905D01*
D11*
X95732109Y-75904761D02*
X95351157Y-75904761D01*
X95160680Y-76000000D01*
X95065442Y-76095238D01*
X94874966Y-76380952D01*
X94779728Y-76761904D01*
X94779728Y-77523809D01*
X94874966Y-77714285D01*
X94970204Y-77809523D01*
X95160680Y-77904761D01*
X95541633Y-77904761D01*
X95732109Y-77809523D01*
X95827347Y-77714285D01*
X95922585Y-77523809D01*
X95922585Y-77047619D01*
X95827347Y-76857142D01*
X95732109Y-76761904D01*
X95541633Y-76666666D01*
X95160680Y-76666666D01*
X94970204Y-76761904D01*
X94874966Y-76857142D01*
X94779728Y-77047619D01*
X97732109Y-75904761D02*
X96779728Y-75904761D01*
X96684490Y-76857142D01*
X96779728Y-76761904D01*
X96970204Y-76666666D01*
X97446395Y-76666666D01*
X97636871Y-76761904D01*
X97732109Y-76857142D01*
X97827347Y-77047619D01*
X97827347Y-77523809D01*
X97732109Y-77714285D01*
X97636871Y-77809523D01*
X97446395Y-77904761D01*
X96970204Y-77904761D01*
X96779728Y-77809523D01*
X96684490Y-77714285D01*
X99827347Y-77714285D02*
X99732109Y-77809523D01*
X99446395Y-77904761D01*
X99255919Y-77904761D01*
X98970204Y-77809523D01*
X98779728Y-77619047D01*
X98684490Y-77428571D01*
X98589252Y-77047619D01*
X98589252Y-76761904D01*
X98684490Y-76380952D01*
X98779728Y-76190476D01*
X98970204Y-76000000D01*
X99255919Y-75904761D01*
X99446395Y-75904761D01*
X99732109Y-76000000D01*
X99827347Y-76095238D01*
X101065442Y-75904761D02*
X101255919Y-75904761D01*
X101446395Y-76000000D01*
X101541633Y-76095238D01*
X101636871Y-76285714D01*
X101732109Y-76666666D01*
X101732109Y-77142857D01*
X101636871Y-77523809D01*
X101541633Y-77714285D01*
X101446395Y-77809523D01*
X101255919Y-77904761D01*
X101065442Y-77904761D01*
X100874966Y-77809523D01*
X100779728Y-77714285D01*
X100684490Y-77523809D01*
X100589252Y-77142857D01*
X100589252Y-76666666D01*
X100684490Y-76285714D01*
X100779728Y-76095238D01*
X100874966Y-76000000D01*
X101065442Y-75904761D01*
X102494014Y-76095238D02*
X102589252Y-76000000D01*
X102779728Y-75904761D01*
X103255919Y-75904761D01*
X103446395Y-76000000D01*
X103541633Y-76095238D01*
X103636871Y-76285714D01*
X103636871Y-76476190D01*
X103541633Y-76761904D01*
X102398776Y-77904761D01*
X103636871Y-77904761D01*
D10*
X142216666Y-137957380D02*
X142216666Y-137481190D01*
X142502380Y-138052619D02*
X141502380Y-137719285D01*
X142502380Y-137385952D01*
X142502380Y-137052619D02*
X141502380Y-137052619D01*
X141502380Y-136814523D01*
X141550000Y-136671666D01*
X141645238Y-136576428D01*
X141740476Y-136528809D01*
X141930952Y-136481190D01*
X142073809Y-136481190D01*
X142264285Y-136528809D01*
X142359523Y-136576428D01*
X142454761Y-136671666D01*
X142502380Y-136814523D01*
X142502380Y-137052619D01*
X142502380Y-136052619D02*
X141502380Y-136052619D01*
X141502380Y-135814523D01*
X141550000Y-135671666D01*
X141645238Y-135576428D01*
X141740476Y-135528809D01*
X141930952Y-135481190D01*
X142073809Y-135481190D01*
X142264285Y-135528809D01*
X142359523Y-135576428D01*
X142454761Y-135671666D01*
X142502380Y-135814523D01*
X142502380Y-136052619D01*
X142502380Y-134481190D02*
X142026190Y-134814523D01*
X142502380Y-135052619D02*
X141502380Y-135052619D01*
X141502380Y-134671666D01*
X141550000Y-134576428D01*
X141597619Y-134528809D01*
X141692857Y-134481190D01*
X141835714Y-134481190D01*
X141930952Y-134528809D01*
X141978571Y-134576428D01*
X142026190Y-134671666D01*
X142026190Y-135052619D01*
X141978571Y-134052619D02*
X141978571Y-133719285D01*
X142502380Y-133576428D02*
X142502380Y-134052619D01*
X141502380Y-134052619D01*
X141502380Y-133576428D01*
X142454761Y-133195476D02*
X142502380Y-133052619D01*
X142502380Y-132814523D01*
X142454761Y-132719285D01*
X142407142Y-132671666D01*
X142311904Y-132624047D01*
X142216666Y-132624047D01*
X142121428Y-132671666D01*
X142073809Y-132719285D01*
X142026190Y-132814523D01*
X141978571Y-133005000D01*
X141930952Y-133100238D01*
X141883333Y-133147857D01*
X141788095Y-133195476D01*
X141692857Y-133195476D01*
X141597619Y-133147857D01*
X141550000Y-133100238D01*
X141502380Y-133005000D01*
X141502380Y-132766904D01*
X141550000Y-132624047D01*
X142454761Y-132243095D02*
X142502380Y-132100238D01*
X142502380Y-131862142D01*
X142454761Y-131766904D01*
X142407142Y-131719285D01*
X142311904Y-131671666D01*
X142216666Y-131671666D01*
X142121428Y-131719285D01*
X142073809Y-131766904D01*
X142026190Y-131862142D01*
X141978571Y-132052619D01*
X141930952Y-132147857D01*
X141883333Y-132195476D01*
X141788095Y-132243095D01*
X141692857Y-132243095D01*
X141597619Y-132195476D01*
X141550000Y-132147857D01*
X141502380Y-132052619D01*
X141502380Y-131814523D01*
X141550000Y-131671666D01*
X142502380Y-130481190D02*
X141502380Y-130481190D01*
X141502380Y-130243095D01*
X141550000Y-130100238D01*
X141645238Y-130005000D01*
X141740476Y-129957380D01*
X141930952Y-129909761D01*
X142073809Y-129909761D01*
X142264285Y-129957380D01*
X142359523Y-130005000D01*
X142454761Y-130100238D01*
X142502380Y-130243095D01*
X142502380Y-130481190D01*
X141978571Y-129481190D02*
X141978571Y-129147857D01*
X142502380Y-129005000D02*
X142502380Y-129481190D01*
X141502380Y-129481190D01*
X141502380Y-129005000D01*
X142407142Y-128005000D02*
X142454761Y-128052619D01*
X142502380Y-128195476D01*
X142502380Y-128290714D01*
X142454761Y-128433571D01*
X142359523Y-128528809D01*
X142264285Y-128576428D01*
X142073809Y-128624047D01*
X141930952Y-128624047D01*
X141740476Y-128576428D01*
X141645238Y-128528809D01*
X141550000Y-128433571D01*
X141502380Y-128290714D01*
X141502380Y-128195476D01*
X141550000Y-128052619D01*
X141597619Y-128005000D01*
X141502380Y-127385952D02*
X141502380Y-127195476D01*
X141550000Y-127100238D01*
X141645238Y-127005000D01*
X141835714Y-126957380D01*
X142169047Y-126957380D01*
X142359523Y-127005000D01*
X142454761Y-127100238D01*
X142502380Y-127195476D01*
X142502380Y-127385952D01*
X142454761Y-127481190D01*
X142359523Y-127576428D01*
X142169047Y-127624047D01*
X141835714Y-127624047D01*
X141645238Y-127576428D01*
X141550000Y-127481190D01*
X141502380Y-127385952D01*
X142502380Y-126528809D02*
X141502380Y-126528809D01*
X141502380Y-126290714D01*
X141550000Y-126147857D01*
X141645238Y-126052619D01*
X141740476Y-126005000D01*
X141930952Y-125957380D01*
X142073809Y-125957380D01*
X142264285Y-126005000D01*
X142359523Y-126052619D01*
X142454761Y-126147857D01*
X142502380Y-126290714D01*
X142502380Y-126528809D01*
X141978571Y-125528809D02*
X141978571Y-125195476D01*
X142502380Y-125052619D02*
X142502380Y-125528809D01*
X141502380Y-125528809D01*
X141502380Y-125052619D01*
X142502380Y-124052619D02*
X142026190Y-124385952D01*
X142502380Y-124624047D02*
X141502380Y-124624047D01*
X141502380Y-124243095D01*
X141550000Y-124147857D01*
X141597619Y-124100238D01*
X141692857Y-124052619D01*
X141835714Y-124052619D01*
X141930952Y-124100238D01*
X141978571Y-124147857D01*
X142026190Y-124243095D01*
X142026190Y-124624047D01*
%TO.C,J6*%
X175137380Y-138663333D02*
X175851666Y-138663333D01*
X175994523Y-138710952D01*
X176089761Y-138806190D01*
X176137380Y-138949047D01*
X176137380Y-139044285D01*
X175137380Y-137758571D02*
X175137380Y-137949047D01*
X175185000Y-138044285D01*
X175232619Y-138091904D01*
X175375476Y-138187142D01*
X175565952Y-138234761D01*
X175946904Y-138234761D01*
X176042142Y-138187142D01*
X176089761Y-138139523D01*
X176137380Y-138044285D01*
X176137380Y-137853809D01*
X176089761Y-137758571D01*
X176042142Y-137710952D01*
X175946904Y-137663333D01*
X175708809Y-137663333D01*
X175613571Y-137710952D01*
X175565952Y-137758571D01*
X175518333Y-137853809D01*
X175518333Y-138044285D01*
X175565952Y-138139523D01*
X175613571Y-138187142D01*
X175708809Y-138234761D01*
%TO.C,C15*%
X92107142Y-111857142D02*
X92059523Y-111904761D01*
X91916666Y-111952380D01*
X91821428Y-111952380D01*
X91678571Y-111904761D01*
X91583333Y-111809523D01*
X91535714Y-111714285D01*
X91488095Y-111523809D01*
X91488095Y-111380952D01*
X91535714Y-111190476D01*
X91583333Y-111095238D01*
X91678571Y-111000000D01*
X91821428Y-110952380D01*
X91916666Y-110952380D01*
X92059523Y-111000000D01*
X92107142Y-111047619D01*
X93059523Y-111952380D02*
X92488095Y-111952380D01*
X92773809Y-111952380D02*
X92773809Y-110952380D01*
X92678571Y-111095238D01*
X92583333Y-111190476D01*
X92488095Y-111238095D01*
X93964285Y-110952380D02*
X93488095Y-110952380D01*
X93440476Y-111428571D01*
X93488095Y-111380952D01*
X93583333Y-111333333D01*
X93821428Y-111333333D01*
X93916666Y-111380952D01*
X93964285Y-111428571D01*
X94011904Y-111523809D01*
X94011904Y-111761904D01*
X93964285Y-111857142D01*
X93916666Y-111904761D01*
X93821428Y-111952380D01*
X93583333Y-111952380D01*
X93488095Y-111904761D01*
X93440476Y-111857142D01*
%TO.C,C17*%
X168107142Y-119887142D02*
X168059523Y-119934761D01*
X167916666Y-119982380D01*
X167821428Y-119982380D01*
X167678571Y-119934761D01*
X167583333Y-119839523D01*
X167535714Y-119744285D01*
X167488095Y-119553809D01*
X167488095Y-119410952D01*
X167535714Y-119220476D01*
X167583333Y-119125238D01*
X167678571Y-119030000D01*
X167821428Y-118982380D01*
X167916666Y-118982380D01*
X168059523Y-119030000D01*
X168107142Y-119077619D01*
X169059523Y-119982380D02*
X168488095Y-119982380D01*
X168773809Y-119982380D02*
X168773809Y-118982380D01*
X168678571Y-119125238D01*
X168583333Y-119220476D01*
X168488095Y-119268095D01*
X169392857Y-118982380D02*
X170059523Y-118982380D01*
X169630952Y-119982380D01*
%TO.C,LED1*%
X122150952Y-141492380D02*
X121674761Y-141492380D01*
X121674761Y-140492380D01*
X122484285Y-140968571D02*
X122817619Y-140968571D01*
X122960476Y-141492380D02*
X122484285Y-141492380D01*
X122484285Y-140492380D01*
X122960476Y-140492380D01*
X123389047Y-141492380D02*
X123389047Y-140492380D01*
X123627142Y-140492380D01*
X123770000Y-140540000D01*
X123865238Y-140635238D01*
X123912857Y-140730476D01*
X123960476Y-140920952D01*
X123960476Y-141063809D01*
X123912857Y-141254285D01*
X123865238Y-141349523D01*
X123770000Y-141444761D01*
X123627142Y-141492380D01*
X123389047Y-141492380D01*
X124912857Y-141492380D02*
X124341428Y-141492380D01*
X124627142Y-141492380D02*
X124627142Y-140492380D01*
X124531904Y-140635238D01*
X124436666Y-140730476D01*
X124341428Y-140778095D01*
%TO.C,C9*%
X120941633Y-53357142D02*
X120894014Y-53404761D01*
X120751157Y-53452380D01*
X120655919Y-53452380D01*
X120513061Y-53404761D01*
X120417823Y-53309523D01*
X120370204Y-53214285D01*
X120322585Y-53023809D01*
X120322585Y-52880952D01*
X120370204Y-52690476D01*
X120417823Y-52595238D01*
X120513061Y-52500000D01*
X120655919Y-52452380D01*
X120751157Y-52452380D01*
X120894014Y-52500000D01*
X120941633Y-52547619D01*
X121417823Y-53452380D02*
X121608300Y-53452380D01*
X121703538Y-53404761D01*
X121751157Y-53357142D01*
X121846395Y-53214285D01*
X121894014Y-53023809D01*
X121894014Y-52642857D01*
X121846395Y-52547619D01*
X121798776Y-52500000D01*
X121703538Y-52452380D01*
X121513061Y-52452380D01*
X121417823Y-52500000D01*
X121370204Y-52547619D01*
X121322585Y-52642857D01*
X121322585Y-52880952D01*
X121370204Y-52976190D01*
X121417823Y-53023809D01*
X121513061Y-53071428D01*
X121703538Y-53071428D01*
X121798776Y-53023809D01*
X121846395Y-52976190D01*
X121894014Y-52880952D01*
%TO.C,J1*%
X93772380Y-144833333D02*
X94486666Y-144833333D01*
X94629523Y-144880952D01*
X94724761Y-144976190D01*
X94772380Y-145119047D01*
X94772380Y-145214285D01*
X94772380Y-143833333D02*
X94772380Y-144404761D01*
X94772380Y-144119047D02*
X93772380Y-144119047D01*
X93915238Y-144214285D01*
X94010476Y-144309523D01*
X94058095Y-144404761D01*
%TO.C,C1*%
X143191633Y-53357142D02*
X143144014Y-53404761D01*
X143001157Y-53452380D01*
X142905919Y-53452380D01*
X142763061Y-53404761D01*
X142667823Y-53309523D01*
X142620204Y-53214285D01*
X142572585Y-53023809D01*
X142572585Y-52880952D01*
X142620204Y-52690476D01*
X142667823Y-52595238D01*
X142763061Y-52500000D01*
X142905919Y-52452380D01*
X143001157Y-52452380D01*
X143144014Y-52500000D01*
X143191633Y-52547619D01*
X144144014Y-53452380D02*
X143572585Y-53452380D01*
X143858300Y-53452380D02*
X143858300Y-52452380D01*
X143763061Y-52595238D01*
X143667823Y-52690476D01*
X143572585Y-52738095D01*
%TO.C,R9*%
X165833333Y-107452380D02*
X165500000Y-106976190D01*
X165261904Y-107452380D02*
X165261904Y-106452380D01*
X165642857Y-106452380D01*
X165738095Y-106500000D01*
X165785714Y-106547619D01*
X165833333Y-106642857D01*
X165833333Y-106785714D01*
X165785714Y-106880952D01*
X165738095Y-106928571D01*
X165642857Y-106976190D01*
X165261904Y-106976190D01*
X166309523Y-107452380D02*
X166500000Y-107452380D01*
X166595238Y-107404761D01*
X166642857Y-107357142D01*
X166738095Y-107214285D01*
X166785714Y-107023809D01*
X166785714Y-106642857D01*
X166738095Y-106547619D01*
X166690476Y-106500000D01*
X166595238Y-106452380D01*
X166404761Y-106452380D01*
X166309523Y-106500000D01*
X166261904Y-106547619D01*
X166214285Y-106642857D01*
X166214285Y-106880952D01*
X166261904Y-106976190D01*
X166309523Y-107023809D01*
X166404761Y-107071428D01*
X166595238Y-107071428D01*
X166690476Y-107023809D01*
X166738095Y-106976190D01*
X166785714Y-106880952D01*
%TO.C,C13*%
X132857142Y-96357142D02*
X132809523Y-96404761D01*
X132666666Y-96452380D01*
X132571428Y-96452380D01*
X132428571Y-96404761D01*
X132333333Y-96309523D01*
X132285714Y-96214285D01*
X132238095Y-96023809D01*
X132238095Y-95880952D01*
X132285714Y-95690476D01*
X132333333Y-95595238D01*
X132428571Y-95500000D01*
X132571428Y-95452380D01*
X132666666Y-95452380D01*
X132809523Y-95500000D01*
X132857142Y-95547619D01*
X133809523Y-96452380D02*
X133238095Y-96452380D01*
X133523809Y-96452380D02*
X133523809Y-95452380D01*
X133428571Y-95595238D01*
X133333333Y-95690476D01*
X133238095Y-95738095D01*
X134142857Y-95452380D02*
X134761904Y-95452380D01*
X134428571Y-95833333D01*
X134571428Y-95833333D01*
X134666666Y-95880952D01*
X134714285Y-95928571D01*
X134761904Y-96023809D01*
X134761904Y-96261904D01*
X134714285Y-96357142D01*
X134666666Y-96404761D01*
X134571428Y-96452380D01*
X134285714Y-96452380D01*
X134190476Y-96404761D01*
X134142857Y-96357142D01*
%TO.C,R10*%
X102987142Y-114282380D02*
X102653809Y-113806190D01*
X102415714Y-114282380D02*
X102415714Y-113282380D01*
X102796666Y-113282380D01*
X102891904Y-113330000D01*
X102939523Y-113377619D01*
X102987142Y-113472857D01*
X102987142Y-113615714D01*
X102939523Y-113710952D01*
X102891904Y-113758571D01*
X102796666Y-113806190D01*
X102415714Y-113806190D01*
X103939523Y-114282380D02*
X103368095Y-114282380D01*
X103653809Y-114282380D02*
X103653809Y-113282380D01*
X103558571Y-113425238D01*
X103463333Y-113520476D01*
X103368095Y-113568095D01*
X104558571Y-113282380D02*
X104653809Y-113282380D01*
X104749047Y-113330000D01*
X104796666Y-113377619D01*
X104844285Y-113472857D01*
X104891904Y-113663333D01*
X104891904Y-113901428D01*
X104844285Y-114091904D01*
X104796666Y-114187142D01*
X104749047Y-114234761D01*
X104653809Y-114282380D01*
X104558571Y-114282380D01*
X104463333Y-114234761D01*
X104415714Y-114187142D01*
X104368095Y-114091904D01*
X104320476Y-113901428D01*
X104320476Y-113663333D01*
X104368095Y-113472857D01*
X104415714Y-113377619D01*
X104463333Y-113330000D01*
X104558571Y-113282380D01*
%TO.C,C10*%
X98465442Y-53357142D02*
X98417823Y-53404761D01*
X98274966Y-53452380D01*
X98179728Y-53452380D01*
X98036871Y-53404761D01*
X97941633Y-53309523D01*
X97894014Y-53214285D01*
X97846395Y-53023809D01*
X97846395Y-52880952D01*
X97894014Y-52690476D01*
X97941633Y-52595238D01*
X98036871Y-52500000D01*
X98179728Y-52452380D01*
X98274966Y-52452380D01*
X98417823Y-52500000D01*
X98465442Y-52547619D01*
X99417823Y-53452380D02*
X98846395Y-53452380D01*
X99132109Y-53452380D02*
X99132109Y-52452380D01*
X99036871Y-52595238D01*
X98941633Y-52690476D01*
X98846395Y-52738095D01*
X100036871Y-52452380D02*
X100132109Y-52452380D01*
X100227347Y-52500000D01*
X100274966Y-52547619D01*
X100322585Y-52642857D01*
X100370204Y-52833333D01*
X100370204Y-53071428D01*
X100322585Y-53261904D01*
X100274966Y-53357142D01*
X100227347Y-53404761D01*
X100132109Y-53452380D01*
X100036871Y-53452380D01*
X99941633Y-53404761D01*
X99894014Y-53357142D01*
X99846395Y-53261904D01*
X99798776Y-53071428D01*
X99798776Y-52833333D01*
X99846395Y-52642857D01*
X99894014Y-52547619D01*
X99941633Y-52500000D01*
X100036871Y-52452380D01*
%TO.C,U4*%
X167498095Y-124252380D02*
X167498095Y-125061904D01*
X167545714Y-125157142D01*
X167593333Y-125204761D01*
X167688571Y-125252380D01*
X167879047Y-125252380D01*
X167974285Y-125204761D01*
X168021904Y-125157142D01*
X168069523Y-125061904D01*
X168069523Y-124252380D01*
X168974285Y-124585714D02*
X168974285Y-125252380D01*
X168736190Y-124204761D02*
X168498095Y-124919047D01*
X169117142Y-124919047D01*
%TO.C,U2*%
X142349795Y-57622380D02*
X142349795Y-58431904D01*
X142397414Y-58527142D01*
X142445033Y-58574761D01*
X142540271Y-58622380D01*
X142730747Y-58622380D01*
X142825985Y-58574761D01*
X142873604Y-58527142D01*
X142921223Y-58431904D01*
X142921223Y-57622380D01*
X143349795Y-57717619D02*
X143397414Y-57670000D01*
X143492652Y-57622380D01*
X143730747Y-57622380D01*
X143825985Y-57670000D01*
X143873604Y-57717619D01*
X143921223Y-57812857D01*
X143921223Y-57908095D01*
X143873604Y-58050952D01*
X143302176Y-58622380D01*
X143921223Y-58622380D01*
%TO.C,IC2*%
X141083809Y-115152380D02*
X141083809Y-114152380D01*
X142131428Y-115057142D02*
X142083809Y-115104761D01*
X141940952Y-115152380D01*
X141845714Y-115152380D01*
X141702857Y-115104761D01*
X141607619Y-115009523D01*
X141560000Y-114914285D01*
X141512380Y-114723809D01*
X141512380Y-114580952D01*
X141560000Y-114390476D01*
X141607619Y-114295238D01*
X141702857Y-114200000D01*
X141845714Y-114152380D01*
X141940952Y-114152380D01*
X142083809Y-114200000D01*
X142131428Y-114247619D01*
X142512380Y-114247619D02*
X142560000Y-114200000D01*
X142655238Y-114152380D01*
X142893333Y-114152380D01*
X142988571Y-114200000D01*
X143036190Y-114247619D01*
X143083809Y-114342857D01*
X143083809Y-114438095D01*
X143036190Y-114580952D01*
X142464761Y-115152380D01*
X143083809Y-115152380D01*
%TO.C,X1*%
X115990476Y-107952380D02*
X116657142Y-108952380D01*
X116657142Y-107952380D02*
X115990476Y-108952380D01*
X117561904Y-108952380D02*
X116990476Y-108952380D01*
X117276190Y-108952380D02*
X117276190Y-107952380D01*
X117180952Y-108095238D01*
X117085714Y-108190476D01*
X116990476Y-108238095D01*
%TO.C,R1*%
X85952380Y-65826666D02*
X85476190Y-66160000D01*
X85952380Y-66398095D02*
X84952380Y-66398095D01*
X84952380Y-66017142D01*
X85000000Y-65921904D01*
X85047619Y-65874285D01*
X85142857Y-65826666D01*
X85285714Y-65826666D01*
X85380952Y-65874285D01*
X85428571Y-65921904D01*
X85476190Y-66017142D01*
X85476190Y-66398095D01*
X85952380Y-64874285D02*
X85952380Y-65445714D01*
X85952380Y-65160000D02*
X84952380Y-65160000D01*
X85095238Y-65255238D01*
X85190476Y-65350476D01*
X85238095Y-65445714D01*
%TO.C,C8*%
X169083333Y-108957142D02*
X169035714Y-109004761D01*
X168892857Y-109052380D01*
X168797619Y-109052380D01*
X168654761Y-109004761D01*
X168559523Y-108909523D01*
X168511904Y-108814285D01*
X168464285Y-108623809D01*
X168464285Y-108480952D01*
X168511904Y-108290476D01*
X168559523Y-108195238D01*
X168654761Y-108100000D01*
X168797619Y-108052380D01*
X168892857Y-108052380D01*
X169035714Y-108100000D01*
X169083333Y-108147619D01*
X169654761Y-108480952D02*
X169559523Y-108433333D01*
X169511904Y-108385714D01*
X169464285Y-108290476D01*
X169464285Y-108242857D01*
X169511904Y-108147619D01*
X169559523Y-108100000D01*
X169654761Y-108052380D01*
X169845238Y-108052380D01*
X169940476Y-108100000D01*
X169988095Y-108147619D01*
X170035714Y-108242857D01*
X170035714Y-108290476D01*
X169988095Y-108385714D01*
X169940476Y-108433333D01*
X169845238Y-108480952D01*
X169654761Y-108480952D01*
X169559523Y-108528571D01*
X169511904Y-108576190D01*
X169464285Y-108671428D01*
X169464285Y-108861904D01*
X169511904Y-108957142D01*
X169559523Y-109004761D01*
X169654761Y-109052380D01*
X169845238Y-109052380D01*
X169940476Y-109004761D01*
X169988095Y-108957142D01*
X170035714Y-108861904D01*
X170035714Y-108671428D01*
X169988095Y-108576190D01*
X169940476Y-108528571D01*
X169845238Y-108480952D01*
%TO.C,J3*%
X116666666Y-116772380D02*
X116666666Y-117486666D01*
X116619047Y-117629523D01*
X116523809Y-117724761D01*
X116380952Y-117772380D01*
X116285714Y-117772380D01*
X117047619Y-116772380D02*
X117666666Y-116772380D01*
X117333333Y-117153333D01*
X117476190Y-117153333D01*
X117571428Y-117200952D01*
X117619047Y-117248571D01*
X117666666Y-117343809D01*
X117666666Y-117581904D01*
X117619047Y-117677142D01*
X117571428Y-117724761D01*
X117476190Y-117772380D01*
X117190476Y-117772380D01*
X117095238Y-117724761D01*
X117047619Y-117677142D01*
%TO.C,JP2*%
X86416666Y-109847380D02*
X86416666Y-110561666D01*
X86369047Y-110704523D01*
X86273809Y-110799761D01*
X86130952Y-110847380D01*
X86035714Y-110847380D01*
X86892857Y-110847380D02*
X86892857Y-109847380D01*
X87273809Y-109847380D01*
X87369047Y-109895000D01*
X87416666Y-109942619D01*
X87464285Y-110037857D01*
X87464285Y-110180714D01*
X87416666Y-110275952D01*
X87369047Y-110323571D01*
X87273809Y-110371190D01*
X86892857Y-110371190D01*
X87845238Y-109942619D02*
X87892857Y-109895000D01*
X87988095Y-109847380D01*
X88226190Y-109847380D01*
X88321428Y-109895000D01*
X88369047Y-109942619D01*
X88416666Y-110037857D01*
X88416666Y-110133095D01*
X88369047Y-110275952D01*
X87797619Y-110847380D01*
X88416666Y-110847380D01*
%TO.C,R8*%
X165833333Y-103452380D02*
X165500000Y-102976190D01*
X165261904Y-103452380D02*
X165261904Y-102452380D01*
X165642857Y-102452380D01*
X165738095Y-102500000D01*
X165785714Y-102547619D01*
X165833333Y-102642857D01*
X165833333Y-102785714D01*
X165785714Y-102880952D01*
X165738095Y-102928571D01*
X165642857Y-102976190D01*
X165261904Y-102976190D01*
X166404761Y-102880952D02*
X166309523Y-102833333D01*
X166261904Y-102785714D01*
X166214285Y-102690476D01*
X166214285Y-102642857D01*
X166261904Y-102547619D01*
X166309523Y-102500000D01*
X166404761Y-102452380D01*
X166595238Y-102452380D01*
X166690476Y-102500000D01*
X166738095Y-102547619D01*
X166785714Y-102642857D01*
X166785714Y-102690476D01*
X166738095Y-102785714D01*
X166690476Y-102833333D01*
X166595238Y-102880952D01*
X166404761Y-102880952D01*
X166309523Y-102928571D01*
X166261904Y-102976190D01*
X166214285Y-103071428D01*
X166214285Y-103261904D01*
X166261904Y-103357142D01*
X166309523Y-103404761D01*
X166404761Y-103452380D01*
X166595238Y-103452380D01*
X166690476Y-103404761D01*
X166738095Y-103357142D01*
X166785714Y-103261904D01*
X166785714Y-103071428D01*
X166738095Y-102976190D01*
X166690476Y-102928571D01*
X166595238Y-102880952D01*
%TO.C,Q1*%
X127894761Y-116022619D02*
X127799523Y-115975000D01*
X127704285Y-115879761D01*
X127561428Y-115736904D01*
X127466190Y-115689285D01*
X127370952Y-115689285D01*
X127418571Y-115927380D02*
X127323333Y-115879761D01*
X127228095Y-115784523D01*
X127180476Y-115594047D01*
X127180476Y-115260714D01*
X127228095Y-115070238D01*
X127323333Y-114975000D01*
X127418571Y-114927380D01*
X127609047Y-114927380D01*
X127704285Y-114975000D01*
X127799523Y-115070238D01*
X127847142Y-115260714D01*
X127847142Y-115594047D01*
X127799523Y-115784523D01*
X127704285Y-115879761D01*
X127609047Y-115927380D01*
X127418571Y-115927380D01*
X128799523Y-115927380D02*
X128228095Y-115927380D01*
X128513809Y-115927380D02*
X128513809Y-114927380D01*
X128418571Y-115070238D01*
X128323333Y-115165476D01*
X128228095Y-115213095D01*
%TO.C,IC5*%
X154283809Y-115177380D02*
X154283809Y-114177380D01*
X155331428Y-115082142D02*
X155283809Y-115129761D01*
X155140952Y-115177380D01*
X155045714Y-115177380D01*
X154902857Y-115129761D01*
X154807619Y-115034523D01*
X154760000Y-114939285D01*
X154712380Y-114748809D01*
X154712380Y-114605952D01*
X154760000Y-114415476D01*
X154807619Y-114320238D01*
X154902857Y-114225000D01*
X155045714Y-114177380D01*
X155140952Y-114177380D01*
X155283809Y-114225000D01*
X155331428Y-114272619D01*
X156236190Y-114177380D02*
X155760000Y-114177380D01*
X155712380Y-114653571D01*
X155760000Y-114605952D01*
X155855238Y-114558333D01*
X156093333Y-114558333D01*
X156188571Y-114605952D01*
X156236190Y-114653571D01*
X156283809Y-114748809D01*
X156283809Y-114986904D01*
X156236190Y-115082142D01*
X156188571Y-115129761D01*
X156093333Y-115177380D01*
X155855238Y-115177380D01*
X155760000Y-115129761D01*
X155712380Y-115082142D01*
%TO.C,C14*%
X164465442Y-53357142D02*
X164417823Y-53404761D01*
X164274966Y-53452380D01*
X164179728Y-53452380D01*
X164036871Y-53404761D01*
X163941633Y-53309523D01*
X163894014Y-53214285D01*
X163846395Y-53023809D01*
X163846395Y-52880952D01*
X163894014Y-52690476D01*
X163941633Y-52595238D01*
X164036871Y-52500000D01*
X164179728Y-52452380D01*
X164274966Y-52452380D01*
X164417823Y-52500000D01*
X164465442Y-52547619D01*
X165417823Y-53452380D02*
X164846395Y-53452380D01*
X165132109Y-53452380D02*
X165132109Y-52452380D01*
X165036871Y-52595238D01*
X164941633Y-52690476D01*
X164846395Y-52738095D01*
X166274966Y-52785714D02*
X166274966Y-53452380D01*
X166036871Y-52404761D02*
X165798776Y-53119047D01*
X166417823Y-53119047D01*
%TO.C,C16*%
X155107142Y-109887142D02*
X155059523Y-109934761D01*
X154916666Y-109982380D01*
X154821428Y-109982380D01*
X154678571Y-109934761D01*
X154583333Y-109839523D01*
X154535714Y-109744285D01*
X154488095Y-109553809D01*
X154488095Y-109410952D01*
X154535714Y-109220476D01*
X154583333Y-109125238D01*
X154678571Y-109030000D01*
X154821428Y-108982380D01*
X154916666Y-108982380D01*
X155059523Y-109030000D01*
X155107142Y-109077619D01*
X156059523Y-109982380D02*
X155488095Y-109982380D01*
X155773809Y-109982380D02*
X155773809Y-108982380D01*
X155678571Y-109125238D01*
X155583333Y-109220476D01*
X155488095Y-109268095D01*
X156916666Y-108982380D02*
X156726190Y-108982380D01*
X156630952Y-109030000D01*
X156583333Y-109077619D01*
X156488095Y-109220476D01*
X156440476Y-109410952D01*
X156440476Y-109791904D01*
X156488095Y-109887142D01*
X156535714Y-109934761D01*
X156630952Y-109982380D01*
X156821428Y-109982380D01*
X156916666Y-109934761D01*
X156964285Y-109887142D01*
X157011904Y-109791904D01*
X157011904Y-109553809D01*
X156964285Y-109458571D01*
X156916666Y-109410952D01*
X156821428Y-109363333D01*
X156630952Y-109363333D01*
X156535714Y-109410952D01*
X156488095Y-109458571D01*
X156440476Y-109553809D01*
%TO.C,R4*%
X85952380Y-103166666D02*
X85476190Y-103500000D01*
X85952380Y-103738095D02*
X84952380Y-103738095D01*
X84952380Y-103357142D01*
X85000000Y-103261904D01*
X85047619Y-103214285D01*
X85142857Y-103166666D01*
X85285714Y-103166666D01*
X85380952Y-103214285D01*
X85428571Y-103261904D01*
X85476190Y-103357142D01*
X85476190Y-103738095D01*
X85285714Y-102309523D02*
X85952380Y-102309523D01*
X84904761Y-102547619D02*
X85619047Y-102785714D01*
X85619047Y-102166666D01*
D12*
%TO.C,C6*%
X122778512Y-129078842D02*
X122721060Y-129136295D01*
X122548703Y-129193747D01*
X122433798Y-129193747D01*
X122261441Y-129136295D01*
X122146536Y-129021390D01*
X122089084Y-128906485D01*
X122031632Y-128676676D01*
X122031632Y-128504319D01*
X122089084Y-128274509D01*
X122146536Y-128159604D01*
X122261441Y-128044700D01*
X122433798Y-127987247D01*
X122548703Y-127987247D01*
X122721060Y-128044700D01*
X122778512Y-128102152D01*
X123812655Y-127987247D02*
X123582846Y-127987247D01*
X123467941Y-128044700D01*
X123410489Y-128102152D01*
X123295584Y-128274509D01*
X123238132Y-128504319D01*
X123238132Y-128963938D01*
X123295584Y-129078842D01*
X123353036Y-129136295D01*
X123467941Y-129193747D01*
X123697751Y-129193747D01*
X123812655Y-129136295D01*
X123870108Y-129078842D01*
X123927560Y-128963938D01*
X123927560Y-128676676D01*
X123870108Y-128561771D01*
X123812655Y-128504319D01*
X123697751Y-128446866D01*
X123467941Y-128446866D01*
X123353036Y-128504319D01*
X123295584Y-128561771D01*
X123238132Y-128676676D01*
D10*
%TO.C,R3*%
X85952380Y-90746666D02*
X85476190Y-91080000D01*
X85952380Y-91318095D02*
X84952380Y-91318095D01*
X84952380Y-90937142D01*
X85000000Y-90841904D01*
X85047619Y-90794285D01*
X85142857Y-90746666D01*
X85285714Y-90746666D01*
X85380952Y-90794285D01*
X85428571Y-90841904D01*
X85476190Y-90937142D01*
X85476190Y-91318095D01*
X84952380Y-90413333D02*
X84952380Y-89794285D01*
X85333333Y-90127619D01*
X85333333Y-89984761D01*
X85380952Y-89889523D01*
X85428571Y-89841904D01*
X85523809Y-89794285D01*
X85761904Y-89794285D01*
X85857142Y-89841904D01*
X85904761Y-89889523D01*
X85952380Y-89984761D01*
X85952380Y-90270476D01*
X85904761Y-90365714D01*
X85857142Y-90413333D01*
%TO.C,C3*%
X106109333Y-50082142D02*
X106061714Y-50129761D01*
X105918857Y-50177380D01*
X105823619Y-50177380D01*
X105680761Y-50129761D01*
X105585523Y-50034523D01*
X105537904Y-49939285D01*
X105490285Y-49748809D01*
X105490285Y-49605952D01*
X105537904Y-49415476D01*
X105585523Y-49320238D01*
X105680761Y-49225000D01*
X105823619Y-49177380D01*
X105918857Y-49177380D01*
X106061714Y-49225000D01*
X106109333Y-49272619D01*
X106442666Y-49177380D02*
X107061714Y-49177380D01*
X106728380Y-49558333D01*
X106871238Y-49558333D01*
X106966476Y-49605952D01*
X107014095Y-49653571D01*
X107061714Y-49748809D01*
X107061714Y-49986904D01*
X107014095Y-50082142D01*
X106966476Y-50129761D01*
X106871238Y-50177380D01*
X106585523Y-50177380D01*
X106490285Y-50129761D01*
X106442666Y-50082142D01*
%TO.C,J5*%
X179161666Y-60547380D02*
X179161666Y-61261666D01*
X179114047Y-61404523D01*
X179018809Y-61499761D01*
X178875952Y-61547380D01*
X178780714Y-61547380D01*
X180114047Y-60547380D02*
X179637857Y-60547380D01*
X179590238Y-61023571D01*
X179637857Y-60975952D01*
X179733095Y-60928333D01*
X179971190Y-60928333D01*
X180066428Y-60975952D01*
X180114047Y-61023571D01*
X180161666Y-61118809D01*
X180161666Y-61356904D01*
X180114047Y-61452142D01*
X180066428Y-61499761D01*
X179971190Y-61547380D01*
X179733095Y-61547380D01*
X179637857Y-61499761D01*
X179590238Y-61452142D01*
%TO.C,C5*%
X179265733Y-115357142D02*
X179218114Y-115404761D01*
X179075257Y-115452380D01*
X178980019Y-115452380D01*
X178837161Y-115404761D01*
X178741923Y-115309523D01*
X178694304Y-115214285D01*
X178646685Y-115023809D01*
X178646685Y-114880952D01*
X178694304Y-114690476D01*
X178741923Y-114595238D01*
X178837161Y-114500000D01*
X178980019Y-114452380D01*
X179075257Y-114452380D01*
X179218114Y-114500000D01*
X179265733Y-114547619D01*
X180170495Y-114452380D02*
X179694304Y-114452380D01*
X179646685Y-114928571D01*
X179694304Y-114880952D01*
X179789542Y-114833333D01*
X180027638Y-114833333D01*
X180122876Y-114880952D01*
X180170495Y-114928571D01*
X180218114Y-115023809D01*
X180218114Y-115261904D01*
X180170495Y-115357142D01*
X180122876Y-115404761D01*
X180027638Y-115452380D01*
X179789542Y-115452380D01*
X179694304Y-115404761D01*
X179646685Y-115357142D01*
%TO.C,R7*%
X165833333Y-99452380D02*
X165500000Y-98976190D01*
X165261904Y-99452380D02*
X165261904Y-98452380D01*
X165642857Y-98452380D01*
X165738095Y-98500000D01*
X165785714Y-98547619D01*
X165833333Y-98642857D01*
X165833333Y-98785714D01*
X165785714Y-98880952D01*
X165738095Y-98928571D01*
X165642857Y-98976190D01*
X165261904Y-98976190D01*
X166166666Y-98452380D02*
X166833333Y-98452380D01*
X166404761Y-99452380D01*
%TO.C,IC4*%
X132533809Y-101822380D02*
X132533809Y-100822380D01*
X133581428Y-101727142D02*
X133533809Y-101774761D01*
X133390952Y-101822380D01*
X133295714Y-101822380D01*
X133152857Y-101774761D01*
X133057619Y-101679523D01*
X133010000Y-101584285D01*
X132962380Y-101393809D01*
X132962380Y-101250952D01*
X133010000Y-101060476D01*
X133057619Y-100965238D01*
X133152857Y-100870000D01*
X133295714Y-100822380D01*
X133390952Y-100822380D01*
X133533809Y-100870000D01*
X133581428Y-100917619D01*
X134438571Y-101155714D02*
X134438571Y-101822380D01*
X134200476Y-100774761D02*
X133962380Y-101489047D01*
X134581428Y-101489047D01*
%TO.C,J2*%
X86666666Y-118772380D02*
X86666666Y-119486666D01*
X86619047Y-119629523D01*
X86523809Y-119724761D01*
X86380952Y-119772380D01*
X86285714Y-119772380D01*
X87095238Y-118867619D02*
X87142857Y-118820000D01*
X87238095Y-118772380D01*
X87476190Y-118772380D01*
X87571428Y-118820000D01*
X87619047Y-118867619D01*
X87666666Y-118962857D01*
X87666666Y-119058095D01*
X87619047Y-119200952D01*
X87047619Y-119772380D01*
X87666666Y-119772380D01*
%TO.C,U3*%
X164341395Y-57597380D02*
X164341395Y-58406904D01*
X164389014Y-58502142D01*
X164436633Y-58549761D01*
X164531871Y-58597380D01*
X164722347Y-58597380D01*
X164817585Y-58549761D01*
X164865204Y-58502142D01*
X164912823Y-58406904D01*
X164912823Y-57597380D01*
X165293776Y-57597380D02*
X165912823Y-57597380D01*
X165579490Y-57978333D01*
X165722347Y-57978333D01*
X165817585Y-58025952D01*
X165865204Y-58073571D01*
X165912823Y-58168809D01*
X165912823Y-58406904D01*
X165865204Y-58502142D01*
X165817585Y-58549761D01*
X165722347Y-58597380D01*
X165436633Y-58597380D01*
X165341395Y-58549761D01*
X165293776Y-58502142D01*
D12*
%TO.C,C7*%
X130778512Y-129078842D02*
X130721060Y-129136295D01*
X130548703Y-129193747D01*
X130433798Y-129193747D01*
X130261441Y-129136295D01*
X130146536Y-129021390D01*
X130089084Y-128906485D01*
X130031632Y-128676676D01*
X130031632Y-128504319D01*
X130089084Y-128274509D01*
X130146536Y-128159604D01*
X130261441Y-128044700D01*
X130433798Y-127987247D01*
X130548703Y-127987247D01*
X130721060Y-128044700D01*
X130778512Y-128102152D01*
X131180679Y-127987247D02*
X131985012Y-127987247D01*
X131467941Y-129193747D01*
D10*
%TO.C,C4*%
X179150954Y-125207142D02*
X179103335Y-125254761D01*
X178960478Y-125302380D01*
X178865240Y-125302380D01*
X178722382Y-125254761D01*
X178627144Y-125159523D01*
X178579525Y-125064285D01*
X178531906Y-124873809D01*
X178531906Y-124730952D01*
X178579525Y-124540476D01*
X178627144Y-124445238D01*
X178722382Y-124350000D01*
X178865240Y-124302380D01*
X178960478Y-124302380D01*
X179103335Y-124350000D01*
X179150954Y-124397619D01*
X180008097Y-124635714D02*
X180008097Y-125302380D01*
X179770001Y-124254761D02*
X179531906Y-124969047D01*
X180150954Y-124969047D01*
%TO.C,JP1*%
X115166666Y-139847380D02*
X115166666Y-140561666D01*
X115119047Y-140704523D01*
X115023809Y-140799761D01*
X114880952Y-140847380D01*
X114785714Y-140847380D01*
X115642857Y-140847380D02*
X115642857Y-139847380D01*
X116023809Y-139847380D01*
X116119047Y-139895000D01*
X116166666Y-139942619D01*
X116214285Y-140037857D01*
X116214285Y-140180714D01*
X116166666Y-140275952D01*
X116119047Y-140323571D01*
X116023809Y-140371190D01*
X115642857Y-140371190D01*
X117166666Y-140847380D02*
X116595238Y-140847380D01*
X116880952Y-140847380D02*
X116880952Y-139847380D01*
X116785714Y-139990238D01*
X116690476Y-140085476D01*
X116595238Y-140133095D01*
%TO.C,R5*%
X127688333Y-131582380D02*
X127355000Y-131106190D01*
X127116904Y-131582380D02*
X127116904Y-130582380D01*
X127497857Y-130582380D01*
X127593095Y-130630000D01*
X127640714Y-130677619D01*
X127688333Y-130772857D01*
X127688333Y-130915714D01*
X127640714Y-131010952D01*
X127593095Y-131058571D01*
X127497857Y-131106190D01*
X127116904Y-131106190D01*
X128593095Y-130582380D02*
X128116904Y-130582380D01*
X128069285Y-131058571D01*
X128116904Y-131010952D01*
X128212142Y-130963333D01*
X128450238Y-130963333D01*
X128545476Y-131010952D01*
X128593095Y-131058571D01*
X128640714Y-131153809D01*
X128640714Y-131391904D01*
X128593095Y-131487142D01*
X128545476Y-131534761D01*
X128450238Y-131582380D01*
X128212142Y-131582380D01*
X128116904Y-131534761D01*
X128069285Y-131487142D01*
%TO.C,R6*%
X127608333Y-136582380D02*
X127275000Y-136106190D01*
X127036904Y-136582380D02*
X127036904Y-135582380D01*
X127417857Y-135582380D01*
X127513095Y-135630000D01*
X127560714Y-135677619D01*
X127608333Y-135772857D01*
X127608333Y-135915714D01*
X127560714Y-136010952D01*
X127513095Y-136058571D01*
X127417857Y-136106190D01*
X127036904Y-136106190D01*
X128465476Y-135582380D02*
X128275000Y-135582380D01*
X128179761Y-135630000D01*
X128132142Y-135677619D01*
X128036904Y-135820476D01*
X127989285Y-136010952D01*
X127989285Y-136391904D01*
X128036904Y-136487142D01*
X128084523Y-136534761D01*
X128179761Y-136582380D01*
X128370238Y-136582380D01*
X128465476Y-136534761D01*
X128513095Y-136487142D01*
X128560714Y-136391904D01*
X128560714Y-136153809D01*
X128513095Y-136058571D01*
X128465476Y-136010952D01*
X128370238Y-135963333D01*
X128179761Y-135963333D01*
X128084523Y-136010952D01*
X128036904Y-136058571D01*
X127989285Y-136153809D01*
%TO.C,J4*%
X116666666Y-134622380D02*
X116666666Y-135336666D01*
X116619047Y-135479523D01*
X116523809Y-135574761D01*
X116380952Y-135622380D01*
X116285714Y-135622380D01*
X117571428Y-134955714D02*
X117571428Y-135622380D01*
X117333333Y-134574761D02*
X117095238Y-135289047D01*
X117714285Y-135289047D01*
%TO.C,IC3*%
X101933809Y-141412380D02*
X101933809Y-140412380D01*
X102981428Y-141317142D02*
X102933809Y-141364761D01*
X102790952Y-141412380D01*
X102695714Y-141412380D01*
X102552857Y-141364761D01*
X102457619Y-141269523D01*
X102410000Y-141174285D01*
X102362380Y-140983809D01*
X102362380Y-140840952D01*
X102410000Y-140650476D01*
X102457619Y-140555238D01*
X102552857Y-140460000D01*
X102695714Y-140412380D01*
X102790952Y-140412380D01*
X102933809Y-140460000D01*
X102981428Y-140507619D01*
X103314761Y-140412380D02*
X103933809Y-140412380D01*
X103600476Y-140793333D01*
X103743333Y-140793333D01*
X103838571Y-140840952D01*
X103886190Y-140888571D01*
X103933809Y-140983809D01*
X103933809Y-141221904D01*
X103886190Y-141317142D01*
X103838571Y-141364761D01*
X103743333Y-141412380D01*
X103457619Y-141412380D01*
X103362380Y-141364761D01*
X103314761Y-141317142D01*
%TO.C,C11*%
X170357142Y-99357142D02*
X170309523Y-99404761D01*
X170166666Y-99452380D01*
X170071428Y-99452380D01*
X169928571Y-99404761D01*
X169833333Y-99309523D01*
X169785714Y-99214285D01*
X169738095Y-99023809D01*
X169738095Y-98880952D01*
X169785714Y-98690476D01*
X169833333Y-98595238D01*
X169928571Y-98500000D01*
X170071428Y-98452380D01*
X170166666Y-98452380D01*
X170309523Y-98500000D01*
X170357142Y-98547619D01*
X171309523Y-99452380D02*
X170738095Y-99452380D01*
X171023809Y-99452380D02*
X171023809Y-98452380D01*
X170928571Y-98595238D01*
X170833333Y-98690476D01*
X170738095Y-98738095D01*
X172261904Y-99452380D02*
X171690476Y-99452380D01*
X171976190Y-99452380D02*
X171976190Y-98452380D01*
X171880952Y-98595238D01*
X171785714Y-98690476D01*
X171690476Y-98738095D01*
%TO.C,C12*%
X124857142Y-105357142D02*
X124809523Y-105404761D01*
X124666666Y-105452380D01*
X124571428Y-105452380D01*
X124428571Y-105404761D01*
X124333333Y-105309523D01*
X124285714Y-105214285D01*
X124238095Y-105023809D01*
X124238095Y-104880952D01*
X124285714Y-104690476D01*
X124333333Y-104595238D01*
X124428571Y-104500000D01*
X124571428Y-104452380D01*
X124666666Y-104452380D01*
X124809523Y-104500000D01*
X124857142Y-104547619D01*
X125809523Y-105452380D02*
X125238095Y-105452380D01*
X125523809Y-105452380D02*
X125523809Y-104452380D01*
X125428571Y-104595238D01*
X125333333Y-104690476D01*
X125238095Y-104738095D01*
X126190476Y-104547619D02*
X126238095Y-104500000D01*
X126333333Y-104452380D01*
X126571428Y-104452380D01*
X126666666Y-104500000D01*
X126714285Y-104547619D01*
X126761904Y-104642857D01*
X126761904Y-104738095D01*
X126714285Y-104880952D01*
X126142857Y-105452380D01*
X126761904Y-105452380D01*
%TO.C,C2*%
X142083333Y-109887142D02*
X142035714Y-109934761D01*
X141892857Y-109982380D01*
X141797619Y-109982380D01*
X141654761Y-109934761D01*
X141559523Y-109839523D01*
X141511904Y-109744285D01*
X141464285Y-109553809D01*
X141464285Y-109410952D01*
X141511904Y-109220476D01*
X141559523Y-109125238D01*
X141654761Y-109030000D01*
X141797619Y-108982380D01*
X141892857Y-108982380D01*
X142035714Y-109030000D01*
X142083333Y-109077619D01*
X142464285Y-109077619D02*
X142511904Y-109030000D01*
X142607142Y-108982380D01*
X142845238Y-108982380D01*
X142940476Y-109030000D01*
X142988095Y-109077619D01*
X143035714Y-109172857D01*
X143035714Y-109268095D01*
X142988095Y-109410952D01*
X142416666Y-109982380D01*
X143035714Y-109982380D01*
%TO.C,R2*%
X85952380Y-78246666D02*
X85476190Y-78580000D01*
X85952380Y-78818095D02*
X84952380Y-78818095D01*
X84952380Y-78437142D01*
X85000000Y-78341904D01*
X85047619Y-78294285D01*
X85142857Y-78246666D01*
X85285714Y-78246666D01*
X85380952Y-78294285D01*
X85428571Y-78341904D01*
X85476190Y-78437142D01*
X85476190Y-78818095D01*
X85047619Y-77865714D02*
X85000000Y-77818095D01*
X84952380Y-77722857D01*
X84952380Y-77484761D01*
X85000000Y-77389523D01*
X85047619Y-77341904D01*
X85142857Y-77294285D01*
X85238095Y-77294285D01*
X85380952Y-77341904D01*
X85952380Y-77913333D01*
X85952380Y-77294285D01*
%TO.C,IC1*%
X98252109Y-58622380D02*
X98252109Y-57622380D01*
X99299728Y-58527142D02*
X99252109Y-58574761D01*
X99109252Y-58622380D01*
X99014014Y-58622380D01*
X98871157Y-58574761D01*
X98775919Y-58479523D01*
X98728300Y-58384285D01*
X98680680Y-58193809D01*
X98680680Y-58050952D01*
X98728300Y-57860476D01*
X98775919Y-57765238D01*
X98871157Y-57670000D01*
X99014014Y-57622380D01*
X99109252Y-57622380D01*
X99252109Y-57670000D01*
X99299728Y-57717619D01*
X100252109Y-58622380D02*
X99680680Y-58622380D01*
X99966395Y-58622380D02*
X99966395Y-57622380D01*
X99871157Y-57765238D01*
X99775919Y-57860476D01*
X99680680Y-57908095D01*
%TO.C,LED2*%
X131150952Y-141492380D02*
X130674761Y-141492380D01*
X130674761Y-140492380D01*
X131484285Y-140968571D02*
X131817619Y-140968571D01*
X131960476Y-141492380D02*
X131484285Y-141492380D01*
X131484285Y-140492380D01*
X131960476Y-140492380D01*
X132389047Y-141492380D02*
X132389047Y-140492380D01*
X132627142Y-140492380D01*
X132770000Y-140540000D01*
X132865238Y-140635238D01*
X132912857Y-140730476D01*
X132960476Y-140920952D01*
X132960476Y-141063809D01*
X132912857Y-141254285D01*
X132865238Y-141349523D01*
X132770000Y-141444761D01*
X132627142Y-141492380D01*
X132389047Y-141492380D01*
X133341428Y-140587619D02*
X133389047Y-140540000D01*
X133484285Y-140492380D01*
X133722380Y-140492380D01*
X133817619Y-140540000D01*
X133865238Y-140587619D01*
X133912857Y-140682857D01*
X133912857Y-140778095D01*
X133865238Y-140920952D01*
X133293809Y-141492380D01*
X133912857Y-141492380D01*
%TO.C,U1*%
X120358095Y-57622380D02*
X120358095Y-58431904D01*
X120405714Y-58527142D01*
X120453333Y-58574761D01*
X120548571Y-58622380D01*
X120739047Y-58622380D01*
X120834285Y-58574761D01*
X120881904Y-58527142D01*
X120929523Y-58431904D01*
X120929523Y-57622380D01*
X121929523Y-58622380D02*
X121358095Y-58622380D01*
X121643809Y-58622380D02*
X121643809Y-57622380D01*
X121548571Y-57765238D01*
X121453333Y-57860476D01*
X121358095Y-57908095D01*
D13*
%TO.C,J6*%
X181885000Y-139660000D02*
X181885000Y-137000000D01*
X179285000Y-139660000D02*
X181885000Y-139660000D01*
X179285000Y-137000000D02*
X181885000Y-137000000D01*
X179285000Y-139660000D02*
X179285000Y-137000000D01*
X178015000Y-139660000D02*
X176685000Y-139660000D01*
X176685000Y-139660000D02*
X176685000Y-138330000D01*
%TO.C,C15*%
X90630000Y-115370000D02*
X94870000Y-115370000D01*
X90630000Y-112630000D02*
X94870000Y-112630000D01*
X94870000Y-112630000D02*
X94870000Y-113335000D01*
X90630000Y-114665000D02*
X90630000Y-115370000D01*
X94870000Y-114665000D02*
X94870000Y-115370000D01*
X90630000Y-112630000D02*
X90630000Y-113335000D01*
%TO.C,C17*%
X166630000Y-120660000D02*
X170870000Y-120660000D01*
X170870000Y-120660000D02*
X170870000Y-121365000D01*
X166630000Y-123400000D02*
X170870000Y-123400000D01*
X166630000Y-120660000D02*
X166630000Y-121365000D01*
X170870000Y-122695000D02*
X170870000Y-123400000D01*
X166630000Y-122695000D02*
X166630000Y-123400000D01*
%TO.C,LED1*%
X120710000Y-143455000D02*
X120710000Y-146545000D01*
X120710000Y-146544830D02*
G75*
G03*
X126260000Y-144999538I2560000J1544830D01*
G01*
X126260000Y-145000462D02*
G75*
G03*
X120710000Y-143455170I-2990000J462D01*
G01*
X125770000Y-145000000D02*
G75*
G03*
X125770000Y-145000000I-2500000J0D01*
G01*
%TO.C,C9*%
X123228300Y-54130000D02*
X123228300Y-54835000D01*
X118988300Y-54130000D02*
X123228300Y-54130000D01*
X118988300Y-56870000D02*
X123228300Y-56870000D01*
X118988300Y-56165000D02*
X118988300Y-56870000D01*
X123228300Y-56165000D02*
X123228300Y-56870000D01*
X118988300Y-54130000D02*
X118988300Y-54835000D01*
%TO.C,J1*%
X97920000Y-145830000D02*
X97920000Y-143170000D01*
X97920000Y-143170000D02*
X110680000Y-143170000D01*
X110680000Y-145830000D02*
X110680000Y-143170000D01*
X96650000Y-145830000D02*
X95320000Y-145830000D01*
X97920000Y-145830000D02*
X110680000Y-145830000D01*
X95320000Y-145830000D02*
X95320000Y-144500000D01*
%TO.C,C1*%
X141238300Y-56870000D02*
X145478300Y-56870000D01*
X141238300Y-56165000D02*
X141238300Y-56870000D01*
X141238300Y-54130000D02*
X145478300Y-54130000D01*
X145478300Y-56165000D02*
X145478300Y-56870000D01*
X145478300Y-54130000D02*
X145478300Y-54835000D01*
X141238300Y-54130000D02*
X141238300Y-54835000D01*
%TO.C,R9*%
X154730000Y-108370000D02*
X161270000Y-108370000D01*
X162040000Y-107000000D02*
X161270000Y-107000000D01*
X154730000Y-105630000D02*
X154730000Y-108370000D01*
X153960000Y-107000000D02*
X154730000Y-107000000D01*
X161270000Y-108370000D02*
X161270000Y-105630000D01*
X161270000Y-105630000D02*
X154730000Y-105630000D01*
%TO.C,C13*%
X131380000Y-99870000D02*
X135620000Y-99870000D01*
X131380000Y-97130000D02*
X131380000Y-97835000D01*
X135620000Y-97130000D02*
X135620000Y-97835000D01*
X131380000Y-99165000D02*
X131380000Y-99870000D01*
X131380000Y-97130000D02*
X135620000Y-97130000D01*
X135620000Y-99165000D02*
X135620000Y-99870000D01*
%TO.C,R10*%
X100360000Y-112460000D02*
X100360000Y-115200000D01*
X107670000Y-113830000D02*
X106900000Y-113830000D01*
X100360000Y-115200000D02*
X106900000Y-115200000D01*
X99590000Y-113830000D02*
X100360000Y-113830000D01*
X106900000Y-112460000D02*
X100360000Y-112460000D01*
X106900000Y-115200000D02*
X106900000Y-112460000D01*
%TO.C,C10*%
X96988300Y-54130000D02*
X96988300Y-54835000D01*
X96988300Y-56870000D02*
X101228300Y-56870000D01*
X96988300Y-54130000D02*
X101228300Y-54130000D01*
X96988300Y-56165000D02*
X96988300Y-56870000D01*
X101228300Y-54130000D02*
X101228300Y-54835000D01*
X101228300Y-56165000D02*
X101228300Y-56870000D01*
%TO.C,U4*%
X170510000Y-146240000D02*
X170510000Y-125800000D01*
X173510000Y-146300000D02*
X173510000Y-125740000D01*
X166010000Y-125800000D02*
X166010000Y-146240000D01*
X163010000Y-125740000D02*
X163010000Y-146300000D01*
X167260000Y-125800000D02*
X166010000Y-125800000D01*
X163010000Y-146300000D02*
X173510000Y-146300000D01*
X170510000Y-125800000D02*
X169260000Y-125800000D01*
X166010000Y-146240000D02*
X170510000Y-146240000D01*
X173510000Y-125740000D02*
X163010000Y-125740000D01*
X167260000Y-125800000D02*
G75*
G03*
X169260000Y-125800000I1000000J0D01*
G01*
%TO.C,U2*%
X134051700Y-59110000D02*
X134051700Y-94910000D01*
X137051700Y-94850000D02*
X149171700Y-94850000D01*
X149171700Y-59170000D02*
X144111700Y-59170000D01*
X149171700Y-94850000D02*
X149171700Y-59170000D01*
X152171700Y-59110000D02*
X134051700Y-59110000D01*
X152171700Y-94910000D02*
X152171700Y-59110000D01*
X142111700Y-59170000D02*
X137051700Y-59170000D01*
X134051700Y-94910000D02*
X152171700Y-94910000D01*
X137051700Y-59170000D02*
X137051700Y-94850000D01*
X142111700Y-59170000D02*
G75*
G03*
X144111700Y-59170000I1000000J0D01*
G01*
%TO.C,IC2*%
X136810000Y-115640000D02*
X136810000Y-146360000D01*
X147310000Y-115640000D02*
X136810000Y-115640000D01*
X139810000Y-146300000D02*
X144310000Y-146300000D01*
X144310000Y-146300000D02*
X144310000Y-115700000D01*
X144310000Y-115700000D02*
X143060000Y-115700000D01*
X141060000Y-115700000D02*
X139810000Y-115700000D01*
X139810000Y-115700000D02*
X139810000Y-146300000D01*
X136810000Y-146360000D02*
X147310000Y-146360000D01*
X147310000Y-146360000D02*
X147310000Y-115640000D01*
X141060000Y-115700000D02*
G75*
G03*
X143060000Y-115700000I1000000J0D01*
G01*
%TO.C,X1*%
X123260000Y-114200000D02*
X123260000Y-102800000D01*
X122510000Y-102050000D02*
X111110000Y-102050000D01*
X110360000Y-114950000D02*
X122510000Y-114950000D01*
X110360000Y-102800000D02*
X110360000Y-114950000D01*
X111110000Y-102050000D02*
G75*
G03*
X110360000Y-102800000I0J-750000D01*
G01*
X123260000Y-102800000D02*
G75*
G03*
X122510000Y-102050000I-750000J0D01*
G01*
X122510000Y-114950000D02*
G75*
G03*
X123260000Y-114200000I0J750000D01*
G01*
%TO.C,R1*%
X88000000Y-69700000D02*
X88000000Y-68930000D01*
X89370000Y-68930000D02*
X89370000Y-62390000D01*
X88000000Y-61620000D02*
X88000000Y-62390000D01*
X86630000Y-68930000D02*
X89370000Y-68930000D01*
X86630000Y-62390000D02*
X86630000Y-68930000D01*
X89370000Y-62390000D02*
X86630000Y-62390000D01*
%TO.C,C8*%
X169610000Y-114040000D02*
X169610000Y-116211000D01*
X169530000Y-109782000D02*
X169530000Y-111960000D01*
X171051000Y-114040000D02*
X171051000Y-115690000D01*
X169570000Y-114040000D02*
X169570000Y-116215000D01*
X171971000Y-111224000D02*
X171971000Y-114776000D01*
X171771000Y-110956000D02*
X171771000Y-115044000D01*
X169490000Y-114040000D02*
X169490000Y-116222000D01*
X171491000Y-114040000D02*
X171491000Y-115343000D01*
X170091000Y-114040000D02*
X170091000Y-116121000D01*
X171131000Y-114040000D02*
X171131000Y-115636000D01*
X170131000Y-114040000D02*
X170131000Y-116110000D01*
X166064759Y-110846000D02*
X166064759Y-111476000D01*
X170291000Y-114040000D02*
X170291000Y-116061000D01*
X171371000Y-114040000D02*
X171371000Y-115450000D01*
X171531000Y-114040000D02*
X171531000Y-115305000D01*
X170331000Y-114040000D02*
X170331000Y-116047000D01*
X171451000Y-114040000D02*
X171451000Y-115380000D01*
X172091000Y-111419000D02*
X172091000Y-114581000D01*
X171291000Y-114040000D02*
X171291000Y-115516000D01*
X170971000Y-114040000D02*
X170971000Y-115742000D01*
X171211000Y-110422000D02*
X171211000Y-111960000D01*
X171891000Y-111110000D02*
X171891000Y-114890000D01*
X171571000Y-110735000D02*
X171571000Y-115265000D01*
X170571000Y-110048000D02*
X170571000Y-111960000D01*
X171131000Y-110364000D02*
X171131000Y-111960000D01*
X169850000Y-109825000D02*
X169850000Y-111960000D01*
X170651000Y-114040000D02*
X170651000Y-115916000D01*
X170771000Y-110144000D02*
X170771000Y-111960000D01*
X169610000Y-109789000D02*
X169610000Y-111960000D01*
X171411000Y-114040000D02*
X171411000Y-115416000D01*
X171211000Y-114040000D02*
X171211000Y-115578000D01*
X172331000Y-111941000D02*
X172331000Y-114059000D01*
X171691000Y-110863000D02*
X171691000Y-115137000D01*
X169890000Y-114040000D02*
X169890000Y-116167000D01*
X172411000Y-112198000D02*
X172411000Y-113802000D01*
X171931000Y-111166000D02*
X171931000Y-114834000D01*
X169971000Y-114040000D02*
X169971000Y-116150000D01*
X170531000Y-114040000D02*
X170531000Y-115970000D01*
X170811000Y-114040000D02*
X170811000Y-115834000D01*
X170051000Y-109869000D02*
X170051000Y-111960000D01*
X170091000Y-109879000D02*
X170091000Y-111960000D01*
X170571000Y-114040000D02*
X170571000Y-115952000D01*
X171251000Y-110452000D02*
X171251000Y-111960000D01*
X172051000Y-111350000D02*
X172051000Y-114650000D01*
X169810000Y-109818000D02*
X169810000Y-111960000D01*
X169450000Y-109776000D02*
X169450000Y-116224000D01*
X169971000Y-109850000D02*
X169971000Y-111960000D01*
X171331000Y-110516000D02*
X171331000Y-111960000D01*
X169570000Y-109785000D02*
X169570000Y-111960000D01*
X171091000Y-110336000D02*
X171091000Y-111960000D01*
X170411000Y-114040000D02*
X170411000Y-116018000D01*
X169730000Y-114040000D02*
X169730000Y-116195000D01*
X170411000Y-109982000D02*
X170411000Y-111960000D01*
X171611000Y-110776000D02*
X171611000Y-115224000D01*
X170011000Y-109859000D02*
X170011000Y-111960000D01*
X170611000Y-114040000D02*
X170611000Y-115934000D01*
X170931000Y-114040000D02*
X170931000Y-115766000D01*
X171091000Y-114040000D02*
X171091000Y-115664000D01*
X171491000Y-110657000D02*
X171491000Y-111960000D01*
X171051000Y-110310000D02*
X171051000Y-111960000D01*
X169650000Y-114040000D02*
X169650000Y-116206000D01*
X170251000Y-109926000D02*
X170251000Y-111960000D01*
X171171000Y-110393000D02*
X171171000Y-111960000D01*
X169770000Y-109811000D02*
X169770000Y-111960000D01*
X169530000Y-114040000D02*
X169530000Y-116218000D01*
X171451000Y-110620000D02*
X171451000Y-111960000D01*
X170171000Y-109902000D02*
X170171000Y-111960000D01*
X170211000Y-114040000D02*
X170211000Y-116086000D01*
X169690000Y-109799000D02*
X169690000Y-111960000D01*
X170771000Y-114040000D02*
X170771000Y-115856000D01*
X171731000Y-110908000D02*
X171731000Y-115092000D01*
X170451000Y-114040000D02*
X170451000Y-116002000D01*
X170651000Y-110084000D02*
X170651000Y-111960000D01*
X172171000Y-111568000D02*
X172171000Y-114432000D01*
X169410000Y-109773000D02*
X169410000Y-116227000D01*
X169650000Y-109794000D02*
X169650000Y-111960000D01*
X170331000Y-109953000D02*
X170331000Y-111960000D01*
X170891000Y-110210000D02*
X170891000Y-111960000D01*
X170851000Y-110188000D02*
X170851000Y-111960000D01*
X165749759Y-111161000D02*
X166379759Y-111161000D01*
X172371000Y-112060000D02*
X172371000Y-113940000D01*
X170611000Y-110066000D02*
X170611000Y-111960000D01*
X171331000Y-114040000D02*
X171331000Y-115484000D01*
X172131000Y-111491000D02*
X172131000Y-114509000D01*
X171011000Y-114040000D02*
X171011000Y-115716000D01*
X169370000Y-109772000D02*
X169370000Y-116228000D01*
X171291000Y-110484000D02*
X171291000Y-111960000D01*
X171171000Y-114040000D02*
X171171000Y-115607000D01*
X170531000Y-110030000D02*
X170531000Y-111960000D01*
X170251000Y-114040000D02*
X170251000Y-116074000D01*
X170451000Y-109998000D02*
X170451000Y-111960000D01*
X170731000Y-110124000D02*
X170731000Y-111960000D01*
X170171000Y-114040000D02*
X170171000Y-116098000D01*
X171851000Y-111056000D02*
X171851000Y-114944000D01*
X170011000Y-114040000D02*
X170011000Y-116141000D01*
X171011000Y-110284000D02*
X171011000Y-111960000D01*
X170491000Y-110014000D02*
X170491000Y-111960000D01*
X169930000Y-114040000D02*
X169930000Y-116159000D01*
X171371000Y-110550000D02*
X171371000Y-111960000D01*
X169690000Y-114040000D02*
X169690000Y-116201000D01*
X172251000Y-111738000D02*
X172251000Y-114262000D01*
X170491000Y-114040000D02*
X170491000Y-115986000D01*
X170691000Y-110104000D02*
X170691000Y-111960000D01*
X172211000Y-111650000D02*
X172211000Y-114350000D01*
X172291000Y-111835000D02*
X172291000Y-114165000D01*
X170811000Y-110166000D02*
X170811000Y-111960000D01*
X172451000Y-112367000D02*
X172451000Y-113633000D01*
X169490000Y-109778000D02*
X169490000Y-111960000D01*
X172491000Y-112598000D02*
X172491000Y-113402000D01*
X171531000Y-110695000D02*
X171531000Y-111960000D01*
X169850000Y-114040000D02*
X169850000Y-116175000D01*
X170691000Y-114040000D02*
X170691000Y-115896000D01*
X170051000Y-114040000D02*
X170051000Y-116131000D01*
X170931000Y-110234000D02*
X170931000Y-111960000D01*
X170731000Y-114040000D02*
X170731000Y-115876000D01*
X172011000Y-111286000D02*
X172011000Y-114714000D01*
X169770000Y-114040000D02*
X169770000Y-116189000D01*
X169730000Y-109805000D02*
X169730000Y-111960000D01*
X169810000Y-114040000D02*
X169810000Y-116182000D01*
X170371000Y-114040000D02*
X170371000Y-116033000D01*
X171411000Y-110584000D02*
X171411000Y-111960000D01*
X170971000Y-110258000D02*
X170971000Y-111960000D01*
X170891000Y-114040000D02*
X170891000Y-115790000D01*
X170291000Y-109939000D02*
X170291000Y-111960000D01*
X171811000Y-111005000D02*
X171811000Y-114995000D01*
X170371000Y-109967000D02*
X170371000Y-111960000D01*
X169890000Y-109833000D02*
X169890000Y-111960000D01*
X171651000Y-110818000D02*
X171651000Y-115182000D01*
X169250000Y-109770000D02*
X169250000Y-116230000D01*
X171251000Y-114040000D02*
X171251000Y-115548000D01*
X170131000Y-109890000D02*
X170131000Y-111960000D01*
X170851000Y-114040000D02*
X170851000Y-115812000D01*
X169930000Y-109841000D02*
X169930000Y-111960000D01*
X170211000Y-109914000D02*
X170211000Y-111960000D01*
X169330000Y-109770000D02*
X169330000Y-116230000D01*
X169290000Y-109770000D02*
X169290000Y-116230000D01*
X172520000Y-113000000D02*
G75*
G03*
X172520000Y-113000000I-3270000J0D01*
G01*
%TO.C,J3*%
X118330000Y-120920000D02*
X118330000Y-133680000D01*
X115670000Y-133680000D02*
X118330000Y-133680000D01*
X115670000Y-118320000D02*
X117000000Y-118320000D01*
X115670000Y-120920000D02*
X118330000Y-120920000D01*
X115670000Y-120920000D02*
X115670000Y-133680000D01*
X115670000Y-119650000D02*
X115670000Y-118320000D01*
%TO.C,JP2*%
X85920000Y-113995000D02*
X85920000Y-116595000D01*
X85920000Y-111395000D02*
X87250000Y-111395000D01*
X85920000Y-112725000D02*
X85920000Y-111395000D01*
X85920000Y-113995000D02*
X88580000Y-113995000D01*
X88580000Y-113995000D02*
X88580000Y-116595000D01*
X85920000Y-116595000D02*
X88580000Y-116595000D01*
%TO.C,R8*%
X154730000Y-101630000D02*
X154730000Y-104370000D01*
X162040000Y-103000000D02*
X161270000Y-103000000D01*
X161270000Y-101630000D02*
X154730000Y-101630000D01*
X154730000Y-104370000D02*
X161270000Y-104370000D01*
X153960000Y-103000000D02*
X154730000Y-103000000D01*
X161270000Y-104370000D02*
X161270000Y-101630000D01*
%TO.C,Q1*%
X124790000Y-121525000D02*
X131190000Y-121525000D01*
X124790000Y-116475000D02*
X131190000Y-116475000D01*
X131190000Y-121525000D02*
G75*
G03*
X131190000Y-116475000I0J2525000D01*
G01*
X124790000Y-116475000D02*
G75*
G03*
X124790000Y-121525000I0J-2525000D01*
G01*
%TO.C,IC5*%
X150010000Y-146385000D02*
X160510000Y-146385000D01*
X160510000Y-146385000D02*
X160510000Y-115665000D01*
X160510000Y-115665000D02*
X150010000Y-115665000D01*
X153010000Y-115725000D02*
X153010000Y-146325000D01*
X157510000Y-146325000D02*
X157510000Y-115725000D01*
X150010000Y-115665000D02*
X150010000Y-146385000D01*
X153010000Y-146325000D02*
X157510000Y-146325000D01*
X157510000Y-115725000D02*
X156260000Y-115725000D01*
X154260000Y-115725000D02*
X153010000Y-115725000D01*
X154260000Y-115725000D02*
G75*
G03*
X156260000Y-115725000I1000000J0D01*
G01*
%TO.C,C14*%
X162988300Y-54130000D02*
X162988300Y-54835000D01*
X162988300Y-56870000D02*
X167228300Y-56870000D01*
X162988300Y-56165000D02*
X162988300Y-56870000D01*
X162988300Y-54130000D02*
X167228300Y-54130000D01*
X167228300Y-54130000D02*
X167228300Y-54835000D01*
X167228300Y-56165000D02*
X167228300Y-56870000D01*
%TO.C,C16*%
X153630000Y-112695000D02*
X153630000Y-113400000D01*
X153630000Y-113400000D02*
X157870000Y-113400000D01*
X157870000Y-110660000D02*
X157870000Y-111365000D01*
X157870000Y-112695000D02*
X157870000Y-113400000D01*
X153630000Y-110660000D02*
X157870000Y-110660000D01*
X153630000Y-110660000D02*
X153630000Y-111365000D01*
%TO.C,R4*%
X89370000Y-106270000D02*
X89370000Y-99730000D01*
X88000000Y-107040000D02*
X88000000Y-106270000D01*
X86630000Y-106270000D02*
X89370000Y-106270000D01*
X89370000Y-99730000D02*
X86630000Y-99730000D01*
X86630000Y-99730000D02*
X86630000Y-106270000D01*
X88000000Y-98960000D02*
X88000000Y-99730000D01*
%TO.C,C6*%
X121698000Y-124459800D02*
X122129800Y-124459800D01*
D14*
X122587000Y-124730000D02*
X122587000Y-127270000D01*
D13*
X121698000Y-127540200D02*
X122129800Y-127540200D01*
D14*
X124746000Y-126000000D02*
X124619000Y-126000000D01*
D15*
X124746000Y-125238000D02*
X124746000Y-126000000D01*
D13*
X120885200Y-127540200D02*
X121317000Y-127540200D01*
D14*
X122841000Y-124476000D02*
X127159000Y-124476000D01*
X125381000Y-126000000D02*
X125254000Y-126000000D01*
X127159000Y-127524000D02*
X122841000Y-127524000D01*
X127413000Y-124730000D02*
X127413000Y-127270000D01*
D15*
X125254000Y-126000000D02*
X125254000Y-125238000D01*
X124746000Y-126000000D02*
X124746000Y-126762000D01*
X125254000Y-126000000D02*
X125254000Y-126762000D01*
D13*
X120885200Y-124459800D02*
X121317000Y-124459800D01*
X120529600Y-124459800D02*
G75*
G03*
X120021600Y-124967800I1J-508001D01*
G01*
D14*
X122587000Y-127270000D02*
G75*
G03*
X122841000Y-127524000I254000J0D01*
G01*
D13*
X120021600Y-127032200D02*
G75*
G03*
X120529600Y-127540200I508001J1D01*
G01*
D14*
X127413000Y-124730000D02*
G75*
G03*
X127159000Y-124476000I-254000J0D01*
G01*
X127159000Y-127524000D02*
G75*
G03*
X127413000Y-127270000I0J254000D01*
G01*
X122841000Y-124476000D02*
G75*
G03*
X122587000Y-124730000I0J-254000D01*
G01*
D13*
%TO.C,R3*%
X88000000Y-86540000D02*
X88000000Y-87310000D01*
X86630000Y-87310000D02*
X86630000Y-93850000D01*
X86630000Y-93850000D02*
X89370000Y-93850000D01*
X88000000Y-94620000D02*
X88000000Y-93850000D01*
X89370000Y-93850000D02*
X89370000Y-87310000D01*
X89370000Y-87310000D02*
X86630000Y-87310000D01*
%TO.C,C3*%
X106516000Y-55165000D02*
X106516000Y-57347000D01*
X107077000Y-50994000D02*
X107077000Y-53085000D01*
X106836000Y-55165000D02*
X106836000Y-57307000D01*
X108877000Y-52181000D02*
X108877000Y-56069000D01*
X108357000Y-55165000D02*
X108357000Y-56609000D01*
X106997000Y-50975000D02*
X106997000Y-53085000D01*
X108397000Y-51675000D02*
X108397000Y-53085000D01*
X107957000Y-51359000D02*
X107957000Y-53085000D01*
X106556000Y-55165000D02*
X106556000Y-57343000D01*
X106876000Y-50950000D02*
X106876000Y-53085000D01*
X108237000Y-55165000D02*
X108237000Y-56703000D01*
X106916000Y-50958000D02*
X106916000Y-53085000D01*
X108477000Y-55165000D02*
X108477000Y-56505000D01*
X106596000Y-55165000D02*
X106596000Y-57340000D01*
X106956000Y-50966000D02*
X106956000Y-53085000D01*
X107277000Y-51051000D02*
X107277000Y-53085000D01*
X107157000Y-51015000D02*
X107157000Y-53085000D01*
X107757000Y-55165000D02*
X107757000Y-57001000D01*
X109397000Y-53185000D02*
X109397000Y-55065000D01*
X108517000Y-55165000D02*
X108517000Y-56468000D01*
X106796000Y-55165000D02*
X106796000Y-57314000D01*
X108557000Y-55165000D02*
X108557000Y-56430000D01*
X108677000Y-51943000D02*
X108677000Y-56307000D01*
X109157000Y-52616000D02*
X109157000Y-55634000D01*
X107797000Y-55165000D02*
X107797000Y-56981000D01*
X107637000Y-51191000D02*
X107637000Y-53085000D01*
X107957000Y-55165000D02*
X107957000Y-56891000D01*
X108197000Y-55165000D02*
X108197000Y-56732000D01*
X107237000Y-51039000D02*
X107237000Y-53085000D01*
X108197000Y-51518000D02*
X108197000Y-53085000D01*
X108557000Y-51820000D02*
X108557000Y-53085000D01*
X106316000Y-50895000D02*
X106316000Y-57355000D01*
X107317000Y-55165000D02*
X107317000Y-57186000D01*
X109317000Y-52960000D02*
X109317000Y-55290000D01*
X106997000Y-55165000D02*
X106997000Y-57275000D01*
X108397000Y-55165000D02*
X108397000Y-56575000D01*
X107077000Y-55165000D02*
X107077000Y-57256000D01*
X106836000Y-50943000D02*
X106836000Y-53085000D01*
X109197000Y-52693000D02*
X109197000Y-55557000D01*
X106716000Y-55165000D02*
X106716000Y-57326000D01*
X107757000Y-51249000D02*
X107757000Y-53085000D01*
X107357000Y-51078000D02*
X107357000Y-53085000D01*
X108757000Y-52033000D02*
X108757000Y-56217000D01*
X107677000Y-55165000D02*
X107677000Y-57041000D01*
X107237000Y-55165000D02*
X107237000Y-57211000D01*
X108077000Y-51435000D02*
X108077000Y-53085000D01*
X108317000Y-51609000D02*
X108317000Y-53085000D01*
X108597000Y-51860000D02*
X108597000Y-56390000D01*
X108477000Y-51745000D02*
X108477000Y-53085000D01*
X107397000Y-55165000D02*
X107397000Y-57158000D01*
X107317000Y-51064000D02*
X107317000Y-53085000D01*
X106676000Y-50919000D02*
X106676000Y-53085000D01*
X108157000Y-51489000D02*
X108157000Y-53085000D01*
X107917000Y-51335000D02*
X107917000Y-53085000D01*
X107837000Y-55165000D02*
X107837000Y-56959000D01*
X108037000Y-51409000D02*
X108037000Y-53085000D01*
X107477000Y-51123000D02*
X107477000Y-53085000D01*
X109357000Y-53066000D02*
X109357000Y-55184000D01*
X108117000Y-55165000D02*
X108117000Y-56789000D01*
X107557000Y-51155000D02*
X107557000Y-53085000D01*
X108997000Y-52349000D02*
X108997000Y-55901000D01*
X103090759Y-51971000D02*
X103090759Y-52601000D01*
X107797000Y-51269000D02*
X107797000Y-53085000D01*
X108117000Y-51461000D02*
X108117000Y-53085000D01*
X107037000Y-50984000D02*
X107037000Y-53085000D01*
X106436000Y-50898000D02*
X106436000Y-57352000D01*
X107357000Y-55165000D02*
X107357000Y-57172000D01*
X109277000Y-52863000D02*
X109277000Y-55387000D01*
X109237000Y-52775000D02*
X109237000Y-55475000D01*
X107717000Y-51229000D02*
X107717000Y-53085000D01*
X107877000Y-51313000D02*
X107877000Y-53085000D01*
X107157000Y-55165000D02*
X107157000Y-57235000D01*
X108837000Y-52130000D02*
X108837000Y-56120000D01*
X107277000Y-55165000D02*
X107277000Y-57199000D01*
X107517000Y-51139000D02*
X107517000Y-53085000D01*
X108437000Y-51709000D02*
X108437000Y-53085000D01*
X108157000Y-55165000D02*
X108157000Y-56761000D01*
X108317000Y-55165000D02*
X108317000Y-56641000D01*
X106716000Y-50924000D02*
X106716000Y-53085000D01*
X108717000Y-51988000D02*
X108717000Y-56262000D01*
X106596000Y-50910000D02*
X106596000Y-53085000D01*
X107837000Y-51291000D02*
X107837000Y-53085000D01*
X108037000Y-55165000D02*
X108037000Y-56841000D01*
X106636000Y-50914000D02*
X106636000Y-53085000D01*
X102775759Y-52286000D02*
X103405759Y-52286000D01*
X108237000Y-51547000D02*
X108237000Y-53085000D01*
X107117000Y-51004000D02*
X107117000Y-53085000D01*
X108277000Y-51577000D02*
X108277000Y-53085000D01*
X106276000Y-50895000D02*
X106276000Y-57355000D01*
X109077000Y-52475000D02*
X109077000Y-55775000D01*
X108637000Y-51901000D02*
X108637000Y-56349000D01*
X106676000Y-55165000D02*
X106676000Y-57331000D01*
X107597000Y-55165000D02*
X107597000Y-57077000D01*
X107477000Y-55165000D02*
X107477000Y-57127000D01*
X106756000Y-50930000D02*
X106756000Y-53085000D01*
X106916000Y-55165000D02*
X106916000Y-57292000D01*
X107557000Y-55165000D02*
X107557000Y-57095000D01*
X106476000Y-50901000D02*
X106476000Y-57349000D01*
X107437000Y-55165000D02*
X107437000Y-57143000D01*
X106796000Y-50936000D02*
X106796000Y-53085000D01*
X109477000Y-53492000D02*
X109477000Y-54758000D01*
X107637000Y-55165000D02*
X107637000Y-57059000D01*
X107877000Y-55165000D02*
X107877000Y-56937000D01*
X108957000Y-52291000D02*
X108957000Y-55959000D01*
X106636000Y-55165000D02*
X106636000Y-57336000D01*
X107997000Y-55165000D02*
X107997000Y-56867000D01*
X106356000Y-50895000D02*
X106356000Y-57355000D01*
X108277000Y-55165000D02*
X108277000Y-56673000D01*
X107037000Y-55165000D02*
X107037000Y-57266000D01*
X108357000Y-51641000D02*
X108357000Y-53085000D01*
X107517000Y-55165000D02*
X107517000Y-57111000D01*
X109517000Y-53723000D02*
X109517000Y-54527000D01*
X107437000Y-51107000D02*
X107437000Y-53085000D01*
X109117000Y-52544000D02*
X109117000Y-55706000D01*
X106556000Y-50907000D02*
X106556000Y-53085000D01*
X106956000Y-55165000D02*
X106956000Y-57284000D01*
X107397000Y-51092000D02*
X107397000Y-53085000D01*
X107677000Y-51209000D02*
X107677000Y-53085000D01*
X106756000Y-55165000D02*
X106756000Y-57320000D01*
X107197000Y-55165000D02*
X107197000Y-57223000D01*
X108517000Y-51782000D02*
X108517000Y-53085000D01*
X107197000Y-51027000D02*
X107197000Y-53085000D01*
X109437000Y-53323000D02*
X109437000Y-54927000D01*
X107117000Y-55165000D02*
X107117000Y-57246000D01*
X106876000Y-55165000D02*
X106876000Y-57300000D01*
X109037000Y-52411000D02*
X109037000Y-55839000D01*
X106516000Y-50903000D02*
X106516000Y-53085000D01*
X106396000Y-50897000D02*
X106396000Y-57353000D01*
X107917000Y-55165000D02*
X107917000Y-56915000D01*
X107717000Y-55165000D02*
X107717000Y-57021000D01*
X107597000Y-51173000D02*
X107597000Y-53085000D01*
X107997000Y-51383000D02*
X107997000Y-53085000D01*
X108797000Y-52081000D02*
X108797000Y-56169000D01*
X108437000Y-55165000D02*
X108437000Y-56541000D01*
X108917000Y-52235000D02*
X108917000Y-56015000D01*
X108077000Y-55165000D02*
X108077000Y-56815000D01*
X109546000Y-54125000D02*
G75*
G03*
X109546000Y-54125000I-3270000J0D01*
G01*
%TO.C,J5*%
X176895000Y-64695000D02*
X179495000Y-64695000D01*
X176895000Y-62095000D02*
X178225000Y-62095000D01*
X176895000Y-107935000D02*
X182095000Y-107935000D01*
X176895000Y-63425000D02*
X176895000Y-62095000D01*
X182095000Y-62095000D02*
X182095000Y-107935000D01*
X179495000Y-64695000D02*
X179495000Y-62095000D01*
X176895000Y-64695000D02*
X176895000Y-107935000D01*
X179495000Y-62095000D02*
X182095000Y-62095000D01*
%TO.C,C5*%
X179992400Y-121040000D02*
X179992400Y-123790000D01*
X182353400Y-117500000D02*
X182353400Y-122500000D01*
X181673400Y-116884000D02*
X181673400Y-118960000D01*
X181793400Y-116972000D02*
X181793400Y-123028000D01*
X182873400Y-118267000D02*
X182873400Y-121733000D01*
X182113400Y-117248000D02*
X182113400Y-122752000D01*
X182513400Y-117696000D02*
X182513400Y-122304000D01*
X181673400Y-121040000D02*
X181673400Y-123116000D01*
X182553400Y-117750000D02*
X182553400Y-122250000D01*
X182153400Y-117287000D02*
X182153400Y-122713000D01*
X183273400Y-119559000D02*
X183273400Y-120441000D01*
X180753400Y-116402000D02*
X180753400Y-118960000D01*
X182793400Y-118119000D02*
X182793400Y-121881000D01*
X181033400Y-121040000D02*
X181033400Y-123484000D01*
X181073400Y-121040000D02*
X181073400Y-123466000D01*
X180873400Y-116447000D02*
X180873400Y-118960000D01*
X175665189Y-117450000D02*
X175665189Y-118200000D01*
X181713400Y-121040000D02*
X181713400Y-123088000D01*
X180633400Y-116360000D02*
X180633400Y-118960000D01*
X182713400Y-117986000D02*
X182713400Y-122014000D01*
X182473400Y-117645000D02*
X182473400Y-122355000D01*
X180153400Y-121040000D02*
X180153400Y-123763000D01*
X180953400Y-121040000D02*
X180953400Y-123520000D01*
X182273400Y-117411000D02*
X182273400Y-122589000D01*
X180353400Y-116280000D02*
X180353400Y-118960000D01*
X181553400Y-121040000D02*
X181553400Y-123198000D01*
X182433400Y-117595000D02*
X182433400Y-122405000D01*
X180393400Y-116290000D02*
X180393400Y-118960000D01*
X179432400Y-116170000D02*
X179432400Y-123830000D01*
X182673400Y-117923000D02*
X182673400Y-122077000D01*
X180032400Y-121040000D02*
X180032400Y-123784000D01*
X180753400Y-121040000D02*
X180753400Y-123598000D01*
X181753400Y-116942000D02*
X181753400Y-123058000D01*
X181593400Y-121040000D02*
X181593400Y-123172000D01*
X181553400Y-116802000D02*
X181553400Y-118960000D01*
X181913400Y-117069000D02*
X181913400Y-122931000D01*
X181233400Y-121040000D02*
X181233400Y-123386000D01*
X181113400Y-116553000D02*
X181113400Y-118960000D01*
X181993400Y-117137000D02*
X181993400Y-122863000D01*
X180793400Y-121040000D02*
X180793400Y-123584000D01*
X179672400Y-116177000D02*
X179672400Y-118960000D01*
X181473400Y-121040000D02*
X181473400Y-123249000D01*
X180913400Y-121040000D02*
X180913400Y-123536000D01*
X180833400Y-121040000D02*
X180833400Y-123568000D01*
X175290189Y-117825000D02*
X176040189Y-117825000D01*
X179912400Y-116199000D02*
X179912400Y-118960000D01*
X183233400Y-119307000D02*
X183233400Y-120693000D01*
X181273400Y-121040000D02*
X181273400Y-123365000D01*
X180593400Y-116347000D02*
X180593400Y-118960000D01*
X180313400Y-116271000D02*
X180313400Y-118960000D01*
X180833400Y-116432000D02*
X180833400Y-118960000D01*
X179952400Y-116205000D02*
X179952400Y-118960000D01*
X181593400Y-116828000D02*
X181593400Y-118960000D01*
X181473400Y-116751000D02*
X181473400Y-118960000D01*
X183193400Y-119123000D02*
X183193400Y-120877000D01*
X182753400Y-118051000D02*
X182753400Y-121949000D01*
X180112400Y-121040000D02*
X180112400Y-123770000D01*
X181353400Y-116679000D02*
X181353400Y-118960000D01*
X181393400Y-121040000D02*
X181393400Y-123297000D01*
X180513400Y-121040000D02*
X180513400Y-123677000D01*
X180433400Y-121040000D02*
X180433400Y-123699000D01*
X179872400Y-121040000D02*
X179872400Y-123805000D01*
X182953400Y-118431000D02*
X182953400Y-121569000D01*
X181313400Y-121040000D02*
X181313400Y-123343000D01*
X180713400Y-121040000D02*
X180713400Y-123613000D01*
X180313400Y-121040000D02*
X180313400Y-123729000D01*
X181073400Y-116534000D02*
X181073400Y-118960000D01*
X182633400Y-117863000D02*
X182633400Y-122137000D01*
X181633400Y-116856000D02*
X181633400Y-118960000D01*
X182193400Y-117327000D02*
X182193400Y-122673000D01*
X179872400Y-116195000D02*
X179872400Y-118960000D01*
X180072400Y-116223000D02*
X180072400Y-118960000D01*
X180673400Y-116374000D02*
X180673400Y-118960000D01*
X181313400Y-116657000D02*
X181313400Y-118960000D01*
X182393400Y-117546000D02*
X182393400Y-122454000D01*
X179752400Y-121040000D02*
X179752400Y-123817000D01*
X179832400Y-121040000D02*
X179832400Y-123810000D01*
X182993400Y-118522000D02*
X182993400Y-121478000D01*
X181033400Y-116516000D02*
X181033400Y-118960000D01*
X179672400Y-121040000D02*
X179672400Y-123823000D01*
X179752400Y-116183000D02*
X179752400Y-118960000D01*
X179832400Y-116190000D02*
X179832400Y-118960000D01*
X183073400Y-118725000D02*
X183073400Y-121275000D01*
X182833400Y-118191000D02*
X182833400Y-121809000D01*
X180513400Y-116323000D02*
X180513400Y-118960000D01*
X179712400Y-121040000D02*
X179712400Y-123820000D01*
X181513400Y-121040000D02*
X181513400Y-123224000D01*
X182073400Y-117210000D02*
X182073400Y-122790000D01*
X180633400Y-121040000D02*
X180633400Y-123640000D01*
X180433400Y-116301000D02*
X180433400Y-118960000D01*
X181953400Y-117102000D02*
X181953400Y-122898000D01*
X179592400Y-116173000D02*
X179592400Y-123827000D01*
X181393400Y-116703000D02*
X181393400Y-118960000D01*
X181153400Y-121040000D02*
X181153400Y-123427000D01*
X180353400Y-121040000D02*
X180353400Y-123720000D01*
X180913400Y-116464000D02*
X180913400Y-118960000D01*
X180593400Y-121040000D02*
X180593400Y-123653000D01*
X180193400Y-116245000D02*
X180193400Y-118960000D01*
X180193400Y-121040000D02*
X180193400Y-123755000D01*
X180112400Y-116230000D02*
X180112400Y-118960000D01*
X181193400Y-116593000D02*
X181193400Y-118960000D01*
X180473400Y-116312000D02*
X180473400Y-118960000D01*
X179472400Y-116170000D02*
X179472400Y-123830000D01*
X182313400Y-117454000D02*
X182313400Y-122546000D01*
X181113400Y-121040000D02*
X181113400Y-123447000D01*
X179992400Y-116210000D02*
X179992400Y-118960000D01*
X179552400Y-116171000D02*
X179552400Y-123829000D01*
X182033400Y-117173000D02*
X182033400Y-122827000D01*
X181273400Y-116635000D02*
X181273400Y-118960000D01*
X182913400Y-118346000D02*
X182913400Y-121654000D01*
X180553400Y-121040000D02*
X180553400Y-123665000D01*
X182593400Y-117805000D02*
X182593400Y-122195000D01*
X179952400Y-121040000D02*
X179952400Y-123795000D01*
X181633400Y-121040000D02*
X181633400Y-123144000D01*
X181433400Y-116726000D02*
X181433400Y-118960000D01*
X180273400Y-116262000D02*
X180273400Y-118960000D01*
X181233400Y-116614000D02*
X181233400Y-118960000D01*
X181513400Y-116776000D02*
X181513400Y-118960000D01*
X181433400Y-121040000D02*
X181433400Y-123274000D01*
X180233400Y-121040000D02*
X180233400Y-123747000D01*
X181353400Y-121040000D02*
X181353400Y-123321000D01*
X180032400Y-116216000D02*
X180032400Y-118960000D01*
X181833400Y-117004000D02*
X181833400Y-122996000D01*
X180393400Y-121040000D02*
X180393400Y-123710000D01*
X180072400Y-121040000D02*
X180072400Y-123777000D01*
X181153400Y-116573000D02*
X181153400Y-118960000D01*
X182233400Y-117368000D02*
X182233400Y-122632000D01*
X180473400Y-121040000D02*
X180473400Y-123688000D01*
X180673400Y-121040000D02*
X180673400Y-123626000D01*
X179512400Y-116170000D02*
X179512400Y-123830000D01*
X181193400Y-121040000D02*
X181193400Y-123407000D01*
X179632400Y-116175000D02*
X179632400Y-123825000D01*
X180233400Y-116253000D02*
X180233400Y-118960000D01*
X179792400Y-116186000D02*
X179792400Y-118960000D01*
X180793400Y-116416000D02*
X180793400Y-118960000D01*
X180993400Y-121040000D02*
X180993400Y-123502000D01*
X180273400Y-121040000D02*
X180273400Y-123738000D01*
X180713400Y-116387000D02*
X180713400Y-118960000D01*
X180553400Y-116335000D02*
X180553400Y-118960000D01*
X180993400Y-116498000D02*
X180993400Y-118960000D01*
X183153400Y-118972000D02*
X183153400Y-121028000D01*
X179912400Y-121040000D02*
X179912400Y-123801000D01*
X183113400Y-118842000D02*
X183113400Y-121158000D01*
X179792400Y-121040000D02*
X179792400Y-123814000D01*
X180873400Y-121040000D02*
X180873400Y-123553000D01*
X180953400Y-116480000D02*
X180953400Y-118960000D01*
X181713400Y-116912000D02*
X181713400Y-118960000D01*
X181873400Y-117036000D02*
X181873400Y-122964000D01*
X179712400Y-116180000D02*
X179712400Y-118960000D01*
X183033400Y-118619000D02*
X183033400Y-121381000D01*
X180153400Y-116237000D02*
X180153400Y-118960000D01*
X183302400Y-120000000D02*
G75*
G03*
X183302400Y-120000000I-3870000J0D01*
G01*
%TO.C,R7*%
X161270000Y-97630000D02*
X154730000Y-97630000D01*
X154730000Y-100370000D02*
X161270000Y-100370000D01*
X162040000Y-99000000D02*
X161270000Y-99000000D01*
X161270000Y-100370000D02*
X161270000Y-97630000D01*
X153960000Y-99000000D02*
X154730000Y-99000000D01*
X154730000Y-97630000D02*
X154730000Y-100370000D01*
%TO.C,IC4*%
X131260000Y-112650000D02*
X135760000Y-112650000D01*
X132510000Y-102370000D02*
X131260000Y-102370000D01*
X128260000Y-102310000D02*
X128260000Y-112710000D01*
X135760000Y-102370000D02*
X134510000Y-102370000D01*
X138760000Y-102310000D02*
X128260000Y-102310000D01*
X138760000Y-112710000D02*
X138760000Y-102310000D01*
X128260000Y-112710000D02*
X138760000Y-112710000D01*
X135760000Y-112650000D02*
X135760000Y-102370000D01*
X131260000Y-102370000D02*
X131260000Y-112650000D01*
X132510000Y-102370000D02*
G75*
G03*
X134510000Y-102370000I1000000J0D01*
G01*
%TO.C,J2*%
X88330000Y-122920000D02*
X88330000Y-135680000D01*
X85670000Y-121650000D02*
X85670000Y-120320000D01*
X85670000Y-122920000D02*
X88330000Y-122920000D01*
X85670000Y-122920000D02*
X85670000Y-135680000D01*
X85670000Y-135680000D02*
X88330000Y-135680000D01*
X85670000Y-120320000D02*
X87000000Y-120320000D01*
%TO.C,U3*%
X164103300Y-59145000D02*
X159043300Y-59145000D01*
X159043300Y-94825000D02*
X171163300Y-94825000D01*
X174163300Y-59085000D02*
X156043300Y-59085000D01*
X171163300Y-94825000D02*
X171163300Y-59145000D01*
X171163300Y-59145000D02*
X166103300Y-59145000D01*
X174163300Y-94885000D02*
X174163300Y-59085000D01*
X156043300Y-94885000D02*
X174163300Y-94885000D01*
X159043300Y-59145000D02*
X159043300Y-94825000D01*
X156043300Y-59085000D02*
X156043300Y-94885000D01*
X164103300Y-59145000D02*
G75*
G03*
X166103300Y-59145000I1000000J0D01*
G01*
D14*
%TO.C,C7*%
X130841000Y-124476000D02*
X135159000Y-124476000D01*
X135159000Y-127524000D02*
X130841000Y-127524000D01*
D15*
X133254000Y-126000000D02*
X133254000Y-126762000D01*
D14*
X133381000Y-126000000D02*
X133254000Y-126000000D01*
D13*
X129698000Y-127540200D02*
X130129800Y-127540200D01*
X128885200Y-124459800D02*
X129317000Y-124459800D01*
D14*
X130587000Y-124730000D02*
X130587000Y-127270000D01*
D13*
X128885200Y-127540200D02*
X129317000Y-127540200D01*
D15*
X133254000Y-126000000D02*
X133254000Y-125238000D01*
X132746000Y-126000000D02*
X132746000Y-126762000D01*
D13*
X129698000Y-124459800D02*
X130129800Y-124459800D01*
D15*
X132746000Y-125238000D02*
X132746000Y-126000000D01*
D14*
X135413000Y-124730000D02*
X135413000Y-127270000D01*
X132746000Y-126000000D02*
X132619000Y-126000000D01*
D13*
X128529600Y-124459800D02*
G75*
G03*
X128021600Y-124967800I1J-508001D01*
G01*
D14*
X135413000Y-124730000D02*
G75*
G03*
X135159000Y-124476000I-254000J0D01*
G01*
X130587000Y-127270000D02*
G75*
G03*
X130841000Y-127524000I254000J0D01*
G01*
X135159000Y-127524000D02*
G75*
G03*
X135413000Y-127270000I0J254000D01*
G01*
X130841000Y-124476000D02*
G75*
G03*
X130587000Y-124730000I0J-254000D01*
G01*
D13*
X128021600Y-127032200D02*
G75*
G03*
X128529600Y-127540200I508001J1D01*
G01*
%TO.C,C4*%
X180558621Y-126264000D02*
X180558621Y-128210000D01*
X182278621Y-127900000D02*
X182278621Y-130600000D01*
X181598621Y-126945000D02*
X181598621Y-128210000D01*
X180398621Y-126203000D02*
X180398621Y-128210000D01*
X179757621Y-130290000D02*
X179757621Y-132451000D01*
X180638621Y-130290000D02*
X180638621Y-132202000D01*
X180958621Y-130290000D02*
X180958621Y-132040000D01*
X181078621Y-130290000D02*
X181078621Y-131966000D01*
X180918621Y-130290000D02*
X180918621Y-132062000D01*
X179797621Y-126055000D02*
X179797621Y-128210000D01*
X179877621Y-126068000D02*
X179877621Y-128210000D01*
X182158621Y-127669000D02*
X182158621Y-130831000D01*
X181198621Y-130290000D02*
X181198621Y-131886000D01*
X180278621Y-130290000D02*
X180278621Y-132336000D01*
X180638621Y-126298000D02*
X180638621Y-128210000D01*
X179397621Y-126020000D02*
X179397621Y-132480000D01*
X180838621Y-126394000D02*
X180838621Y-128210000D01*
X179677621Y-126039000D02*
X179677621Y-128210000D01*
X181118621Y-130290000D02*
X181118621Y-131940000D01*
X182038621Y-127474000D02*
X182038621Y-131026000D01*
X181838621Y-127206000D02*
X181838621Y-131294000D01*
X180158621Y-126129000D02*
X180158621Y-128210000D01*
X181038621Y-126508000D02*
X181038621Y-128210000D01*
X179557621Y-126028000D02*
X179557621Y-128210000D01*
X180998621Y-130290000D02*
X180998621Y-132016000D01*
X181158621Y-130290000D02*
X181158621Y-131914000D01*
X180158621Y-130290000D02*
X180158621Y-132371000D01*
X179557621Y-130290000D02*
X179557621Y-132472000D01*
X180318621Y-126176000D02*
X180318621Y-128210000D01*
X181518621Y-130290000D02*
X181518621Y-131630000D01*
X180758621Y-126354000D02*
X180758621Y-128210000D01*
X181318621Y-126702000D02*
X181318621Y-128210000D01*
X182238621Y-127818000D02*
X182238621Y-130682000D01*
X179997621Y-130290000D02*
X179997621Y-132409000D01*
X180958621Y-126460000D02*
X180958621Y-128210000D01*
X179957621Y-126083000D02*
X179957621Y-128210000D01*
X180478621Y-126232000D02*
X180478621Y-128210000D01*
X181958621Y-127360000D02*
X181958621Y-131140000D01*
X180078621Y-126109000D02*
X180078621Y-128210000D01*
X181678621Y-127026000D02*
X181678621Y-131474000D01*
X181998621Y-127416000D02*
X181998621Y-131084000D01*
X180038621Y-130290000D02*
X180038621Y-132400000D01*
X179597621Y-126032000D02*
X179597621Y-128210000D01*
X179717621Y-126044000D02*
X179717621Y-128210000D01*
X181758621Y-127113000D02*
X181758621Y-131387000D01*
X181198621Y-126614000D02*
X181198621Y-128210000D01*
X180758621Y-130290000D02*
X180758621Y-132146000D01*
X181478621Y-126834000D02*
X181478621Y-128210000D01*
X180238621Y-130290000D02*
X180238621Y-132348000D01*
X179757621Y-126049000D02*
X179757621Y-128210000D01*
X180918621Y-126438000D02*
X180918621Y-128210000D01*
X182438621Y-128310000D02*
X182438621Y-130190000D01*
X180358621Y-126189000D02*
X180358621Y-128210000D01*
X176132380Y-127096000D02*
X176132380Y-127726000D01*
X182078621Y-127536000D02*
X182078621Y-130964000D01*
X181398621Y-130290000D02*
X181398621Y-131734000D01*
X182118621Y-127600000D02*
X182118621Y-130900000D01*
X181478621Y-130290000D02*
X181478621Y-131666000D01*
X181358621Y-126734000D02*
X181358621Y-128210000D01*
X182358621Y-128085000D02*
X182358621Y-130415000D01*
X181438621Y-126800000D02*
X181438621Y-128210000D01*
X179797621Y-130290000D02*
X179797621Y-132445000D01*
X181518621Y-126870000D02*
X181518621Y-128210000D01*
X179637621Y-130290000D02*
X179637621Y-132465000D01*
X181438621Y-130290000D02*
X181438621Y-131700000D01*
X181398621Y-126766000D02*
X181398621Y-128210000D01*
X181558621Y-130290000D02*
X181558621Y-131593000D01*
X180598621Y-130290000D02*
X180598621Y-132220000D01*
X180558621Y-130290000D02*
X180558621Y-132236000D01*
X180678621Y-130290000D02*
X180678621Y-132184000D01*
X180878621Y-126416000D02*
X180878621Y-128210000D01*
X181358621Y-130290000D02*
X181358621Y-131766000D01*
X179317621Y-126020000D02*
X179317621Y-132480000D01*
X180318621Y-130290000D02*
X180318621Y-132324000D01*
X180878621Y-130290000D02*
X180878621Y-132084000D01*
X179997621Y-126091000D02*
X179997621Y-128210000D01*
X181278621Y-126672000D02*
X181278621Y-128210000D01*
X180678621Y-126316000D02*
X180678621Y-128210000D01*
X181598621Y-130290000D02*
X181598621Y-131555000D01*
X181278621Y-130290000D02*
X181278621Y-131828000D01*
X179597621Y-130290000D02*
X179597621Y-132468000D01*
X180438621Y-130290000D02*
X180438621Y-132283000D01*
X179837621Y-126061000D02*
X179837621Y-128210000D01*
X180198621Y-130290000D02*
X180198621Y-132360000D01*
X181798621Y-127158000D02*
X181798621Y-131342000D01*
X180358621Y-130290000D02*
X180358621Y-132311000D01*
X181078621Y-126534000D02*
X181078621Y-128210000D01*
X180118621Y-130290000D02*
X180118621Y-132381000D01*
X181238621Y-130290000D02*
X181238621Y-131857000D01*
X181638621Y-126985000D02*
X181638621Y-131515000D01*
X180038621Y-126100000D02*
X180038621Y-128210000D01*
X180198621Y-126140000D02*
X180198621Y-128210000D01*
X179637621Y-126035000D02*
X179637621Y-128210000D01*
X180998621Y-126484000D02*
X180998621Y-128210000D01*
X182478621Y-128448000D02*
X182478621Y-130052000D01*
X182318621Y-127988000D02*
X182318621Y-130512000D01*
X179437621Y-126022000D02*
X179437621Y-132478000D01*
X180278621Y-126164000D02*
X180278621Y-128210000D01*
X179877621Y-130290000D02*
X179877621Y-132432000D01*
X181038621Y-130290000D02*
X181038621Y-131992000D01*
X182558621Y-128848000D02*
X182558621Y-129652000D01*
X181718621Y-127068000D02*
X181718621Y-131432000D01*
X180518621Y-130290000D02*
X180518621Y-132252000D01*
X179837621Y-130290000D02*
X179837621Y-132439000D01*
X182198621Y-127741000D02*
X182198621Y-130759000D01*
X180718621Y-126334000D02*
X180718621Y-128210000D01*
X180478621Y-130290000D02*
X180478621Y-132268000D01*
X179917621Y-126075000D02*
X179917621Y-128210000D01*
X180078621Y-130290000D02*
X180078621Y-132391000D01*
X179957621Y-130290000D02*
X179957621Y-132417000D01*
X180238621Y-126152000D02*
X180238621Y-128210000D01*
X180838621Y-130290000D02*
X180838621Y-132106000D01*
X181878621Y-127255000D02*
X181878621Y-131245000D01*
X181558621Y-126907000D02*
X181558621Y-128210000D01*
X180798621Y-130290000D02*
X180798621Y-132126000D01*
X182398621Y-128191000D02*
X182398621Y-130309000D01*
X179357621Y-126020000D02*
X179357621Y-132480000D01*
X180598621Y-126280000D02*
X180598621Y-128210000D01*
X179717621Y-130290000D02*
X179717621Y-132456000D01*
X181158621Y-126586000D02*
X181158621Y-128210000D01*
X175817380Y-127411000D02*
X176447380Y-127411000D01*
X180718621Y-130290000D02*
X180718621Y-132166000D01*
X180398621Y-130290000D02*
X180398621Y-132297000D01*
X180518621Y-126248000D02*
X180518621Y-128210000D01*
X181318621Y-130290000D02*
X181318621Y-131798000D01*
X179517621Y-126026000D02*
X179517621Y-132474000D01*
X181118621Y-126560000D02*
X181118621Y-128210000D01*
X180118621Y-126119000D02*
X180118621Y-128210000D01*
X180798621Y-126374000D02*
X180798621Y-128210000D01*
X179677621Y-130290000D02*
X179677621Y-132461000D01*
X181918621Y-127306000D02*
X181918621Y-131194000D01*
X179477621Y-126023000D02*
X179477621Y-132477000D01*
X181238621Y-126643000D02*
X181238621Y-128210000D01*
X179917621Y-130290000D02*
X179917621Y-132425000D01*
X180438621Y-126217000D02*
X180438621Y-128210000D01*
X182518621Y-128617000D02*
X182518621Y-129883000D01*
X182587621Y-129250000D02*
G75*
G03*
X182587621Y-129250000I-3270000J0D01*
G01*
%TO.C,JP1*%
X114670000Y-141395000D02*
X116000000Y-141395000D01*
X114670000Y-146595000D02*
X117330000Y-146595000D01*
X117330000Y-143995000D02*
X117330000Y-146595000D01*
X114670000Y-143995000D02*
X117330000Y-143995000D01*
X114670000Y-143995000D02*
X114670000Y-146595000D01*
X114670000Y-142725000D02*
X114670000Y-141395000D01*
D16*
%TO.C,SW1*%
X143730000Y-105794000D02*
X143730000Y-106048000D01*
D14*
X147159000Y-99952000D02*
X146270000Y-99952000D01*
D16*
X146270000Y-100206000D02*
X143730000Y-100206000D01*
D14*
X141952000Y-103762000D02*
X141952000Y-104016000D01*
X143730000Y-99952000D02*
X142841000Y-99952000D01*
D16*
X146143000Y-105794000D02*
X143730000Y-105794000D01*
D14*
X148048000Y-103762000D02*
X148048000Y-104016000D01*
X148302000Y-103762000D02*
X148048000Y-103762000D01*
D16*
X146143000Y-105794000D02*
X146143000Y-106048000D01*
D14*
X141698000Y-102238000D02*
X141952000Y-102238000D01*
X143730000Y-106048000D02*
X146143000Y-106048000D01*
D16*
X146270000Y-100206000D02*
X146270000Y-99952000D01*
D14*
X146143000Y-106048000D02*
X147159000Y-106048000D01*
X148048000Y-102238000D02*
X148048000Y-101984000D01*
D16*
X143730000Y-99952000D02*
X143730000Y-100206000D01*
D14*
X148048000Y-102238000D02*
X148302000Y-102238000D01*
X148302000Y-103762000D02*
X148302000Y-102238000D01*
X141952000Y-103762000D02*
X141698000Y-103762000D01*
X141952000Y-102238000D02*
X141952000Y-101984000D01*
X142841000Y-106048000D02*
X143730000Y-106048000D01*
X141698000Y-102238000D02*
X141698000Y-103762000D01*
X146270000Y-99952000D02*
X143730000Y-99952000D01*
X146778000Y-103000000D02*
G75*
G03*
X146778000Y-103000000I-1778000J0D01*
G01*
X145254000Y-103000000D02*
G75*
G03*
X145254000Y-103000000I-254000J0D01*
G01*
D13*
%TO.C,R5*%
X131125000Y-134870000D02*
X131125000Y-132130000D01*
X131895000Y-133500000D02*
X131125000Y-133500000D01*
X124585000Y-134870000D02*
X131125000Y-134870000D01*
X123815000Y-133500000D02*
X124585000Y-133500000D01*
X124585000Y-132130000D02*
X124585000Y-134870000D01*
X131125000Y-132130000D02*
X124585000Y-132130000D01*
%TO.C,R6*%
X131815000Y-138500000D02*
X131045000Y-138500000D01*
X131045000Y-137130000D02*
X124505000Y-137130000D01*
X131045000Y-139870000D02*
X131045000Y-137130000D01*
X124505000Y-139870000D02*
X131045000Y-139870000D01*
X123735000Y-138500000D02*
X124505000Y-138500000D01*
X124505000Y-137130000D02*
X124505000Y-139870000D01*
%TO.C,J4*%
X115670000Y-138770000D02*
X115670000Y-138830000D01*
X115670000Y-136170000D02*
X117000000Y-136170000D01*
X115670000Y-138770000D02*
X118330000Y-138770000D01*
X115670000Y-138830000D02*
X118330000Y-138830000D01*
X115670000Y-137500000D02*
X115670000Y-136170000D01*
X118330000Y-138770000D02*
X118330000Y-138830000D01*
%TO.C,IC3*%
X113850000Y-139850000D02*
X113850000Y-116150000D01*
X90150000Y-139850000D02*
X113850000Y-139850000D01*
X101000000Y-116150000D02*
X91150000Y-116150000D01*
X90150000Y-117150000D02*
X90150000Y-139850000D01*
X113850000Y-116150000D02*
X103000000Y-116150000D01*
X91150000Y-116150000D02*
X90150000Y-117150000D01*
%TO.C,C11*%
X173120000Y-100130000D02*
X173120000Y-100835000D01*
X168880000Y-100130000D02*
X173120000Y-100130000D01*
X173120000Y-102165000D02*
X173120000Y-102870000D01*
X168880000Y-100130000D02*
X168880000Y-100835000D01*
X168880000Y-102870000D02*
X173120000Y-102870000D01*
X168880000Y-102165000D02*
X168880000Y-102870000D01*
%TO.C,C12*%
X126870000Y-110620000D02*
X126870000Y-106380000D01*
X126165000Y-110620000D02*
X126870000Y-110620000D01*
X124130000Y-110620000D02*
X124835000Y-110620000D01*
X124130000Y-106380000D02*
X124835000Y-106380000D01*
X124130000Y-110620000D02*
X124130000Y-106380000D01*
X126165000Y-106380000D02*
X126870000Y-106380000D01*
%TO.C,C2*%
X140130000Y-110660000D02*
X144370000Y-110660000D01*
X144370000Y-112695000D02*
X144370000Y-113400000D01*
X144370000Y-110660000D02*
X144370000Y-111365000D01*
X140130000Y-113400000D02*
X144370000Y-113400000D01*
X140130000Y-112695000D02*
X140130000Y-113400000D01*
X140130000Y-110660000D02*
X140130000Y-111365000D01*
%TO.C,R2*%
X88000000Y-82120000D02*
X88000000Y-81350000D01*
X89370000Y-81350000D02*
X89370000Y-74810000D01*
X86630000Y-74810000D02*
X86630000Y-81350000D01*
X89370000Y-74810000D02*
X86630000Y-74810000D01*
X88000000Y-74040000D02*
X88000000Y-74810000D01*
X86630000Y-81350000D02*
X89370000Y-81350000D01*
%TO.C,IC1*%
X93168300Y-59170000D02*
X93168300Y-110090000D01*
X98228300Y-59170000D02*
X93168300Y-59170000D01*
X93168300Y-110090000D02*
X105288300Y-110090000D01*
X105288300Y-59170000D02*
X100228300Y-59170000D01*
X90168300Y-59110000D02*
X90168300Y-110150000D01*
X108288300Y-110150000D02*
X108288300Y-59110000D01*
X105288300Y-110090000D02*
X105288300Y-59170000D01*
X108288300Y-59110000D02*
X90168300Y-59110000D01*
X90168300Y-110150000D02*
X108288300Y-110150000D01*
X98228300Y-59170000D02*
G75*
G03*
X100228300Y-59170000I1000000J0D01*
G01*
%TO.C,LED2*%
X129710000Y-143455000D02*
X129710000Y-146545000D01*
X135260000Y-145000462D02*
G75*
G03*
X129710000Y-143455170I-2990000J462D01*
G01*
X129710000Y-146544830D02*
G75*
G03*
X135260000Y-144999538I2560000J1544830D01*
G01*
X134770000Y-145000000D02*
G75*
G03*
X134770000Y-145000000I-2500000J0D01*
G01*
%TO.C,U1*%
X120120000Y-59170000D02*
X115060000Y-59170000D01*
X115060000Y-59170000D02*
X115060000Y-99930000D01*
X127180000Y-99930000D02*
X127180000Y-59170000D01*
X130180000Y-99990000D02*
X130180000Y-59110000D01*
X112060000Y-99990000D02*
X130180000Y-99990000D01*
X127180000Y-59170000D02*
X122120000Y-59170000D01*
X115060000Y-99930000D02*
X127180000Y-99930000D01*
X130180000Y-59110000D02*
X112060000Y-59110000D01*
X112060000Y-59110000D02*
X112060000Y-99990000D01*
X120120000Y-59170000D02*
G75*
G03*
X122120000Y-59170000I1000000J0D01*
G01*
%TD*%
M02*
