%TF.GenerationSoftware,KiCad,Pcbnew,(6.0.0-0)*%
%TF.CreationDate,2022-07-16T16:30:51+01:00*%
%TF.ProjectId,rosco_6502,726f7363-6f5f-4363-9530-322e6b696361,3*%
%TF.SameCoordinates,Original*%
%TF.FileFunction,Copper,L4,Bot*%
%TF.FilePolarity,Positive*%
%FSLAX46Y46*%
G04 Gerber Fmt 4.6, Leading zero omitted, Abs format (unit mm)*
G04 Created by KiCad (PCBNEW (6.0.0-0)) date 2022-07-16 16:30:51*
%MOMM*%
%LPD*%
G01*
G04 APERTURE LIST*
G04 Aperture macros list*
%AMRoundRect*
0 Rectangle with rounded corners*
0 $1 Rounding radius*
0 $2 $3 $4 $5 $6 $7 $8 $9 X,Y pos of 4 corners*
0 Add a 4 corners polygon primitive as box body*
4,1,4,$2,$3,$4,$5,$6,$7,$8,$9,$2,$3,0*
0 Add four circle primitives for the rounded corners*
1,1,$1+$1,$2,$3*
1,1,$1+$1,$4,$5*
1,1,$1+$1,$6,$7*
1,1,$1+$1,$8,$9*
0 Add four rect primitives between the rounded corners*
20,1,$1+$1,$2,$3,$4,$5,0*
20,1,$1+$1,$4,$5,$6,$7,0*
20,1,$1+$1,$6,$7,$8,$9,0*
20,1,$1+$1,$8,$9,$2,$3,0*%
G04 Aperture macros list end*
%TA.AperFunction,ComponentPad*%
%ADD10R,1.600000X1.600000*%
%TD*%
%TA.AperFunction,ComponentPad*%
%ADD11C,1.600000*%
%TD*%
%TA.AperFunction,ComponentPad*%
%ADD12RoundRect,0.875000X0.875000X0.875000X-0.875000X0.875000X-0.875000X-0.875000X0.875000X-0.875000X0*%
%TD*%
%TA.AperFunction,ComponentPad*%
%ADD13RoundRect,0.750000X0.750000X1.000000X-0.750000X1.000000X-0.750000X-1.000000X0.750000X-1.000000X0*%
%TD*%
%TA.AperFunction,ComponentPad*%
%ADD14R,3.500000X3.500000*%
%TD*%
%TA.AperFunction,ComponentPad*%
%ADD15R,1.800000X1.800000*%
%TD*%
%TA.AperFunction,ComponentPad*%
%ADD16C,1.800000*%
%TD*%
%TA.AperFunction,ComponentPad*%
%ADD17R,1.700000X1.700000*%
%TD*%
%TA.AperFunction,ComponentPad*%
%ADD18O,1.700000X1.700000*%
%TD*%
%TA.AperFunction,ComponentPad*%
%ADD19O,1.600000X1.600000*%
%TD*%
%TA.AperFunction,ComponentPad*%
%ADD20R,2.400000X1.600000*%
%TD*%
%TA.AperFunction,ComponentPad*%
%ADD21O,2.400000X1.600000*%
%TD*%
%TA.AperFunction,ComponentPad*%
%ADD22C,7.000000*%
%TD*%
%TA.AperFunction,ComponentPad*%
%ADD23C,1.500000*%
%TD*%
%TA.AperFunction,ComponentPad*%
%ADD24C,1.600200*%
%TD*%
%TA.AperFunction,ComponentPad*%
%ADD25O,3.048000X1.524000*%
%TD*%
%TA.AperFunction,ComponentPad*%
%ADD26R,1.422400X1.422400*%
%TD*%
%TA.AperFunction,ComponentPad*%
%ADD27C,1.422400*%
%TD*%
%TA.AperFunction,ViaPad*%
%ADD28C,0.800000*%
%TD*%
%TA.AperFunction,Conductor*%
%ADD29C,0.250000*%
%TD*%
%TA.AperFunction,Conductor*%
%ADD30C,0.400000*%
%TD*%
G04 APERTURE END LIST*
D10*
%TO.P,C17,1*%
%TO.N,VCC*%
X176338606Y-124500000D03*
D11*
%TO.P,C17,2*%
%TO.N,GND*%
X178838606Y-124500000D03*
%TD*%
D12*
%TO.P,J7,3*%
%TO.N,N/C*%
X172320000Y-110257500D03*
D13*
%TO.P,J7,2*%
%TO.N,GND*%
X175320000Y-114957500D03*
D14*
%TO.P,J7,1*%
%TO.N,VCC*%
X169320000Y-114957500D03*
%TD*%
D11*
%TO.P,C9,1*%
%TO.N,GND*%
X91500000Y-114000000D03*
%TO.P,C9,2*%
%TO.N,VCC*%
X94000000Y-114000000D03*
%TD*%
%TO.P,C10,1*%
%TO.N,GND*%
X167000000Y-122030000D03*
%TO.P,C10,2*%
%TO.N,VCC*%
X169500000Y-122030000D03*
%TD*%
D15*
%TO.P,LED1,1,K*%
%TO.N,Net-(IC3-Pad16)*%
X122000000Y-145000000D03*
D16*
%TO.P,LED1,2,A*%
%TO.N,Net-(LED1-Pad2)*%
X124540000Y-145000000D03*
%TD*%
D11*
%TO.P,C19,1*%
%TO.N,VCC*%
X147610000Y-112030000D03*
%TO.P,C19,2*%
%TO.N,Net-(C19-Pad2)*%
X150110000Y-112030000D03*
%TD*%
D17*
%TO.P,J1,1,Pin_1*%
%TO.N,GND*%
X96650000Y-144500000D03*
D18*
%TO.P,J1,2,Pin_2*%
%TO.N,RTSA*%
X99190000Y-144500000D03*
%TO.P,J1,3,Pin_3*%
%TO.N,VCCUA*%
X101730000Y-144500000D03*
%TO.P,J1,4,Pin_4*%
%TO.N,RXDA*%
X104270000Y-144500000D03*
%TO.P,J1,5,Pin_5*%
%TO.N,TXDA*%
X106810000Y-144500000D03*
%TO.P,J1,6,Pin_6*%
%TO.N,CTSA*%
X109350000Y-144500000D03*
%TD*%
D11*
%TO.P,C3,1*%
%TO.N,GND*%
X142108300Y-55500000D03*
%TO.P,C3,2*%
%TO.N,VCC*%
X144608300Y-55500000D03*
%TD*%
%TO.P,R9,1*%
%TO.N,Net-(R9-Pad1)*%
X152920000Y-103000000D03*
D19*
%TO.P,R9,2*%
%TO.N,GND*%
X163080000Y-103000000D03*
%TD*%
D11*
%TO.P,C15,1*%
%TO.N,GND*%
X132250000Y-98500000D03*
%TO.P,C15,2*%
%TO.N,VCC*%
X134750000Y-98500000D03*
%TD*%
%TO.P,R10,1*%
%TO.N,VCC*%
X98550000Y-113830000D03*
D19*
%TO.P,R10,2*%
%TO.N,Net-(R10-Pad2)*%
X108710000Y-113830000D03*
%TD*%
D11*
%TO.P,C1,1*%
%TO.N,GND*%
X97858300Y-55500000D03*
%TO.P,C1,2*%
%TO.N,VCC*%
X100358300Y-55500000D03*
%TD*%
D20*
%TO.P,U4,1,~{Mr}*%
%TO.N,~{RESET}*%
X164450000Y-127130000D03*
D21*
%TO.P,U4,2,Q0*%
%TO.N,BANK0*%
X164450000Y-129670000D03*
%TO.P,U4,3,D0*%
%TO.N,D0*%
X164450000Y-132210000D03*
%TO.P,U4,4,D1*%
%TO.N,D1*%
X164450000Y-134750000D03*
%TO.P,U4,5,Q1*%
%TO.N,BANK1*%
X164450000Y-137290000D03*
%TO.P,U4,6,D2*%
%TO.N,D2*%
X164450000Y-139830000D03*
%TO.P,U4,7,Q2*%
%TO.N,BANK2*%
X164450000Y-142370000D03*
%TO.P,U4,8,GND*%
%TO.N,GND*%
X164450000Y-144910000D03*
%TO.P,U4,9,Cp*%
%TO.N,BANKCLK*%
X172070000Y-144910000D03*
%TO.P,U4,10,Q3*%
%TO.N,BANK3*%
X172070000Y-142370000D03*
%TO.P,U4,11,D3*%
%TO.N,D3*%
X172070000Y-139830000D03*
%TO.P,U4,12,Q4*%
%TO.N,unconnected-(U4-Pad12)*%
X172070000Y-137290000D03*
%TO.P,U4,13,D4*%
%TO.N,GND*%
X172070000Y-134750000D03*
%TO.P,U4,14,D5*%
X172070000Y-132210000D03*
%TO.P,U4,15,Q5*%
%TO.N,unconnected-(U4-Pad15)*%
X172070000Y-129670000D03*
%TO.P,U4,16,VCC*%
%TO.N,VCC*%
X172070000Y-127130000D03*
%TD*%
D20*
%TO.P,U2,1,A14*%
%TO.N,GND*%
X135491700Y-60500000D03*
D21*
%TO.P,U2,2,A12*%
%TO.N,A12*%
X135491700Y-63040000D03*
%TO.P,U2,3,A7*%
%TO.N,A7*%
X135491700Y-65580000D03*
%TO.P,U2,4,A6*%
%TO.N,A6*%
X135491700Y-68120000D03*
%TO.P,U2,5,A5*%
%TO.N,A5*%
X135491700Y-70660000D03*
%TO.P,U2,6,A4*%
%TO.N,A4*%
X135491700Y-73200000D03*
%TO.P,U2,7,A3*%
%TO.N,A3*%
X135491700Y-75740000D03*
%TO.P,U2,8,A2*%
%TO.N,A2*%
X135491700Y-78280000D03*
%TO.P,U2,9,A1*%
%TO.N,A1*%
X135491700Y-80820000D03*
%TO.P,U2,10,A0*%
%TO.N,A0*%
X135491700Y-83360000D03*
%TO.P,U2,11,DQ0*%
%TO.N,D0*%
X135491700Y-85900000D03*
%TO.P,U2,12,DQ1*%
%TO.N,D1*%
X135491700Y-88440000D03*
%TO.P,U2,13,DQ2*%
%TO.N,D2*%
X135491700Y-90980000D03*
%TO.P,U2,14,VSS*%
%TO.N,GND*%
X135491700Y-93520000D03*
%TO.P,U2,15,DQ3*%
%TO.N,D3*%
X150731700Y-93520000D03*
%TO.P,U2,16,DQ4*%
%TO.N,D4*%
X150731700Y-90980000D03*
%TO.P,U2,17,DQ5*%
%TO.N,D5*%
X150731700Y-88440000D03*
%TO.P,U2,18,DQ6*%
%TO.N,D6*%
X150731700Y-85900000D03*
%TO.P,U2,19,DQ7*%
%TO.N,D7*%
X150731700Y-83360000D03*
%TO.P,U2,20,CE#*%
%TO.N,~{LOWRAM}*%
X150731700Y-80820000D03*
%TO.P,U2,21,A10*%
%TO.N,A10*%
X150731700Y-78280000D03*
%TO.P,U2,22,OE#*%
%TO.N,~{RD}*%
X150731700Y-75740000D03*
%TO.P,U2,23,A11*%
%TO.N,A11*%
X150731700Y-73200000D03*
%TO.P,U2,24,A9*%
%TO.N,A9*%
X150731700Y-70660000D03*
%TO.P,U2,25,A8*%
%TO.N,A8*%
X150731700Y-68120000D03*
%TO.P,U2,26,A13*%
%TO.N,A13*%
X150731700Y-65580000D03*
%TO.P,U2,27,WE#*%
%TO.N,~{WR}*%
X150731700Y-63040000D03*
%TO.P,U2,28,VCC*%
%TO.N,VCC*%
X150731700Y-60500000D03*
%TD*%
D20*
%TO.P,IC2,1,I1/CLK*%
%TO.N,A15*%
X138250000Y-117030000D03*
D21*
%TO.P,IC2,2,I2*%
%TO.N,A14*%
X138250000Y-119570000D03*
%TO.P,IC2,3,I3*%
%TO.N,A13*%
X138250000Y-122110000D03*
%TO.P,IC2,4,I4/PD*%
%TO.N,A12*%
X138250000Y-124650000D03*
%TO.P,IC2,5,I5*%
%TO.N,A11*%
X138250000Y-127190000D03*
%TO.P,IC2,6,I6*%
%TO.N,A10*%
X138250000Y-129730000D03*
%TO.P,IC2,7,I7*%
%TO.N,A9*%
X138250000Y-132270000D03*
%TO.P,IC2,8,I8*%
%TO.N,A8*%
X138250000Y-134810000D03*
%TO.P,IC2,9,I9*%
%TO.N,A7*%
X138250000Y-137350000D03*
%TO.P,IC2,10,I10*%
%TO.N,A6*%
X138250000Y-139890000D03*
%TO.P,IC2,11,I11*%
%TO.N,A5*%
X138250000Y-142430000D03*
%TO.P,IC2,12,GND*%
%TO.N,GND*%
X138250000Y-144970000D03*
%TO.P,IC2,13,I13*%
%TO.N,A4*%
X145870000Y-144970000D03*
%TO.P,IC2,14,IO1*%
%TO.N,A3*%
X145870000Y-142430000D03*
%TO.P,IC2,15,IO2*%
%TO.N,A2*%
X145870000Y-139890000D03*
%TO.P,IC2,16,IO3*%
%TO.N,A1*%
X145870000Y-137350000D03*
%TO.P,IC2,17,I04*%
%TO.N,A0*%
X145870000Y-134810000D03*
%TO.P,IC2,18,IO5*%
%TO.N,~{LOWRAM}*%
X145870000Y-132270000D03*
%TO.P,IC2,19,IO6*%
%TO.N,~{BANKRAM}*%
X145870000Y-129730000D03*
%TO.P,IC2,20,IO7*%
%TO.N,~{IO}*%
X145870000Y-127190000D03*
%TO.P,IC2,21,IO8*%
%TO.N,~{ROM}*%
X145870000Y-124650000D03*
%TO.P,IC2,22,IO9*%
%TO.N,BANKSEL*%
X145870000Y-122110000D03*
%TO.P,IC2,23,IO10*%
%TO.N,~{DUASEL}*%
X145870000Y-119570000D03*
%TO.P,IC2,24,VCC*%
%TO.N,VCC*%
X145870000Y-117030000D03*
%TD*%
D10*
%TO.P,X1,1,EN*%
%TO.N,Net-(R10-Pad2)*%
X113000000Y-112310000D03*
D11*
%TO.P,X1,4,GND*%
%TO.N,GND*%
X120620000Y-112310000D03*
%TO.P,X1,5,OUT*%
%TO.N,CLK*%
X120620000Y-104690000D03*
%TO.P,X1,8,Vcc*%
%TO.N,VCC*%
X113000000Y-104690000D03*
%TD*%
%TO.P,R1,1*%
%TO.N,VCC*%
X88000000Y-60580000D03*
D19*
%TO.P,R1,2*%
%TO.N,RDY*%
X88000000Y-70740000D03*
%TD*%
D22*
%TO.P,H4,1,1*%
%TO.N,GND*%
X179550000Y-144550000D03*
%TD*%
D11*
%TO.P,C20,2*%
%TO.N,GND*%
X172500000Y-103000000D03*
D10*
%TO.P,C20,1*%
%TO.N,Net-(C20-Pad1)*%
X170000000Y-103000000D03*
%TD*%
D17*
%TO.P,J3,1,Pin_1*%
%TO.N,SPICS*%
X117000000Y-119650000D03*
D18*
%TO.P,J3,2,Pin_2*%
%TO.N,SPICLK*%
X117000000Y-122190000D03*
%TO.P,J3,3,Pin_3*%
%TO.N,SPIMOSI*%
X117000000Y-124730000D03*
%TO.P,J3,4,Pin_4*%
%TO.N,SPIMISO*%
X117000000Y-127270000D03*
%TO.P,J3,5,Pin_5*%
%TO.N,VCC*%
X117000000Y-129810000D03*
%TO.P,J3,6,Pin_6*%
%TO.N,GND*%
X117000000Y-132350000D03*
%TD*%
D17*
%TO.P,JP2,1,A*%
%TO.N,VCCUB*%
X87250000Y-112725000D03*
D18*
%TO.P,JP2,2,B*%
%TO.N,VCC*%
X87250000Y-115265000D03*
%TD*%
D11*
%TO.P,R8,1*%
%TO.N,Net-(C20-Pad1)*%
X152920000Y-107000000D03*
D19*
%TO.P,R8,2*%
%TO.N,VCC*%
X163080000Y-107000000D03*
%TD*%
D23*
%TO.P,Q1,1,1*%
%TO.N,Net-(C13-Pad2)*%
X125550000Y-119000000D03*
%TO.P,Q1,2,2*%
%TO.N,Net-(C14-Pad2)*%
X130430000Y-119000000D03*
%TD*%
D20*
%TO.P,IC5,1,I1/CLK*%
%TO.N,CLK*%
X151450000Y-117055000D03*
D21*
%TO.P,IC5,2,I2*%
%TO.N,~{DUADTACK}*%
X151450000Y-119595000D03*
%TO.P,IC5,3,I3*%
%TO.N,~{DUASEL}*%
X151450000Y-122135000D03*
%TO.P,IC5,4,I4/PD*%
%TO.N,R{slash}~{W}*%
X151450000Y-124675000D03*
%TO.P,IC5,5,I5*%
%TO.N,HWRST*%
X151450000Y-127215000D03*
%TO.P,IC5,6,I6*%
%TO.N,BANKSEL*%
X151450000Y-129755000D03*
%TO.P,IC5,7,I7*%
%TO.N,~{VP}*%
X151450000Y-132295000D03*
%TO.P,IC5,8,I8*%
%TO.N,~{ML}*%
X151450000Y-134835000D03*
%TO.P,IC5,9,I9*%
%TO.N,IRQ*%
X151450000Y-137375000D03*
%TO.P,IC5,10,I10*%
%TO.N,~{ROM}*%
X151450000Y-139915000D03*
%TO.P,IC5,11,I11*%
%TO.N,~{IO}*%
X151450000Y-142455000D03*
%TO.P,IC5,12,GND*%
%TO.N,GND*%
X151450000Y-144995000D03*
%TO.P,IC5,13,I13*%
%TO.N,unconnected-(IC5-Pad13)*%
X159070000Y-144995000D03*
%TO.P,IC5,14,IO1*%
%TO.N,BANKCLK*%
X159070000Y-142455000D03*
%TO.P,IC5,15,IO2*%
%TO.N,unconnected-(IC5-Pad15)*%
X159070000Y-139915000D03*
%TO.P,IC5,16,IO3*%
%TO.N,unconnected-(IC5-Pad16)*%
X159070000Y-137375000D03*
%TO.P,IC5,17,I04*%
%TO.N,~{ROMOE}*%
X159070000Y-134835000D03*
%TO.P,IC5,18,IO5*%
%TO.N,unconnected-(IC5-Pad18)*%
X159070000Y-132295000D03*
%TO.P,IC5,19,IO6*%
%TO.N,NMI*%
X159070000Y-129755000D03*
%TO.P,IC5,20,IO7*%
%TO.N,~{RESET}*%
X159070000Y-127215000D03*
%TO.P,IC5,21,IO8*%
%TO.N,~{RD}*%
X159070000Y-124675000D03*
%TO.P,IC5,22,IO9*%
%TO.N,~{WR}*%
X159070000Y-122135000D03*
%TO.P,IC5,23,IO10*%
%TO.N,RDY*%
X159070000Y-119595000D03*
%TO.P,IC5,24,VCC*%
%TO.N,VCC*%
X159070000Y-117055000D03*
%TD*%
D11*
%TO.P,C4,1*%
%TO.N,GND*%
X163858300Y-55500000D03*
%TO.P,C4,2*%
%TO.N,VCC*%
X166358300Y-55500000D03*
%TD*%
%TO.P,C8,1*%
%TO.N,GND*%
X154500000Y-112030000D03*
%TO.P,C8,2*%
%TO.N,VCC*%
X157000000Y-112030000D03*
%TD*%
D22*
%TO.P,H1,1,1*%
%TO.N,GND*%
X88450000Y-53450000D03*
%TD*%
D11*
%TO.P,R4,1*%
%TO.N,VCC*%
X88000000Y-97920000D03*
D19*
%TO.P,R4,2*%
%TO.N,NMI*%
X88000000Y-108080000D03*
%TD*%
D24*
%TO.P,C13,1*%
%TO.N,GND*%
X123730000Y-126000000D03*
X121190000Y-126000000D03*
%TO.P,C13,2*%
%TO.N,Net-(C13-Pad2)*%
X126270000Y-126000000D03*
%TD*%
D11*
%TO.P,R3,1*%
%TO.N,VCC*%
X88000000Y-85500000D03*
D19*
%TO.P,R3,2*%
%TO.N,IRQ*%
X88000000Y-95660000D03*
%TD*%
D10*
%TO.P,C16,1*%
%TO.N,VCC*%
X105026000Y-54125000D03*
D11*
%TO.P,C16,2*%
%TO.N,GND*%
X107526000Y-54125000D03*
%TD*%
D17*
%TO.P,J5,1,Pin_1*%
%TO.N,A0*%
X178225000Y-63425000D03*
D18*
%TO.P,J5,2,Pin_2*%
%TO.N,VCC*%
X180765000Y-63425000D03*
%TO.P,J5,3,Pin_3*%
%TO.N,A1*%
X178225000Y-65965000D03*
%TO.P,J5,4,Pin_4*%
%TO.N,CLK*%
X180765000Y-65965000D03*
%TO.P,J5,5,Pin_5*%
%TO.N,A2*%
X178225000Y-68505000D03*
%TO.P,J5,6,Pin_6*%
%TO.N,GND*%
X180765000Y-68505000D03*
%TO.P,J5,7,Pin_7*%
%TO.N,A3*%
X178225000Y-71045000D03*
%TO.P,J5,8,Pin_8*%
%TO.N,R{slash}~{W}*%
X180765000Y-71045000D03*
%TO.P,J5,9,Pin_9*%
%TO.N,A4*%
X178225000Y-73585000D03*
%TO.P,J5,10,Pin_10*%
%TO.N,~{RESET}*%
X180765000Y-73585000D03*
%TO.P,J5,11,Pin_11*%
%TO.N,A5*%
X178225000Y-76125000D03*
%TO.P,J5,12,Pin_12*%
%TO.N,RDY*%
X180765000Y-76125000D03*
%TO.P,J5,13,Pin_13*%
%TO.N,A6*%
X178225000Y-78665000D03*
%TO.P,J5,14,Pin_14*%
%TO.N,NMI*%
X180765000Y-78665000D03*
%TO.P,J5,15,Pin_15*%
%TO.N,A7*%
X178225000Y-81205000D03*
%TO.P,J5,16,Pin_16*%
%TO.N,IRQ*%
X180765000Y-81205000D03*
%TO.P,J5,17,Pin_17*%
%TO.N,A8*%
X178225000Y-83745000D03*
%TO.P,J5,18,Pin_18*%
%TO.N,SYNC*%
X180765000Y-83745000D03*
%TO.P,J5,19,Pin_19*%
%TO.N,A9*%
X178225000Y-86285000D03*
%TO.P,J5,20,Pin_20*%
%TO.N,BE*%
X180765000Y-86285000D03*
%TO.P,J5,21,Pin_21*%
%TO.N,A10*%
X178225000Y-88825000D03*
%TO.P,J5,22,Pin_22*%
%TO.N,D7*%
X180765000Y-88825000D03*
%TO.P,J5,23,Pin_23*%
%TO.N,A11*%
X178225000Y-91365000D03*
%TO.P,J5,24,Pin_24*%
%TO.N,D6*%
X180765000Y-91365000D03*
%TO.P,J5,25,Pin_25*%
%TO.N,A12*%
X178225000Y-93905000D03*
%TO.P,J5,26,Pin_26*%
%TO.N,D5*%
X180765000Y-93905000D03*
%TO.P,J5,27,Pin_27*%
%TO.N,A13*%
X178225000Y-96445000D03*
%TO.P,J5,28,Pin_28*%
%TO.N,D4*%
X180765000Y-96445000D03*
%TO.P,J5,29,Pin_29*%
%TO.N,A14*%
X178225000Y-98985000D03*
%TO.P,J5,30,Pin_30*%
%TO.N,D3*%
X180765000Y-98985000D03*
%TO.P,J5,31,Pin_31*%
%TO.N,A15*%
X178225000Y-101525000D03*
%TO.P,J5,32,Pin_32*%
%TO.N,D2*%
X180765000Y-101525000D03*
%TO.P,J5,33,Pin_33*%
%TO.N,~{VP}*%
X178225000Y-104065000D03*
%TO.P,J5,34,Pin_34*%
%TO.N,D1*%
X180765000Y-104065000D03*
%TO.P,J5,35,Pin_35*%
%TO.N,~{ML}*%
X178225000Y-106605000D03*
%TO.P,J5,36,Pin_36*%
%TO.N,D0*%
X180765000Y-106605000D03*
%TD*%
D11*
%TO.P,R7,1*%
%TO.N,VCC*%
X152920000Y-99000000D03*
D19*
%TO.P,R7,2*%
%TO.N,~{RESET}*%
X163080000Y-99000000D03*
%TD*%
D20*
%TO.P,IC4,1,GND*%
%TO.N,GND*%
X129700000Y-103700000D03*
D21*
%TO.P,IC4,2,TR*%
%TO.N,Net-(C20-Pad1)*%
X129700000Y-106240000D03*
%TO.P,IC4,3,Q*%
%TO.N,HWRST*%
X129700000Y-108780000D03*
%TO.P,IC4,4,R*%
%TO.N,VCC*%
X129700000Y-111320000D03*
%TO.P,IC4,5,CV*%
%TO.N,Net-(C19-Pad2)*%
X137320000Y-111320000D03*
%TO.P,IC4,6,THR*%
%TO.N,Net-(C20-Pad1)*%
X137320000Y-108780000D03*
%TO.P,IC4,7,DIS*%
%TO.N,unconnected-(IC4-Pad7)*%
X137320000Y-106240000D03*
%TO.P,IC4,8,VCC*%
%TO.N,VCC*%
X137320000Y-103700000D03*
%TD*%
D17*
%TO.P,J2,1,Pin_1*%
%TO.N,GND*%
X87000000Y-121650000D03*
D18*
%TO.P,J2,2,Pin_2*%
%TO.N,RTSB*%
X87000000Y-124190000D03*
%TO.P,J2,3,Pin_3*%
%TO.N,VCCUB*%
X87000000Y-126730000D03*
%TO.P,J2,4,Pin_4*%
%TO.N,RXDB*%
X87000000Y-129270000D03*
%TO.P,J2,5,Pin_5*%
%TO.N,TXDB*%
X87000000Y-131810000D03*
%TO.P,J2,6,Pin_6*%
%TO.N,CTSB*%
X87000000Y-134350000D03*
%TD*%
D20*
%TO.P,U3,1,NC*%
%TO.N,unconnected-(U3-Pad1)*%
X157483300Y-60475000D03*
D21*
%TO.P,U3,2,A12*%
%TO.N,A12*%
X157483300Y-63015000D03*
%TO.P,U3,3,A7*%
%TO.N,A7*%
X157483300Y-65555000D03*
%TO.P,U3,4,A6*%
%TO.N,A6*%
X157483300Y-68095000D03*
%TO.P,U3,5,A5*%
%TO.N,A5*%
X157483300Y-70635000D03*
%TO.P,U3,6,A4*%
%TO.N,A4*%
X157483300Y-73175000D03*
%TO.P,U3,7,A3*%
%TO.N,A3*%
X157483300Y-75715000D03*
%TO.P,U3,8,A2*%
%TO.N,A2*%
X157483300Y-78255000D03*
%TO.P,U3,9,A1*%
%TO.N,A1*%
X157483300Y-80795000D03*
%TO.P,U3,10,A0*%
%TO.N,A0*%
X157483300Y-83335000D03*
%TO.P,U3,11,DQ0*%
%TO.N,D0*%
X157483300Y-85875000D03*
%TO.P,U3,12,DQ1*%
%TO.N,D1*%
X157483300Y-88415000D03*
%TO.P,U3,13,DQ2*%
%TO.N,D2*%
X157483300Y-90955000D03*
%TO.P,U3,14,VSS*%
%TO.N,GND*%
X157483300Y-93495000D03*
%TO.P,U3,15,DQ3*%
%TO.N,D3*%
X172723300Y-93495000D03*
%TO.P,U3,16,DQ4*%
%TO.N,D4*%
X172723300Y-90955000D03*
%TO.P,U3,17,DQ5*%
%TO.N,D5*%
X172723300Y-88415000D03*
%TO.P,U3,18,DQ6*%
%TO.N,D6*%
X172723300Y-85875000D03*
%TO.P,U3,19,DQ7*%
%TO.N,D7*%
X172723300Y-83335000D03*
%TO.P,U3,20,CE#*%
%TO.N,GND*%
X172723300Y-80795000D03*
%TO.P,U3,21,A10*%
%TO.N,A10*%
X172723300Y-78255000D03*
%TO.P,U3,22,OE#*%
%TO.N,~{ROMOE}*%
X172723300Y-75715000D03*
%TO.P,U3,23,A11*%
%TO.N,A11*%
X172723300Y-73175000D03*
%TO.P,U3,24,A9*%
%TO.N,A9*%
X172723300Y-70635000D03*
%TO.P,U3,25,A8*%
%TO.N,A8*%
X172723300Y-68095000D03*
%TO.P,U3,26,NC*%
%TO.N,unconnected-(U3-Pad26)*%
X172723300Y-65555000D03*
%TO.P,U3,27,WE#*%
%TO.N,VCC*%
X172723300Y-63015000D03*
%TO.P,U3,28,VCC*%
X172723300Y-60475000D03*
%TD*%
D24*
%TO.P,C14,1*%
%TO.N,GND*%
X131730000Y-126000000D03*
X129190000Y-126000000D03*
%TO.P,C14,2*%
%TO.N,Net-(C14-Pad2)*%
X134270000Y-126000000D03*
%TD*%
D25*
%TO.P,S1,1,S*%
%TO.N,Net-(R9-Pad1)*%
X141758800Y-100719400D03*
%TO.P,S1,2,S1*%
%TO.N,unconnected-(S1-Pad2)*%
X148261200Y-100719400D03*
%TO.P,S1,3,P*%
%TO.N,Net-(C20-Pad1)*%
X141758800Y-105240600D03*
%TO.P,S1,4,P1*%
%TO.N,unconnected-(S1-Pad4)*%
X148261200Y-105240600D03*
%TD*%
D10*
%TO.P,C18,1*%
%TO.N,VCC*%
X178000000Y-132000000D03*
D11*
%TO.P,C18,2*%
%TO.N,GND*%
X180500000Y-132000000D03*
%TD*%
D22*
%TO.P,H3,1,1*%
%TO.N,GND*%
X88450000Y-144550000D03*
%TD*%
D17*
%TO.P,JP1,1,A*%
%TO.N,VCCUA*%
X116000000Y-142725000D03*
D18*
%TO.P,JP1,2,B*%
%TO.N,VCC*%
X116000000Y-145265000D03*
%TD*%
D22*
%TO.P,H2,1,1*%
%TO.N,GND*%
X179550000Y-53450000D03*
%TD*%
D11*
%TO.P,R5,1*%
%TO.N,Net-(LED1-Pad2)*%
X122695000Y-134743900D03*
D19*
%TO.P,R5,2*%
%TO.N,VCC*%
X132855000Y-134743900D03*
%TD*%
D11*
%TO.P,R12,1*%
%TO.N,VCC*%
X132855000Y-130987800D03*
D19*
%TO.P,R12,2*%
%TO.N,Net-(IC3-Pad41)*%
X122695000Y-130987800D03*
%TD*%
D11*
%TO.P,R6,1*%
%TO.N,VCC*%
X122695000Y-138500000D03*
D19*
%TO.P,R6,2*%
%TO.N,Net-(LED2-Pad2)*%
X132855000Y-138500000D03*
%TD*%
D17*
%TO.P,J4,1,Pin_1*%
%TO.N,SPICS2*%
X117000000Y-137500000D03*
%TD*%
D26*
%TO.P,IC3,1,NC*%
%TO.N,unconnected-(IC3-Pad1)*%
X103270000Y-121650000D03*
D27*
%TO.P,IC3,2,A1*%
%TO.N,A0*%
X100730000Y-119110000D03*
%TO.P,IC3,3,IP3*%
%TO.N,GND*%
X100730000Y-121650000D03*
%TO.P,IC3,4,A2*%
%TO.N,A1*%
X98190000Y-119110000D03*
%TO.P,IC3,5,IP1*%
%TO.N,CTSB*%
X98190000Y-121650000D03*
%TO.P,IC3,6,A3*%
%TO.N,A2*%
X95650000Y-119110000D03*
%TO.P,IC3,7,A4*%
%TO.N,A3*%
X93110000Y-121650000D03*
%TO.P,IC3,8,IP0*%
%TO.N,CTSA*%
X95650000Y-121650000D03*
%TO.P,IC3,9,\u002AR/\u002AW*%
%TO.N,R{slash}~{W}*%
X93110000Y-124190000D03*
%TO.P,IC3,10,\u002ADTALK*%
%TO.N,~{DUADTACK}*%
X95650000Y-124190000D03*
%TO.P,IC3,11,RXDB*%
%TO.N,RXDB*%
X93110000Y-126730000D03*
%TO.P,IC3,12,NC*%
%TO.N,unconnected-(IC3-Pad12)*%
X95650000Y-126730000D03*
%TO.P,IC3,13,TXDB*%
%TO.N,TXDB*%
X93110000Y-129270000D03*
%TO.P,IC3,14,OP1*%
%TO.N,RTSB*%
X95650000Y-129270000D03*
%TO.P,IC3,15,OP3*%
%TO.N,Net-(IC3-Pad15)*%
X93110000Y-131810000D03*
%TO.P,IC3,16,OP5*%
%TO.N,Net-(IC3-Pad16)*%
X95650000Y-131810000D03*
%TO.P,IC3,17,OP7*%
%TO.N,SPICS2*%
X93110000Y-134350000D03*
%TO.P,IC3,18,D1*%
%TO.N,D1*%
X95650000Y-136890000D03*
%TO.P,IC3,19,D3*%
%TO.N,D3*%
X95650000Y-134350000D03*
%TO.P,IC3,20,D5*%
%TO.N,D5*%
X98190000Y-136890000D03*
%TO.P,IC3,21,D7*%
%TO.N,D7*%
X98190000Y-134350000D03*
%TO.P,IC3,22,GND*%
%TO.N,GND*%
X100730000Y-136890000D03*
%TO.P,IC3,23,NC*%
%TO.N,unconnected-(IC3-Pad23)*%
X100730000Y-134350000D03*
%TO.P,IC3,24,INTR*%
%TO.N,IRQ*%
X103270000Y-136890000D03*
%TO.P,IC3,25,D6*%
%TO.N,D6*%
X103270000Y-134350000D03*
%TO.P,IC3,26,D4*%
%TO.N,D4*%
X105810000Y-136890000D03*
%TO.P,IC3,27,D2*%
%TO.N,D2*%
X105810000Y-134350000D03*
%TO.P,IC3,28,D0*%
%TO.N,D0*%
X108350000Y-136890000D03*
%TO.P,IC3,29,OP6*%
%TO.N,SPIMOSI*%
X110890000Y-134350000D03*
%TO.P,IC3,30,OP4*%
%TO.N,SPICLK*%
X108350000Y-134350000D03*
%TO.P,IC3,31,OP2*%
%TO.N,SPICS*%
X110890000Y-131810000D03*
%TO.P,IC3,32,OP0*%
%TO.N,RTSA*%
X108350000Y-131810000D03*
%TO.P,IC3,33,TXDA*%
%TO.N,TXDA*%
X110890000Y-129270000D03*
%TO.P,IC3,34,NC*%
%TO.N,unconnected-(IC3-Pad34)*%
X108350000Y-129270000D03*
%TO.P,IC3,35,RXDA*%
%TO.N,RXDA*%
X110890000Y-126730000D03*
%TO.P,IC3,36,X1/CLK*%
%TO.N,Net-(C13-Pad2)*%
X108350000Y-126730000D03*
%TO.P,IC3,37,X2*%
%TO.N,Net-(C14-Pad2)*%
X110890000Y-124190000D03*
%TO.P,IC3,38,\u002ARESET*%
%TO.N,~{RESET}*%
X108350000Y-124190000D03*
%TO.P,IC3,39,CS*%
%TO.N,~{DUASEL}*%
X110890000Y-121650000D03*
%TO.P,IC3,40,IP2*%
%TO.N,SPIMISO*%
X108350000Y-119110000D03*
%TO.P,IC3,41,\u002AIACK*%
%TO.N,Net-(IC3-Pad41)*%
X108350000Y-121650000D03*
%TO.P,IC3,42,IP5*%
%TO.N,unconnected-(IC3-Pad42)*%
X105810000Y-119110000D03*
%TO.P,IC3,43,IP4*%
%TO.N,unconnected-(IC3-Pad43)*%
X105810000Y-121650000D03*
%TO.P,IC3,44,VCC*%
%TO.N,VCC*%
X103270000Y-119110000D03*
%TD*%
D11*
%TO.P,R11,1*%
%TO.N,VCC*%
X163080000Y-109560000D03*
D19*
%TO.P,R11,2*%
%TO.N,~{DUADTACK}*%
X163080000Y-119720000D03*
%TD*%
D11*
%TO.P,C2,1*%
%TO.N,GND*%
X119875000Y-55500000D03*
%TO.P,C2,2*%
%TO.N,VCC*%
X122375000Y-55500000D03*
%TD*%
%TO.P,C11,1*%
%TO.N,GND*%
X125500000Y-109750000D03*
%TO.P,C11,2*%
%TO.N,VCC*%
X125500000Y-107250000D03*
%TD*%
%TO.P,C12,1*%
%TO.N,GND*%
X141000000Y-112030000D03*
%TO.P,C12,2*%
%TO.N,VCC*%
X143500000Y-112030000D03*
%TD*%
%TO.P,R2,1*%
%TO.N,VCC*%
X88000000Y-73000000D03*
D19*
%TO.P,R2,2*%
%TO.N,BE*%
X88000000Y-83160000D03*
%TD*%
D17*
%TO.P,J6,1,Pin_1*%
%TO.N,VCC*%
X178015000Y-138330000D03*
D18*
%TO.P,J6,2,Pin_2*%
%TO.N,GND*%
X180555000Y-138330000D03*
%TD*%
D20*
%TO.P,IC1,1,~{VP}*%
%TO.N,~{VP}*%
X91608300Y-60500000D03*
D21*
%TO.P,IC1,2,RDY*%
%TO.N,RDY*%
X91608300Y-63040000D03*
%TO.P,IC1,3,\u03D51*%
%TO.N,unconnected-(IC1-Pad3)*%
X91608300Y-65580000D03*
%TO.P,IC1,4,~{IRQ}*%
%TO.N,IRQ*%
X91608300Y-68120000D03*
%TO.P,IC1,5,~{ML}*%
%TO.N,~{ML}*%
X91608300Y-70660000D03*
%TO.P,IC1,6,~{NMI}*%
%TO.N,NMI*%
X91608300Y-73200000D03*
%TO.P,IC1,7,SYNC*%
%TO.N,SYNC*%
X91608300Y-75740000D03*
%TO.P,IC1,8,VDD*%
%TO.N,VCC*%
X91608300Y-78280000D03*
%TO.P,IC1,9,A0*%
%TO.N,A0*%
X91608300Y-80820000D03*
%TO.P,IC1,10,A1*%
%TO.N,A1*%
X91608300Y-83360000D03*
%TO.P,IC1,11,A2*%
%TO.N,A2*%
X91608300Y-85900000D03*
%TO.P,IC1,12,A3*%
%TO.N,A3*%
X91608300Y-88440000D03*
%TO.P,IC1,13,A4*%
%TO.N,A4*%
X91608300Y-90980000D03*
%TO.P,IC1,14,A5*%
%TO.N,A5*%
X91608300Y-93520000D03*
%TO.P,IC1,15,A6*%
%TO.N,A6*%
X91608300Y-96060000D03*
%TO.P,IC1,16,A7*%
%TO.N,A7*%
X91608300Y-98600000D03*
%TO.P,IC1,17,A8*%
%TO.N,A8*%
X91608300Y-101140000D03*
%TO.P,IC1,18,A9*%
%TO.N,A9*%
X91608300Y-103680000D03*
%TO.P,IC1,19,A10*%
%TO.N,A10*%
X91608300Y-106220000D03*
%TO.P,IC1,20,A11*%
%TO.N,A11*%
X91608300Y-108760000D03*
%TO.P,IC1,21,VSS*%
%TO.N,GND*%
X106848300Y-108760000D03*
%TO.P,IC1,22,A12*%
%TO.N,A12*%
X106848300Y-106220000D03*
%TO.P,IC1,23,A13*%
%TO.N,A13*%
X106848300Y-103680000D03*
%TO.P,IC1,24,A14*%
%TO.N,A14*%
X106848300Y-101140000D03*
%TO.P,IC1,25,A15*%
%TO.N,A15*%
X106848300Y-98600000D03*
%TO.P,IC1,26,D7*%
%TO.N,D7*%
X106848300Y-96060000D03*
%TO.P,IC1,27,D6*%
%TO.N,D6*%
X106848300Y-93520000D03*
%TO.P,IC1,28,D5*%
%TO.N,D5*%
X106848300Y-90980000D03*
%TO.P,IC1,29,D4*%
%TO.N,D4*%
X106848300Y-88440000D03*
%TO.P,IC1,30,D3*%
%TO.N,D3*%
X106848300Y-85900000D03*
%TO.P,IC1,31,D2*%
%TO.N,D2*%
X106848300Y-83360000D03*
%TO.P,IC1,32,D1*%
%TO.N,D1*%
X106848300Y-80820000D03*
%TO.P,IC1,33,D0*%
%TO.N,D0*%
X106848300Y-78280000D03*
%TO.P,IC1,34,R/~{W}*%
%TO.N,R{slash}~{W}*%
X106848300Y-75740000D03*
%TO.P,IC1,35,nc*%
%TO.N,unconnected-(IC1-Pad35)*%
X106848300Y-73200000D03*
%TO.P,IC1,36,BE*%
%TO.N,BE*%
X106848300Y-70660000D03*
%TO.P,IC1,37,\u03D50*%
%TO.N,CLK*%
X106848300Y-68120000D03*
%TO.P,IC1,38,~{SO}*%
%TO.N,VCC*%
X106848300Y-65580000D03*
%TO.P,IC1,39,\u03D52*%
%TO.N,unconnected-(IC1-Pad39)*%
X106848300Y-63040000D03*
%TO.P,IC1,40,~{RES}*%
%TO.N,~{RESET}*%
X106848300Y-60500000D03*
%TD*%
D15*
%TO.P,LED2,1,K*%
%TO.N,Net-(IC3-Pad15)*%
X131000000Y-145000000D03*
D16*
%TO.P,LED2,2,A*%
%TO.N,Net-(LED2-Pad2)*%
X133540000Y-145000000D03*
%TD*%
D20*
%TO.P,U1,1,A18*%
%TO.N,BANK3*%
X113500000Y-60500000D03*
D21*
%TO.P,U1,2,A16*%
%TO.N,BANK1*%
X113500000Y-63040000D03*
%TO.P,U1,3,A14*%
%TO.N,A15*%
X113500000Y-65580000D03*
%TO.P,U1,4,A12*%
%TO.N,A12*%
X113500000Y-68120000D03*
%TO.P,U1,5,A7*%
%TO.N,A7*%
X113500000Y-70660000D03*
%TO.P,U1,6,A6*%
%TO.N,A6*%
X113500000Y-73200000D03*
%TO.P,U1,7,A5*%
%TO.N,A5*%
X113500000Y-75740000D03*
%TO.P,U1,8,A4*%
%TO.N,A4*%
X113500000Y-78280000D03*
%TO.P,U1,9,A3*%
%TO.N,A3*%
X113500000Y-80820000D03*
%TO.P,U1,10,A2*%
%TO.N,A2*%
X113500000Y-83360000D03*
%TO.P,U1,11,A1*%
%TO.N,A1*%
X113500000Y-85900000D03*
%TO.P,U1,12,A0*%
%TO.N,A0*%
X113500000Y-88440000D03*
%TO.P,U1,13,DQ0*%
%TO.N,D0*%
X113500000Y-90980000D03*
%TO.P,U1,14,DQ1*%
%TO.N,D1*%
X113500000Y-93520000D03*
%TO.P,U1,15,DQ2*%
%TO.N,D2*%
X113500000Y-96060000D03*
%TO.P,U1,16,VSS*%
%TO.N,GND*%
X113500000Y-98600000D03*
%TO.P,U1,17,DQ3*%
%TO.N,D3*%
X128740000Y-98600000D03*
%TO.P,U1,18,DQ4*%
%TO.N,D4*%
X128740000Y-96060000D03*
%TO.P,U1,19,DQ5*%
%TO.N,D5*%
X128740000Y-93520000D03*
%TO.P,U1,20,DQ6*%
%TO.N,D6*%
X128740000Y-90980000D03*
%TO.P,U1,21,DQ7*%
%TO.N,D7*%
X128740000Y-88440000D03*
%TO.P,U1,22,CE#*%
%TO.N,~{BANKRAM}*%
X128740000Y-85900000D03*
%TO.P,U1,23,A10*%
%TO.N,A10*%
X128740000Y-83360000D03*
%TO.P,U1,24,OE#*%
%TO.N,~{RD}*%
X128740000Y-80820000D03*
%TO.P,U1,25,A11*%
%TO.N,A11*%
X128740000Y-78280000D03*
%TO.P,U1,26,A9*%
%TO.N,A9*%
X128740000Y-75740000D03*
%TO.P,U1,27,A8*%
%TO.N,A8*%
X128740000Y-73200000D03*
%TO.P,U1,28,A13*%
%TO.N,A13*%
X128740000Y-70660000D03*
%TO.P,U1,29,WE#*%
%TO.N,~{WR}*%
X128740000Y-68120000D03*
%TO.P,U1,30,A17*%
%TO.N,BANK2*%
X128740000Y-65580000D03*
%TO.P,U1,31,A15*%
%TO.N,BANK0*%
X128740000Y-63040000D03*
%TO.P,U1,32,VCC*%
%TO.N,VCC*%
X128740000Y-60500000D03*
%TD*%
D28*
%TO.N,~{VP}*%
X155321400Y-60324300D03*
%TO.N,RDY*%
X150810000Y-55560000D03*
%TO.N,A12*%
X104173300Y-73875200D03*
%TO.N,A13*%
X138313500Y-99239100D03*
%TO.N,A14*%
X135495100Y-106062100D03*
%TO.N,~{ML}*%
X101032200Y-117594400D03*
%TO.N,SYNC*%
X100406500Y-92290400D03*
%TO.N,D5*%
X109212700Y-96194100D03*
%TO.N,A0*%
X119014800Y-119610400D03*
%TO.N,D4*%
X111401900Y-97043400D03*
%TO.N,A1*%
X97612200Y-87915300D03*
%TO.N,D3*%
X104824000Y-95474600D03*
%TO.N,A2*%
X166049900Y-70055000D03*
%TO.N,D2*%
X167583100Y-91648900D03*
%TO.N,D1*%
X94720800Y-87969600D03*
%TO.N,A5*%
X160772700Y-75584200D03*
%TO.N,R{slash}~{W}*%
X102616000Y-75438000D03*
X146980000Y-58220000D03*
X146510000Y-70900000D03*
X140720000Y-70880000D03*
X161430000Y-58440000D03*
%TO.N,A6*%
X122805000Y-85972300D03*
%TO.N,A7*%
X175660000Y-68070000D03*
X124059700Y-109593000D03*
%TO.N,A8*%
X129336500Y-117314700D03*
%TO.N,A9*%
X133790400Y-121221800D03*
%TO.N,A10*%
X131551000Y-121359000D03*
%TO.N,A11*%
X134892701Y-122317299D03*
%TO.N,~{LOWRAM}*%
X146410000Y-81240000D03*
%TO.N,~{BANKRAM}*%
X136750200Y-126270000D03*
%TO.N,~{DUASEL}*%
X118110000Y-112918080D03*
%TO.N,Net-(IC3-Pad41)*%
X119470000Y-121090000D03*
%TO.N,TXDA*%
X113288500Y-134462400D03*
%TO.N,HWRST*%
X144504500Y-115979600D03*
%TO.N,~{ROMOE}*%
X170624500Y-80150000D03*
%TD*%
D29*
%TO.N,D1*%
X180765000Y-104065000D02*
X180765000Y-104943990D01*
X180765000Y-104943990D02*
X179590000Y-106118990D01*
X179590000Y-106118990D02*
X179590000Y-115062600D01*
X179590000Y-115062600D02*
X165975300Y-128677300D01*
X165975300Y-128677300D02*
X165975300Y-134750000D01*
X165975300Y-134750000D02*
X164450000Y-134750000D01*
%TO.N,D3*%
X180765000Y-98985000D02*
X182843900Y-101063900D01*
X182843900Y-101063900D02*
X182843900Y-131246400D01*
X182843900Y-131246400D02*
X174260300Y-139830000D01*
X174260300Y-139830000D02*
X172070000Y-139830000D01*
%TO.N,Net-(C13-Pad2)*%
X126270000Y-119720000D02*
X125550000Y-119000000D01*
X126270000Y-126000000D02*
X126270000Y-119720000D01*
%TO.N,Net-(C14-Pad2)*%
X134270000Y-126000000D02*
X130430000Y-122160000D01*
X130430000Y-122160000D02*
X130430000Y-119000000D01*
%TO.N,~{VP}*%
X178225000Y-104065000D02*
X177049700Y-104065000D01*
X156836300Y-87246200D02*
X160230900Y-87246200D01*
X155027700Y-60618000D02*
X155027700Y-85437600D01*
X155321400Y-60324300D02*
X155027700Y-60618000D01*
X155027700Y-85437600D02*
X156836300Y-87246200D01*
X160230900Y-87246200D02*
X177049700Y-104065000D01*
%TO.N,RDY*%
X159070000Y-119595000D02*
X160595300Y-119595000D01*
X88000000Y-70740000D02*
X88000000Y-65123000D01*
X154112300Y-92277600D02*
X154112300Y-58452300D01*
X91608300Y-63040000D02*
X90083000Y-63040000D01*
X151220000Y-55560000D02*
X150810000Y-55560000D01*
X88000000Y-65123000D02*
X90083000Y-63040000D01*
X160595300Y-98760600D02*
X154112300Y-92277600D01*
X151220000Y-55560000D02*
X154112300Y-58452300D01*
X160595300Y-119595000D02*
X160595300Y-98760600D01*
%TO.N,A12*%
X104173300Y-73875200D02*
X103641000Y-74407500D01*
X178225000Y-93905000D02*
X177049700Y-93905000D01*
X103641000Y-74407500D02*
X103641000Y-104538000D01*
X103641000Y-104538000D02*
X105323000Y-106220000D01*
X170029000Y-92080400D02*
X175225100Y-92080400D01*
X162553600Y-84605000D02*
X170029000Y-92080400D01*
X155478100Y-63494900D02*
X155478100Y-83348700D01*
X155478100Y-83348700D02*
X156734400Y-84605000D01*
X157483300Y-63015000D02*
X155958000Y-63015000D01*
X175225100Y-92080400D02*
X177049700Y-93905000D01*
X106848300Y-106220000D02*
X105323000Y-106220000D01*
X156734400Y-84605000D02*
X162553600Y-84605000D01*
X155958000Y-63015000D02*
X155478100Y-63494900D01*
%TO.N,A13*%
X138313500Y-99239100D02*
X138845400Y-99771000D01*
X133414800Y-73809500D02*
X133414800Y-94181400D01*
X138313500Y-99080100D02*
X138313500Y-99239100D01*
X139775300Y-116095200D02*
X139775300Y-122110000D01*
X128740000Y-70660000D02*
X130265300Y-70660000D01*
X138845400Y-115165300D02*
X139775300Y-116095200D01*
X138845400Y-99771000D02*
X138845400Y-115165300D01*
X130265300Y-70660000D02*
X133414800Y-73809500D01*
X138250000Y-122110000D02*
X139775300Y-122110000D01*
X133414800Y-94181400D02*
X138313500Y-99080100D01*
%TO.N,IRQ*%
X86858000Y-108810100D02*
X89208000Y-111160100D01*
X89208000Y-129427200D02*
X92860800Y-133080000D01*
X90083000Y-68120000D02*
X89125300Y-69077700D01*
X89125300Y-93409400D02*
X88000000Y-94534700D01*
X91608300Y-68120000D02*
X90083000Y-68120000D01*
X88000000Y-96785300D02*
X87437400Y-96785300D01*
X94146500Y-136902400D02*
X95189700Y-137945600D01*
X88000000Y-95660000D02*
X88000000Y-94534700D01*
X92860800Y-133080000D02*
X93343100Y-133080000D01*
X88000000Y-95660000D02*
X88000000Y-96785300D01*
X86858000Y-97364700D02*
X86858000Y-108810100D01*
X95189700Y-137945600D02*
X102214400Y-137945600D01*
X87437400Y-96785300D02*
X86858000Y-97364700D01*
X102214400Y-137945600D02*
X103270000Y-136890000D01*
X89208000Y-111160100D02*
X89208000Y-129427200D01*
X94146500Y-133883400D02*
X94146500Y-136902400D01*
X89125300Y-69077700D02*
X89125300Y-93409400D01*
X93343100Y-133080000D02*
X94146500Y-133883400D01*
%TO.N,A14*%
X135495100Y-118340400D02*
X135495100Y-106062100D01*
X138250000Y-119570000D02*
X136724700Y-119570000D01*
X136724700Y-119570000D02*
X135495100Y-118340400D01*
%TO.N,~{ML}*%
X101161000Y-117465600D02*
X101032200Y-117594400D01*
X101161000Y-78687400D02*
X101161000Y-117465600D01*
X91608300Y-70660000D02*
X93133600Y-70660000D01*
X93133600Y-70660000D02*
X101161000Y-78687400D01*
%TO.N,A15*%
X105302000Y-67660200D02*
X105302000Y-84103100D01*
X104091300Y-97368300D02*
X105323000Y-98600000D01*
X113500000Y-65580000D02*
X111974700Y-65580000D01*
X106848300Y-98600000D02*
X105323000Y-98600000D01*
X106112200Y-66850000D02*
X105302000Y-67660200D01*
X111974700Y-65580000D02*
X110704700Y-66850000D01*
X104091300Y-85313800D02*
X104091300Y-97368300D01*
X110704700Y-66850000D02*
X106112200Y-66850000D01*
X105302000Y-84103100D02*
X104091300Y-85313800D01*
%TO.N,NMI*%
X89632600Y-105322100D02*
X89632600Y-73650400D01*
X91608300Y-73200000D02*
X90083000Y-73200000D01*
X88000000Y-106954700D02*
X89632600Y-105322100D01*
X89632600Y-73650400D02*
X90083000Y-73200000D01*
X88000000Y-108080000D02*
X88000000Y-106954700D01*
%TO.N,D7*%
X98190000Y-134350000D02*
X98190000Y-133713100D01*
X108859800Y-109422600D02*
X108859800Y-97898482D01*
X98190000Y-133713100D02*
X102233700Y-129669400D01*
X104318000Y-123851400D02*
X104318000Y-113964400D01*
X102233700Y-125935700D02*
X104318000Y-123851400D01*
X102233700Y-129669400D02*
X102233700Y-125935700D01*
X104318000Y-113964400D02*
X108859800Y-109422600D01*
X108859800Y-97898482D02*
X107021318Y-96060000D01*
%TO.N,SYNC*%
X100406500Y-83012900D02*
X100406500Y-92290400D01*
X93133600Y-75740000D02*
X100406500Y-83012900D01*
X91608300Y-75740000D02*
X93133600Y-75740000D01*
%TO.N,D6*%
X106863000Y-122805500D02*
X106863000Y-118231283D01*
X108373600Y-93520000D02*
X106848300Y-93520000D01*
X109952000Y-109601836D02*
X109952000Y-95098400D01*
X106863000Y-118231283D02*
X105720000Y-117088283D01*
X109952000Y-95098400D02*
X108373600Y-93520000D01*
X105720000Y-113833836D02*
X109952000Y-109601836D01*
X105720000Y-117088283D02*
X105720000Y-113833836D01*
X103270000Y-126398500D02*
X106863000Y-122805500D01*
X103270000Y-134350000D02*
X103270000Y-126398500D01*
%TO.N,D5*%
X109212700Y-96194100D02*
X109311100Y-96292500D01*
X172723300Y-88415000D02*
X174248600Y-88415000D01*
X179589700Y-92729700D02*
X180765000Y-93905000D01*
X104768400Y-124263200D02*
X102684000Y-126347600D01*
X99226500Y-133313500D02*
X99226500Y-135853500D01*
X99226500Y-135853500D02*
X98190000Y-136890000D01*
X106848300Y-90980000D02*
X105323000Y-90980000D01*
X102684000Y-126347600D02*
X102684000Y-129856000D01*
X174248600Y-88415000D02*
X174248600Y-89072500D01*
X106094500Y-94790000D02*
X105323000Y-94018500D01*
X107808600Y-94790000D02*
X106094500Y-94790000D01*
X104768400Y-114149718D02*
X104768400Y-124263200D01*
X177905800Y-92729700D02*
X179589700Y-92729700D01*
X174248600Y-89072500D02*
X177905800Y-92729700D01*
X109311100Y-96292500D02*
X109311100Y-109607018D01*
X105323000Y-94018500D02*
X105323000Y-90980000D01*
X109212700Y-96194100D02*
X107808600Y-94790000D01*
X102684000Y-129856000D02*
X99226500Y-133313500D01*
X109311100Y-109607018D02*
X104768400Y-114149718D01*
%TO.N,A0*%
X167465200Y-70634200D02*
X167465200Y-68811200D01*
X155929000Y-81780700D02*
X155929000Y-80335000D01*
X171991400Y-64285000D02*
X176189700Y-64285000D01*
X157483300Y-83335000D02*
X155929000Y-81780700D01*
X156739000Y-79525000D02*
X158574400Y-79525000D01*
X99674511Y-118054511D02*
X100730000Y-119110000D01*
X119422700Y-92837400D02*
X115025300Y-88440000D01*
X176189700Y-64285000D02*
X177049700Y-63425000D01*
X91608300Y-80820000D02*
X93133600Y-80820000D01*
X99674511Y-87360911D02*
X99674511Y-118054511D01*
X119014800Y-119610400D02*
X119422700Y-119202500D01*
X178225000Y-63425000D02*
X177049700Y-63425000D01*
X119422700Y-119202500D02*
X119422700Y-92837400D01*
X167465200Y-68811200D02*
X171991400Y-64285000D01*
X155929000Y-80335000D02*
X156739000Y-79525000D01*
X113500000Y-88440000D02*
X115025300Y-88440000D01*
X158574400Y-79525000D02*
X167465200Y-70634200D01*
X93133600Y-80820000D02*
X99674511Y-87360911D01*
%TO.N,D4*%
X111401900Y-97043400D02*
X110401520Y-98043780D01*
X107313400Y-126490700D02*
X104768200Y-129035900D01*
X106169520Y-116902085D02*
X107313400Y-118045965D01*
X110401520Y-109788034D02*
X106169520Y-114020034D01*
X108373600Y-88440000D02*
X110623400Y-90689800D01*
X107313400Y-118045965D02*
X107313400Y-126490700D01*
X104768200Y-129035900D02*
X104768200Y-135848200D01*
X110401520Y-98043780D02*
X110401520Y-109788034D01*
X106169520Y-114020034D02*
X106169520Y-116902085D01*
X110623400Y-96264900D02*
X111401900Y-97043400D01*
X104768200Y-135848200D02*
X105810000Y-136890000D01*
X110623400Y-90689800D02*
X110623400Y-96264900D01*
X106848300Y-88440000D02*
X108373600Y-88440000D01*
%TO.N,A1*%
X93133600Y-83360000D02*
X97345300Y-87571700D01*
X142031100Y-135036400D02*
X144344700Y-137350000D01*
X91608300Y-83360000D02*
X93133600Y-83360000D01*
X139867300Y-83670300D02*
X139867300Y-113875800D01*
X172030500Y-66796100D02*
X176218600Y-66796100D01*
X178225000Y-65965000D02*
X177049700Y-65965000D01*
X142031100Y-116039600D02*
X142031100Y-135036400D01*
X135491700Y-80820000D02*
X137017000Y-80820000D01*
X97345300Y-87915300D02*
X97345300Y-118265300D01*
X145870000Y-137350000D02*
X144344700Y-137350000D01*
X139867300Y-113875800D02*
X142031100Y-116039600D01*
X97345300Y-87571700D02*
X97345300Y-87915300D01*
X159008600Y-79818000D02*
X172030500Y-66796100D01*
X97345300Y-87915300D02*
X97612200Y-87915300D01*
X97345300Y-118265300D02*
X98190000Y-119110000D01*
X159008600Y-80795000D02*
X159008600Y-79818000D01*
X137017000Y-80820000D02*
X139867300Y-83670300D01*
X176218600Y-66796100D02*
X177049700Y-65965000D01*
X157483300Y-80795000D02*
X159008600Y-80795000D01*
%TO.N,D3*%
X174248600Y-94162300D02*
X177896000Y-97809700D01*
X108373700Y-109271700D02*
X108373700Y-98048100D01*
X108373700Y-98048100D02*
X107676000Y-97350400D01*
X177896000Y-97809700D02*
X179589700Y-97809700D01*
X101783300Y-128216700D02*
X101783300Y-115862100D01*
X101783300Y-115862100D02*
X108373700Y-109271700D01*
X104824000Y-96033600D02*
X104824000Y-95474600D01*
X95650000Y-134350000D02*
X101783300Y-128216700D01*
X179589700Y-97809700D02*
X180765000Y-98985000D01*
X106848300Y-85900000D02*
X105323000Y-85900000D01*
X104824000Y-86399000D02*
X104824000Y-95474600D01*
X106140800Y-97350400D02*
X104824000Y-96033600D01*
X105323000Y-85900000D02*
X104824000Y-86399000D01*
X174248600Y-93495000D02*
X174248600Y-94162300D01*
X107676000Y-97350400D02*
X106140800Y-97350400D01*
X172723300Y-93495000D02*
X174248600Y-93495000D01*
%TO.N,A2*%
X95650000Y-87873000D02*
X93677000Y-85900000D01*
X95650000Y-119110000D02*
X95650000Y-87873000D01*
X157483300Y-78255000D02*
X159008600Y-78255000D01*
X159128000Y-78255000D02*
X166049900Y-71333100D01*
X166049900Y-71333100D02*
X166049900Y-70055000D01*
X91608300Y-85900000D02*
X93677000Y-85900000D01*
X159008600Y-78255000D02*
X159128000Y-78255000D01*
%TO.N,D2*%
X179589700Y-100349700D02*
X180765000Y-101525000D01*
X106619040Y-114206232D02*
X110851040Y-109974232D01*
X182393500Y-103153500D02*
X182393500Y-112972800D01*
X167583100Y-91648900D02*
X176283900Y-100349700D01*
X164450000Y-139830000D02*
X165975300Y-139830000D01*
X111073900Y-95096600D02*
X111073900Y-86060300D01*
X168260000Y-137545300D02*
X165975300Y-139830000D01*
X105810000Y-129510000D02*
X107310000Y-128010000D01*
X176283900Y-100349700D02*
X179589700Y-100349700D01*
X108960000Y-128010000D02*
X109650000Y-127320000D01*
X111073900Y-86060300D02*
X108373600Y-83360000D01*
X112037300Y-96060000D02*
X111073900Y-95096600D01*
X106848300Y-83360000D02*
X108373600Y-83360000D01*
X110851040Y-98708960D02*
X113500000Y-96060000D01*
X105810000Y-134350000D02*
X105810000Y-129510000D01*
X110851040Y-109974232D02*
X110851040Y-98708960D01*
X182393500Y-112972800D02*
X168260000Y-127106300D01*
X106619040Y-115359040D02*
X106619040Y-114206232D01*
X113500000Y-96060000D02*
X112037300Y-96060000D01*
X109650000Y-127320000D02*
X109650000Y-118390000D01*
X180765000Y-101525000D02*
X182393500Y-103153500D01*
X168260000Y-127106300D02*
X168260000Y-137545300D01*
X107310000Y-128010000D02*
X108960000Y-128010000D01*
X109650000Y-118390000D02*
X106619040Y-115359040D01*
%TO.N,A3*%
X147395300Y-136858000D02*
X147395300Y-142430000D01*
X135491700Y-75740000D02*
X137017000Y-75740000D01*
X143616500Y-108495400D02*
X142373500Y-109738400D01*
X142373500Y-109738400D02*
X142373500Y-115098100D01*
X91608300Y-88440000D02*
X93133600Y-88440000D01*
X145870000Y-142430000D02*
X147395300Y-142430000D01*
X92840000Y-121380000D02*
X92840000Y-113168300D01*
X93133600Y-112874700D02*
X93133600Y-88440000D01*
X142706500Y-133654800D02*
X145131700Y-136080000D01*
X92840000Y-113168300D02*
X93133600Y-112874700D01*
X146617300Y-136080000D02*
X147395300Y-136858000D01*
X142706500Y-115431100D02*
X142706500Y-133654800D01*
X137017000Y-75740000D02*
X143616500Y-82339500D01*
X145131700Y-136080000D02*
X146617300Y-136080000D01*
X142373500Y-115098100D02*
X142706500Y-115431100D01*
X143616500Y-82339500D02*
X143616500Y-108495400D01*
%TO.N,D1*%
X177588100Y-105240300D02*
X179589700Y-105240300D01*
X94596900Y-135836900D02*
X95650000Y-136890000D01*
X94596900Y-115141900D02*
X94596900Y-135836900D01*
X95139700Y-114599100D02*
X94596900Y-115141900D01*
X160762800Y-88415000D02*
X177588100Y-105240300D01*
X179589700Y-105240300D02*
X180765000Y-104065000D01*
X157483300Y-88415000D02*
X160762800Y-88415000D01*
X111524300Y-83970700D02*
X108373600Y-80820000D01*
X106848300Y-80820000D02*
X108373600Y-80820000D01*
X111524300Y-93069600D02*
X111524300Y-83970700D01*
X94720800Y-87969600D02*
X95139700Y-88388500D01*
X95139700Y-88388500D02*
X95139700Y-114599100D01*
X113500000Y-93520000D02*
X111974700Y-93520000D01*
X111974700Y-93520000D02*
X111524300Y-93069600D01*
%TO.N,A4*%
X133966400Y-94016600D02*
X133966400Y-73200000D01*
X140225700Y-115508000D02*
X139377000Y-114659300D01*
X145870000Y-144786600D02*
X140225700Y-139142300D01*
X139377000Y-114659300D02*
X139377000Y-99276800D01*
X139377000Y-99276800D02*
X138614000Y-98513800D01*
X135491700Y-73200000D02*
X133966400Y-73200000D01*
X138463600Y-98513800D02*
X133966400Y-94016600D01*
X140225700Y-139142300D02*
X140225700Y-115508000D01*
X138614000Y-98513800D02*
X138463600Y-98513800D01*
%TO.N,D0*%
X109821400Y-136890000D02*
X115149300Y-131562100D01*
X108373600Y-78280000D02*
X111974700Y-81881100D01*
X176899400Y-102795000D02*
X181174800Y-102795000D01*
X181940300Y-105429700D02*
X180765000Y-106605000D01*
X181174800Y-102795000D02*
X181940300Y-103560500D01*
X111974700Y-81881100D02*
X111974700Y-89021200D01*
X117399400Y-128540000D02*
X118289500Y-127649900D01*
X118972400Y-96018900D02*
X113933500Y-90980000D01*
X118289500Y-119310000D02*
X118972400Y-118627100D01*
X181940300Y-103560500D02*
X181940300Y-105429700D01*
X106848300Y-78280000D02*
X108373600Y-78280000D01*
X108350000Y-136890000D02*
X109821400Y-136890000D01*
X115149300Y-129965700D02*
X116575000Y-128540000D01*
X157483300Y-85875000D02*
X159979400Y-85875000D01*
X111974700Y-89021200D02*
X113933500Y-90980000D01*
X118289500Y-127649900D02*
X118289500Y-119310000D01*
X159979400Y-85875000D02*
X176899400Y-102795000D01*
X118972400Y-118627100D02*
X118972400Y-96018900D01*
X115149300Y-131562100D02*
X115149300Y-129965700D01*
X116575000Y-128540000D02*
X117399400Y-128540000D01*
%TO.N,A5*%
X132180000Y-136160000D02*
X122315500Y-126295500D01*
X133450000Y-136160000D02*
X132180000Y-136160000D01*
X115025300Y-75740000D02*
X113500000Y-75740000D01*
X157483300Y-70635000D02*
X159008600Y-70635000D01*
X136724700Y-142430000D02*
X136724700Y-140652500D01*
X134350000Y-137060000D02*
X133450000Y-136160000D01*
X159008600Y-73820100D02*
X160772700Y-75584200D01*
X138250000Y-142430000D02*
X136724700Y-142430000D01*
X159008600Y-70635000D02*
X159008600Y-73820100D01*
X122315500Y-126295500D02*
X122315500Y-86508500D01*
X122079700Y-82794400D02*
X115025300Y-75740000D01*
X122315500Y-86508500D02*
X122079700Y-86272700D01*
X136724700Y-140652500D02*
X136692500Y-140652500D01*
X134350000Y-138310000D02*
X134350000Y-137060000D01*
X122079700Y-86272700D02*
X122079700Y-82794400D01*
X136692500Y-140652500D02*
X134350000Y-138310000D01*
%TO.N,R{slash}~{W}*%
X153455180Y-114270898D02*
X151341380Y-112157097D01*
X146990000Y-70420000D02*
X146990000Y-58230000D01*
X104050000Y-52050000D02*
X155040000Y-52050000D01*
X151341380Y-112157097D02*
X151341380Y-98321380D01*
X155040000Y-52050000D02*
X161430000Y-58440000D01*
X102620000Y-53480000D02*
X104050000Y-52050000D01*
X153455180Y-122669820D02*
X153455180Y-114270898D01*
X102616000Y-65714000D02*
X102620000Y-65710000D01*
X102616000Y-75438000D02*
X102616000Y-65714000D01*
X146990000Y-58230000D02*
X146980000Y-58220000D01*
X102620000Y-65710000D02*
X102620000Y-53480000D01*
X146510000Y-70900000D02*
X146990000Y-70420000D01*
X147710000Y-81515386D02*
X140720000Y-74525386D01*
X140720000Y-74525386D02*
X140720000Y-70880000D01*
X151341380Y-98321380D02*
X147710000Y-94690000D01*
X151450000Y-124675000D02*
X153455180Y-122669820D01*
X147710000Y-94690000D02*
X147710000Y-81515386D01*
%TO.N,A6*%
X136670000Y-139890000D02*
X138250000Y-139890000D01*
X122805000Y-113811300D02*
X127395500Y-118401800D01*
X130204700Y-133370000D02*
X133760000Y-133370000D01*
X127395500Y-130560800D02*
X130204700Y-133370000D01*
X178810700Y-61839600D02*
X179400300Y-62429200D01*
X179400300Y-76681800D02*
X178592400Y-77489700D01*
X179400300Y-62429200D02*
X179400300Y-76681800D01*
X134920000Y-138140000D02*
X136670000Y-139890000D01*
X122805000Y-85972300D02*
X122805000Y-113811300D01*
X157483300Y-68095000D02*
X159008600Y-68095000D01*
X159008600Y-68095000D02*
X165264000Y-61839600D01*
X115025300Y-73200000D02*
X122805000Y-80979700D01*
X122805000Y-80979700D02*
X122805000Y-85972300D01*
X178592400Y-77489700D02*
X178592400Y-78297600D01*
X127395500Y-118401800D02*
X127395500Y-130560800D01*
X133760000Y-133370000D02*
X134920000Y-134530000D01*
X134920000Y-134530000D02*
X134920000Y-138140000D01*
X165264000Y-61839600D02*
X178810700Y-61839600D01*
X113500000Y-73200000D02*
X115025300Y-73200000D01*
%TO.N,A7*%
X124059700Y-109593000D02*
X124059700Y-113294700D01*
X128454300Y-122494200D02*
X130460000Y-124499900D01*
X113500000Y-70660000D02*
X115025300Y-70660000D01*
X176179900Y-68589900D02*
X175660000Y-68070000D01*
X130460000Y-124499900D02*
X130460000Y-130430000D01*
X124059700Y-109593000D02*
X124059700Y-79694400D01*
X176179900Y-78351900D02*
X176179900Y-69511800D01*
X132310000Y-132280000D02*
X134450000Y-132280000D01*
X177857700Y-80029700D02*
X177857700Y-80837700D01*
X177857700Y-80029700D02*
X176179900Y-78351900D01*
X136210000Y-136690000D02*
X136870000Y-137350000D01*
X124059700Y-113294700D02*
X128454300Y-117689300D01*
X130460000Y-130430000D02*
X132310000Y-132280000D01*
X136210000Y-134040000D02*
X136210000Y-136690000D01*
X176179900Y-69511800D02*
X176179900Y-68589900D01*
X128454300Y-117689300D02*
X128454300Y-122494200D01*
X124059700Y-79694400D02*
X115025300Y-70660000D01*
X136870000Y-137350000D02*
X138250000Y-137350000D01*
X134450000Y-132280000D02*
X136210000Y-134040000D01*
%TO.N,~{RD}*%
X152707400Y-95396400D02*
X155685400Y-98374400D01*
X155685400Y-98374400D02*
X155685400Y-121409800D01*
X152257000Y-75740000D02*
X152707400Y-76190400D01*
X152707400Y-76190400D02*
X152707400Y-95396400D01*
X155685400Y-121409800D02*
X158950600Y-124675000D01*
X150731700Y-75740000D02*
X152257000Y-75740000D01*
%TO.N,A8*%
X177857700Y-82569700D02*
X177857700Y-83377700D01*
X127214700Y-73200000D02*
X126755400Y-73659300D01*
X175698800Y-80410800D02*
X177857700Y-82569700D01*
X129336500Y-121703400D02*
X133000000Y-125366900D01*
X128740000Y-73200000D02*
X127214700Y-73200000D01*
X126755400Y-73659300D02*
X126755400Y-98630100D01*
X131296500Y-102812100D02*
X131296500Y-115354700D01*
X138250000Y-134792500D02*
X138250000Y-134810000D01*
X129336500Y-117314700D02*
X129336500Y-121703400D01*
X175698800Y-70240300D02*
X173553500Y-68095000D01*
X126755400Y-98630100D02*
X130650900Y-102525600D01*
X133000000Y-125366900D02*
X133000000Y-129542500D01*
X133000000Y-129542500D02*
X138250000Y-134792500D01*
X175698800Y-70240300D02*
X175698800Y-80410800D01*
X131296500Y-115354700D02*
X129336500Y-117314700D01*
X130650900Y-102525600D02*
X131010000Y-102525600D01*
X173553500Y-68095000D02*
X172723300Y-68095000D01*
X131010000Y-102525600D02*
X131296500Y-102812100D01*
D30*
%TO.N,CLK*%
X120620000Y-104690000D02*
X120620000Y-83770000D01*
X120620000Y-83770000D02*
X116410000Y-79560000D01*
X110260000Y-77136377D02*
X110260000Y-71531700D01*
X110260000Y-71531700D02*
X106848300Y-68120000D01*
X112683623Y-79560000D02*
X110260000Y-77136377D01*
X116410000Y-79560000D02*
X112683623Y-79560000D01*
D29*
%TO.N,A9*%
X175248500Y-71634900D02*
X174248600Y-70635000D01*
X134138400Y-121221800D02*
X134745200Y-120615000D01*
X177857700Y-85109700D02*
X175248500Y-82500500D01*
X138250000Y-132270000D02*
X139775300Y-132270000D01*
X133790400Y-121221800D02*
X134138400Y-121221800D01*
X177857700Y-85109700D02*
X177857700Y-85917700D01*
X134745200Y-120615000D02*
X137510200Y-123380000D01*
X138992200Y-123380000D02*
X139775300Y-124163100D01*
X137510200Y-123380000D02*
X138992200Y-123380000D01*
X132964400Y-78439100D02*
X132964400Y-94447400D01*
X139775300Y-124163100D02*
X139775300Y-132270000D01*
X130265300Y-75740000D02*
X132964400Y-78439100D01*
X175248500Y-82500500D02*
X175248500Y-71634900D01*
X134745200Y-101939100D02*
X134745200Y-120615000D01*
X128740000Y-75740000D02*
X130265300Y-75740000D01*
X135907600Y-97390600D02*
X135907600Y-100776700D01*
X172723300Y-70635000D02*
X174248600Y-70635000D01*
X132964400Y-94447400D02*
X135907600Y-97390600D01*
X135907600Y-100776700D02*
X134745200Y-101939100D01*
%TO.N,A10*%
X177923700Y-87649700D02*
X174798980Y-84524980D01*
X135405100Y-125530500D02*
X133365000Y-123490400D01*
X130628900Y-88268600D02*
X129530300Y-87170000D01*
X138250000Y-129730000D02*
X136724700Y-129730000D01*
X133089000Y-123490400D02*
X131551000Y-121952400D01*
X133365000Y-123490400D02*
X133089000Y-123490400D01*
X127214700Y-86383800D02*
X127214700Y-83360000D01*
X130628900Y-101292200D02*
X130628900Y-88268600D01*
X131551000Y-121359000D02*
X131746900Y-121163100D01*
X174798980Y-79440000D02*
X173613980Y-78255000D01*
X174798980Y-84524980D02*
X174798980Y-79440000D01*
X131746900Y-121163100D02*
X131746900Y-102410200D01*
X129530300Y-87170000D02*
X128000900Y-87170000D01*
X128740000Y-83360000D02*
X127214700Y-83360000D01*
X135405100Y-128410400D02*
X135405100Y-125530500D01*
X128000900Y-87170000D02*
X127214700Y-86383800D01*
X131746900Y-102410200D02*
X130628900Y-101292200D01*
X136724700Y-129730000D02*
X135405100Y-128410400D01*
X131551000Y-121952400D02*
X131551000Y-121359000D01*
X177923700Y-88523700D02*
X177923700Y-87649700D01*
%TO.N,A11*%
X172225000Y-73175000D02*
X169900000Y-75500000D01*
X133578499Y-122317299D02*
X134892701Y-122317299D01*
X177049700Y-88148000D02*
X177049700Y-90189700D01*
X133005900Y-121744700D02*
X133578499Y-122317299D01*
X171805000Y-84605000D02*
X173506700Y-84605000D01*
X177049700Y-90189700D02*
X178225000Y-91365000D01*
X133005900Y-120798300D02*
X133005900Y-121744700D01*
X132514100Y-94634100D02*
X133375300Y-95495300D01*
X134892701Y-122317299D02*
X134760800Y-122449200D01*
X130265300Y-78280000D02*
X132514100Y-80528800D01*
X133375300Y-120428900D02*
X133005900Y-120798300D01*
X134760800Y-122449200D02*
X134760800Y-123239200D01*
X132514100Y-80528800D02*
X132514100Y-94634100D01*
X134760800Y-123239200D02*
X138250000Y-126728400D01*
X133375300Y-95495300D02*
X133375300Y-120428900D01*
X169900000Y-82700000D02*
X171805000Y-84605000D01*
X128740000Y-78280000D02*
X130265300Y-78280000D01*
X173506700Y-84605000D02*
X177049700Y-88148000D01*
X169900000Y-75500000D02*
X169900000Y-82700000D01*
%TO.N,~{RESET}*%
X150799600Y-53896600D02*
X114977000Y-53896600D01*
X158306800Y-89758900D02*
X163080000Y-94532100D01*
X178331500Y-59300000D02*
X181940300Y-62908800D01*
X155320000Y-59300000D02*
X178331500Y-59300000D01*
X163080000Y-99000000D02*
X163080000Y-100125300D01*
X164450000Y-127130000D02*
X162924700Y-127130000D01*
X154577400Y-87559600D02*
X156776700Y-89758900D01*
X164205300Y-101250600D02*
X163080000Y-100125300D01*
X155320000Y-59300000D02*
X154577400Y-60042600D01*
X155320000Y-59300000D02*
X155320000Y-58417000D01*
X155320000Y-58417000D02*
X150799600Y-53896600D01*
X164205300Y-124864800D02*
X164205300Y-101250600D01*
X163080000Y-99000000D02*
X163080000Y-94532100D01*
X162924700Y-126145400D02*
X164205300Y-124864800D01*
X106848300Y-60500000D02*
X108373600Y-60500000D01*
X181940300Y-62908800D02*
X181940300Y-72409700D01*
X154577400Y-60042600D02*
X154577400Y-87559600D01*
X162924700Y-127130000D02*
X162924700Y-126145400D01*
X114977000Y-53896600D02*
X108373600Y-60500000D01*
X181940300Y-72409700D02*
X180765000Y-73585000D01*
X156776700Y-89758900D02*
X158306800Y-89758900D01*
%TO.N,~{LOWRAM}*%
X146401800Y-112809000D02*
X143779200Y-115431600D01*
X143779200Y-130179200D02*
X145870000Y-132270000D01*
X146401800Y-81248200D02*
X146410000Y-81240000D01*
X143779200Y-115431600D02*
X143779200Y-130179200D01*
X146401800Y-112809000D02*
X146401800Y-81248200D01*
%TO.N,~{BANKRAM}*%
X128740000Y-85900000D02*
X130265300Y-85900000D01*
X132432500Y-100978600D02*
X132432500Y-122197000D01*
X136750200Y-126148300D02*
X136750200Y-126270000D01*
X131079300Y-99625400D02*
X132432500Y-100978600D01*
X131079300Y-86714000D02*
X131079300Y-99625400D01*
X133642000Y-123040100D02*
X136750200Y-126148300D01*
X130265300Y-85900000D02*
X131079300Y-86714000D01*
X133275600Y-123040100D02*
X133642000Y-123040100D01*
X132432500Y-122197000D02*
X133275600Y-123040100D01*
%TO.N,~{IO}*%
X149924700Y-142455000D02*
X148746300Y-141276600D01*
X148746300Y-128541000D02*
X147395300Y-127190000D01*
X145870000Y-127190000D02*
X147395300Y-127190000D01*
X151450000Y-142455000D02*
X149924700Y-142455000D01*
X148746300Y-141276600D02*
X148746300Y-128541000D01*
%TO.N,~{ROM}*%
X151450000Y-139915000D02*
X149924700Y-139915000D01*
X149924700Y-139915000D02*
X149306200Y-139296500D01*
X149306200Y-128086200D02*
X145870000Y-124650000D01*
X149306200Y-139296500D02*
X149306200Y-128086200D01*
%TO.N,BANKSEL*%
X149755720Y-128740000D02*
X150770720Y-129755000D01*
X145870000Y-122270717D02*
X149755720Y-126156438D01*
X149755720Y-126156438D02*
X149755720Y-128740000D01*
%TO.N,~{DUASEL}*%
X118101100Y-114438900D02*
X118101100Y-112926980D01*
X149924700Y-122099400D02*
X147395300Y-119570000D01*
X118101100Y-112926980D02*
X118110000Y-112918080D01*
X110890000Y-121650000D02*
X118101100Y-114438900D01*
X149924700Y-122135000D02*
X149924700Y-122099400D01*
X145870000Y-119570000D02*
X147395300Y-119570000D01*
X151450000Y-122135000D02*
X149924700Y-122135000D01*
%TO.N,Net-(IC3-Pad41)*%
X119470000Y-127762800D02*
X119470000Y-121090000D01*
X122695000Y-130987800D02*
X119470000Y-127762800D01*
%TO.N,SPIMOSI*%
X114473900Y-130766100D02*
X114473900Y-127256100D01*
X114473900Y-127256100D02*
X117000000Y-124730000D01*
X110890000Y-134350000D02*
X114473900Y-130766100D01*
%TO.N,SPICLK*%
X108350000Y-134350000D02*
X109620000Y-133080000D01*
X111115300Y-133080000D02*
X113518600Y-130676700D01*
X113518600Y-130676700D02*
X113518600Y-125671400D01*
X109620000Y-133080000D02*
X111115300Y-133080000D01*
X113518600Y-125671400D02*
X117000000Y-122190000D01*
%TO.N,RTSA*%
X106863000Y-133297000D02*
X106863000Y-137307600D01*
X99190000Y-144500000D02*
X100365300Y-144500000D01*
X108350000Y-131810000D02*
X106863000Y-133297000D01*
X106863000Y-137307600D02*
X100365300Y-143805300D01*
X100365300Y-143805300D02*
X100365300Y-144500000D01*
%TO.N,SPICS*%
X112881800Y-123768200D02*
X117000000Y-119650000D01*
X112881800Y-129818200D02*
X112881800Y-123768200D01*
X110890000Y-131810000D02*
X112881800Y-129818200D01*
%TO.N,TXDA*%
X106810000Y-144500000D02*
X106810000Y-143324700D01*
X106810000Y-143324700D02*
X113288500Y-136846200D01*
X113288500Y-136846200D02*
X113288500Y-134462400D01*
%TO.N,RXDA*%
X107313500Y-140281200D02*
X107313500Y-133902900D01*
X108136400Y-133080000D02*
X108555900Y-133080000D01*
X104270000Y-144500000D02*
X104270000Y-143324700D01*
X109620000Y-128000000D02*
X110890000Y-126730000D01*
X104270000Y-143324700D02*
X107313500Y-140281200D01*
X108555900Y-133080000D02*
X109620000Y-132015900D01*
X107313500Y-133902900D02*
X108136400Y-133080000D01*
X109620000Y-132015900D02*
X109620000Y-128000000D01*
%TO.N,HWRST*%
X146668700Y-120840000D02*
X148500700Y-122672000D01*
X144504500Y-115979600D02*
X144313000Y-116171100D01*
X148500700Y-124265700D02*
X151450000Y-127215000D01*
X144313000Y-116171100D02*
X144313000Y-120041400D01*
X148500700Y-122672000D02*
X148500700Y-124265700D01*
X144313000Y-120041400D02*
X145111600Y-120840000D01*
X145111600Y-120840000D02*
X146668700Y-120840000D01*
%TO.N,~{ROMOE}*%
X170624500Y-77813800D02*
X172723300Y-75715000D01*
X170624500Y-80150000D02*
X170624500Y-77813800D01*
%TO.N,~{WR}*%
X153662000Y-92689500D02*
X153662000Y-64445000D01*
X157541800Y-116009300D02*
X158620000Y-114931100D01*
X158620000Y-97647500D02*
X153662000Y-92689500D01*
X150731700Y-63040000D02*
X152257000Y-63040000D01*
X158620000Y-114931100D02*
X158620000Y-97647500D01*
X153662000Y-64445000D02*
X152257000Y-63040000D01*
X159070000Y-122135000D02*
X157541800Y-120606800D01*
X157541800Y-120606800D02*
X157541800Y-116009300D01*
%TO.N,VCCUA*%
X103713200Y-145675300D02*
X102905300Y-144867400D01*
X111874400Y-145675300D02*
X103713200Y-145675300D01*
X114824700Y-142725000D02*
X111874400Y-145675300D01*
X102905300Y-144867400D02*
X102905300Y-144500000D01*
X116000000Y-142725000D02*
X114824700Y-142725000D01*
X101730000Y-144500000D02*
X102905300Y-144500000D01*
%TO.N,VCCUB*%
X87000000Y-126730000D02*
X87000000Y-125554700D01*
X87000000Y-125554700D02*
X87297500Y-125554700D01*
X87297500Y-125554700D02*
X88428500Y-124423700D01*
X87553100Y-113900300D02*
X87250000Y-113900300D01*
X88428500Y-114775700D02*
X87553100Y-113900300D01*
X87250000Y-112725000D02*
X87250000Y-113900300D01*
X88428500Y-124423700D02*
X88428500Y-114775700D01*
%TO.N,BE*%
X182610000Y-62430000D02*
X182610000Y-84440000D01*
X88000000Y-83160000D02*
X85720000Y-80880000D01*
X182610000Y-84440000D02*
X180765000Y-86285000D01*
X97800000Y-51390000D02*
X171570000Y-51390000D01*
X90810000Y-58380000D02*
X97800000Y-51390000D01*
X85720000Y-61030000D02*
X88370000Y-58380000D01*
X85720000Y-80880000D02*
X85720000Y-61030000D01*
X88370000Y-58380000D02*
X90810000Y-58380000D01*
X171570000Y-51390000D02*
X182610000Y-62430000D01*
%TO.N,Net-(LED2-Pad2)*%
X133540000Y-145000000D02*
X133540000Y-139185000D01*
X133540000Y-139185000D02*
X132855000Y-138500000D01*
D30*
%TO.N,Net-(R10-Pad2)*%
X111480000Y-113830000D02*
X113000000Y-112310000D01*
X108710000Y-113830000D02*
X111480000Y-113830000D01*
D29*
%TO.N,BANK3*%
X134180000Y-132830000D02*
X135600000Y-134250000D01*
X123530300Y-86272800D02*
X123294400Y-86508700D01*
X135600000Y-137769200D02*
X136450800Y-138620000D01*
X115810000Y-65304600D02*
X114409200Y-66705400D01*
X112840200Y-72003900D02*
X114478500Y-72003900D01*
X138976600Y-138620000D02*
X144014100Y-143657500D01*
X170544700Y-142370000D02*
X172070000Y-142370000D01*
X113500000Y-60500000D02*
X114710000Y-60500000D01*
X111939200Y-67608200D02*
X111939200Y-71102900D01*
X135600000Y-134250000D02*
X135600000Y-137769200D01*
X145047300Y-146153100D02*
X166761600Y-146153100D01*
X111939200Y-71102900D02*
X112840200Y-72003900D01*
X144014100Y-145119900D02*
X145047300Y-146153100D01*
X114710000Y-60500000D02*
X115810000Y-61600000D01*
X123294400Y-113381700D02*
X128003900Y-118091200D01*
X123530300Y-81055700D02*
X123530300Y-86272800D01*
X112842000Y-66705400D02*
X111939200Y-67608200D01*
X144014100Y-143657500D02*
X144014100Y-145119900D01*
X115810000Y-61600000D02*
X115810000Y-65304600D01*
X123294400Y-86508700D02*
X123294400Y-113381700D01*
X128003900Y-130173100D02*
X130660800Y-132830000D01*
X130660800Y-132830000D02*
X134180000Y-132830000D01*
X136450800Y-138620000D02*
X138976600Y-138620000D01*
X166761600Y-146153100D02*
X170544700Y-142370000D01*
X114409200Y-66705400D02*
X112842000Y-66705400D01*
X128003900Y-118091200D02*
X128003900Y-130173100D01*
X114478500Y-72003900D02*
X123530300Y-81055700D01*
%TO.N,BANK1*%
X158345400Y-125945000D02*
X159845500Y-125945000D01*
X152257000Y-94260300D02*
X151790900Y-94726400D01*
X129465000Y-64310000D02*
X134545000Y-69390000D01*
X151530900Y-79550000D02*
X152257000Y-80276100D01*
X159845500Y-125945000D02*
X162924700Y-129024200D01*
X134545000Y-69390000D02*
X141620000Y-69390000D01*
X122277400Y-58580000D02*
X128007400Y-64310000D01*
X112580000Y-63040000D02*
X111470000Y-61930000D01*
X153904700Y-121504300D02*
X158345400Y-125945000D01*
X141620000Y-69390000D02*
X145800000Y-73570000D01*
X151790900Y-94726400D02*
X151790900Y-111970900D01*
X128007400Y-64310000D02*
X129465000Y-64310000D01*
X111470000Y-59460000D02*
X112350000Y-58580000D01*
X112350000Y-58580000D02*
X122277400Y-58580000D01*
X146448200Y-79550000D02*
X151530900Y-79550000D01*
X151790900Y-111970900D02*
X153904700Y-114084700D01*
X162924700Y-129024200D02*
X162924700Y-137290000D01*
X145800000Y-73570000D02*
X145800000Y-78901800D01*
X153904700Y-114084700D02*
X153904700Y-121504300D01*
X111470000Y-61930000D02*
X111470000Y-59460000D01*
X152257000Y-80276100D02*
X152257000Y-94260300D01*
X162924700Y-137290000D02*
X164450000Y-137290000D01*
X145800000Y-78901800D02*
X146448200Y-79550000D01*
%TO.N,BANK2*%
X143328900Y-131730200D02*
X145138700Y-133540000D01*
X150356800Y-143584500D02*
X161710200Y-143584500D01*
X148032300Y-141260000D02*
X150356800Y-143584500D01*
X144648900Y-80359700D02*
X144648900Y-113569400D01*
X146608000Y-133540000D02*
X148032300Y-134964300D01*
X128740000Y-65916200D02*
X134609200Y-71785400D01*
X144648900Y-113569400D02*
X143328900Y-114889400D01*
X164450000Y-142370000D02*
X162924700Y-142370000D01*
X161710200Y-143584500D02*
X162924700Y-142370000D01*
X148032300Y-134964300D02*
X148032300Y-141260000D01*
X145138700Y-133540000D02*
X146608000Y-133540000D01*
X143328900Y-114889400D02*
X143328900Y-131730200D01*
X134609200Y-71785400D02*
X136074600Y-71785400D01*
X136074600Y-71785400D02*
X144648900Y-80359700D01*
%TO.N,BANK0*%
X164450000Y-129670000D02*
X162202700Y-127422700D01*
X158169600Y-113344900D02*
X158169600Y-98873000D01*
X140210200Y-66850000D02*
X134075300Y-66850000D01*
X157079700Y-122149100D02*
X157079700Y-114434800D01*
X157079700Y-114434800D02*
X158169600Y-113344900D01*
X151479300Y-74325400D02*
X147685600Y-74325400D01*
X159837600Y-123405000D02*
X158335600Y-123405000D01*
X158169600Y-98873000D02*
X153172000Y-93875400D01*
X147685600Y-74325400D02*
X140210200Y-66850000D01*
X128740000Y-63040000D02*
X130265300Y-63040000D01*
X134075300Y-66850000D02*
X130265300Y-63040000D01*
X153172000Y-93875400D02*
X153172000Y-76018100D01*
X162202700Y-125770100D02*
X159837600Y-123405000D01*
X153172000Y-76018100D02*
X151479300Y-74325400D01*
X158335600Y-123405000D02*
X157079700Y-122149100D01*
X162202700Y-127422700D02*
X162202700Y-125770100D01*
%TO.N,Net-(LED1-Pad2)*%
X124018900Y-134743900D02*
X122695000Y-134743900D01*
X124540000Y-145000000D02*
X124540000Y-135265000D01*
X124540000Y-135265000D02*
X124018900Y-134743900D01*
%TD*%
M02*
