%TF.GenerationSoftware,KiCad,Pcbnew,7.0.9*%
%TF.CreationDate,2024-03-10T18:16:31+00:00*%
%TF.ProjectId,rosco_6502,726f7363-6f5f-4363-9530-322e6b696361,5*%
%TF.SameCoordinates,Original*%
%TF.FileFunction,Legend,Bot*%
%TF.FilePolarity,Positive*%
%FSLAX46Y46*%
G04 Gerber Fmt 4.6, Leading zero omitted, Abs format (unit mm)*
G04 Created by KiCad (PCBNEW 7.0.9) date 2024-03-10 18:16:31*
%MOMM*%
%LPD*%
G01*
G04 APERTURE LIST*
%ADD10C,0.150000*%
%ADD11C,0.300000*%
%ADD12C,0.500000*%
%ADD13C,0.010000*%
G04 APERTURE END LIST*
D10*
X181525000Y-118457500D02*
X181525000Y-117457500D01*
X180962500Y-111957500D02*
X182087500Y-111957500D01*
X181550000Y-112507500D02*
X181550000Y-111382500D01*
X178954819Y-111528928D02*
X178954819Y-111052738D01*
X178954819Y-111052738D02*
X179431009Y-111005119D01*
X179431009Y-111005119D02*
X179383390Y-111052738D01*
X179383390Y-111052738D02*
X179335771Y-111147976D01*
X179335771Y-111147976D02*
X179335771Y-111386071D01*
X179335771Y-111386071D02*
X179383390Y-111481309D01*
X179383390Y-111481309D02*
X179431009Y-111528928D01*
X179431009Y-111528928D02*
X179526247Y-111576547D01*
X179526247Y-111576547D02*
X179764342Y-111576547D01*
X179764342Y-111576547D02*
X179859580Y-111528928D01*
X179859580Y-111528928D02*
X179907200Y-111481309D01*
X179907200Y-111481309D02*
X179954819Y-111386071D01*
X179954819Y-111386071D02*
X179954819Y-111147976D01*
X179954819Y-111147976D02*
X179907200Y-111052738D01*
X179907200Y-111052738D02*
X179859580Y-111005119D01*
X178954819Y-111862262D02*
X179954819Y-112195595D01*
X179954819Y-112195595D02*
X178954819Y-112528928D01*
X179954819Y-112862262D02*
X178954819Y-112862262D01*
X178954819Y-112862262D02*
X178954819Y-113100357D01*
X178954819Y-113100357D02*
X179002438Y-113243214D01*
X179002438Y-113243214D02*
X179097676Y-113338452D01*
X179097676Y-113338452D02*
X179192914Y-113386071D01*
X179192914Y-113386071D02*
X179383390Y-113433690D01*
X179383390Y-113433690D02*
X179526247Y-113433690D01*
X179526247Y-113433690D02*
X179716723Y-113386071D01*
X179716723Y-113386071D02*
X179811961Y-113338452D01*
X179811961Y-113338452D02*
X179907200Y-113243214D01*
X179907200Y-113243214D02*
X179954819Y-113100357D01*
X179954819Y-113100357D02*
X179954819Y-112862262D01*
X179859580Y-114433690D02*
X179907200Y-114386071D01*
X179907200Y-114386071D02*
X179954819Y-114243214D01*
X179954819Y-114243214D02*
X179954819Y-114147976D01*
X179954819Y-114147976D02*
X179907200Y-114005119D01*
X179907200Y-114005119D02*
X179811961Y-113909881D01*
X179811961Y-113909881D02*
X179716723Y-113862262D01*
X179716723Y-113862262D02*
X179526247Y-113814643D01*
X179526247Y-113814643D02*
X179383390Y-113814643D01*
X179383390Y-113814643D02*
X179192914Y-113862262D01*
X179192914Y-113862262D02*
X179097676Y-113909881D01*
X179097676Y-113909881D02*
X179002438Y-114005119D01*
X179002438Y-114005119D02*
X178954819Y-114147976D01*
X178954819Y-114147976D02*
X178954819Y-114243214D01*
X178954819Y-114243214D02*
X179002438Y-114386071D01*
X179002438Y-114386071D02*
X179050057Y-114433690D01*
X178954819Y-115814643D02*
X178954819Y-116005119D01*
X178954819Y-116005119D02*
X179002438Y-116100357D01*
X179002438Y-116100357D02*
X179097676Y-116195595D01*
X179097676Y-116195595D02*
X179288152Y-116243214D01*
X179288152Y-116243214D02*
X179621485Y-116243214D01*
X179621485Y-116243214D02*
X179811961Y-116195595D01*
X179811961Y-116195595D02*
X179907200Y-116100357D01*
X179907200Y-116100357D02*
X179954819Y-116005119D01*
X179954819Y-116005119D02*
X179954819Y-115814643D01*
X179954819Y-115814643D02*
X179907200Y-115719405D01*
X179907200Y-115719405D02*
X179811961Y-115624167D01*
X179811961Y-115624167D02*
X179621485Y-115576548D01*
X179621485Y-115576548D02*
X179288152Y-115576548D01*
X179288152Y-115576548D02*
X179097676Y-115624167D01*
X179097676Y-115624167D02*
X179002438Y-115719405D01*
X179002438Y-115719405D02*
X178954819Y-115814643D01*
X179288152Y-116671786D02*
X179954819Y-116671786D01*
X179383390Y-116671786D02*
X179335771Y-116719405D01*
X179335771Y-116719405D02*
X179288152Y-116814643D01*
X179288152Y-116814643D02*
X179288152Y-116957500D01*
X179288152Y-116957500D02*
X179335771Y-117052738D01*
X179335771Y-117052738D02*
X179431009Y-117100357D01*
X179431009Y-117100357D02*
X179954819Y-117100357D01*
X179954819Y-117719405D02*
X179907200Y-117624167D01*
X179907200Y-117624167D02*
X179811961Y-117576548D01*
X179811961Y-117576548D02*
X178954819Y-117576548D01*
X179288152Y-118005120D02*
X179954819Y-118243215D01*
X179288152Y-118481310D02*
X179954819Y-118243215D01*
X179954819Y-118243215D02*
X180192914Y-118147977D01*
X180192914Y-118147977D02*
X180240533Y-118100358D01*
X180240533Y-118100358D02*
X180288152Y-118005120D01*
X179859580Y-118862263D02*
X179907200Y-118909882D01*
X179907200Y-118909882D02*
X179954819Y-118862263D01*
X179954819Y-118862263D02*
X179907200Y-118814644D01*
X179907200Y-118814644D02*
X179859580Y-118862263D01*
X179859580Y-118862263D02*
X179954819Y-118862263D01*
X179573866Y-118862263D02*
X179002438Y-118814644D01*
X179002438Y-118814644D02*
X178954819Y-118862263D01*
X178954819Y-118862263D02*
X179002438Y-118909882D01*
X179002438Y-118909882D02*
X179573866Y-118862263D01*
X179573866Y-118862263D02*
X178954819Y-118862263D01*
D11*
X158928569Y-53179757D02*
X158999998Y-53108328D01*
X158999998Y-53108328D02*
X159142855Y-52894042D01*
X159142855Y-52894042D02*
X159214284Y-52751185D01*
X159214284Y-52751185D02*
X159285712Y-52536900D01*
X159285712Y-52536900D02*
X159357141Y-52179757D01*
X159357141Y-52179757D02*
X159357141Y-51894042D01*
X159357141Y-51894042D02*
X159285712Y-51536900D01*
X159285712Y-51536900D02*
X159214284Y-51322614D01*
X159214284Y-51322614D02*
X159142855Y-51179757D01*
X159142855Y-51179757D02*
X158999998Y-50965471D01*
X158999998Y-50965471D02*
X158928569Y-50894042D01*
X157714284Y-52536900D02*
X157857141Y-52608328D01*
X157857141Y-52608328D02*
X158142855Y-52608328D01*
X158142855Y-52608328D02*
X158285712Y-52536900D01*
X158285712Y-52536900D02*
X158357141Y-52465471D01*
X158357141Y-52465471D02*
X158428569Y-52322614D01*
X158428569Y-52322614D02*
X158428569Y-51894042D01*
X158428569Y-51894042D02*
X158357141Y-51751185D01*
X158357141Y-51751185D02*
X158285712Y-51679757D01*
X158285712Y-51679757D02*
X158142855Y-51608328D01*
X158142855Y-51608328D02*
X157857141Y-51608328D01*
X157857141Y-51608328D02*
X157714284Y-51679757D01*
X157214284Y-53179757D02*
X157142855Y-53108328D01*
X157142855Y-53108328D02*
X156999998Y-52894042D01*
X156999998Y-52894042D02*
X156928570Y-52751185D01*
X156928570Y-52751185D02*
X156857141Y-52536900D01*
X156857141Y-52536900D02*
X156785712Y-52179757D01*
X156785712Y-52179757D02*
X156785712Y-51894042D01*
X156785712Y-51894042D02*
X156857141Y-51536900D01*
X156857141Y-51536900D02*
X156928570Y-51322614D01*
X156928570Y-51322614D02*
X156999998Y-51179757D01*
X156999998Y-51179757D02*
X157142855Y-50965471D01*
X157142855Y-50965471D02*
X157214284Y-50894042D01*
X156142855Y-51251185D02*
X156071427Y-51179757D01*
X156071427Y-51179757D02*
X155928570Y-51108328D01*
X155928570Y-51108328D02*
X155571427Y-51108328D01*
X155571427Y-51108328D02*
X155428570Y-51179757D01*
X155428570Y-51179757D02*
X155357141Y-51251185D01*
X155357141Y-51251185D02*
X155285712Y-51394042D01*
X155285712Y-51394042D02*
X155285712Y-51536900D01*
X155285712Y-51536900D02*
X155357141Y-51751185D01*
X155357141Y-51751185D02*
X156214284Y-52608328D01*
X156214284Y-52608328D02*
X155285712Y-52608328D01*
X154357141Y-51108328D02*
X154214284Y-51108328D01*
X154214284Y-51108328D02*
X154071427Y-51179757D01*
X154071427Y-51179757D02*
X153999999Y-51251185D01*
X153999999Y-51251185D02*
X153928570Y-51394042D01*
X153928570Y-51394042D02*
X153857141Y-51679757D01*
X153857141Y-51679757D02*
X153857141Y-52036900D01*
X153857141Y-52036900D02*
X153928570Y-52322614D01*
X153928570Y-52322614D02*
X153999999Y-52465471D01*
X153999999Y-52465471D02*
X154071427Y-52536900D01*
X154071427Y-52536900D02*
X154214284Y-52608328D01*
X154214284Y-52608328D02*
X154357141Y-52608328D01*
X154357141Y-52608328D02*
X154499999Y-52536900D01*
X154499999Y-52536900D02*
X154571427Y-52465471D01*
X154571427Y-52465471D02*
X154642856Y-52322614D01*
X154642856Y-52322614D02*
X154714284Y-52036900D01*
X154714284Y-52036900D02*
X154714284Y-51679757D01*
X154714284Y-51679757D02*
X154642856Y-51394042D01*
X154642856Y-51394042D02*
X154571427Y-51251185D01*
X154571427Y-51251185D02*
X154499999Y-51179757D01*
X154499999Y-51179757D02*
X154357141Y-51108328D01*
X153285713Y-51251185D02*
X153214285Y-51179757D01*
X153214285Y-51179757D02*
X153071428Y-51108328D01*
X153071428Y-51108328D02*
X152714285Y-51108328D01*
X152714285Y-51108328D02*
X152571428Y-51179757D01*
X152571428Y-51179757D02*
X152499999Y-51251185D01*
X152499999Y-51251185D02*
X152428570Y-51394042D01*
X152428570Y-51394042D02*
X152428570Y-51536900D01*
X152428570Y-51536900D02*
X152499999Y-51751185D01*
X152499999Y-51751185D02*
X153357142Y-52608328D01*
X153357142Y-52608328D02*
X152428570Y-52608328D01*
X151857142Y-51251185D02*
X151785714Y-51179757D01*
X151785714Y-51179757D02*
X151642857Y-51108328D01*
X151642857Y-51108328D02*
X151285714Y-51108328D01*
X151285714Y-51108328D02*
X151142857Y-51179757D01*
X151142857Y-51179757D02*
X151071428Y-51251185D01*
X151071428Y-51251185D02*
X150999999Y-51394042D01*
X150999999Y-51394042D02*
X150999999Y-51536900D01*
X150999999Y-51536900D02*
X151071428Y-51751185D01*
X151071428Y-51751185D02*
X151928571Y-52608328D01*
X151928571Y-52608328D02*
X150999999Y-52608328D01*
X150357143Y-52036900D02*
X149214286Y-52036900D01*
X148571428Y-51251185D02*
X148500000Y-51179757D01*
X148500000Y-51179757D02*
X148357143Y-51108328D01*
X148357143Y-51108328D02*
X148000000Y-51108328D01*
X148000000Y-51108328D02*
X147857143Y-51179757D01*
X147857143Y-51179757D02*
X147785714Y-51251185D01*
X147785714Y-51251185D02*
X147714285Y-51394042D01*
X147714285Y-51394042D02*
X147714285Y-51536900D01*
X147714285Y-51536900D02*
X147785714Y-51751185D01*
X147785714Y-51751185D02*
X148642857Y-52608328D01*
X148642857Y-52608328D02*
X147714285Y-52608328D01*
X146785714Y-51108328D02*
X146642857Y-51108328D01*
X146642857Y-51108328D02*
X146500000Y-51179757D01*
X146500000Y-51179757D02*
X146428572Y-51251185D01*
X146428572Y-51251185D02*
X146357143Y-51394042D01*
X146357143Y-51394042D02*
X146285714Y-51679757D01*
X146285714Y-51679757D02*
X146285714Y-52036900D01*
X146285714Y-52036900D02*
X146357143Y-52322614D01*
X146357143Y-52322614D02*
X146428572Y-52465471D01*
X146428572Y-52465471D02*
X146500000Y-52536900D01*
X146500000Y-52536900D02*
X146642857Y-52608328D01*
X146642857Y-52608328D02*
X146785714Y-52608328D01*
X146785714Y-52608328D02*
X146928572Y-52536900D01*
X146928572Y-52536900D02*
X147000000Y-52465471D01*
X147000000Y-52465471D02*
X147071429Y-52322614D01*
X147071429Y-52322614D02*
X147142857Y-52036900D01*
X147142857Y-52036900D02*
X147142857Y-51679757D01*
X147142857Y-51679757D02*
X147071429Y-51394042D01*
X147071429Y-51394042D02*
X147000000Y-51251185D01*
X147000000Y-51251185D02*
X146928572Y-51179757D01*
X146928572Y-51179757D02*
X146785714Y-51108328D01*
X145714286Y-51251185D02*
X145642858Y-51179757D01*
X145642858Y-51179757D02*
X145500001Y-51108328D01*
X145500001Y-51108328D02*
X145142858Y-51108328D01*
X145142858Y-51108328D02*
X145000001Y-51179757D01*
X145000001Y-51179757D02*
X144928572Y-51251185D01*
X144928572Y-51251185D02*
X144857143Y-51394042D01*
X144857143Y-51394042D02*
X144857143Y-51536900D01*
X144857143Y-51536900D02*
X144928572Y-51751185D01*
X144928572Y-51751185D02*
X145785715Y-52608328D01*
X145785715Y-52608328D02*
X144857143Y-52608328D01*
X144357144Y-51108328D02*
X143428572Y-51108328D01*
X143428572Y-51108328D02*
X143928572Y-51679757D01*
X143928572Y-51679757D02*
X143714287Y-51679757D01*
X143714287Y-51679757D02*
X143571430Y-51751185D01*
X143571430Y-51751185D02*
X143500001Y-51822614D01*
X143500001Y-51822614D02*
X143428572Y-51965471D01*
X143428572Y-51965471D02*
X143428572Y-52322614D01*
X143428572Y-52322614D02*
X143500001Y-52465471D01*
X143500001Y-52465471D02*
X143571430Y-52536900D01*
X143571430Y-52536900D02*
X143714287Y-52608328D01*
X143714287Y-52608328D02*
X144142858Y-52608328D01*
X144142858Y-52608328D02*
X144285715Y-52536900D01*
X144285715Y-52536900D02*
X144357144Y-52465471D01*
X140785716Y-52608328D02*
X141285716Y-51894042D01*
X141642859Y-52608328D02*
X141642859Y-51108328D01*
X141642859Y-51108328D02*
X141071430Y-51108328D01*
X141071430Y-51108328D02*
X140928573Y-51179757D01*
X140928573Y-51179757D02*
X140857144Y-51251185D01*
X140857144Y-51251185D02*
X140785716Y-51394042D01*
X140785716Y-51394042D02*
X140785716Y-51608328D01*
X140785716Y-51608328D02*
X140857144Y-51751185D01*
X140857144Y-51751185D02*
X140928573Y-51822614D01*
X140928573Y-51822614D02*
X141071430Y-51894042D01*
X141071430Y-51894042D02*
X141642859Y-51894042D01*
X139928573Y-52608328D02*
X140071430Y-52536900D01*
X140071430Y-52536900D02*
X140142859Y-52465471D01*
X140142859Y-52465471D02*
X140214287Y-52322614D01*
X140214287Y-52322614D02*
X140214287Y-51894042D01*
X140214287Y-51894042D02*
X140142859Y-51751185D01*
X140142859Y-51751185D02*
X140071430Y-51679757D01*
X140071430Y-51679757D02*
X139928573Y-51608328D01*
X139928573Y-51608328D02*
X139714287Y-51608328D01*
X139714287Y-51608328D02*
X139571430Y-51679757D01*
X139571430Y-51679757D02*
X139500002Y-51751185D01*
X139500002Y-51751185D02*
X139428573Y-51894042D01*
X139428573Y-51894042D02*
X139428573Y-52322614D01*
X139428573Y-52322614D02*
X139500002Y-52465471D01*
X139500002Y-52465471D02*
X139571430Y-52536900D01*
X139571430Y-52536900D02*
X139714287Y-52608328D01*
X139714287Y-52608328D02*
X139928573Y-52608328D01*
X138857144Y-52536900D02*
X138714287Y-52608328D01*
X138714287Y-52608328D02*
X138428573Y-52608328D01*
X138428573Y-52608328D02*
X138285716Y-52536900D01*
X138285716Y-52536900D02*
X138214287Y-52394042D01*
X138214287Y-52394042D02*
X138214287Y-52322614D01*
X138214287Y-52322614D02*
X138285716Y-52179757D01*
X138285716Y-52179757D02*
X138428573Y-52108328D01*
X138428573Y-52108328D02*
X138642859Y-52108328D01*
X138642859Y-52108328D02*
X138785716Y-52036900D01*
X138785716Y-52036900D02*
X138857144Y-51894042D01*
X138857144Y-51894042D02*
X138857144Y-51822614D01*
X138857144Y-51822614D02*
X138785716Y-51679757D01*
X138785716Y-51679757D02*
X138642859Y-51608328D01*
X138642859Y-51608328D02*
X138428573Y-51608328D01*
X138428573Y-51608328D02*
X138285716Y-51679757D01*
X137642858Y-52536900D02*
X137500001Y-52608328D01*
X137500001Y-52608328D02*
X137214287Y-52608328D01*
X137214287Y-52608328D02*
X137071430Y-52536900D01*
X137071430Y-52536900D02*
X137000001Y-52394042D01*
X137000001Y-52394042D02*
X137000001Y-52322614D01*
X137000001Y-52322614D02*
X137071430Y-52179757D01*
X137071430Y-52179757D02*
X137214287Y-52108328D01*
X137214287Y-52108328D02*
X137428573Y-52108328D01*
X137428573Y-52108328D02*
X137571430Y-52036900D01*
X137571430Y-52036900D02*
X137642858Y-51894042D01*
X137642858Y-51894042D02*
X137642858Y-51822614D01*
X137642858Y-51822614D02*
X137571430Y-51679757D01*
X137571430Y-51679757D02*
X137428573Y-51608328D01*
X137428573Y-51608328D02*
X137214287Y-51608328D01*
X137214287Y-51608328D02*
X137071430Y-51679757D01*
X134714287Y-51822614D02*
X134500001Y-51894042D01*
X134500001Y-51894042D02*
X134428572Y-51965471D01*
X134428572Y-51965471D02*
X134357144Y-52108328D01*
X134357144Y-52108328D02*
X134357144Y-52322614D01*
X134357144Y-52322614D02*
X134428572Y-52465471D01*
X134428572Y-52465471D02*
X134500001Y-52536900D01*
X134500001Y-52536900D02*
X134642858Y-52608328D01*
X134642858Y-52608328D02*
X135214287Y-52608328D01*
X135214287Y-52608328D02*
X135214287Y-51108328D01*
X135214287Y-51108328D02*
X134714287Y-51108328D01*
X134714287Y-51108328D02*
X134571430Y-51179757D01*
X134571430Y-51179757D02*
X134500001Y-51251185D01*
X134500001Y-51251185D02*
X134428572Y-51394042D01*
X134428572Y-51394042D02*
X134428572Y-51536900D01*
X134428572Y-51536900D02*
X134500001Y-51679757D01*
X134500001Y-51679757D02*
X134571430Y-51751185D01*
X134571430Y-51751185D02*
X134714287Y-51822614D01*
X134714287Y-51822614D02*
X135214287Y-51822614D01*
X133071430Y-52608328D02*
X133071430Y-51822614D01*
X133071430Y-51822614D02*
X133142858Y-51679757D01*
X133142858Y-51679757D02*
X133285715Y-51608328D01*
X133285715Y-51608328D02*
X133571430Y-51608328D01*
X133571430Y-51608328D02*
X133714287Y-51679757D01*
X133071430Y-52536900D02*
X133214287Y-52608328D01*
X133214287Y-52608328D02*
X133571430Y-52608328D01*
X133571430Y-52608328D02*
X133714287Y-52536900D01*
X133714287Y-52536900D02*
X133785715Y-52394042D01*
X133785715Y-52394042D02*
X133785715Y-52251185D01*
X133785715Y-52251185D02*
X133714287Y-52108328D01*
X133714287Y-52108328D02*
X133571430Y-52036900D01*
X133571430Y-52036900D02*
X133214287Y-52036900D01*
X133214287Y-52036900D02*
X133071430Y-51965471D01*
X132357144Y-52608328D02*
X132357144Y-51608328D01*
X132357144Y-51751185D02*
X132285715Y-51679757D01*
X132285715Y-51679757D02*
X132142858Y-51608328D01*
X132142858Y-51608328D02*
X131928572Y-51608328D01*
X131928572Y-51608328D02*
X131785715Y-51679757D01*
X131785715Y-51679757D02*
X131714287Y-51822614D01*
X131714287Y-51822614D02*
X131714287Y-52608328D01*
X131714287Y-51822614D02*
X131642858Y-51679757D01*
X131642858Y-51679757D02*
X131500001Y-51608328D01*
X131500001Y-51608328D02*
X131285715Y-51608328D01*
X131285715Y-51608328D02*
X131142858Y-51679757D01*
X131142858Y-51679757D02*
X131071429Y-51822614D01*
X131071429Y-51822614D02*
X131071429Y-52608328D01*
X130571429Y-51608328D02*
X130000001Y-51608328D01*
X130357144Y-52608328D02*
X130357144Y-51322614D01*
X130357144Y-51322614D02*
X130285715Y-51179757D01*
X130285715Y-51179757D02*
X130142858Y-51108328D01*
X130142858Y-51108328D02*
X130000001Y-51108328D01*
X129285715Y-52608328D02*
X129428572Y-52536900D01*
X129428572Y-52536900D02*
X129500001Y-52465471D01*
X129500001Y-52465471D02*
X129571429Y-52322614D01*
X129571429Y-52322614D02*
X129571429Y-51894042D01*
X129571429Y-51894042D02*
X129500001Y-51751185D01*
X129500001Y-51751185D02*
X129428572Y-51679757D01*
X129428572Y-51679757D02*
X129285715Y-51608328D01*
X129285715Y-51608328D02*
X129071429Y-51608328D01*
X129071429Y-51608328D02*
X128928572Y-51679757D01*
X128928572Y-51679757D02*
X128857144Y-51751185D01*
X128857144Y-51751185D02*
X128785715Y-51894042D01*
X128785715Y-51894042D02*
X128785715Y-52322614D01*
X128785715Y-52322614D02*
X128857144Y-52465471D01*
X128857144Y-52465471D02*
X128928572Y-52536900D01*
X128928572Y-52536900D02*
X129071429Y-52608328D01*
X129071429Y-52608328D02*
X129285715Y-52608328D01*
X128142858Y-52608328D02*
X128142858Y-51608328D01*
X128142858Y-51894042D02*
X128071429Y-51751185D01*
X128071429Y-51751185D02*
X128000001Y-51679757D01*
X128000001Y-51679757D02*
X127857143Y-51608328D01*
X127857143Y-51608328D02*
X127714286Y-51608328D01*
X126571430Y-52608328D02*
X126571430Y-51108328D01*
X126571430Y-52536900D02*
X126714287Y-52608328D01*
X126714287Y-52608328D02*
X127000001Y-52608328D01*
X127000001Y-52608328D02*
X127142858Y-52536900D01*
X127142858Y-52536900D02*
X127214287Y-52465471D01*
X127214287Y-52465471D02*
X127285715Y-52322614D01*
X127285715Y-52322614D02*
X127285715Y-51894042D01*
X127285715Y-51894042D02*
X127214287Y-51751185D01*
X127214287Y-51751185D02*
X127142858Y-51679757D01*
X127142858Y-51679757D02*
X127000001Y-51608328D01*
X127000001Y-51608328D02*
X126714287Y-51608328D01*
X126714287Y-51608328D02*
X126571430Y-51679757D01*
X123500001Y-52608328D02*
X123571430Y-52608328D01*
X123571430Y-52608328D02*
X123714287Y-52536900D01*
X123714287Y-52536900D02*
X123928572Y-52322614D01*
X123928572Y-52322614D02*
X124285715Y-51894042D01*
X124285715Y-51894042D02*
X124428572Y-51679757D01*
X124428572Y-51679757D02*
X124500001Y-51465471D01*
X124500001Y-51465471D02*
X124500001Y-51322614D01*
X124500001Y-51322614D02*
X124428572Y-51179757D01*
X124428572Y-51179757D02*
X124285715Y-51108328D01*
X124285715Y-51108328D02*
X124214287Y-51108328D01*
X124214287Y-51108328D02*
X124071430Y-51179757D01*
X124071430Y-51179757D02*
X124000001Y-51322614D01*
X124000001Y-51322614D02*
X124000001Y-51394042D01*
X124000001Y-51394042D02*
X124071430Y-51536900D01*
X124071430Y-51536900D02*
X124142858Y-51608328D01*
X124142858Y-51608328D02*
X124571430Y-51894042D01*
X124571430Y-51894042D02*
X124642858Y-51965471D01*
X124642858Y-51965471D02*
X124714287Y-52108328D01*
X124714287Y-52108328D02*
X124714287Y-52322614D01*
X124714287Y-52322614D02*
X124642858Y-52465471D01*
X124642858Y-52465471D02*
X124571430Y-52536900D01*
X124571430Y-52536900D02*
X124428572Y-52608328D01*
X124428572Y-52608328D02*
X124214287Y-52608328D01*
X124214287Y-52608328D02*
X124071430Y-52536900D01*
X124071430Y-52536900D02*
X124000001Y-52465471D01*
X124000001Y-52465471D02*
X123785715Y-52179757D01*
X123785715Y-52179757D02*
X123714287Y-51965471D01*
X123714287Y-51965471D02*
X123714287Y-51822614D01*
X120857144Y-52465471D02*
X120928572Y-52536900D01*
X120928572Y-52536900D02*
X121142858Y-52608328D01*
X121142858Y-52608328D02*
X121285715Y-52608328D01*
X121285715Y-52608328D02*
X121500001Y-52536900D01*
X121500001Y-52536900D02*
X121642858Y-52394042D01*
X121642858Y-52394042D02*
X121714287Y-52251185D01*
X121714287Y-52251185D02*
X121785715Y-51965471D01*
X121785715Y-51965471D02*
X121785715Y-51751185D01*
X121785715Y-51751185D02*
X121714287Y-51465471D01*
X121714287Y-51465471D02*
X121642858Y-51322614D01*
X121642858Y-51322614D02*
X121500001Y-51179757D01*
X121500001Y-51179757D02*
X121285715Y-51108328D01*
X121285715Y-51108328D02*
X121142858Y-51108328D01*
X121142858Y-51108328D02*
X120928572Y-51179757D01*
X120928572Y-51179757D02*
X120857144Y-51251185D01*
X120000001Y-52608328D02*
X120142858Y-52536900D01*
X120142858Y-52536900D02*
X120214287Y-52465471D01*
X120214287Y-52465471D02*
X120285715Y-52322614D01*
X120285715Y-52322614D02*
X120285715Y-51894042D01*
X120285715Y-51894042D02*
X120214287Y-51751185D01*
X120214287Y-51751185D02*
X120142858Y-51679757D01*
X120142858Y-51679757D02*
X120000001Y-51608328D01*
X120000001Y-51608328D02*
X119785715Y-51608328D01*
X119785715Y-51608328D02*
X119642858Y-51679757D01*
X119642858Y-51679757D02*
X119571430Y-51751185D01*
X119571430Y-51751185D02*
X119500001Y-51894042D01*
X119500001Y-51894042D02*
X119500001Y-52322614D01*
X119500001Y-52322614D02*
X119571430Y-52465471D01*
X119571430Y-52465471D02*
X119642858Y-52536900D01*
X119642858Y-52536900D02*
X119785715Y-52608328D01*
X119785715Y-52608328D02*
X120000001Y-52608328D01*
X118857144Y-51608328D02*
X118857144Y-52608328D01*
X118857144Y-51751185D02*
X118785715Y-51679757D01*
X118785715Y-51679757D02*
X118642858Y-51608328D01*
X118642858Y-51608328D02*
X118428572Y-51608328D01*
X118428572Y-51608328D02*
X118285715Y-51679757D01*
X118285715Y-51679757D02*
X118214287Y-51822614D01*
X118214287Y-51822614D02*
X118214287Y-52608328D01*
X117714286Y-51608328D02*
X117142858Y-51608328D01*
X117500001Y-51108328D02*
X117500001Y-52394042D01*
X117500001Y-52394042D02*
X117428572Y-52536900D01*
X117428572Y-52536900D02*
X117285715Y-52608328D01*
X117285715Y-52608328D02*
X117142858Y-52608328D01*
X116642858Y-52608328D02*
X116642858Y-51608328D01*
X116642858Y-51894042D02*
X116571429Y-51751185D01*
X116571429Y-51751185D02*
X116500001Y-51679757D01*
X116500001Y-51679757D02*
X116357143Y-51608328D01*
X116357143Y-51608328D02*
X116214286Y-51608328D01*
X115714287Y-52608328D02*
X115714287Y-51608328D01*
X115714287Y-51108328D02*
X115785715Y-51179757D01*
X115785715Y-51179757D02*
X115714287Y-51251185D01*
X115714287Y-51251185D02*
X115642858Y-51179757D01*
X115642858Y-51179757D02*
X115714287Y-51108328D01*
X115714287Y-51108328D02*
X115714287Y-51251185D01*
X115000001Y-52608328D02*
X115000001Y-51108328D01*
X115000001Y-51679757D02*
X114857144Y-51608328D01*
X114857144Y-51608328D02*
X114571429Y-51608328D01*
X114571429Y-51608328D02*
X114428572Y-51679757D01*
X114428572Y-51679757D02*
X114357144Y-51751185D01*
X114357144Y-51751185D02*
X114285715Y-51894042D01*
X114285715Y-51894042D02*
X114285715Y-52322614D01*
X114285715Y-52322614D02*
X114357144Y-52465471D01*
X114357144Y-52465471D02*
X114428572Y-52536900D01*
X114428572Y-52536900D02*
X114571429Y-52608328D01*
X114571429Y-52608328D02*
X114857144Y-52608328D01*
X114857144Y-52608328D02*
X115000001Y-52536900D01*
X113000001Y-51608328D02*
X113000001Y-52608328D01*
X113642858Y-51608328D02*
X113642858Y-52394042D01*
X113642858Y-52394042D02*
X113571429Y-52536900D01*
X113571429Y-52536900D02*
X113428572Y-52608328D01*
X113428572Y-52608328D02*
X113214286Y-52608328D01*
X113214286Y-52608328D02*
X113071429Y-52536900D01*
X113071429Y-52536900D02*
X113000001Y-52465471D01*
X112500000Y-51608328D02*
X111928572Y-51608328D01*
X112285715Y-51108328D02*
X112285715Y-52394042D01*
X112285715Y-52394042D02*
X112214286Y-52536900D01*
X112214286Y-52536900D02*
X112071429Y-52608328D01*
X112071429Y-52608328D02*
X111928572Y-52608328D01*
X111214286Y-52608328D02*
X111357143Y-52536900D01*
X111357143Y-52536900D02*
X111428572Y-52465471D01*
X111428572Y-52465471D02*
X111500000Y-52322614D01*
X111500000Y-52322614D02*
X111500000Y-51894042D01*
X111500000Y-51894042D02*
X111428572Y-51751185D01*
X111428572Y-51751185D02*
X111357143Y-51679757D01*
X111357143Y-51679757D02*
X111214286Y-51608328D01*
X111214286Y-51608328D02*
X111000000Y-51608328D01*
X111000000Y-51608328D02*
X110857143Y-51679757D01*
X110857143Y-51679757D02*
X110785715Y-51751185D01*
X110785715Y-51751185D02*
X110714286Y-51894042D01*
X110714286Y-51894042D02*
X110714286Y-52322614D01*
X110714286Y-52322614D02*
X110785715Y-52465471D01*
X110785715Y-52465471D02*
X110857143Y-52536900D01*
X110857143Y-52536900D02*
X111000000Y-52608328D01*
X111000000Y-52608328D02*
X111214286Y-52608328D01*
X110071429Y-52608328D02*
X110071429Y-51608328D01*
X110071429Y-51894042D02*
X110000000Y-51751185D01*
X110000000Y-51751185D02*
X109928572Y-51679757D01*
X109928572Y-51679757D02*
X109785714Y-51608328D01*
X109785714Y-51608328D02*
X109642857Y-51608328D01*
X109214286Y-52536900D02*
X109071429Y-52608328D01*
X109071429Y-52608328D02*
X108785715Y-52608328D01*
X108785715Y-52608328D02*
X108642858Y-52536900D01*
X108642858Y-52536900D02*
X108571429Y-52394042D01*
X108571429Y-52394042D02*
X108571429Y-52322614D01*
X108571429Y-52322614D02*
X108642858Y-52179757D01*
X108642858Y-52179757D02*
X108785715Y-52108328D01*
X108785715Y-52108328D02*
X109000001Y-52108328D01*
X109000001Y-52108328D02*
X109142858Y-52036900D01*
X109142858Y-52036900D02*
X109214286Y-51894042D01*
X109214286Y-51894042D02*
X109214286Y-51822614D01*
X109214286Y-51822614D02*
X109142858Y-51679757D01*
X109142858Y-51679757D02*
X109000001Y-51608328D01*
X109000001Y-51608328D02*
X108785715Y-51608328D01*
X108785715Y-51608328D02*
X108642858Y-51679757D01*
D10*
%TO.C,PARITY*%
X181525000Y-116957500D02*
X181525000Y-116057500D01*
X181525000Y-114957500D02*
X181525000Y-112957500D01*
X180850001Y-114207501D02*
G75*
G03*
X182274999Y-114282501I674999J-749999D01*
G01*
X182450000Y-117957500D02*
G75*
G03*
X182450000Y-117957500I-925000J0D01*
G01*
D12*
X181700000Y-114957500D02*
G75*
G03*
X181700000Y-114957500I-175000J0D01*
G01*
D10*
X182450000Y-111957500D02*
G75*
G03*
X182450000Y-111957500I-925000J0D01*
G01*
%TO.C,ROHS*%
D13*
X123970179Y-68406072D02*
X121702321Y-68406072D01*
X121702321Y-70651250D01*
X123970179Y-70651250D01*
X123970179Y-71830536D01*
X118209821Y-71830536D01*
X118209821Y-70651635D01*
X119462813Y-70645773D01*
X120715804Y-70639911D01*
X120721687Y-69522992D01*
X120727570Y-68406072D01*
X118209821Y-68406072D01*
X118209821Y-67226786D01*
X123970179Y-67226786D01*
X123970179Y-68406072D01*
G36*
X123970179Y-68406072D02*
G01*
X121702321Y-68406072D01*
X121702321Y-70651250D01*
X123970179Y-70651250D01*
X123970179Y-71830536D01*
X118209821Y-71830536D01*
X118209821Y-70651635D01*
X119462813Y-70645773D01*
X120715804Y-70639911D01*
X120721687Y-69522992D01*
X120727570Y-68406072D01*
X118209821Y-68406072D01*
X118209821Y-67226786D01*
X123970179Y-67226786D01*
X123970179Y-68406072D01*
G37*
X120644404Y-72716252D02*
X120872037Y-72753332D01*
X121081399Y-72811969D01*
X121285322Y-72895064D01*
X121541747Y-73038029D01*
X121779533Y-73219905D01*
X121986787Y-73433326D01*
X122161021Y-73675309D01*
X122299750Y-73942869D01*
X122400484Y-74233023D01*
X122404228Y-74247008D01*
X122425153Y-74330896D01*
X122440049Y-74407062D01*
X122449940Y-74486119D01*
X122455855Y-74578683D01*
X122458819Y-74695368D01*
X122459861Y-74846786D01*
X122459947Y-74918229D01*
X122459053Y-75050132D01*
X122455811Y-75151918D01*
X122449185Y-75234117D01*
X122438137Y-75307258D01*
X122421632Y-75381869D01*
X122398630Y-75468479D01*
X122358405Y-75598293D01*
X122244110Y-75870274D01*
X122097360Y-76118311D01*
X121922033Y-76335358D01*
X121730927Y-76514197D01*
X121484296Y-76688969D01*
X121215067Y-76825329D01*
X120924869Y-76922751D01*
X120615329Y-76980706D01*
X120296250Y-76998221D01*
X120288074Y-76998669D01*
X119944732Y-76976110D01*
X119846560Y-76962203D01*
X119545576Y-76894481D01*
X119267238Y-76792694D01*
X119014962Y-76658561D01*
X118792162Y-76493802D01*
X118602253Y-76300137D01*
X118561581Y-76248647D01*
X118435315Y-76054996D01*
X118323574Y-75832483D01*
X118231216Y-75593177D01*
X118163101Y-75349147D01*
X118124088Y-75112462D01*
X118116562Y-74984753D01*
X118116628Y-74901871D01*
X119032002Y-74901871D01*
X119039275Y-75031801D01*
X119061117Y-75139603D01*
X119100978Y-75239493D01*
X119162305Y-75345689D01*
X119257865Y-75473384D01*
X119406362Y-75611718D01*
X119582766Y-75717779D01*
X119788760Y-75792314D01*
X120026027Y-75836071D01*
X120296250Y-75849799D01*
X120313020Y-75849694D01*
X120564306Y-75835450D01*
X120781961Y-75796363D01*
X120971142Y-75730672D01*
X121137009Y-75636616D01*
X121284718Y-75512435D01*
X121357700Y-75431073D01*
X121464642Y-75263965D01*
X121532480Y-75083009D01*
X121561212Y-74894166D01*
X121550836Y-74703394D01*
X121501350Y-74516653D01*
X121412754Y-74339903D01*
X121285045Y-74179103D01*
X121225554Y-74122709D01*
X121083544Y-74019812D01*
X120918758Y-73941592D01*
X120724709Y-73885330D01*
X120494908Y-73848312D01*
X120442162Y-73843223D01*
X120229696Y-73838812D01*
X120015857Y-73857588D01*
X119811674Y-73897553D01*
X119628173Y-73956705D01*
X119476383Y-74033045D01*
X119414864Y-74076385D01*
X119288781Y-74190281D01*
X119179026Y-74322011D01*
X119099207Y-74456305D01*
X119094097Y-74467495D01*
X119066014Y-74538495D01*
X119048338Y-74609679D01*
X119038280Y-74696089D01*
X119033046Y-74812768D01*
X119032002Y-74901871D01*
X118116628Y-74901871D01*
X118116690Y-74822822D01*
X118124661Y-74651249D01*
X118139526Y-74483738D01*
X118160338Y-74333995D01*
X118186146Y-74215724D01*
X118249014Y-74026531D01*
X118368353Y-73770889D01*
X118523500Y-73536295D01*
X118719063Y-73314956D01*
X118749528Y-73285004D01*
X118979811Y-73089819D01*
X119226151Y-72934774D01*
X119490875Y-72819026D01*
X119776309Y-72741734D01*
X120084777Y-72702054D01*
X120418606Y-72699143D01*
X120644404Y-72716252D01*
G36*
X120644404Y-72716252D02*
G01*
X120872037Y-72753332D01*
X121081399Y-72811969D01*
X121285322Y-72895064D01*
X121541747Y-73038029D01*
X121779533Y-73219905D01*
X121986787Y-73433326D01*
X122161021Y-73675309D01*
X122299750Y-73942869D01*
X122400484Y-74233023D01*
X122404228Y-74247008D01*
X122425153Y-74330896D01*
X122440049Y-74407062D01*
X122449940Y-74486119D01*
X122455855Y-74578683D01*
X122458819Y-74695368D01*
X122459861Y-74846786D01*
X122459947Y-74918229D01*
X122459053Y-75050132D01*
X122455811Y-75151918D01*
X122449185Y-75234117D01*
X122438137Y-75307258D01*
X122421632Y-75381869D01*
X122398630Y-75468479D01*
X122358405Y-75598293D01*
X122244110Y-75870274D01*
X122097360Y-76118311D01*
X121922033Y-76335358D01*
X121730927Y-76514197D01*
X121484296Y-76688969D01*
X121215067Y-76825329D01*
X120924869Y-76922751D01*
X120615329Y-76980706D01*
X120296250Y-76998221D01*
X120288074Y-76998669D01*
X119944732Y-76976110D01*
X119846560Y-76962203D01*
X119545576Y-76894481D01*
X119267238Y-76792694D01*
X119014962Y-76658561D01*
X118792162Y-76493802D01*
X118602253Y-76300137D01*
X118561581Y-76248647D01*
X118435315Y-76054996D01*
X118323574Y-75832483D01*
X118231216Y-75593177D01*
X118163101Y-75349147D01*
X118124088Y-75112462D01*
X118116562Y-74984753D01*
X118116628Y-74901871D01*
X119032002Y-74901871D01*
X119039275Y-75031801D01*
X119061117Y-75139603D01*
X119100978Y-75239493D01*
X119162305Y-75345689D01*
X119257865Y-75473384D01*
X119406362Y-75611718D01*
X119582766Y-75717779D01*
X119788760Y-75792314D01*
X120026027Y-75836071D01*
X120296250Y-75849799D01*
X120313020Y-75849694D01*
X120564306Y-75835450D01*
X120781961Y-75796363D01*
X120971142Y-75730672D01*
X121137009Y-75636616D01*
X121284718Y-75512435D01*
X121357700Y-75431073D01*
X121464642Y-75263965D01*
X121532480Y-75083009D01*
X121561212Y-74894166D01*
X121550836Y-74703394D01*
X121501350Y-74516653D01*
X121412754Y-74339903D01*
X121285045Y-74179103D01*
X121225554Y-74122709D01*
X121083544Y-74019812D01*
X120918758Y-73941592D01*
X120724709Y-73885330D01*
X120494908Y-73848312D01*
X120442162Y-73843223D01*
X120229696Y-73838812D01*
X120015857Y-73857588D01*
X119811674Y-73897553D01*
X119628173Y-73956705D01*
X119476383Y-74033045D01*
X119414864Y-74076385D01*
X119288781Y-74190281D01*
X119179026Y-74322011D01*
X119099207Y-74456305D01*
X119094097Y-74467495D01*
X119066014Y-74538495D01*
X119048338Y-74609679D01*
X119038280Y-74696089D01*
X119033046Y-74812768D01*
X119032002Y-74901871D01*
X118116628Y-74901871D01*
X118116690Y-74822822D01*
X118124661Y-74651249D01*
X118139526Y-74483738D01*
X118160338Y-74333995D01*
X118186146Y-74215724D01*
X118249014Y-74026531D01*
X118368353Y-73770889D01*
X118523500Y-73536295D01*
X118719063Y-73314956D01*
X118749528Y-73285004D01*
X118979811Y-73089819D01*
X119226151Y-72934774D01*
X119490875Y-72819026D01*
X119776309Y-72741734D01*
X120084777Y-72702054D01*
X120418606Y-72699143D01*
X120644404Y-72716252D01*
G37*
X118220899Y-77364166D02*
X118246569Y-77377497D01*
X118305337Y-77412125D01*
X118392458Y-77465057D01*
X118503186Y-77533297D01*
X118632776Y-77613851D01*
X118776483Y-77703725D01*
X118929560Y-77799923D01*
X119087262Y-77899452D01*
X119244844Y-77999316D01*
X119397559Y-78096522D01*
X119540664Y-78188073D01*
X119669411Y-78270977D01*
X119779055Y-78342238D01*
X119864851Y-78398862D01*
X119922054Y-78437854D01*
X119953924Y-78460705D01*
X120148686Y-78615086D01*
X120332564Y-78785000D01*
X120494997Y-78960055D01*
X120625419Y-79129858D01*
X120738482Y-79296769D01*
X120758134Y-79220572D01*
X120794410Y-79084739D01*
X120852072Y-78893190D01*
X120910830Y-78733806D01*
X120974659Y-78598579D01*
X121047538Y-78479505D01*
X121133442Y-78368577D01*
X121236348Y-78257789D01*
X121323487Y-78175221D01*
X121494321Y-78043644D01*
X121674896Y-77946225D01*
X121872572Y-77880139D01*
X122094707Y-77842560D01*
X122348661Y-77830662D01*
X122368735Y-77830700D01*
X122547144Y-77835921D01*
X122697352Y-77852223D01*
X122834381Y-77882871D01*
X122973256Y-77931130D01*
X123128998Y-78000266D01*
X123134883Y-78003081D01*
X123235193Y-78055450D01*
X123320617Y-78111593D01*
X123405495Y-78182109D01*
X123504167Y-78277601D01*
X123528800Y-78302832D01*
X123634132Y-78421796D01*
X123718368Y-78541035D01*
X123785637Y-78669567D01*
X123840064Y-78816407D01*
X123885776Y-78990570D01*
X123926901Y-79201072D01*
X123928489Y-79211893D01*
X123934240Y-79280976D01*
X123939620Y-79394129D01*
X123944609Y-79550337D01*
X123949186Y-79748584D01*
X123953330Y-79987855D01*
X123957020Y-80267134D01*
X123960235Y-80585405D01*
X123962954Y-80941652D01*
X123973424Y-82534822D01*
X122972321Y-82534822D01*
X118209821Y-82534822D01*
X118209821Y-81355937D01*
X118291544Y-81355536D01*
X121543571Y-81355536D01*
X122972321Y-81355536D01*
X122972321Y-80497867D01*
X122972237Y-80361282D01*
X122971612Y-80156324D01*
X122970232Y-79989292D01*
X122967923Y-79855465D01*
X122964513Y-79750123D01*
X122959828Y-79668547D01*
X122953695Y-79606016D01*
X122945941Y-79557810D01*
X122936392Y-79519209D01*
X122927026Y-79489381D01*
X122853482Y-79327199D01*
X122752215Y-79200889D01*
X122623080Y-79110341D01*
X122465932Y-79055450D01*
X122280625Y-79036109D01*
X122267548Y-79036080D01*
X122082368Y-79054813D01*
X121922364Y-79110162D01*
X121784853Y-79203031D01*
X121769983Y-79216588D01*
X121693623Y-79307140D01*
X121636299Y-79419586D01*
X121594984Y-79561380D01*
X121566648Y-79739973D01*
X121564934Y-79756939D01*
X121559309Y-79842052D01*
X121554264Y-79962647D01*
X121549994Y-80111074D01*
X121546691Y-80279682D01*
X121544547Y-80460818D01*
X121543758Y-80646831D01*
X121543571Y-81355536D01*
X118291544Y-81355536D01*
X120602411Y-81344197D01*
X120599167Y-81059396D01*
X120595000Y-80918742D01*
X120577031Y-80731261D01*
X120541683Y-80573996D01*
X120485115Y-80438570D01*
X120403484Y-80316606D01*
X120292945Y-80199728D01*
X120149658Y-80079559D01*
X120112531Y-80051718D01*
X120028098Y-79990965D01*
X119914160Y-79910901D01*
X119775728Y-79814972D01*
X119617814Y-79706628D01*
X119445426Y-79589316D01*
X119263577Y-79466485D01*
X119077277Y-79341583D01*
X118209821Y-78762268D01*
X118209821Y-78063188D01*
X118209890Y-77983662D01*
X118210506Y-77817140D01*
X118211692Y-77668631D01*
X118213365Y-77543605D01*
X118215440Y-77447530D01*
X118217836Y-77385875D01*
X118220469Y-77364108D01*
X118220899Y-77364166D01*
G36*
X118220899Y-77364166D02*
G01*
X118246569Y-77377497D01*
X118305337Y-77412125D01*
X118392458Y-77465057D01*
X118503186Y-77533297D01*
X118632776Y-77613851D01*
X118776483Y-77703725D01*
X118929560Y-77799923D01*
X119087262Y-77899452D01*
X119244844Y-77999316D01*
X119397559Y-78096522D01*
X119540664Y-78188073D01*
X119669411Y-78270977D01*
X119779055Y-78342238D01*
X119864851Y-78398862D01*
X119922054Y-78437854D01*
X119953924Y-78460705D01*
X120148686Y-78615086D01*
X120332564Y-78785000D01*
X120494997Y-78960055D01*
X120625419Y-79129858D01*
X120738482Y-79296769D01*
X120758134Y-79220572D01*
X120794410Y-79084739D01*
X120852072Y-78893190D01*
X120910830Y-78733806D01*
X120974659Y-78598579D01*
X121047538Y-78479505D01*
X121133442Y-78368577D01*
X121236348Y-78257789D01*
X121323487Y-78175221D01*
X121494321Y-78043644D01*
X121674896Y-77946225D01*
X121872572Y-77880139D01*
X122094707Y-77842560D01*
X122348661Y-77830662D01*
X122368735Y-77830700D01*
X122547144Y-77835921D01*
X122697352Y-77852223D01*
X122834381Y-77882871D01*
X122973256Y-77931130D01*
X123128998Y-78000266D01*
X123134883Y-78003081D01*
X123235193Y-78055450D01*
X123320617Y-78111593D01*
X123405495Y-78182109D01*
X123504167Y-78277601D01*
X123528800Y-78302832D01*
X123634132Y-78421796D01*
X123718368Y-78541035D01*
X123785637Y-78669567D01*
X123840064Y-78816407D01*
X123885776Y-78990570D01*
X123926901Y-79201072D01*
X123928489Y-79211893D01*
X123934240Y-79280976D01*
X123939620Y-79394129D01*
X123944609Y-79550337D01*
X123949186Y-79748584D01*
X123953330Y-79987855D01*
X123957020Y-80267134D01*
X123960235Y-80585405D01*
X123962954Y-80941652D01*
X123973424Y-82534822D01*
X122972321Y-82534822D01*
X118209821Y-82534822D01*
X118209821Y-81355937D01*
X118291544Y-81355536D01*
X121543571Y-81355536D01*
X122972321Y-81355536D01*
X122972321Y-80497867D01*
X122972237Y-80361282D01*
X122971612Y-80156324D01*
X122970232Y-79989292D01*
X122967923Y-79855465D01*
X122964513Y-79750123D01*
X122959828Y-79668547D01*
X122953695Y-79606016D01*
X122945941Y-79557810D01*
X122936392Y-79519209D01*
X122927026Y-79489381D01*
X122853482Y-79327199D01*
X122752215Y-79200889D01*
X122623080Y-79110341D01*
X122465932Y-79055450D01*
X122280625Y-79036109D01*
X122267548Y-79036080D01*
X122082368Y-79054813D01*
X121922364Y-79110162D01*
X121784853Y-79203031D01*
X121769983Y-79216588D01*
X121693623Y-79307140D01*
X121636299Y-79419586D01*
X121594984Y-79561380D01*
X121566648Y-79739973D01*
X121564934Y-79756939D01*
X121559309Y-79842052D01*
X121554264Y-79962647D01*
X121549994Y-80111074D01*
X121546691Y-80279682D01*
X121544547Y-80460818D01*
X121543758Y-80646831D01*
X121543571Y-81355536D01*
X118291544Y-81355536D01*
X120602411Y-81344197D01*
X120599167Y-81059396D01*
X120595000Y-80918742D01*
X120577031Y-80731261D01*
X120541683Y-80573996D01*
X120485115Y-80438570D01*
X120403484Y-80316606D01*
X120292945Y-80199728D01*
X120149658Y-80079559D01*
X120112531Y-80051718D01*
X120028098Y-79990965D01*
X119914160Y-79910901D01*
X119775728Y-79814972D01*
X119617814Y-79706628D01*
X119445426Y-79589316D01*
X119263577Y-79466485D01*
X119077277Y-79341583D01*
X118209821Y-78762268D01*
X118209821Y-78063188D01*
X118209890Y-77983662D01*
X118210506Y-77817140D01*
X118211692Y-77668631D01*
X118213365Y-77543605D01*
X118215440Y-77447530D01*
X118217836Y-77385875D01*
X118220469Y-77364108D01*
X118220899Y-77364166D01*
G37*
X120144891Y-61654948D02*
X120286415Y-61672595D01*
X120343926Y-61684603D01*
X120547202Y-61747480D01*
X120744532Y-61837493D01*
X120916834Y-61946353D01*
X121033132Y-62041969D01*
X121148833Y-62158172D01*
X121253625Y-62289904D01*
X121349643Y-62441399D01*
X121439023Y-62616893D01*
X121523902Y-62820622D01*
X121606417Y-63056822D01*
X121688703Y-63329726D01*
X121772897Y-63643572D01*
X121821201Y-63830343D01*
X121880808Y-64052695D01*
X121933787Y-64238382D01*
X121981752Y-64391870D01*
X122026318Y-64517623D01*
X122069099Y-64620107D01*
X122111711Y-64703786D01*
X122155768Y-64773127D01*
X122202884Y-64832593D01*
X122228673Y-64859638D01*
X122293893Y-64915033D01*
X122353248Y-64950968D01*
X122353315Y-64950996D01*
X122439744Y-64973310D01*
X122542542Y-64980469D01*
X122641975Y-64972546D01*
X122718314Y-64949614D01*
X122748748Y-64931654D01*
X122846820Y-64843745D01*
X122933139Y-64719669D01*
X123003657Y-64566166D01*
X123054327Y-64389975D01*
X123056134Y-64381176D01*
X123072374Y-64260091D01*
X123080006Y-64114471D01*
X123079404Y-63958193D01*
X123070945Y-63805136D01*
X123055005Y-63669178D01*
X123031959Y-63564197D01*
X122999441Y-63476796D01*
X122905954Y-63317130D01*
X122778021Y-63186259D01*
X122617005Y-63085413D01*
X122424266Y-63015818D01*
X122263899Y-62974554D01*
X122282372Y-62452947D01*
X122285086Y-62375986D01*
X122290242Y-62227888D01*
X122294768Y-62095421D01*
X122298414Y-61986009D01*
X122300933Y-61907078D01*
X122302074Y-61866050D01*
X122303304Y-61800759D01*
X122479330Y-61814333D01*
X122591404Y-61829305D01*
X122726645Y-61858002D01*
X122854637Y-61894673D01*
X123069746Y-61981395D01*
X123300564Y-62115669D01*
X123500047Y-62282626D01*
X123668687Y-62482692D01*
X123806977Y-62716294D01*
X123827774Y-62759443D01*
X123910289Y-62955167D01*
X123973063Y-63154005D01*
X124017503Y-63364044D01*
X124045013Y-63593368D01*
X124056999Y-63850061D01*
X124054866Y-64142209D01*
X124051174Y-64248097D01*
X124037600Y-64459311D01*
X124015020Y-64642149D01*
X123981318Y-64808098D01*
X123934381Y-64968646D01*
X123872095Y-65135279D01*
X123822855Y-65243070D01*
X123699836Y-65447341D01*
X123548497Y-65634471D01*
X123376923Y-65795116D01*
X123193201Y-65919930D01*
X123030384Y-65998206D01*
X122788482Y-66074927D01*
X122541323Y-66110654D01*
X122293983Y-66106416D01*
X122051535Y-66063243D01*
X121819054Y-65982167D01*
X121601615Y-65864216D01*
X121404291Y-65710422D01*
X121232157Y-65521813D01*
X121133255Y-65375941D01*
X121015614Y-65153885D01*
X120904591Y-64887895D01*
X120800411Y-64578527D01*
X120703301Y-64226333D01*
X120660144Y-64055535D01*
X120598974Y-63820944D01*
X120544523Y-63623931D01*
X120495215Y-63460331D01*
X120449473Y-63325981D01*
X120405720Y-63216716D01*
X120362381Y-63128371D01*
X120317878Y-63056781D01*
X120270635Y-62997783D01*
X120219075Y-62947211D01*
X120100096Y-62866822D01*
X119960620Y-62820618D01*
X119813914Y-62814985D01*
X119665468Y-62849341D01*
X119520768Y-62923104D01*
X119385303Y-63035691D01*
X119334560Y-63092132D01*
X119228734Y-63253151D01*
X119154011Y-63442672D01*
X119109691Y-63662819D01*
X119095073Y-63915715D01*
X119098795Y-64040211D01*
X119131384Y-64285069D01*
X119197127Y-64501213D01*
X119295525Y-64687584D01*
X119426082Y-64843119D01*
X119588298Y-64966757D01*
X119626231Y-64988146D01*
X119739986Y-65042504D01*
X119872369Y-65096167D01*
X120005248Y-65142098D01*
X120120491Y-65173262D01*
X120124068Y-65174003D01*
X120145324Y-65178334D01*
X120161272Y-65185229D01*
X120172066Y-65200014D01*
X120177861Y-65228015D01*
X120178810Y-65274558D01*
X120175068Y-65344970D01*
X120166787Y-65444576D01*
X120154121Y-65578704D01*
X120137225Y-65752679D01*
X120134317Y-65782807D01*
X120120934Y-65924467D01*
X120109356Y-66051897D01*
X120100254Y-66157371D01*
X120094298Y-66233163D01*
X120092160Y-66271546D01*
X120092158Y-66273072D01*
X120089334Y-66302374D01*
X120073839Y-66316244D01*
X120034899Y-66317909D01*
X119961741Y-66310594D01*
X119907399Y-66303577D01*
X119652275Y-66250625D01*
X119398708Y-66167371D01*
X119157255Y-66058431D01*
X118938474Y-65928421D01*
X118752922Y-65781960D01*
X118691058Y-65722171D01*
X118523302Y-65527396D01*
X118385514Y-65310539D01*
X118275549Y-65067119D01*
X118191260Y-64792659D01*
X118130502Y-64482679D01*
X118119945Y-64398384D01*
X118106954Y-64226591D01*
X118100496Y-64032388D01*
X118100694Y-63829978D01*
X118107673Y-63633568D01*
X118121555Y-63457363D01*
X118151576Y-63243864D01*
X118222346Y-62938439D01*
X118322092Y-62662406D01*
X118449834Y-62417869D01*
X118604592Y-62206931D01*
X118785387Y-62031697D01*
X118873793Y-61965367D01*
X119059786Y-61850890D01*
X119257279Y-61756921D01*
X119448599Y-61692500D01*
X119494686Y-61682161D01*
X119638571Y-61661431D01*
X119805327Y-61649737D01*
X119979314Y-61647452D01*
X120144891Y-61654948D01*
G36*
X120144891Y-61654948D02*
G01*
X120286415Y-61672595D01*
X120343926Y-61684603D01*
X120547202Y-61747480D01*
X120744532Y-61837493D01*
X120916834Y-61946353D01*
X121033132Y-62041969D01*
X121148833Y-62158172D01*
X121253625Y-62289904D01*
X121349643Y-62441399D01*
X121439023Y-62616893D01*
X121523902Y-62820622D01*
X121606417Y-63056822D01*
X121688703Y-63329726D01*
X121772897Y-63643572D01*
X121821201Y-63830343D01*
X121880808Y-64052695D01*
X121933787Y-64238382D01*
X121981752Y-64391870D01*
X122026318Y-64517623D01*
X122069099Y-64620107D01*
X122111711Y-64703786D01*
X122155768Y-64773127D01*
X122202884Y-64832593D01*
X122228673Y-64859638D01*
X122293893Y-64915033D01*
X122353248Y-64950968D01*
X122353315Y-64950996D01*
X122439744Y-64973310D01*
X122542542Y-64980469D01*
X122641975Y-64972546D01*
X122718314Y-64949614D01*
X122748748Y-64931654D01*
X122846820Y-64843745D01*
X122933139Y-64719669D01*
X123003657Y-64566166D01*
X123054327Y-64389975D01*
X123056134Y-64381176D01*
X123072374Y-64260091D01*
X123080006Y-64114471D01*
X123079404Y-63958193D01*
X123070945Y-63805136D01*
X123055005Y-63669178D01*
X123031959Y-63564197D01*
X122999441Y-63476796D01*
X122905954Y-63317130D01*
X122778021Y-63186259D01*
X122617005Y-63085413D01*
X122424266Y-63015818D01*
X122263899Y-62974554D01*
X122282372Y-62452947D01*
X122285086Y-62375986D01*
X122290242Y-62227888D01*
X122294768Y-62095421D01*
X122298414Y-61986009D01*
X122300933Y-61907078D01*
X122302074Y-61866050D01*
X122303304Y-61800759D01*
X122479330Y-61814333D01*
X122591404Y-61829305D01*
X122726645Y-61858002D01*
X122854637Y-61894673D01*
X123069746Y-61981395D01*
X123300564Y-62115669D01*
X123500047Y-62282626D01*
X123668687Y-62482692D01*
X123806977Y-62716294D01*
X123827774Y-62759443D01*
X123910289Y-62955167D01*
X123973063Y-63154005D01*
X124017503Y-63364044D01*
X124045013Y-63593368D01*
X124056999Y-63850061D01*
X124054866Y-64142209D01*
X124051174Y-64248097D01*
X124037600Y-64459311D01*
X124015020Y-64642149D01*
X123981318Y-64808098D01*
X123934381Y-64968646D01*
X123872095Y-65135279D01*
X123822855Y-65243070D01*
X123699836Y-65447341D01*
X123548497Y-65634471D01*
X123376923Y-65795116D01*
X123193201Y-65919930D01*
X123030384Y-65998206D01*
X122788482Y-66074927D01*
X122541323Y-66110654D01*
X122293983Y-66106416D01*
X122051535Y-66063243D01*
X121819054Y-65982167D01*
X121601615Y-65864216D01*
X121404291Y-65710422D01*
X121232157Y-65521813D01*
X121133255Y-65375941D01*
X121015614Y-65153885D01*
X120904591Y-64887895D01*
X120800411Y-64578527D01*
X120703301Y-64226333D01*
X120660144Y-64055535D01*
X120598974Y-63820944D01*
X120544523Y-63623931D01*
X120495215Y-63460331D01*
X120449473Y-63325981D01*
X120405720Y-63216716D01*
X120362381Y-63128371D01*
X120317878Y-63056781D01*
X120270635Y-62997783D01*
X120219075Y-62947211D01*
X120100096Y-62866822D01*
X119960620Y-62820618D01*
X119813914Y-62814985D01*
X119665468Y-62849341D01*
X119520768Y-62923104D01*
X119385303Y-63035691D01*
X119334560Y-63092132D01*
X119228734Y-63253151D01*
X119154011Y-63442672D01*
X119109691Y-63662819D01*
X119095073Y-63915715D01*
X119098795Y-64040211D01*
X119131384Y-64285069D01*
X119197127Y-64501213D01*
X119295525Y-64687584D01*
X119426082Y-64843119D01*
X119588298Y-64966757D01*
X119626231Y-64988146D01*
X119739986Y-65042504D01*
X119872369Y-65096167D01*
X120005248Y-65142098D01*
X120120491Y-65173262D01*
X120124068Y-65174003D01*
X120145324Y-65178334D01*
X120161272Y-65185229D01*
X120172066Y-65200014D01*
X120177861Y-65228015D01*
X120178810Y-65274558D01*
X120175068Y-65344970D01*
X120166787Y-65444576D01*
X120154121Y-65578704D01*
X120137225Y-65752679D01*
X120134317Y-65782807D01*
X120120934Y-65924467D01*
X120109356Y-66051897D01*
X120100254Y-66157371D01*
X120094298Y-66233163D01*
X120092160Y-66271546D01*
X120092158Y-66273072D01*
X120089334Y-66302374D01*
X120073839Y-66316244D01*
X120034899Y-66317909D01*
X119961741Y-66310594D01*
X119907399Y-66303577D01*
X119652275Y-66250625D01*
X119398708Y-66167371D01*
X119157255Y-66058431D01*
X118938474Y-65928421D01*
X118752922Y-65781960D01*
X118691058Y-65722171D01*
X118523302Y-65527396D01*
X118385514Y-65310539D01*
X118275549Y-65067119D01*
X118191260Y-64792659D01*
X118130502Y-64482679D01*
X118119945Y-64398384D01*
X118106954Y-64226591D01*
X118100496Y-64032388D01*
X118100694Y-63829978D01*
X118107673Y-63633568D01*
X118121555Y-63457363D01*
X118151576Y-63243864D01*
X118222346Y-62938439D01*
X118322092Y-62662406D01*
X118449834Y-62417869D01*
X118604592Y-62206931D01*
X118785387Y-62031697D01*
X118873793Y-61965367D01*
X119059786Y-61850890D01*
X119257279Y-61756921D01*
X119448599Y-61692500D01*
X119494686Y-61682161D01*
X119638571Y-61661431D01*
X119805327Y-61649737D01*
X119979314Y-61647452D01*
X120144891Y-61654948D01*
G37*
%TD*%
M02*
