%TF.GenerationSoftware,KiCad,Pcbnew,7.0.9*%
%TF.CreationDate,2024-03-10T18:16:31+00:00*%
%TF.ProjectId,rosco_6502,726f7363-6f5f-4363-9530-322e6b696361,5*%
%TF.SameCoordinates,Original*%
%TF.FileFunction,Copper,L1,Top*%
%TF.FilePolarity,Positive*%
%FSLAX46Y46*%
G04 Gerber Fmt 4.6, Leading zero omitted, Abs format (unit mm)*
G04 Created by KiCad (PCBNEW 7.0.9) date 2024-03-10 18:16:31*
%MOMM*%
%LPD*%
G01*
G04 APERTURE LIST*
G04 Aperture macros list*
%AMRoundRect*
0 Rectangle with rounded corners*
0 $1 Rounding radius*
0 $2 $3 $4 $5 $6 $7 $8 $9 X,Y pos of 4 corners*
0 Add a 4 corners polygon primitive as box body*
4,1,4,$2,$3,$4,$5,$6,$7,$8,$9,$2,$3,0*
0 Add four circle primitives for the rounded corners*
1,1,$1+$1,$2,$3*
1,1,$1+$1,$4,$5*
1,1,$1+$1,$6,$7*
1,1,$1+$1,$8,$9*
0 Add four rect primitives between the rounded corners*
20,1,$1+$1,$2,$3,$4,$5,0*
20,1,$1+$1,$4,$5,$6,$7,0*
20,1,$1+$1,$6,$7,$8,$9,0*
20,1,$1+$1,$8,$9,$2,$3,0*%
G04 Aperture macros list end*
%ADD10C,0.600000*%
%TA.AperFunction,NonConductor*%
%ADD11C,0.600000*%
%TD*%
%TA.AperFunction,ComponentPad*%
%ADD12C,1.600000*%
%TD*%
%TA.AperFunction,ComponentPad*%
%ADD13R,1.800000X1.800000*%
%TD*%
%TA.AperFunction,ComponentPad*%
%ADD14C,1.800000*%
%TD*%
%TA.AperFunction,ComponentPad*%
%ADD15R,1.700000X1.700000*%
%TD*%
%TA.AperFunction,ComponentPad*%
%ADD16O,1.700000X1.700000*%
%TD*%
%TA.AperFunction,ComponentPad*%
%ADD17O,1.600000X1.600000*%
%TD*%
%TA.AperFunction,ComponentPad*%
%ADD18R,2.400000X1.600000*%
%TD*%
%TA.AperFunction,ComponentPad*%
%ADD19O,2.400000X1.600000*%
%TD*%
%TA.AperFunction,ComponentPad*%
%ADD20R,1.600000X1.600000*%
%TD*%
%TA.AperFunction,ComponentPad*%
%ADD21C,7.000000*%
%TD*%
%TA.AperFunction,ComponentPad*%
%ADD22C,1.500000*%
%TD*%
%TA.AperFunction,ComponentPad*%
%ADD23C,1.600200*%
%TD*%
%TA.AperFunction,ComponentPad*%
%ADD24O,3.048000X1.524000*%
%TD*%
%TA.AperFunction,ComponentPad*%
%ADD25R,3.500000X3.500000*%
%TD*%
%TA.AperFunction,ComponentPad*%
%ADD26RoundRect,0.750000X0.750000X1.000000X-0.750000X1.000000X-0.750000X-1.000000X0.750000X-1.000000X0*%
%TD*%
%TA.AperFunction,ComponentPad*%
%ADD27RoundRect,0.875000X0.875000X0.875000X-0.875000X0.875000X-0.875000X-0.875000X0.875000X-0.875000X0*%
%TD*%
%TA.AperFunction,ComponentPad*%
%ADD28R,1.422400X1.422400*%
%TD*%
%TA.AperFunction,ComponentPad*%
%ADD29C,1.422400*%
%TD*%
%TA.AperFunction,ViaPad*%
%ADD30C,0.800000*%
%TD*%
%TA.AperFunction,Conductor*%
%ADD31C,0.250000*%
%TD*%
%TA.AperFunction,Conductor*%
%ADD32C,0.400000*%
%TD*%
%TA.AperFunction,Conductor*%
%ADD33C,0.300000*%
%TD*%
G04 APERTURE END LIST*
D10*
D11*
X93290953Y-52795347D02*
X93290953Y-51128680D01*
X93290953Y-51604871D02*
X93410000Y-51366776D01*
X93410000Y-51366776D02*
X93529048Y-51247728D01*
X93529048Y-51247728D02*
X93767143Y-51128680D01*
X93767143Y-51128680D02*
X94005238Y-51128680D01*
X96029048Y-50295347D02*
X94838572Y-50295347D01*
X94838572Y-50295347D02*
X94719524Y-51485823D01*
X94719524Y-51485823D02*
X94838572Y-51366776D01*
X94838572Y-51366776D02*
X95076667Y-51247728D01*
X95076667Y-51247728D02*
X95671905Y-51247728D01*
X95671905Y-51247728D02*
X95910000Y-51366776D01*
X95910000Y-51366776D02*
X96029048Y-51485823D01*
X96029048Y-51485823D02*
X96148095Y-51723919D01*
X96148095Y-51723919D02*
X96148095Y-52319157D01*
X96148095Y-52319157D02*
X96029048Y-52557252D01*
X96029048Y-52557252D02*
X95910000Y-52676300D01*
X95910000Y-52676300D02*
X95671905Y-52795347D01*
X95671905Y-52795347D02*
X95076667Y-52795347D01*
X95076667Y-52795347D02*
X94838572Y-52676300D01*
X94838572Y-52676300D02*
X94719524Y-52557252D01*
D12*
%TO.P,C9,1*%
%TO.N,GND*%
X91500000Y-114000000D03*
%TO.P,C9,2*%
%TO.N,VCC*%
X94000000Y-114000000D03*
%TD*%
%TO.P,C10,1*%
%TO.N,GND*%
X167000000Y-122030000D03*
%TO.P,C10,2*%
%TO.N,VCC*%
X169500000Y-122030000D03*
%TD*%
D13*
%TO.P,LED1,1,K*%
%TO.N,Net-(IC3-OP5)*%
X122000000Y-145000000D03*
D14*
%TO.P,LED1,2,A*%
%TO.N,Net-(LED1-A)*%
X124540000Y-145000000D03*
%TD*%
D12*
%TO.P,C19,1*%
%TO.N,VCC*%
X147610000Y-112030000D03*
%TO.P,C19,2*%
%TO.N,Net-(IC4-CV)*%
X150110000Y-112030000D03*
%TD*%
D15*
%TO.P,J1,1,Pin_1*%
%TO.N,GND*%
X96650000Y-144500000D03*
D16*
%TO.P,J1,2,Pin_2*%
%TO.N,RTSA*%
X99190000Y-144500000D03*
%TO.P,J1,3,Pin_3*%
%TO.N,VCCUA*%
X101730000Y-144500000D03*
%TO.P,J1,4,Pin_4*%
%TO.N,RXDA*%
X104270000Y-144500000D03*
%TO.P,J1,5,Pin_5*%
%TO.N,TXDA*%
X106810000Y-144500000D03*
%TO.P,J1,6,Pin_6*%
%TO.N,CTSA*%
X109350000Y-144500000D03*
%TD*%
D12*
%TO.P,C3,1*%
%TO.N,GND*%
X142108300Y-55500000D03*
%TO.P,C3,2*%
%TO.N,VCC*%
X144608300Y-55500000D03*
%TD*%
%TO.P,R9,1*%
%TO.N,Net-(S1-S)*%
X154140000Y-103000000D03*
D17*
%TO.P,R9,2*%
%TO.N,GND*%
X164300000Y-103000000D03*
%TD*%
D12*
%TO.P,C15,1*%
%TO.N,GND*%
X124910000Y-102670000D03*
%TO.P,C15,2*%
%TO.N,VCC*%
X127410000Y-102670000D03*
%TD*%
%TO.P,R10,1*%
%TO.N,VCC*%
X98550000Y-113830000D03*
D17*
%TO.P,R10,2*%
%TO.N,Net-(X1-EN)*%
X108710000Y-113830000D03*
%TD*%
D12*
%TO.P,C1,1*%
%TO.N,GND*%
X97858300Y-55500000D03*
%TO.P,C1,2*%
%TO.N,VCC*%
X100358300Y-55500000D03*
%TD*%
D18*
%TO.P,U4,1,~{Mr}*%
%TO.N,~{RESET}*%
X164450000Y-127130000D03*
D19*
%TO.P,U4,2,Q0*%
%TO.N,BANK0*%
X164450000Y-129670000D03*
%TO.P,U4,3,D0*%
%TO.N,D0*%
X164450000Y-132210000D03*
%TO.P,U4,4,D1*%
%TO.N,D1*%
X164450000Y-134750000D03*
%TO.P,U4,5,Q1*%
%TO.N,BANK1*%
X164450000Y-137290000D03*
%TO.P,U4,6,D2*%
%TO.N,D2*%
X164450000Y-139830000D03*
%TO.P,U4,7,Q2*%
%TO.N,BANK2*%
X164450000Y-142370000D03*
%TO.P,U4,8,GND*%
%TO.N,GND*%
X164450000Y-144910000D03*
%TO.P,U4,9,Cp*%
%TO.N,BANKCLK*%
X172070000Y-144910000D03*
%TO.P,U4,10,Q3*%
%TO.N,BANK3*%
X172070000Y-142370000D03*
%TO.P,U4,11,D3*%
%TO.N,D3*%
X172070000Y-139830000D03*
%TO.P,U4,12,Q4*%
%TO.N,BANK5*%
X172070000Y-137290000D03*
%TO.P,U4,13,D4*%
%TO.N,D5*%
X172070000Y-134750000D03*
%TO.P,U4,14,D5*%
%TO.N,D4*%
X172070000Y-132210000D03*
%TO.P,U4,15,Q5*%
%TO.N,BANK4*%
X172070000Y-129670000D03*
%TO.P,U4,16,VCC*%
%TO.N,VCC*%
X172070000Y-127130000D03*
%TD*%
D18*
%TO.P,U2,1,A14*%
%TO.N,GND*%
X157430000Y-60500000D03*
D19*
%TO.P,U2,2,A12*%
%TO.N,A12*%
X157430000Y-63040000D03*
%TO.P,U2,3,A7*%
%TO.N,A7*%
X157430000Y-65580000D03*
%TO.P,U2,4,A6*%
%TO.N,A6*%
X157430000Y-68120000D03*
%TO.P,U2,5,A5*%
%TO.N,A5*%
X157430000Y-70660000D03*
%TO.P,U2,6,A4*%
%TO.N,A4*%
X157430000Y-73200000D03*
%TO.P,U2,7,A3*%
%TO.N,A3*%
X157430000Y-75740000D03*
%TO.P,U2,8,A2*%
%TO.N,A2*%
X157430000Y-78280000D03*
%TO.P,U2,9,A1*%
%TO.N,A1*%
X157430000Y-80820000D03*
%TO.P,U2,10,A0*%
%TO.N,A0*%
X157430000Y-83360000D03*
%TO.P,U2,11,DQ0*%
%TO.N,D0*%
X157430000Y-85900000D03*
%TO.P,U2,12,DQ1*%
%TO.N,D1*%
X157430000Y-88440000D03*
%TO.P,U2,13,DQ2*%
%TO.N,D2*%
X157430000Y-90980000D03*
%TO.P,U2,14,VSS*%
%TO.N,GND*%
X157430000Y-93520000D03*
%TO.P,U2,15,DQ3*%
%TO.N,D3*%
X172670000Y-93520000D03*
%TO.P,U2,16,DQ4*%
%TO.N,D4*%
X172670000Y-90980000D03*
%TO.P,U2,17,DQ5*%
%TO.N,D5*%
X172670000Y-88440000D03*
%TO.P,U2,18,DQ6*%
%TO.N,D6*%
X172670000Y-85900000D03*
%TO.P,U2,19,DQ7*%
%TO.N,D7*%
X172670000Y-83360000D03*
%TO.P,U2,20,CE#*%
%TO.N,~{LOWRAM}*%
X172670000Y-80820000D03*
%TO.P,U2,21,A10*%
%TO.N,A10*%
X172670000Y-78280000D03*
%TO.P,U2,22,OE#*%
%TO.N,~{RD}*%
X172670000Y-75740000D03*
%TO.P,U2,23,A11*%
%TO.N,A11*%
X172670000Y-73200000D03*
%TO.P,U2,24,A9*%
%TO.N,A9*%
X172670000Y-70660000D03*
%TO.P,U2,25,A8*%
%TO.N,A8*%
X172670000Y-68120000D03*
%TO.P,U2,26,A13*%
%TO.N,A13*%
X172670000Y-65580000D03*
%TO.P,U2,27,WE#*%
%TO.N,~{WR}*%
X172670000Y-63040000D03*
%TO.P,U2,28,VCC*%
%TO.N,VCC*%
X172670000Y-60500000D03*
%TD*%
D18*
%TO.P,IC2,1,I1/CLK*%
%TO.N,A15*%
X138250000Y-117030000D03*
D19*
%TO.P,IC2,2,I2*%
%TO.N,A14*%
X138250000Y-119570000D03*
%TO.P,IC2,3,I3*%
%TO.N,A13*%
X138250000Y-122110000D03*
%TO.P,IC2,4,I4/PD*%
%TO.N,A12*%
X138250000Y-124650000D03*
%TO.P,IC2,5,I5*%
%TO.N,A11*%
X138250000Y-127190000D03*
%TO.P,IC2,6,I6*%
%TO.N,A10*%
X138250000Y-129730000D03*
%TO.P,IC2,7,I7*%
%TO.N,A9*%
X138250000Y-132270000D03*
%TO.P,IC2,8,I8*%
%TO.N,A8*%
X138250000Y-134810000D03*
%TO.P,IC2,9,I9*%
%TO.N,A7*%
X138250000Y-137350000D03*
%TO.P,IC2,10,I10*%
%TO.N,A6*%
X138250000Y-139890000D03*
%TO.P,IC2,11,I11*%
%TO.N,A5*%
X138250000Y-142430000D03*
%TO.P,IC2,12,GND*%
%TO.N,GND*%
X138250000Y-144970000D03*
%TO.P,IC2,13,I13*%
%TO.N,A4*%
X145870000Y-144970000D03*
%TO.P,IC2,14,IO1*%
%TO.N,A3*%
X145870000Y-142430000D03*
%TO.P,IC2,15,IO2*%
%TO.N,A2*%
X145870000Y-139890000D03*
%TO.P,IC2,16,IO3*%
%TO.N,A1*%
X145870000Y-137350000D03*
%TO.P,IC2,17,I04*%
%TO.N,A0*%
X145870000Y-134810000D03*
%TO.P,IC2,18,IO5*%
%TO.N,~{LOWRAM}*%
X145870000Y-132270000D03*
%TO.P,IC2,19,IO6*%
%TO.N,~{BANKRAM}*%
X145870000Y-129730000D03*
%TO.P,IC2,20,IO7*%
%TO.N,~{IO}*%
X145870000Y-127190000D03*
%TO.P,IC2,21,IO8*%
%TO.N,~{ROM}*%
X145870000Y-124650000D03*
%TO.P,IC2,22,IO9*%
%TO.N,BANKSEL*%
X145870000Y-122110000D03*
%TO.P,IC2,23,IO10*%
%TO.N,~{DUASEL}*%
X145870000Y-119570000D03*
%TO.P,IC2,24,VCC*%
%TO.N,VCC*%
X145870000Y-117030000D03*
%TD*%
D20*
%TO.P,X1,1,EN*%
%TO.N,Net-(X1-EN)*%
X113000000Y-112310000D03*
D12*
%TO.P,X1,4,GND*%
%TO.N,GND*%
X120620000Y-112310000D03*
%TO.P,X1,5,OUT*%
%TO.N,CLK*%
X120620000Y-104690000D03*
%TO.P,X1,8,Vcc*%
%TO.N,VCC*%
X113000000Y-104690000D03*
%TD*%
%TO.P,R1,1*%
%TO.N,VCC*%
X88000000Y-60580000D03*
D17*
%TO.P,R1,2*%
%TO.N,RDY*%
X88000000Y-70740000D03*
%TD*%
D21*
%TO.P,H4,1,1*%
%TO.N,GND*%
X179550000Y-144550000D03*
%TD*%
D20*
%TO.P,C20,1*%
%TO.N,Net-(IC4-THR)*%
X170000000Y-103000000D03*
D12*
%TO.P,C20,2*%
%TO.N,GND*%
X172500000Y-103000000D03*
%TD*%
D15*
%TO.P,J3,1,Pin_1*%
%TO.N,SPICS*%
X117000000Y-119650000D03*
D16*
%TO.P,J3,2,Pin_2*%
%TO.N,SPICLK*%
X117000000Y-122190000D03*
%TO.P,J3,3,Pin_3*%
%TO.N,SPIMOSI*%
X117000000Y-124730000D03*
%TO.P,J3,4,Pin_4*%
%TO.N,SPIMISO*%
X117000000Y-127270000D03*
%TO.P,J3,5,Pin_5*%
%TO.N,VCC*%
X117000000Y-129810000D03*
%TO.P,J3,6,Pin_6*%
%TO.N,GND*%
X117000000Y-132350000D03*
%TD*%
D15*
%TO.P,JP2,1,A*%
%TO.N,VCCUB*%
X87250000Y-112725000D03*
D16*
%TO.P,JP2,2,B*%
%TO.N,VCC*%
X87250000Y-115265000D03*
%TD*%
D12*
%TO.P,R8,1*%
%TO.N,Net-(IC4-THR)*%
X154140000Y-107000000D03*
D17*
%TO.P,R8,2*%
%TO.N,VCC*%
X164300000Y-107000000D03*
%TD*%
D22*
%TO.P,Q1,1,1*%
%TO.N,Net-(IC3-X1{slash}CLK)*%
X125550000Y-119000000D03*
%TO.P,Q1,2,2*%
%TO.N,Net-(IC3-X2)*%
X130430000Y-119000000D03*
%TD*%
D18*
%TO.P,IC5,1,I1/CLK*%
%TO.N,CLK*%
X151450000Y-117055000D03*
D19*
%TO.P,IC5,2,I2*%
%TO.N,~{DUADTACK}*%
X151450000Y-119595000D03*
%TO.P,IC5,3,I3*%
%TO.N,~{DUASEL}*%
X151450000Y-122135000D03*
%TO.P,IC5,4,I4/PD*%
%TO.N,R{slash}~{W}*%
X151450000Y-124675000D03*
%TO.P,IC5,5,I5*%
%TO.N,HWRST*%
X151450000Y-127215000D03*
%TO.P,IC5,6,I6*%
%TO.N,BANKSEL*%
X151450000Y-129755000D03*
%TO.P,IC5,7,I7*%
%TO.N,~{VP}*%
X151450000Y-132295000D03*
%TO.P,IC5,8,I8*%
%TO.N,~{ML}*%
X151450000Y-134835000D03*
%TO.P,IC5,9,I9*%
%TO.N,IRQ*%
X151450000Y-137375000D03*
%TO.P,IC5,10,I10*%
%TO.N,~{ROM}*%
X151450000Y-139915000D03*
%TO.P,IC5,11,I11*%
%TO.N,~{IO}*%
X151450000Y-142455000D03*
%TO.P,IC5,12,GND*%
%TO.N,GND*%
X151450000Y-144995000D03*
%TO.P,IC5,13,I13*%
%TO.N,unconnected-(IC5-I13-Pad13)*%
X159070000Y-144995000D03*
%TO.P,IC5,14,IO1*%
%TO.N,BANKCLK*%
X159070000Y-142455000D03*
%TO.P,IC5,15,IO2*%
%TO.N,unconnected-(IC5-IO2-Pad15)*%
X159070000Y-139915000D03*
%TO.P,IC5,16,IO3*%
%TO.N,unconnected-(IC5-IO3-Pad16)*%
X159070000Y-137375000D03*
%TO.P,IC5,17,I04*%
%TO.N,~{ROMOE}*%
X159070000Y-134835000D03*
%TO.P,IC5,18,IO5*%
%TO.N,unconnected-(IC5-IO5-Pad18)*%
X159070000Y-132295000D03*
%TO.P,IC5,19,IO6*%
%TO.N,NMI*%
X159070000Y-129755000D03*
%TO.P,IC5,20,IO7*%
%TO.N,~{RESET}*%
X159070000Y-127215000D03*
%TO.P,IC5,21,IO8*%
%TO.N,~{RD}*%
X159070000Y-124675000D03*
%TO.P,IC5,22,IO9*%
%TO.N,~{WR}*%
X159070000Y-122135000D03*
%TO.P,IC5,23,IO10*%
%TO.N,RDY*%
X159070000Y-119595000D03*
%TO.P,IC5,24,VCC*%
%TO.N,VCC*%
X159070000Y-117055000D03*
%TD*%
D12*
%TO.P,C4,1*%
%TO.N,GND*%
X163858300Y-55500000D03*
%TO.P,C4,2*%
%TO.N,VCC*%
X166358300Y-55500000D03*
%TD*%
%TO.P,C8,1*%
%TO.N,GND*%
X154500000Y-112030000D03*
%TO.P,C8,2*%
%TO.N,VCC*%
X157000000Y-112030000D03*
%TD*%
D21*
%TO.P,H1,1,1*%
%TO.N,GND*%
X88450000Y-53450000D03*
%TD*%
D12*
%TO.P,R4,1*%
%TO.N,VCC*%
X88000000Y-97920000D03*
D17*
%TO.P,R4,2*%
%TO.N,NMI*%
X88000000Y-108080000D03*
%TD*%
D23*
%TO.P,C13,1*%
%TO.N,GND*%
X121190000Y-126000000D03*
X123730000Y-126000000D03*
%TO.P,C13,2*%
%TO.N,Net-(IC3-X1{slash}CLK)*%
X126270000Y-126000000D03*
%TD*%
D12*
%TO.P,R3,1*%
%TO.N,VCC*%
X88000000Y-85500000D03*
D17*
%TO.P,R3,2*%
%TO.N,IRQ*%
X88000000Y-95660000D03*
%TD*%
D20*
%TO.P,C16,1*%
%TO.N,VCC*%
X103997621Y-54860000D03*
D12*
%TO.P,C16,2*%
%TO.N,GND*%
X106497621Y-54860000D03*
%TD*%
D15*
%TO.P,J5,1,Pin_1*%
%TO.N,A0*%
X178225000Y-63425000D03*
D16*
%TO.P,J5,2,Pin_2*%
%TO.N,VCC*%
X180765000Y-63425000D03*
%TO.P,J5,3,Pin_3*%
%TO.N,A1*%
X178225000Y-65965000D03*
%TO.P,J5,4,Pin_4*%
%TO.N,CLK*%
X180765000Y-65965000D03*
%TO.P,J5,5,Pin_5*%
%TO.N,A2*%
X178225000Y-68505000D03*
%TO.P,J5,6,Pin_6*%
%TO.N,GND*%
X180765000Y-68505000D03*
%TO.P,J5,7,Pin_7*%
%TO.N,A3*%
X178225000Y-71045000D03*
%TO.P,J5,8,Pin_8*%
%TO.N,R{slash}~{W}*%
X180765000Y-71045000D03*
%TO.P,J5,9,Pin_9*%
%TO.N,A4*%
X178225000Y-73585000D03*
%TO.P,J5,10,Pin_10*%
%TO.N,~{RESET}*%
X180765000Y-73585000D03*
%TO.P,J5,11,Pin_11*%
%TO.N,A5*%
X178225000Y-76125000D03*
%TO.P,J5,12,Pin_12*%
%TO.N,RDY*%
X180765000Y-76125000D03*
%TO.P,J5,13,Pin_13*%
%TO.N,A6*%
X178225000Y-78665000D03*
%TO.P,J5,14,Pin_14*%
%TO.N,NMI*%
X180765000Y-78665000D03*
%TO.P,J5,15,Pin_15*%
%TO.N,A7*%
X178225000Y-81205000D03*
%TO.P,J5,16,Pin_16*%
%TO.N,IRQ*%
X180765000Y-81205000D03*
%TO.P,J5,17,Pin_17*%
%TO.N,A8*%
X178225000Y-83745000D03*
%TO.P,J5,18,Pin_18*%
%TO.N,SYNC*%
X180765000Y-83745000D03*
%TO.P,J5,19,Pin_19*%
%TO.N,A9*%
X178225000Y-86285000D03*
%TO.P,J5,20,Pin_20*%
%TO.N,BE*%
X180765000Y-86285000D03*
%TO.P,J5,21,Pin_21*%
%TO.N,A10*%
X178225000Y-88825000D03*
%TO.P,J5,22,Pin_22*%
%TO.N,D7*%
X180765000Y-88825000D03*
%TO.P,J5,23,Pin_23*%
%TO.N,A11*%
X178225000Y-91365000D03*
%TO.P,J5,24,Pin_24*%
%TO.N,D6*%
X180765000Y-91365000D03*
%TO.P,J5,25,Pin_25*%
%TO.N,A12*%
X178225000Y-93905000D03*
%TO.P,J5,26,Pin_26*%
%TO.N,D5*%
X180765000Y-93905000D03*
%TO.P,J5,27,Pin_27*%
%TO.N,A13*%
X178225000Y-96445000D03*
%TO.P,J5,28,Pin_28*%
%TO.N,D4*%
X180765000Y-96445000D03*
%TO.P,J5,29,Pin_29*%
%TO.N,A14*%
X178225000Y-98985000D03*
%TO.P,J5,30,Pin_30*%
%TO.N,D3*%
X180765000Y-98985000D03*
%TO.P,J5,31,Pin_31*%
%TO.N,A15*%
X178225000Y-101525000D03*
%TO.P,J5,32,Pin_32*%
%TO.N,D2*%
X180765000Y-101525000D03*
%TO.P,J5,33,Pin_33*%
%TO.N,~{VP}*%
X178225000Y-104065000D03*
%TO.P,J5,34,Pin_34*%
%TO.N,D1*%
X180765000Y-104065000D03*
%TO.P,J5,35,Pin_35*%
%TO.N,~{ML}*%
X178225000Y-106605000D03*
%TO.P,J5,36,Pin_36*%
%TO.N,D0*%
X180765000Y-106605000D03*
%TD*%
D20*
%TO.P,C17,1*%
%TO.N,VCC*%
X176338600Y-124500000D03*
D12*
%TO.P,C17,2*%
%TO.N,GND*%
X178838600Y-124500000D03*
%TD*%
%TO.P,R7,1*%
%TO.N,VCC*%
X154140000Y-99000000D03*
D17*
%TO.P,R7,2*%
%TO.N,~{RESET}*%
X164300000Y-99000000D03*
%TD*%
D20*
%TO.P,IC4,1,GND*%
%TO.N,GND*%
X129700000Y-103700000D03*
D17*
%TO.P,IC4,2,TR*%
%TO.N,Net-(IC4-THR)*%
X129700000Y-106240000D03*
%TO.P,IC4,3,Q*%
%TO.N,HWRST*%
X129700000Y-108780000D03*
%TO.P,IC4,4,R*%
%TO.N,VCC*%
X129700000Y-111320000D03*
%TO.P,IC4,5,CV*%
%TO.N,Net-(IC4-CV)*%
X137320000Y-111320000D03*
%TO.P,IC4,6,THR*%
%TO.N,Net-(IC4-THR)*%
X137320000Y-108780000D03*
%TO.P,IC4,7,DIS*%
%TO.N,unconnected-(IC4-DIS-Pad7)*%
X137320000Y-106240000D03*
%TO.P,IC4,8,VCC*%
%TO.N,VCC*%
X137320000Y-103700000D03*
%TD*%
D15*
%TO.P,J2,1,Pin_1*%
%TO.N,GND*%
X87000000Y-121650000D03*
D16*
%TO.P,J2,2,Pin_2*%
%TO.N,RTSB*%
X87000000Y-124190000D03*
%TO.P,J2,3,Pin_3*%
%TO.N,VCCUB*%
X87000000Y-126730000D03*
%TO.P,J2,4,Pin_4*%
%TO.N,RXDB*%
X87000000Y-129270000D03*
%TO.P,J2,5,Pin_5*%
%TO.N,TXDB*%
X87000000Y-131810000D03*
%TO.P,J2,6,Pin_6*%
%TO.N,CTSB*%
X87000000Y-134350000D03*
%TD*%
D18*
%TO.P,U3,1,NC*%
%TO.N,unconnected-(U3-NC-Pad1)*%
X135470000Y-60500000D03*
D19*
%TO.P,U3,2,A16*%
%TO.N,Net-(JP4-Pin_4)*%
X135470000Y-63040000D03*
%TO.P,U3,3,A15*%
%TO.N,Net-(JP4-Pin_2)*%
X135470000Y-65580000D03*
%TO.P,U3,4,A12*%
%TO.N,A12*%
X135470000Y-68120000D03*
%TO.P,U3,5,A7*%
%TO.N,A7*%
X135470000Y-70660000D03*
%TO.P,U3,6,A6*%
%TO.N,A6*%
X135470000Y-73200000D03*
%TO.P,U3,7,A5*%
%TO.N,A5*%
X135470000Y-75740000D03*
%TO.P,U3,8,A4*%
%TO.N,A4*%
X135470000Y-78280000D03*
%TO.P,U3,9,A3*%
%TO.N,A3*%
X135470000Y-80820000D03*
%TO.P,U3,10,A2*%
%TO.N,A2*%
X135470000Y-83360000D03*
%TO.P,U3,11,A1*%
%TO.N,A1*%
X135470000Y-85900000D03*
%TO.P,U3,12,A0*%
%TO.N,A0*%
X135470000Y-88440000D03*
%TO.P,U3,13,D0*%
%TO.N,D0*%
X135470000Y-90980000D03*
%TO.P,U3,14,D1*%
%TO.N,D1*%
X135470000Y-93520000D03*
%TO.P,U3,15,D2*%
%TO.N,D2*%
X135470000Y-96060000D03*
%TO.P,U3,16,GND*%
%TO.N,GND*%
X135470000Y-98600000D03*
%TO.P,U3,17,D3*%
%TO.N,D3*%
X150710000Y-98600000D03*
%TO.P,U3,18,D4*%
%TO.N,D4*%
X150710000Y-96060000D03*
%TO.P,U3,19,D5*%
%TO.N,D5*%
X150710000Y-93520000D03*
%TO.P,U3,20,D6*%
%TO.N,D6*%
X150710000Y-90980000D03*
%TO.P,U3,21,D7*%
%TO.N,D7*%
X150710000Y-88440000D03*
%TO.P,U3,22,CE*%
%TO.N,~{ROMOE}*%
X150710000Y-85900000D03*
%TO.P,U3,23,A10*%
%TO.N,A10*%
X150710000Y-83360000D03*
%TO.P,U3,24,OE*%
%TO.N,~{RD}*%
X150710000Y-80820000D03*
%TO.P,U3,25,A11*%
%TO.N,A11*%
X150710000Y-78280000D03*
%TO.P,U3,26,A9*%
%TO.N,A9*%
X150710000Y-75740000D03*
%TO.P,U3,27,A8*%
%TO.N,A8*%
X150710000Y-73200000D03*
%TO.P,U3,28,A13*%
%TO.N,BANK4*%
X150710000Y-70660000D03*
%TO.P,U3,29,A14*%
%TO.N,BANK5*%
X150710000Y-68120000D03*
%TO.P,U3,30,NC*%
%TO.N,unconnected-(U3-NC-Pad30)*%
X150710000Y-65580000D03*
%TO.P,U3,31,PGM*%
%TO.N,~{WR}*%
X150710000Y-63040000D03*
%TO.P,U3,32,VCC*%
%TO.N,VCC*%
X150710000Y-60500000D03*
%TD*%
D12*
%TO.P,R15,1*%
%TO.N,Net-(JP4-Pin_2)*%
X132100000Y-64080000D03*
D17*
%TO.P,R15,2*%
%TO.N,GND*%
X132100000Y-74240000D03*
%TD*%
D23*
%TO.P,C14,1*%
%TO.N,GND*%
X129190000Y-126000000D03*
X131730000Y-126000000D03*
%TO.P,C14,2*%
%TO.N,Net-(IC3-X2)*%
X134270000Y-126000000D03*
%TD*%
D24*
%TO.P,S1,1,S*%
%TO.N,Net-(S1-S)*%
X141788800Y-103739400D03*
%TO.P,S1,2,S1*%
%TO.N,unconnected-(S1-S1-Pad2)*%
X148291200Y-103739400D03*
%TO.P,S1,3,P*%
%TO.N,Net-(IC4-THR)*%
X141788800Y-108260600D03*
%TO.P,S1,4,P1*%
%TO.N,unconnected-(S1-P1-Pad4)*%
X148291200Y-108260600D03*
%TD*%
D15*
%TO.P,JP4,1,Pin_1*%
%TO.N,VCC*%
X113020000Y-54340000D03*
D16*
%TO.P,JP4,2,Pin_2*%
%TO.N,Net-(JP4-Pin_2)*%
X115560000Y-54340000D03*
%TO.P,JP4,3,Pin_3*%
%TO.N,VCC*%
X113020000Y-56880000D03*
%TO.P,JP4,4,Pin_4*%
%TO.N,Net-(JP4-Pin_4)*%
X115560000Y-56880000D03*
%TD*%
D20*
%TO.P,C18,1*%
%TO.N,VCC*%
X178000000Y-132000000D03*
D12*
%TO.P,C18,2*%
%TO.N,GND*%
X180500000Y-132000000D03*
%TD*%
D21*
%TO.P,H3,1,1*%
%TO.N,GND*%
X88450000Y-144550000D03*
%TD*%
D15*
%TO.P,JP1,1,A*%
%TO.N,VCCUA*%
X116000000Y-142725000D03*
D16*
%TO.P,JP1,2,B*%
%TO.N,VCC*%
X116000000Y-145265000D03*
%TD*%
D21*
%TO.P,H2,1,1*%
%TO.N,GND*%
X179550000Y-53450000D03*
%TD*%
D12*
%TO.P,R5,1*%
%TO.N,Net-(LED1-A)*%
X122695000Y-134743900D03*
D17*
%TO.P,R5,2*%
%TO.N,VCC*%
X132855000Y-134743900D03*
%TD*%
D12*
%TO.P,R12,1*%
%TO.N,VCC*%
X132855000Y-130987800D03*
D17*
%TO.P,R12,2*%
%TO.N,Net-(IC3-\u002AIACK)*%
X122695000Y-130987800D03*
%TD*%
D12*
%TO.P,R6,1*%
%TO.N,VCC*%
X122695000Y-138500000D03*
D17*
%TO.P,R6,2*%
%TO.N,Net-(LED2-A)*%
X132855000Y-138500000D03*
%TD*%
D25*
%TO.P,J7,1*%
%TO.N,VCC*%
X169320000Y-114957500D03*
D26*
%TO.P,J7,2*%
%TO.N,GND*%
X175320000Y-114957500D03*
D27*
%TO.P,J7,3*%
%TO.N,N/C*%
X172320000Y-110257500D03*
%TD*%
D15*
%TO.P,J4,1,Pin_1*%
%TO.N,SPICS2*%
X117000000Y-137500000D03*
%TD*%
D28*
%TO.P,IC3,1,NC*%
%TO.N,unconnected-(IC3-NC-Pad1)*%
X103270000Y-121650000D03*
D29*
%TO.P,IC3,2,A1*%
%TO.N,A0*%
X100730000Y-119110000D03*
%TO.P,IC3,3,IP3*%
%TO.N,GND*%
X100730000Y-121650000D03*
%TO.P,IC3,4,A2*%
%TO.N,A1*%
X98190000Y-119110000D03*
%TO.P,IC3,5,IP1*%
%TO.N,CTSB*%
X98190000Y-121650000D03*
%TO.P,IC3,6,A3*%
%TO.N,A2*%
X95650000Y-119110000D03*
%TO.P,IC3,7,A4*%
%TO.N,A3*%
X93110000Y-121650000D03*
%TO.P,IC3,8,IP0*%
%TO.N,CTSA*%
X95650000Y-121650000D03*
%TO.P,IC3,9,\u002AR/\u002AW*%
%TO.N,R{slash}~{W}*%
X93110000Y-124190000D03*
%TO.P,IC3,10,\u002ADTALK*%
%TO.N,~{DUADTACK}*%
X95650000Y-124190000D03*
%TO.P,IC3,11,RXDB*%
%TO.N,RXDB*%
X93110000Y-126730000D03*
%TO.P,IC3,12,NC*%
%TO.N,unconnected-(IC3-NC-Pad12)*%
X95650000Y-126730000D03*
%TO.P,IC3,13,TXDB*%
%TO.N,TXDB*%
X93110000Y-129270000D03*
%TO.P,IC3,14,OP1*%
%TO.N,RTSB*%
X95650000Y-129270000D03*
%TO.P,IC3,15,OP3*%
%TO.N,Net-(IC3-OP3)*%
X93110000Y-131810000D03*
%TO.P,IC3,16,OP5*%
%TO.N,Net-(IC3-OP5)*%
X95650000Y-131810000D03*
%TO.P,IC3,17,OP7*%
%TO.N,SPICS2*%
X93110000Y-134350000D03*
%TO.P,IC3,18,D1*%
%TO.N,D1*%
X95650000Y-136890000D03*
%TO.P,IC3,19,D3*%
%TO.N,D3*%
X95650000Y-134350000D03*
%TO.P,IC3,20,D5*%
%TO.N,D5*%
X98190000Y-136890000D03*
%TO.P,IC3,21,D7*%
%TO.N,D7*%
X98190000Y-134350000D03*
%TO.P,IC3,22,GND*%
%TO.N,GND*%
X100730000Y-136890000D03*
%TO.P,IC3,23,NC*%
%TO.N,unconnected-(IC3-NC-Pad23)*%
X100730000Y-134350000D03*
%TO.P,IC3,24,INTR*%
%TO.N,IRQ*%
X103270000Y-136890000D03*
%TO.P,IC3,25,D6*%
%TO.N,D6*%
X103270000Y-134350000D03*
%TO.P,IC3,26,D4*%
%TO.N,D4*%
X105810000Y-136890000D03*
%TO.P,IC3,27,D2*%
%TO.N,D2*%
X105810000Y-134350000D03*
%TO.P,IC3,28,D0*%
%TO.N,D0*%
X108350000Y-136890000D03*
%TO.P,IC3,29,OP6*%
%TO.N,SPIMOSI*%
X110890000Y-134350000D03*
%TO.P,IC3,30,OP4*%
%TO.N,SPICLK*%
X108350000Y-134350000D03*
%TO.P,IC3,31,OP2*%
%TO.N,SPICS*%
X110890000Y-131810000D03*
%TO.P,IC3,32,OP0*%
%TO.N,RTSA*%
X108350000Y-131810000D03*
%TO.P,IC3,33,TXDA*%
%TO.N,TXDA*%
X110890000Y-129270000D03*
%TO.P,IC3,34,NC*%
%TO.N,unconnected-(IC3-NC-Pad34)*%
X108350000Y-129270000D03*
%TO.P,IC3,35,RXDA*%
%TO.N,RXDA*%
X110890000Y-126730000D03*
%TO.P,IC3,36,X1/CLK*%
%TO.N,Net-(IC3-X1{slash}CLK)*%
X108350000Y-126730000D03*
%TO.P,IC3,37,X2*%
%TO.N,Net-(IC3-X2)*%
X110890000Y-124190000D03*
%TO.P,IC3,38,\u002ARESET*%
%TO.N,~{RESET}*%
X108350000Y-124190000D03*
%TO.P,IC3,39,CS*%
%TO.N,~{DUASEL}*%
X110890000Y-121650000D03*
%TO.P,IC3,40,IP2*%
%TO.N,SPIMISO*%
X108350000Y-119110000D03*
%TO.P,IC3,41,\u002AIACK*%
%TO.N,Net-(IC3-\u002AIACK)*%
X108350000Y-121650000D03*
%TO.P,IC3,42,IP5*%
%TO.N,unconnected-(IC3-IP5-Pad42)*%
X105810000Y-119110000D03*
%TO.P,IC3,43,IP4*%
%TO.N,unconnected-(IC3-IP4-Pad43)*%
X105810000Y-121650000D03*
%TO.P,IC3,44,VCC*%
%TO.N,VCC*%
X103270000Y-119110000D03*
%TD*%
D12*
%TO.P,R11,1*%
%TO.N,VCC*%
X163080000Y-109560000D03*
D17*
%TO.P,R11,2*%
%TO.N,~{DUADTACK}*%
X163080000Y-119720000D03*
%TD*%
D12*
%TO.P,C2,1*%
%TO.N,GND*%
X119875000Y-55500000D03*
%TO.P,C2,2*%
%TO.N,VCC*%
X122375000Y-55500000D03*
%TD*%
%TO.P,C11,1*%
%TO.N,GND*%
X125500000Y-109750000D03*
%TO.P,C11,2*%
%TO.N,VCC*%
X125500000Y-107250000D03*
%TD*%
%TO.P,C12,1*%
%TO.N,GND*%
X141000000Y-112030000D03*
%TO.P,C12,2*%
%TO.N,VCC*%
X143500000Y-112030000D03*
%TD*%
%TO.P,R2,1*%
%TO.N,VCC*%
X88000000Y-73000000D03*
D17*
%TO.P,R2,2*%
%TO.N,BE*%
X88000000Y-83160000D03*
%TD*%
D15*
%TO.P,J6,1,Pin_1*%
%TO.N,VCC*%
X178015000Y-138330000D03*
D16*
%TO.P,J6,2,Pin_2*%
%TO.N,GND*%
X180555000Y-138330000D03*
%TD*%
D18*
%TO.P,IC1,1,~{VP}*%
%TO.N,~{VP}*%
X91608300Y-60500000D03*
D19*
%TO.P,IC1,2,RDY*%
%TO.N,RDY*%
X91608300Y-63040000D03*
%TO.P,IC1,3,\u03D51*%
%TO.N,unconnected-(IC1-\u03D51-Pad3)*%
X91608300Y-65580000D03*
%TO.P,IC1,4,~{IRQ}*%
%TO.N,IRQ*%
X91608300Y-68120000D03*
%TO.P,IC1,5,~{ML}*%
%TO.N,~{ML}*%
X91608300Y-70660000D03*
%TO.P,IC1,6,~{NMI}*%
%TO.N,NMI*%
X91608300Y-73200000D03*
%TO.P,IC1,7,SYNC*%
%TO.N,SYNC*%
X91608300Y-75740000D03*
%TO.P,IC1,8,VDD*%
%TO.N,VCC*%
X91608300Y-78280000D03*
%TO.P,IC1,9,A0*%
%TO.N,A0*%
X91608300Y-80820000D03*
%TO.P,IC1,10,A1*%
%TO.N,A1*%
X91608300Y-83360000D03*
%TO.P,IC1,11,A2*%
%TO.N,A2*%
X91608300Y-85900000D03*
%TO.P,IC1,12,A3*%
%TO.N,A3*%
X91608300Y-88440000D03*
%TO.P,IC1,13,A4*%
%TO.N,A4*%
X91608300Y-90980000D03*
%TO.P,IC1,14,A5*%
%TO.N,A5*%
X91608300Y-93520000D03*
%TO.P,IC1,15,A6*%
%TO.N,A6*%
X91608300Y-96060000D03*
%TO.P,IC1,16,A7*%
%TO.N,A7*%
X91608300Y-98600000D03*
%TO.P,IC1,17,A8*%
%TO.N,A8*%
X91608300Y-101140000D03*
%TO.P,IC1,18,A9*%
%TO.N,A9*%
X91608300Y-103680000D03*
%TO.P,IC1,19,A10*%
%TO.N,A10*%
X91608300Y-106220000D03*
%TO.P,IC1,20,A11*%
%TO.N,A11*%
X91608300Y-108760000D03*
%TO.P,IC1,21,VSS*%
%TO.N,GND*%
X106848300Y-108760000D03*
%TO.P,IC1,22,A12*%
%TO.N,A12*%
X106848300Y-106220000D03*
%TO.P,IC1,23,A13*%
%TO.N,A13*%
X106848300Y-103680000D03*
%TO.P,IC1,24,A14*%
%TO.N,A14*%
X106848300Y-101140000D03*
%TO.P,IC1,25,A15*%
%TO.N,A15*%
X106848300Y-98600000D03*
%TO.P,IC1,26,D7*%
%TO.N,D7*%
X106848300Y-96060000D03*
%TO.P,IC1,27,D6*%
%TO.N,D6*%
X106848300Y-93520000D03*
%TO.P,IC1,28,D5*%
%TO.N,D5*%
X106848300Y-90980000D03*
%TO.P,IC1,29,D4*%
%TO.N,D4*%
X106848300Y-88440000D03*
%TO.P,IC1,30,D3*%
%TO.N,D3*%
X106848300Y-85900000D03*
%TO.P,IC1,31,D2*%
%TO.N,D2*%
X106848300Y-83360000D03*
%TO.P,IC1,32,D1*%
%TO.N,D1*%
X106848300Y-80820000D03*
%TO.P,IC1,33,D0*%
%TO.N,D0*%
X106848300Y-78280000D03*
%TO.P,IC1,34,R/~{W}*%
%TO.N,R{slash}~{W}*%
X106848300Y-75740000D03*
%TO.P,IC1,35,nc*%
%TO.N,unconnected-(IC1-nc-Pad35)*%
X106848300Y-73200000D03*
%TO.P,IC1,36,BE*%
%TO.N,BE*%
X106848300Y-70660000D03*
%TO.P,IC1,37,\u03D50*%
%TO.N,CLK*%
X106848300Y-68120000D03*
%TO.P,IC1,38,~{SO}*%
%TO.N,VCC*%
X106848300Y-65580000D03*
%TO.P,IC1,39,\u03D52*%
%TO.N,unconnected-(IC1-\u03D52-Pad39)*%
X106848300Y-63040000D03*
%TO.P,IC1,40,~{RES}*%
%TO.N,~{RESET}*%
X106848300Y-60500000D03*
%TD*%
D13*
%TO.P,LED2,1,K*%
%TO.N,Net-(IC3-OP3)*%
X131000000Y-145000000D03*
D14*
%TO.P,LED2,2,A*%
%TO.N,Net-(LED2-A)*%
X133540000Y-145000000D03*
%TD*%
D18*
%TO.P,U1,1,A18*%
%TO.N,BANK3*%
X113500000Y-60500000D03*
D19*
%TO.P,U1,2,A16*%
%TO.N,BANK1*%
X113500000Y-63040000D03*
%TO.P,U1,3,A14*%
%TO.N,A15*%
X113500000Y-65580000D03*
%TO.P,U1,4,A12*%
%TO.N,A12*%
X113500000Y-68120000D03*
%TO.P,U1,5,A7*%
%TO.N,A7*%
X113500000Y-70660000D03*
%TO.P,U1,6,A6*%
%TO.N,A6*%
X113500000Y-73200000D03*
%TO.P,U1,7,A5*%
%TO.N,A5*%
X113500000Y-75740000D03*
%TO.P,U1,8,A4*%
%TO.N,A4*%
X113500000Y-78280000D03*
%TO.P,U1,9,A3*%
%TO.N,A3*%
X113500000Y-80820000D03*
%TO.P,U1,10,A2*%
%TO.N,A2*%
X113500000Y-83360000D03*
%TO.P,U1,11,A1*%
%TO.N,A1*%
X113500000Y-85900000D03*
%TO.P,U1,12,A0*%
%TO.N,A0*%
X113500000Y-88440000D03*
%TO.P,U1,13,DQ0*%
%TO.N,D0*%
X113500000Y-90980000D03*
%TO.P,U1,14,DQ1*%
%TO.N,D1*%
X113500000Y-93520000D03*
%TO.P,U1,15,DQ2*%
%TO.N,D2*%
X113500000Y-96060000D03*
%TO.P,U1,16,VSS*%
%TO.N,GND*%
X113500000Y-98600000D03*
%TO.P,U1,17,DQ3*%
%TO.N,D3*%
X128740000Y-98600000D03*
%TO.P,U1,18,DQ4*%
%TO.N,D4*%
X128740000Y-96060000D03*
%TO.P,U1,19,DQ5*%
%TO.N,D5*%
X128740000Y-93520000D03*
%TO.P,U1,20,DQ6*%
%TO.N,D6*%
X128740000Y-90980000D03*
%TO.P,U1,21,DQ7*%
%TO.N,D7*%
X128740000Y-88440000D03*
%TO.P,U1,22,CE#*%
%TO.N,~{BANKRAM}*%
X128740000Y-85900000D03*
%TO.P,U1,23,A10*%
%TO.N,A10*%
X128740000Y-83360000D03*
%TO.P,U1,24,OE#*%
%TO.N,~{RD}*%
X128740000Y-80820000D03*
%TO.P,U1,25,A11*%
%TO.N,A11*%
X128740000Y-78280000D03*
%TO.P,U1,26,A9*%
%TO.N,A9*%
X128740000Y-75740000D03*
%TO.P,U1,27,A8*%
%TO.N,A8*%
X128740000Y-73200000D03*
%TO.P,U1,28,A13*%
%TO.N,A13*%
X128740000Y-70660000D03*
%TO.P,U1,29,WE#*%
%TO.N,~{WR}*%
X128740000Y-68120000D03*
%TO.P,U1,30,A17*%
%TO.N,BANK2*%
X128740000Y-65580000D03*
%TO.P,U1,31,A15*%
%TO.N,BANK0*%
X128740000Y-63040000D03*
%TO.P,U1,32,VCC*%
%TO.N,VCC*%
X128740000Y-60500000D03*
%TD*%
D12*
%TO.P,R14,1*%
%TO.N,Net-(JP4-Pin_4)*%
X137260000Y-57000000D03*
D17*
%TO.P,R14,2*%
%TO.N,GND*%
X127100000Y-57000000D03*
%TD*%
D30*
%TO.N,~{VP}*%
X155415879Y-60386154D03*
%TO.N,RDY*%
X150810000Y-55560000D03*
%TO.N,A12*%
X104173000Y-73875200D03*
X155867200Y-61945700D03*
%TO.N,A13*%
X137363300Y-75017300D03*
X149447400Y-72056100D03*
X152534305Y-68683895D03*
X138217500Y-98084500D03*
%TO.N,A14*%
X135495000Y-106062000D03*
%TO.N,~{ML}*%
X101032000Y-117755000D03*
%TO.N,SYNC*%
X100406000Y-92290400D03*
%TO.N,D5*%
X109213000Y-96194100D03*
X182119000Y-116490000D03*
%TO.N,A0*%
X119015000Y-119610000D03*
%TO.N,D4*%
X180710000Y-116490000D03*
X111402000Y-97043400D03*
%TO.N,A1*%
X97345300Y-88790000D03*
%TO.N,D3*%
X104824000Y-95474600D03*
%TO.N,D2*%
X170983500Y-100236800D03*
X116658200Y-101195000D03*
X134114300Y-101603300D03*
%TO.N,A3*%
X133782400Y-76658900D03*
X125414100Y-80792200D03*
X166086000Y-69975300D03*
X132509300Y-77441900D03*
%TO.N,D1*%
X94720800Y-87969600D03*
%TO.N,A4*%
X88170000Y-102280000D03*
X139208100Y-76449000D03*
%TO.N,A5*%
X159804000Y-75190900D03*
%TO.N,R{slash}~{W}*%
X167850000Y-60860000D03*
X145383200Y-101195000D03*
X127766100Y-105148600D03*
X102616000Y-75438000D03*
%TO.N,A6*%
X122305000Y-85972300D03*
%TO.N,A7*%
X169830000Y-54950002D03*
X124060000Y-109593000D03*
X183362500Y-63836700D03*
X169861300Y-59354500D03*
X159804000Y-60880100D03*
%TO.N,~{RD}*%
X155184400Y-123971300D03*
%TO.N,A8*%
X145074000Y-69969300D03*
X130150000Y-115075000D03*
%TO.N,A9*%
X146491600Y-74237100D03*
X134441500Y-119490000D03*
%TO.N,A10*%
X131551000Y-121195000D03*
%TO.N,A11*%
X134893000Y-122317000D03*
%TO.N,~{RESET}*%
X142180700Y-69854900D03*
X147489400Y-65570500D03*
X150198300Y-102919800D03*
%TO.N,~{LOWRAM}*%
X144110000Y-109250000D03*
X163736800Y-84049800D03*
X142720400Y-132514400D03*
X153369100Y-95082858D03*
X155197200Y-109180500D03*
X169856400Y-90301200D03*
%TO.N,~{BANKRAM}*%
X136750000Y-126270000D03*
%TO.N,~{DUASEL}*%
X118110000Y-112866000D03*
%TO.N,Net-(IC3-\u002AIACK)*%
X119006992Y-121553008D03*
%TO.N,TXDA*%
X113288000Y-134462000D03*
%TO.N,HWRST*%
X144504000Y-115980000D03*
%TO.N,BANK1*%
X154180000Y-58920000D03*
%TO.N,BANK5*%
X144209800Y-71904900D03*
%TO.N,BANK4*%
X144336100Y-73821100D03*
X155979600Y-136965600D03*
%TD*%
D31*
%TO.N,Net-(IC3-X1{slash}CLK)*%
X123806000Y-128464000D02*
X126270000Y-126000000D01*
X114769000Y-128464000D02*
X123806000Y-128464000D01*
X114071000Y-127766000D02*
X114769000Y-128464000D01*
X109386000Y-127766000D02*
X114071000Y-127766000D01*
X108350000Y-126730000D02*
X109386000Y-127766000D01*
%TO.N,Net-(IC3-X2)*%
X134270000Y-126000000D02*
X132300000Y-124030000D01*
X111525000Y-123555000D02*
X110890000Y-124190000D01*
X117894000Y-123555000D02*
X111525000Y-123555000D01*
X132300000Y-124030000D02*
X118369000Y-124030000D01*
X118369000Y-124030000D02*
X117894000Y-123555000D01*
%TO.N,~{VP}*%
X115586396Y-66850000D02*
X123061396Y-59375000D01*
X155655000Y-120865000D02*
X164231000Y-120865000D01*
X123061396Y-59375000D02*
X152258984Y-59375000D01*
X164930000Y-120166000D02*
X164930000Y-112770000D01*
X152258984Y-59375000D02*
X153270138Y-60386154D01*
X174610000Y-107680000D02*
X178225000Y-104065000D01*
X164231000Y-120865000D02*
X164930000Y-120166000D01*
X91608300Y-60500000D02*
X90083000Y-62025300D01*
X151450000Y-132295000D02*
X153115000Y-130630000D01*
X103991000Y-69278400D02*
X108876000Y-69278400D01*
X111304000Y-66850000D02*
X115586396Y-66850000D01*
X108876000Y-69278400D02*
X111304000Y-66850000D01*
X98890900Y-64178100D02*
X103991000Y-69278400D01*
X90083000Y-62025300D02*
X90083000Y-63573500D01*
X90083000Y-63573500D02*
X90687600Y-64178100D01*
X90687600Y-64178100D02*
X98890900Y-64178100D01*
X153115000Y-130630000D02*
X153115000Y-123405000D01*
X153270138Y-60386154D02*
X155415879Y-60386154D01*
X170020000Y-107680000D02*
X174610000Y-107680000D01*
X164930000Y-112770000D02*
X170020000Y-107680000D01*
X153115000Y-123405000D02*
X155655000Y-120865000D01*
%TO.N,RDY*%
X98970000Y-51480000D02*
X146730000Y-51480000D01*
X176005000Y-56685000D02*
X151935000Y-56685000D01*
X182580000Y-63260000D02*
X176005000Y-56685000D01*
X93133300Y-61515000D02*
X93133300Y-57316700D01*
X182580000Y-74310000D02*
X182580000Y-63260000D01*
X180765000Y-76125000D02*
X182580000Y-74310000D01*
X93133300Y-57316700D02*
X98970000Y-51480000D01*
X146730000Y-51480000D02*
X150810000Y-55560000D01*
X151935000Y-56685000D02*
X150810000Y-55560000D01*
X91608300Y-63040000D02*
X93133300Y-61515000D01*
%TO.N,A12*%
X136210000Y-122610000D02*
X138250000Y-124650000D01*
X106263000Y-71785400D02*
X104173000Y-73875200D01*
X105671000Y-114991000D02*
X118807396Y-114991000D01*
X118807396Y-114991000D02*
X119666396Y-115850000D01*
X155867200Y-61945700D02*
X155802300Y-61880800D01*
X104295966Y-108772334D02*
X104295966Y-113615966D01*
X119666396Y-115850000D02*
X132690000Y-115850000D01*
X118835000Y-64310000D02*
X129960000Y-64310000D01*
X111975000Y-68120000D02*
X108309000Y-71785400D01*
X129960000Y-64310000D02*
X133770000Y-68120000D01*
X104295966Y-113615966D02*
X105671000Y-114991000D01*
X155802300Y-61880800D02*
X143236100Y-61880800D01*
X113500000Y-68120000D02*
X111975000Y-68120000D01*
X113551000Y-68120000D02*
X115025000Y-68120000D01*
X143236100Y-61880800D02*
X136996900Y-68120000D01*
X106848300Y-106220000D02*
X104295966Y-108772334D01*
X136210000Y-119370000D02*
X136210000Y-122610000D01*
X115025000Y-68120000D02*
X118835000Y-64310000D01*
X108309000Y-71785400D02*
X106263000Y-71785400D01*
X132690000Y-115850000D02*
X136210000Y-119370000D01*
X135470000Y-68120000D02*
X136996900Y-68120000D01*
X133770000Y-68120000D02*
X135470000Y-68120000D01*
%TO.N,Net-(IC4-CV)*%
X148140000Y-110060000D02*
X150110000Y-112030000D01*
X138580000Y-110060000D02*
X148140000Y-110060000D01*
X137320000Y-111320000D02*
X138580000Y-110060000D01*
%TO.N,A13*%
X152974500Y-96320700D02*
X151965200Y-97330000D01*
X171000000Y-66850000D02*
X155763900Y-66850000D01*
X155763900Y-66850000D02*
X153930005Y-68683895D01*
X151965200Y-97330000D02*
X148656900Y-97330000D01*
X149447400Y-72381100D02*
X149447400Y-72056100D01*
X177048100Y-96445000D02*
X177048100Y-95871200D01*
X131776396Y-114300000D02*
X129828984Y-114300000D01*
X136660000Y-119183604D02*
X131776396Y-114300000D01*
X177048100Y-95871200D02*
X173537000Y-92360100D01*
X165644200Y-96320700D02*
X152974500Y-96320700D01*
X148656900Y-97330000D02*
X147902400Y-98084500D01*
X129828984Y-114300000D02*
X129588984Y-114540000D01*
X137850000Y-122110000D02*
X136660000Y-120920000D01*
X173537000Y-92360100D02*
X169604800Y-92360100D01*
X110329000Y-108551792D02*
X109840000Y-108062792D01*
X169604800Y-92360100D02*
X165644200Y-96320700D01*
X119180188Y-114091000D02*
X111087396Y-114091000D01*
X109840000Y-106271700D02*
X107248300Y-103680000D01*
X172270000Y-65580000D02*
X171000000Y-66850000D01*
X178225000Y-96445000D02*
X177048100Y-96445000D01*
X109840000Y-108062792D02*
X109840000Y-106271700D01*
X153930005Y-68683895D02*
X152534305Y-68683895D01*
X136660000Y-120920000D02*
X136660000Y-119183604D01*
X110329000Y-113332604D02*
X110329000Y-108551792D01*
X111087396Y-114091000D02*
X110329000Y-113332604D01*
X119629188Y-114540000D02*
X119180188Y-114091000D01*
X146811200Y-75017300D02*
X149447400Y-72381100D01*
X137363300Y-75017300D02*
X146811200Y-75017300D01*
X129588984Y-114540000D02*
X119629188Y-114540000D01*
X147902400Y-98084500D02*
X138217500Y-98084500D01*
%TO.N,IRQ*%
X103270000Y-136890000D02*
X106340000Y-139960000D01*
X155330000Y-129910000D02*
X156840000Y-128400000D01*
X147548000Y-141052000D02*
X148590000Y-140010000D01*
X148590000Y-138680000D02*
X149895000Y-137375000D01*
X167410000Y-112580000D02*
X173444000Y-112580000D01*
X155330000Y-134430000D02*
X155330000Y-129910000D01*
X176014000Y-110010000D02*
X177237000Y-110010000D01*
X165875000Y-121372000D02*
X165860000Y-121356000D01*
X165677000Y-128400000D02*
X166500000Y-127577000D01*
X135482000Y-141052000D02*
X147548000Y-141052000D01*
X166500000Y-127577000D02*
X166500000Y-123500000D01*
X165860000Y-121356000D02*
X165860000Y-114130000D01*
X165860000Y-114130000D02*
X167410000Y-112580000D01*
X165875000Y-122875000D02*
X165875000Y-121372000D01*
X166500000Y-123500000D02*
X165875000Y-122875000D01*
X179590000Y-107658000D02*
X179590000Y-106079000D01*
X152385000Y-137375000D02*
X155330000Y-134430000D01*
X182457000Y-104107000D02*
X182457000Y-82896700D01*
X106340000Y-139960000D02*
X134390000Y-139960000D01*
X177237000Y-110010000D02*
X179590000Y-107658000D01*
X156840000Y-128400000D02*
X165677000Y-128400000D01*
X179590000Y-106079000D02*
X180334000Y-105335000D01*
X180334000Y-105335000D02*
X181229000Y-105335000D01*
X181229000Y-105335000D02*
X182457000Y-104107000D01*
X149895000Y-137375000D02*
X151450000Y-137375000D01*
X182457000Y-82896700D02*
X180765000Y-81205000D01*
X148590000Y-140010000D02*
X148590000Y-138680000D01*
X173444000Y-112580000D02*
X176014000Y-110010000D01*
X134390000Y-139960000D02*
X135482000Y-141052000D01*
%TO.N,A14*%
X110779000Y-113146208D02*
X110779000Y-108365396D01*
X119815584Y-114090000D02*
X119366584Y-113641000D01*
X110290000Y-107876396D02*
X110290000Y-104181700D01*
X110779000Y-108365396D02*
X110290000Y-107876396D01*
X129402588Y-114090000D02*
X119815584Y-114090000D01*
X119366584Y-113641000D02*
X111273792Y-113641000D01*
X111273792Y-113641000D02*
X110779000Y-113146208D01*
X137682792Y-119570000D02*
X131962792Y-113850000D01*
X129642588Y-113850000D02*
X129402588Y-114090000D01*
X157830000Y-105020000D02*
X161700000Y-101150000D01*
X110290000Y-104181700D02*
X107248300Y-101140000D01*
X135495000Y-106062000D02*
X136537000Y-105020000D01*
X167395000Y-98985000D02*
X178225000Y-98985000D01*
X165230000Y-101150000D02*
X167395000Y-98985000D01*
X131962792Y-113850000D02*
X129642588Y-113850000D01*
X161700000Y-101150000D02*
X165230000Y-101150000D01*
X136537000Y-105020000D02*
X157830000Y-105020000D01*
%TO.N,~{ML}*%
X135948000Y-125387000D02*
X133561000Y-123000000D01*
X160538000Y-125945000D02*
X165380000Y-121103000D01*
X147615000Y-131000000D02*
X137517000Y-131000000D01*
X135948000Y-129431000D02*
X135948000Y-125387000D01*
X153565000Y-132720000D02*
X153565000Y-126905000D01*
X165380000Y-112956000D02*
X170206000Y-108130000D01*
X170206000Y-108130000D02*
X176700000Y-108130000D01*
X137517000Y-131000000D02*
X135948000Y-129431000D01*
X151450000Y-134835000D02*
X153565000Y-132720000D01*
X153565000Y-126905000D02*
X154525000Y-125945000D01*
X101347000Y-117440000D02*
X101032000Y-117755000D01*
X117871000Y-117440000D02*
X101347000Y-117440000D01*
X151450000Y-134835000D02*
X147615000Y-131000000D01*
X123431000Y-123000000D02*
X117871000Y-117440000D01*
X154525000Y-125945000D02*
X160538000Y-125945000D01*
X176700000Y-108130000D02*
X178225000Y-106605000D01*
X165380000Y-121103000D02*
X165380000Y-112956000D01*
X133561000Y-123000000D02*
X123431000Y-123000000D01*
%TO.N,A15*%
X106848300Y-98600000D02*
X108374000Y-98600000D01*
X141000000Y-118254000D02*
X139775000Y-117030000D01*
X111340000Y-101566000D02*
X111340000Y-107550000D01*
X108374000Y-98600000D02*
X111340000Y-101566000D01*
X154076000Y-118254000D02*
X141000000Y-118254000D01*
X112290000Y-108500000D02*
X126258000Y-108500000D01*
X176935000Y-101525000D02*
X171260000Y-107200000D01*
X169010000Y-107200000D02*
X165380000Y-110830000D01*
X165380000Y-110830000D02*
X161500000Y-110830000D01*
X137547000Y-116327000D02*
X138250000Y-117030000D01*
X136725000Y-116327000D02*
X137547000Y-116327000D01*
X178225000Y-101525000D02*
X176935000Y-101525000D01*
X130448000Y-110050000D02*
X136725000Y-116327000D01*
X127808000Y-110050000D02*
X130448000Y-110050000D01*
X126258000Y-108500000D02*
X127808000Y-110050000D01*
X171260000Y-107200000D02*
X169010000Y-107200000D01*
X161500000Y-110830000D02*
X154076000Y-118254000D01*
X139775000Y-117030000D02*
X138250000Y-117030000D01*
X111340000Y-107550000D02*
X112290000Y-108500000D01*
%TO.N,NMI*%
X182907000Y-111158000D02*
X169370000Y-124695000D01*
X149878000Y-139429000D02*
X150518000Y-138790000D01*
X149878000Y-140494000D02*
X149878000Y-139429000D01*
X88000000Y-108080000D02*
X85321600Y-110758400D01*
X165532000Y-133340000D02*
X163080000Y-133340000D01*
X96897396Y-146931000D02*
X140974000Y-146931000D01*
X144205000Y-143700000D02*
X146673000Y-143700000D01*
X169370000Y-129503000D02*
X165532000Y-133340000D01*
X91946396Y-141980000D02*
X96897396Y-146931000D01*
X140974000Y-146931000D02*
X144205000Y-143700000D01*
X161870000Y-131010000D02*
X160615000Y-129755000D01*
X146673000Y-143700000D02*
X149878000Y-140494000D01*
X152400000Y-138790000D02*
X156240000Y-134950000D01*
X180765000Y-78665000D02*
X182907000Y-80807100D01*
X169370000Y-124695000D02*
X169370000Y-129503000D01*
X182907000Y-80807100D02*
X182907000Y-111158000D01*
X161870000Y-132130000D02*
X161870000Y-131010000D01*
X156240000Y-134950000D02*
X156240000Y-132185000D01*
X156240000Y-132185000D02*
X158670000Y-129755000D01*
X160615000Y-129755000D02*
X159070000Y-129755000D01*
X91925763Y-141980000D02*
X91946396Y-141980000D01*
X85321600Y-135375837D02*
X91925763Y-141980000D01*
X150518000Y-138790000D02*
X152400000Y-138790000D01*
X163080000Y-133340000D02*
X161870000Y-132130000D01*
X85321600Y-110758400D02*
X85321600Y-135375837D01*
%TO.N,D7*%
X103370000Y-95870000D02*
X104050000Y-96550000D01*
X138402400Y-88440000D02*
X137264400Y-89578000D01*
X104833000Y-96550000D02*
X105323000Y-96060000D01*
X123023604Y-89650000D02*
X111114000Y-89650000D01*
X173555500Y-84167400D02*
X172723000Y-83335000D01*
X111114000Y-89650000D02*
X108514000Y-92250000D01*
X104050000Y-96550000D02*
X104833000Y-96550000D01*
X163367900Y-84708800D02*
X163435800Y-84776700D01*
X108514000Y-92250000D02*
X105070000Y-92250000D01*
X105070000Y-92250000D02*
X103370000Y-93950000D01*
X127770000Y-89410000D02*
X123263604Y-89410000D01*
X177038000Y-87649700D02*
X173555500Y-84167400D01*
X137264400Y-89578000D02*
X131404900Y-89578000D01*
X172886800Y-83576700D02*
X173477500Y-84167400D01*
X105323000Y-96060000D02*
X106848300Y-96060000D01*
X155968100Y-84708800D02*
X163367900Y-84708800D01*
X131404900Y-89578000D02*
X130266900Y-88440000D01*
X103370000Y-95870000D02*
X103370000Y-93950000D01*
X169726400Y-84776700D02*
X171143100Y-83360000D01*
X151473500Y-88440000D02*
X152236900Y-88440000D01*
X123263604Y-89410000D02*
X123023604Y-89650000D01*
X152236900Y-88440000D02*
X155968100Y-84708800D01*
X180765000Y-88825000D02*
X179590000Y-87649700D01*
X138402400Y-88440000D02*
X150710000Y-88440000D01*
X163435800Y-84776700D02*
X169726400Y-84776700D01*
X172670000Y-83360000D02*
X171143100Y-83360000D01*
X128740000Y-88440000D02*
X130266900Y-88440000D01*
X173477500Y-84167400D02*
X173555500Y-84167400D01*
X128740000Y-88440000D02*
X127770000Y-89410000D01*
X179590000Y-87649700D02*
X177038000Y-87649700D01*
%TO.N,SYNC*%
X181966000Y-96906200D02*
X181966000Y-84946300D01*
X156682400Y-100420000D02*
X159390000Y-97712400D01*
X100406000Y-94506000D02*
X103085400Y-97185400D01*
X110830600Y-100420000D02*
X156682400Y-100420000D01*
X100406000Y-92290400D02*
X100406000Y-94506000D01*
X103085400Y-97185400D02*
X107596000Y-97185400D01*
X181160000Y-97712400D02*
X181966000Y-96906200D01*
X159390000Y-97712400D02*
X181160000Y-97712400D01*
X107596000Y-97185400D02*
X110830600Y-100420000D01*
X181966000Y-84946300D02*
X180765000Y-83745000D01*
%TO.N,D6*%
X150710000Y-90980000D02*
X152236900Y-90980000D01*
X120996996Y-92129400D02*
X121696396Y-91430000D01*
X179590000Y-90189700D02*
X177038000Y-90189700D01*
X173477400Y-86707400D02*
X172670000Y-85900000D01*
X155947800Y-87269100D02*
X152236900Y-90980000D01*
X121696396Y-91430000D02*
X128290000Y-91430000D01*
X128740000Y-90980000D02*
X130266900Y-90980000D01*
X148013700Y-92149400D02*
X131436300Y-92149400D01*
X108374000Y-93520000D02*
X109764000Y-92129400D01*
X172670000Y-85900000D02*
X171143100Y-85900000D01*
X149183100Y-90980000D02*
X148013700Y-92149400D01*
X109764000Y-92129400D02*
X120996996Y-92129400D01*
X150276500Y-90980000D02*
X149183100Y-90980000D01*
X169774000Y-87269100D02*
X155947800Y-87269100D01*
X177038000Y-90189700D02*
X173555500Y-86707400D01*
X180765000Y-91365000D02*
X179590000Y-90189700D01*
X131436300Y-92149400D02*
X130266900Y-90980000D01*
X106848300Y-93520000D02*
X108374000Y-93520000D01*
X171143100Y-85900000D02*
X169774000Y-87269100D01*
X173555500Y-86707400D02*
X172723000Y-85875000D01*
X173555500Y-86707400D02*
X173477400Y-86707400D01*
%TO.N,D5*%
X129867300Y-94704000D02*
X136737300Y-94704000D01*
X136737300Y-94704000D02*
X137454400Y-93986900D01*
X126764000Y-93970400D02*
X115985000Y-93970400D01*
X174510000Y-132310000D02*
X172070000Y-134750000D01*
X169507300Y-89622400D02*
X156216000Y-89622400D01*
X148716200Y-93986900D02*
X149183100Y-93520000D01*
X152318400Y-93520000D02*
X150710000Y-93520000D01*
X170689700Y-88440000D02*
X172670000Y-88440000D01*
X156216000Y-89622400D02*
X152318400Y-93520000D01*
X174510000Y-123740000D02*
X174510000Y-132310000D01*
X181760000Y-116490000D02*
X174510000Y-123740000D01*
X128683300Y-93520000D02*
X127215000Y-93520000D01*
X137454400Y-93986900D02*
X148716200Y-93986900D01*
X115985000Y-93970400D02*
X115165000Y-94790000D01*
X170689700Y-88440000D02*
X169507300Y-89622400D01*
X110617000Y-94790000D02*
X109213000Y-96194100D01*
X115165000Y-94790000D02*
X110617000Y-94790000D01*
X127215000Y-93520000D02*
X126764000Y-93970400D01*
X150710000Y-93520000D02*
X149183100Y-93520000D01*
X128683300Y-93520000D02*
X129867300Y-94704000D01*
X182119000Y-116490000D02*
X181760000Y-116490000D01*
%TO.N,A0*%
X136996900Y-88440000D02*
X138150600Y-87286300D01*
X151443900Y-87286300D02*
X155370200Y-83360000D01*
X145870000Y-134810000D02*
X144345000Y-134810000D01*
X122100000Y-123550000D02*
X119094000Y-120544000D01*
X135470000Y-88440000D02*
X136996900Y-88440000D01*
X135430000Y-125562000D02*
X133418000Y-123550000D01*
X119094000Y-120544000D02*
X119094000Y-119531000D01*
X117453000Y-117890000D02*
X119094000Y-119531000D01*
X137210000Y-133540000D02*
X135430000Y-131760000D01*
X126749010Y-88440000D02*
X127899010Y-87290000D01*
X119094000Y-119531000D02*
X119015000Y-119610000D01*
X138150600Y-87286300D02*
X151443900Y-87286300D01*
X102394000Y-117890000D02*
X117453000Y-117890000D01*
X133418000Y-123550000D02*
X122100000Y-123550000D01*
X134320000Y-87290000D02*
X135470000Y-88440000D01*
X144345000Y-134810000D02*
X143075000Y-133540000D01*
X155370200Y-83360000D02*
X157430000Y-83360000D01*
X143075000Y-133540000D02*
X137210000Y-133540000D01*
X127899010Y-87290000D02*
X134320000Y-87290000D01*
X101174000Y-119110000D02*
X102394000Y-117890000D01*
X113500000Y-88440000D02*
X126749010Y-88440000D01*
X135430000Y-131760000D02*
X135430000Y-125562000D01*
%TO.N,D4*%
X150912142Y-95857858D02*
X153604858Y-95857858D01*
X173930000Y-130350000D02*
X172070000Y-132210000D01*
X127977500Y-96060000D02*
X127215000Y-96060000D01*
X127977500Y-96060000D02*
X129158100Y-97240600D01*
X149946600Y-96060000D02*
X149183100Y-96060000D01*
X177896000Y-95269700D02*
X174196900Y-91570900D01*
X111598000Y-97239100D02*
X111402000Y-97043400D01*
X148002500Y-97240600D02*
X149183100Y-96060000D01*
X153604858Y-95857858D02*
X153738216Y-95724500D01*
X165461100Y-95724500D02*
X170205600Y-90980000D01*
X174196900Y-91570900D02*
X173581000Y-90955000D01*
X173930000Y-123270000D02*
X173930000Y-130350000D01*
X126036000Y-97239100D02*
X111598000Y-97239100D01*
X180710000Y-116490000D02*
X173930000Y-123270000D01*
X127215000Y-96060000D02*
X126036000Y-97239100D01*
X170205600Y-90980000D02*
X172670000Y-90980000D01*
X153738216Y-95724500D02*
X165461100Y-95724500D01*
X180765000Y-96445000D02*
X179590000Y-95269700D01*
X179590000Y-95269700D02*
X177896000Y-95269700D01*
X129158100Y-97240600D02*
X148002500Y-97240600D01*
%TO.N,A1*%
X98895300Y-87240000D02*
X97345300Y-88790000D01*
X135470000Y-85900000D02*
X131164500Y-85900000D01*
X122510500Y-84721700D02*
X121890700Y-84721700D01*
X116763200Y-84723200D02*
X116761700Y-84721700D01*
X113648600Y-84723200D02*
X112471800Y-85900000D01*
X112471800Y-85900000D02*
X111975000Y-85900000D01*
X110635000Y-87240000D02*
X98895300Y-87240000D01*
X111975000Y-85900000D02*
X110635000Y-87240000D01*
X115449000Y-84723200D02*
X113648600Y-84723200D01*
X121889200Y-84723200D02*
X116763200Y-84723200D01*
X121890700Y-84721700D02*
X121889200Y-84723200D01*
X131164500Y-85900000D02*
X129987700Y-84723200D01*
X147297500Y-85900000D02*
X135470000Y-85900000D01*
X155720900Y-80820000D02*
X151990600Y-84550300D01*
X122512000Y-84723200D02*
X122510500Y-84721700D01*
X151990600Y-84550300D02*
X148647200Y-84550300D01*
X115450500Y-84721700D02*
X115449000Y-84723200D01*
X157430000Y-80820000D02*
X155720900Y-80820000D01*
X129987700Y-84723200D02*
X122512000Y-84723200D01*
X116761700Y-84721700D02*
X115450500Y-84721700D01*
X148647200Y-84550300D02*
X147297500Y-85900000D01*
%TO.N,D3*%
X111734000Y-99764700D02*
X108487000Y-96518400D01*
X108487000Y-95707400D02*
X107678000Y-94898500D01*
X126050000Y-99764700D02*
X111734000Y-99764700D01*
X149585000Y-99725000D02*
X150710000Y-98600000D01*
X128740000Y-98600000D02*
X127215000Y-98600000D01*
X127215000Y-98600000D02*
X126050000Y-99764700D01*
X108487000Y-96518400D02*
X108487000Y-95707400D01*
X172670000Y-93520000D02*
X171143100Y-93520000D01*
X129865000Y-99725000D02*
X149585000Y-99725000D01*
X154064300Y-96772600D02*
X167890500Y-96772600D01*
X152236900Y-98600000D02*
X154064300Y-96772600D01*
X107678000Y-94898500D02*
X105400000Y-94898500D01*
X167890500Y-96772600D02*
X171143100Y-93520000D01*
X105400000Y-94898500D02*
X104824000Y-95474600D01*
X151473500Y-98600000D02*
X152236900Y-98600000D01*
X128740000Y-98600000D02*
X129865000Y-99725000D01*
%TO.N,A2*%
X156666600Y-78280000D02*
X155903100Y-78280000D01*
X170907700Y-77106200D02*
X174291600Y-77106200D01*
X116217400Y-82169500D02*
X132752600Y-82169500D01*
X96890000Y-120350000D02*
X95650000Y-119110000D01*
X179432300Y-76610000D02*
X179432300Y-69712300D01*
X89620100Y-91067200D02*
X90663800Y-92110900D01*
X115379000Y-132390000D02*
X115379000Y-131024000D01*
X135470000Y-83360000D02*
X136996900Y-83360000D01*
X169733900Y-78280000D02*
X170907700Y-77106200D01*
X133567000Y-136690000D02*
X119679000Y-136690000D01*
X174291600Y-77106200D02*
X174508200Y-77322800D01*
X91517300Y-85900000D02*
X89620100Y-87797200D01*
X155903100Y-78280000D02*
X151986800Y-82196300D01*
X145870000Y-139890000D02*
X144345000Y-139890000D01*
X144345000Y-139890000D02*
X143075000Y-138620000D01*
X98960000Y-120350000D02*
X96890000Y-120350000D01*
X89620100Y-87797200D02*
X89620100Y-91067200D01*
X111975000Y-83360000D02*
X113500000Y-83360000D01*
X132752600Y-82169500D02*
X133943100Y-83360000D01*
X112588000Y-128233000D02*
X105804000Y-128233000D01*
X115026900Y-83360000D02*
X116217400Y-82169500D01*
X143075000Y-138620000D02*
X135497000Y-138620000D01*
X92524200Y-92110900D02*
X100005100Y-84630000D01*
X119679000Y-136690000D02*
X115379000Y-132390000D01*
X135470000Y-83360000D02*
X133943100Y-83360000D01*
X115379000Y-131024000D02*
X112588000Y-128233000D01*
X174508200Y-77322800D02*
X178719500Y-77322800D01*
X110705000Y-84630000D02*
X111975000Y-83360000D01*
X135497000Y-138620000D02*
X133567000Y-136690000D01*
X157430000Y-78280000D02*
X169733900Y-78280000D01*
X179432300Y-69712300D02*
X178225000Y-68505000D01*
X113500000Y-83360000D02*
X115026900Y-83360000D01*
X100005100Y-84630000D02*
X110705000Y-84630000D01*
X138160600Y-82196300D02*
X136996900Y-83360000D01*
X178719500Y-77322800D02*
X179432300Y-76610000D01*
X105804000Y-128233000D02*
X99460100Y-121890000D01*
X99460100Y-121890000D02*
X99460100Y-120850000D01*
X99460100Y-120850000D02*
X98960000Y-120350000D01*
X151986800Y-82196300D02*
X138160600Y-82196300D01*
X90663800Y-92110900D02*
X92524200Y-92110900D01*
%TO.N,D2*%
X152177500Y-94705600D02*
X138351300Y-94705600D01*
X116890800Y-100962400D02*
X116658200Y-101195000D01*
X155903100Y-90980000D02*
X152177500Y-94705600D01*
X133473400Y-100962400D02*
X116890800Y-100962400D01*
X134114300Y-101603300D02*
X133473400Y-100962400D01*
X138351300Y-94705600D02*
X136996900Y-96060000D01*
X157430000Y-90980000D02*
X155903100Y-90980000D01*
X136233500Y-96060000D02*
X136996900Y-96060000D01*
X180765000Y-101525000D02*
X179588100Y-101525000D01*
X179588100Y-101525000D02*
X179588100Y-101157200D01*
X178667700Y-100236800D02*
X170983500Y-100236800D01*
X179588100Y-101157200D02*
X178667700Y-100236800D01*
%TO.N,A3*%
X177048100Y-71045000D02*
X175508600Y-69505500D01*
X155903100Y-75740000D02*
X152179200Y-79463900D01*
X91608300Y-88440000D02*
X93133600Y-88440000D01*
X156666600Y-75740000D02*
X155903100Y-75740000D01*
X175508600Y-69505500D02*
X166555800Y-69505500D01*
X113500000Y-80820000D02*
X125386300Y-80820000D01*
X152179200Y-79463900D02*
X138353000Y-79463900D01*
X101774000Y-82090000D02*
X110705000Y-82090000D01*
X138353000Y-79463900D02*
X136996900Y-80820000D01*
X133782400Y-76658900D02*
X132999400Y-77441900D01*
X111975000Y-80820000D02*
X113500000Y-80820000D01*
X166555800Y-69505500D02*
X166086000Y-69975300D01*
X136233500Y-80820000D02*
X136996900Y-80820000D01*
X94954000Y-88910000D02*
X101774000Y-82090000D01*
X178225000Y-71045000D02*
X177048100Y-71045000D01*
X93603600Y-88910000D02*
X94954000Y-88910000D01*
X125386300Y-80820000D02*
X125414100Y-80792200D01*
X93133600Y-88440000D02*
X93603600Y-88910000D01*
X110705000Y-82090000D02*
X111975000Y-80820000D01*
X132999400Y-77441900D02*
X132509300Y-77441900D01*
%TO.N,D1*%
X115477300Y-93069600D02*
X115026900Y-93520000D01*
X152093100Y-92250000D02*
X148667400Y-92250000D01*
X113500000Y-93520000D02*
X115026900Y-93520000D01*
X121998300Y-92342700D02*
X121271400Y-93069600D01*
X155903100Y-88440000D02*
X152093100Y-92250000D01*
X131164500Y-93520000D02*
X129987200Y-92342700D01*
X101870000Y-80820000D02*
X106848000Y-80820000D01*
X135470000Y-93520000D02*
X147397400Y-93520000D01*
X157430000Y-88440000D02*
X155903100Y-88440000D01*
X148667400Y-92250000D02*
X147397400Y-93520000D01*
X129987200Y-92342700D02*
X121998300Y-92342700D01*
X121271400Y-93069600D02*
X115477300Y-93069600D01*
X135470000Y-93520000D02*
X131164500Y-93520000D01*
X94720800Y-87969600D02*
X101870000Y-80820000D01*
%TO.N,A4*%
X84850000Y-135540633D02*
X84850000Y-103940000D01*
X175530500Y-72067400D02*
X177048100Y-73585000D01*
X90786600Y-87267600D02*
X90070500Y-87983700D01*
X96779367Y-147470000D02*
X143370000Y-147470000D01*
X151783300Y-76866900D02*
X139626000Y-76866900D01*
X111975000Y-78280000D02*
X110849000Y-79405400D01*
X157430000Y-73200000D02*
X169220400Y-73200000D01*
X113500000Y-78280000D02*
X111975000Y-78280000D01*
X155450200Y-73200000D02*
X151783300Y-76866900D01*
X178225000Y-73585000D02*
X177048100Y-73585000D01*
X132808900Y-79414200D02*
X116161100Y-79414200D01*
X90070500Y-89442200D02*
X91608300Y-90980000D01*
X93154400Y-87267600D02*
X90786600Y-87267600D01*
X101017000Y-79405400D02*
X93154400Y-87267600D01*
X110849000Y-79405400D02*
X101017000Y-79405400D01*
X90070500Y-87983700D02*
X90070500Y-89442200D01*
X157430000Y-73200000D02*
X155450200Y-73200000D01*
X169220400Y-73200000D02*
X170353000Y-72067400D01*
X170353000Y-72067400D02*
X175530500Y-72067400D01*
X145870000Y-144970000D02*
X143370000Y-147470000D01*
X135470000Y-78280000D02*
X133943100Y-78280000D01*
X96779367Y-147470000D02*
X84850000Y-135540633D01*
X116161100Y-79414200D02*
X115026900Y-78280000D01*
X133943100Y-78280000D02*
X132808900Y-79414200D01*
X113500000Y-78280000D02*
X115026900Y-78280000D01*
X139626000Y-76866900D02*
X139208100Y-76449000D01*
X88170000Y-102280000D02*
X86510000Y-102280000D01*
X86510000Y-102280000D02*
X84850000Y-103940000D01*
%TO.N,D0*%
X164450000Y-132210000D02*
X165975000Y-132210000D01*
X152190600Y-89612500D02*
X143887200Y-89612500D01*
X126749010Y-90980000D02*
X127874010Y-89855000D01*
X155903100Y-85900000D02*
X152190600Y-89612500D01*
X168375000Y-129810000D02*
X168375000Y-121564000D01*
X130735000Y-89855000D02*
X131860000Y-90980000D01*
X175110000Y-111740000D02*
X176832000Y-111740000D01*
X127874010Y-89855000D02*
X130735000Y-89855000D01*
X168375000Y-121564000D02*
X172560000Y-117380000D01*
X180765000Y-107807000D02*
X180765000Y-106605000D01*
X113500000Y-90980000D02*
X126749010Y-90980000D01*
X136233500Y-90980000D02*
X136996900Y-90980000D01*
X176832000Y-111740000D02*
X180765000Y-107807000D01*
X141675400Y-89577800D02*
X141640700Y-89612500D01*
X172560000Y-117380000D02*
X172560000Y-114290000D01*
X131860000Y-90980000D02*
X135470000Y-90980000D01*
X141640700Y-89612500D02*
X138364400Y-89612500D01*
X138364400Y-89612500D02*
X136996900Y-90980000D01*
X143852500Y-89577800D02*
X141675400Y-89577800D01*
X157430000Y-85900000D02*
X155903100Y-85900000D01*
X172560000Y-114290000D02*
X175110000Y-111740000D01*
X165975000Y-132210000D02*
X168375000Y-129810000D01*
X143887200Y-89612500D02*
X143852500Y-89577800D01*
%TO.N,A5*%
X135470000Y-75740000D02*
X136996900Y-75740000D01*
X178225000Y-76125000D02*
X177048100Y-76125000D01*
X110705000Y-77010000D02*
X100421000Y-77010000D01*
X116175200Y-76888300D02*
X115026900Y-75740000D01*
X92801200Y-84630000D02*
X90873500Y-84630000D01*
X89620100Y-86969800D02*
X89169800Y-87420100D01*
X89169800Y-92606800D02*
X90083000Y-93520000D01*
X147584500Y-75675500D02*
X148670300Y-74589700D01*
X133673400Y-75740000D02*
X134706600Y-75740000D01*
X175483200Y-74560100D02*
X177048100Y-76125000D01*
X113500000Y-75740000D02*
X111975000Y-75740000D01*
X90083000Y-93520000D02*
X91608300Y-93520000D01*
X132035000Y-76888300D02*
X116175200Y-76888300D01*
X148670300Y-74589700D02*
X151626800Y-74589700D01*
X89620100Y-85883400D02*
X89620100Y-86969800D01*
X89169800Y-87420100D02*
X89169800Y-92606800D01*
X100421000Y-77010000D02*
X92801200Y-84630000D01*
X136996900Y-75740000D02*
X137001100Y-75744200D01*
X132910100Y-76503300D02*
X132420000Y-76503300D01*
X133673400Y-75740000D02*
X132910100Y-76503300D01*
X159804000Y-75190900D02*
X170019400Y-75190900D01*
X111975000Y-75740000D02*
X110705000Y-77010000D01*
X170019400Y-75190900D02*
X170650200Y-74560100D01*
X155556500Y-70660000D02*
X157430000Y-70660000D01*
X113500000Y-75740000D02*
X115026900Y-75740000D01*
X170650200Y-74560100D02*
X175483200Y-74560100D01*
X137001100Y-75744200D02*
X137664400Y-75744200D01*
X132420000Y-76503300D02*
X132035000Y-76888300D01*
X137733100Y-75675500D02*
X147584500Y-75675500D01*
X151626800Y-74589700D02*
X155556500Y-70660000D01*
X90873500Y-84630000D02*
X89620100Y-85883400D01*
X137664400Y-75744200D02*
X137733100Y-75675500D01*
%TO.N,R{slash}~{W}*%
X182100000Y-69710000D02*
X180765000Y-71045000D01*
X93175300Y-82090000D02*
X99525300Y-75740000D01*
X173245990Y-61625000D02*
X175480000Y-63859010D01*
X90851700Y-82090000D02*
X93175300Y-82090000D01*
X93110000Y-124190000D02*
X89173200Y-120253000D01*
X182100000Y-67820000D02*
X182100000Y-69710000D01*
X175480000Y-66480000D02*
X176260000Y-67260000D01*
X102918000Y-75740000D02*
X106848000Y-75740000D01*
X99525300Y-75740000D02*
X99525300Y-75734700D01*
X99822000Y-75438000D02*
X102616000Y-75438000D01*
X89169800Y-86783200D02*
X89169800Y-83771900D01*
X99525300Y-75734700D02*
X99822000Y-75438000D01*
X88697200Y-87255800D02*
X89169800Y-86783200D01*
X168615000Y-61625000D02*
X173245990Y-61625000D01*
X145158900Y-100970700D02*
X145383200Y-101195000D01*
X176260000Y-67260000D02*
X181540000Y-67260000D01*
X89173200Y-93497500D02*
X88697200Y-93021500D01*
X89173200Y-120253000D02*
X89173200Y-93497500D01*
X127766100Y-105148600D02*
X127944700Y-104970000D01*
X89169800Y-83771900D02*
X90851700Y-82090000D01*
X136469800Y-100970700D02*
X145158900Y-100970700D01*
X181540000Y-67260000D02*
X182100000Y-67820000D01*
X102616000Y-75438000D02*
X102918000Y-75740000D01*
X175480000Y-63859010D02*
X175480000Y-66480000D01*
X132470500Y-104970000D02*
X136469800Y-100970700D01*
X127944700Y-104970000D02*
X132470500Y-104970000D01*
X88697200Y-93021500D02*
X88697200Y-87255800D01*
X167850000Y-60860000D02*
X168615000Y-61625000D01*
%TO.N,A6*%
X98358300Y-89710000D02*
X108863000Y-89710000D01*
X108863000Y-89710000D02*
X111403000Y-87170000D01*
X116217400Y-74390500D02*
X115026900Y-73200000D01*
X147746405Y-69458895D02*
X154564205Y-69458895D01*
X130310800Y-74390500D02*
X116217400Y-74390500D01*
X131599700Y-73101600D02*
X130310800Y-74390500D01*
X133844700Y-73101600D02*
X131599700Y-73101600D01*
X155903100Y-68120000D02*
X157430000Y-68120000D01*
X136996900Y-73200000D02*
X137502500Y-72694400D01*
X133943100Y-73200000D02*
X133844700Y-73101600D01*
X135470000Y-73200000D02*
X133943100Y-73200000D01*
X116363000Y-85972300D02*
X122305000Y-85972300D01*
X115165000Y-87170000D02*
X116363000Y-85972300D01*
X92008300Y-96060000D02*
X98358300Y-89710000D01*
X137502500Y-72694400D02*
X144510900Y-72694400D01*
X135470000Y-73200000D02*
X136996900Y-73200000D01*
X144510900Y-72694400D02*
X147746405Y-69458895D01*
X111403000Y-87170000D02*
X115165000Y-87170000D01*
X154564205Y-69458895D02*
X155903100Y-68120000D01*
X113500000Y-73200000D02*
X115026900Y-73200000D01*
%TO.N,Net-(IC4-THR)*%
X131225000Y-106240000D02*
X129700000Y-106240000D01*
X154140000Y-107000000D02*
X156920000Y-107000000D01*
X137320000Y-108780000D02*
X133765000Y-108780000D01*
X159610000Y-104310000D02*
X168690000Y-104310000D01*
X140459000Y-108780000D02*
X141124000Y-108115500D01*
X133765000Y-108780000D02*
X131225000Y-106240000D01*
X137320000Y-108780000D02*
X140459000Y-108780000D01*
X156920000Y-107000000D02*
X159610000Y-104310000D01*
X168690000Y-104310000D02*
X170000000Y-103000000D01*
X152120000Y-106200000D02*
X152920000Y-107000000D01*
X143039000Y-106200000D02*
X152120000Y-106200000D01*
X152920000Y-107000000D02*
X154140000Y-107000000D01*
X141124000Y-108115500D02*
X141789000Y-107451000D01*
X141789000Y-107451000D02*
X143039000Y-106200000D01*
%TO.N,A7*%
X93171100Y-99762800D02*
X107644000Y-99762800D01*
X112638604Y-109593000D02*
X124060000Y-109593000D01*
X154531200Y-66951900D02*
X155903100Y-65580000D01*
X134706600Y-70660000D02*
X133943100Y-70660000D01*
X111732000Y-108686396D02*
X112638604Y-109593000D01*
X107644000Y-99762800D02*
X110740000Y-102858000D01*
X142988400Y-70660000D02*
X146696500Y-66951900D01*
X183362500Y-63002500D02*
X175310002Y-54950002D01*
X113500000Y-70660000D02*
X115026900Y-70660000D01*
X133943100Y-70660000D02*
X132752600Y-71850500D01*
X146696500Y-66951900D02*
X154531200Y-66951900D01*
X156666600Y-65580000D02*
X155903100Y-65580000D01*
X175310002Y-54950002D02*
X169830000Y-54950002D01*
X116217400Y-71850500D02*
X115026900Y-70660000D01*
X110740000Y-102858000D02*
X110740000Y-107690000D01*
X161329600Y-59354500D02*
X169861300Y-59354500D01*
X132752600Y-71850500D02*
X116217400Y-71850500D01*
X183362500Y-63836700D02*
X183362500Y-63002500D01*
X110740000Y-107690000D02*
X111732000Y-108682000D01*
X92008300Y-98600000D02*
X93171100Y-99762800D01*
X159804000Y-60880100D02*
X161329600Y-59354500D01*
X135470000Y-70660000D02*
X142988400Y-70660000D01*
X111732000Y-108682000D02*
X111732000Y-108686396D01*
%TO.N,~{RD}*%
X152318400Y-80820000D02*
X150710000Y-80820000D01*
X138669700Y-80820000D02*
X150710000Y-80820000D01*
X137492400Y-81997300D02*
X138669700Y-80820000D01*
X157543100Y-124675000D02*
X156839400Y-123971300D01*
X169959200Y-76923900D02*
X156214500Y-76923900D01*
X159070000Y-124675000D02*
X157543100Y-124675000D01*
X156214500Y-76923900D02*
X152318400Y-80820000D01*
X156839400Y-123971300D02*
X155184400Y-123971300D01*
X128740000Y-80820000D02*
X133045500Y-80820000D01*
X133045500Y-80820000D02*
X134222800Y-81997300D01*
X134222800Y-81997300D02*
X137492400Y-81997300D01*
X172670000Y-75740000D02*
X171143100Y-75740000D01*
X171143100Y-75740000D02*
X169959200Y-76923900D01*
%TO.N,A8*%
X109390000Y-106629188D02*
X109390000Y-108249188D01*
X156046900Y-69390000D02*
X165411300Y-69390000D01*
X107630812Y-104870000D02*
X109390000Y-106629188D01*
X133928700Y-72316700D02*
X134316800Y-71928600D01*
X118993792Y-114541000D02*
X119682792Y-115230000D01*
X119682792Y-115230000D02*
X129995000Y-115230000D01*
X109390000Y-108249188D02*
X109879000Y-108738188D01*
X166681300Y-68120000D02*
X172670000Y-68120000D01*
X129995000Y-115230000D02*
X130150000Y-115075000D01*
X95338300Y-104870000D02*
X107630812Y-104870000D01*
X110901000Y-114541000D02*
X118993792Y-114541000D01*
X109879000Y-113519000D02*
X110901000Y-114541000D01*
X109879000Y-108738188D02*
X109879000Y-113519000D01*
X128740000Y-73200000D02*
X130266900Y-73200000D01*
X131150200Y-72316700D02*
X133928700Y-72316700D01*
X150710000Y-73200000D02*
X152236900Y-73200000D01*
X134316800Y-71928600D02*
X143114700Y-71928600D01*
X152236900Y-73200000D02*
X156046900Y-69390000D01*
X165411300Y-69390000D02*
X166681300Y-68120000D01*
X130266900Y-73200000D02*
X131150200Y-72316700D01*
X91608300Y-101140000D02*
X95338300Y-104870000D01*
X143114700Y-71928600D02*
X145074000Y-69969300D01*
D32*
%TO.N,CLK*%
X109860000Y-61341000D02*
X109860000Y-66090000D01*
X147620000Y-57780000D02*
X147135000Y-58265000D01*
X149912000Y-113462000D02*
X151450000Y-115000000D01*
X177235000Y-64715500D02*
X176190000Y-63670000D01*
X151450000Y-115000000D02*
X151450000Y-117055000D01*
X136649000Y-113462000D02*
X149912000Y-113462000D01*
X130768000Y-107580000D02*
X136649000Y-113462000D01*
X109860000Y-66090000D02*
X107830000Y-68120000D01*
X147135000Y-58265000D02*
X112936000Y-58265000D01*
X125350000Y-104690000D02*
X128240000Y-107580000D01*
X176190000Y-59934300D02*
X174035700Y-57780000D01*
X128240000Y-107580000D02*
X130768000Y-107580000D01*
X179515500Y-64715500D02*
X177235000Y-64715500D01*
X174035700Y-57780000D02*
X147620000Y-57780000D01*
X180765000Y-65965000D02*
X179515500Y-64715500D01*
X120620000Y-104690000D02*
X125350000Y-104690000D01*
X112936000Y-58265000D02*
X109860000Y-61341000D01*
X176190000Y-63670000D02*
X176190000Y-59934300D01*
D31*
%TO.N,A9*%
X93133700Y-103680000D02*
X104983700Y-115530000D01*
X134161200Y-74613100D02*
X136739600Y-74613100D01*
X172670000Y-70660000D02*
X171143100Y-70660000D01*
X91608300Y-103680000D02*
X93133700Y-103680000D01*
X136739600Y-74613100D02*
X137115400Y-74237300D01*
X171121300Y-70660000D02*
X171143100Y-70660000D01*
X118710000Y-115530000D02*
X119520000Y-116340000D01*
X128740000Y-75740000D02*
X133034300Y-75740000D01*
X150710000Y-75740000D02*
X152236900Y-75740000D01*
X156156400Y-71820500D02*
X169960800Y-71820500D01*
X132390000Y-116340000D02*
X134441500Y-118391500D01*
X143511900Y-74548000D02*
X146180700Y-74548000D01*
X137115400Y-74237300D02*
X143201200Y-74237300D01*
X119520000Y-116340000D02*
X132390000Y-116340000D01*
X134441500Y-118391500D02*
X134441500Y-119490000D01*
X104983700Y-115530000D02*
X118710000Y-115530000D01*
X143201200Y-74237300D02*
X143511900Y-74548000D01*
X152236900Y-75740000D02*
X156156400Y-71820500D01*
X169960800Y-71820500D02*
X171121300Y-70660000D01*
X133034300Y-75740000D02*
X134161200Y-74613100D01*
X146180700Y-74548000D02*
X146491600Y-74237100D01*
%TO.N,A10*%
X123700000Y-121359000D02*
X131387000Y-121359000D01*
X156214500Y-79463900D02*
X152318400Y-83360000D01*
X104050000Y-115980000D02*
X118321000Y-115980000D01*
X149183100Y-83360000D02*
X148049100Y-84494000D01*
X91608300Y-106220000D02*
X94290000Y-106220000D01*
X118321000Y-115980000D02*
X123700000Y-121359000D01*
X171143100Y-78280000D02*
X169959200Y-79463900D01*
X148049100Y-84494000D02*
X131400900Y-84494000D01*
X150710000Y-83360000D02*
X149183100Y-83360000D01*
X131387000Y-121359000D02*
X131551000Y-121195000D01*
X152318400Y-83360000D02*
X150710000Y-83360000D01*
X128740000Y-83360000D02*
X130266900Y-83360000D01*
X94290000Y-106220000D02*
X104050000Y-115980000D01*
X169959200Y-79463900D02*
X156214500Y-79463900D01*
X172670000Y-78280000D02*
X171143100Y-78280000D01*
X131400900Y-84494000D02*
X130266900Y-83360000D01*
%TO.N,A11*%
X156136000Y-74380900D02*
X169962200Y-74380900D01*
X134570200Y-77147100D02*
X138878300Y-77147100D01*
X134546000Y-121970000D02*
X123674000Y-121970000D01*
X118174000Y-116470000D02*
X99599700Y-116470000D01*
X150710000Y-78280000D02*
X152236900Y-78280000D01*
X140011200Y-78280000D02*
X150710000Y-78280000D01*
X138878300Y-77147100D02*
X140011200Y-78280000D01*
X134118300Y-77599000D02*
X134570200Y-77147100D01*
X169962200Y-74380900D02*
X171143100Y-73200000D01*
X172670000Y-73200000D02*
X171143100Y-73200000D01*
X133590400Y-77599000D02*
X134118300Y-77599000D01*
X128740000Y-78280000D02*
X132909400Y-78280000D01*
X123674000Y-121970000D02*
X118174000Y-116470000D01*
X152236900Y-78280000D02*
X156136000Y-74380900D01*
X99599700Y-116470000D02*
X91889700Y-108760000D01*
X132909400Y-78280000D02*
X133590400Y-77599000D01*
X134893000Y-122317000D02*
X134546000Y-121970000D01*
%TO.N,~{RESET}*%
X146465100Y-65570500D02*
X147489400Y-65570500D01*
X109386000Y-125226000D02*
X115051000Y-125226000D01*
X133000000Y-125366000D02*
X133000000Y-127823000D01*
X152471000Y-135984000D02*
X154502000Y-133953000D01*
X164300000Y-99000000D02*
X161697700Y-99000000D01*
X142180700Y-69854900D02*
X146465100Y-65570500D01*
X151466600Y-104188100D02*
X150198300Y-102919800D01*
X159070000Y-127215000D02*
X164365000Y-127215000D01*
X156509600Y-104188100D02*
X151466600Y-104188100D01*
X133000000Y-127823000D02*
X134400000Y-129223000D01*
X134400000Y-129223000D02*
X134400000Y-133010000D01*
X154502000Y-133953000D02*
X154502000Y-128588000D01*
X118807000Y-125940000D02*
X120181000Y-124566000D01*
X137374000Y-135984000D02*
X152471000Y-135984000D01*
X108350000Y-124190000D02*
X109386000Y-125226000D01*
X115051000Y-125226000D02*
X115764000Y-125940000D01*
X161697700Y-99000000D02*
X156509600Y-104188100D01*
X154502000Y-128588000D02*
X155875000Y-127215000D01*
X120181000Y-124566000D02*
X132200000Y-124566000D01*
X115764000Y-125940000D02*
X118807000Y-125940000D01*
X132200000Y-124566000D02*
X133000000Y-125366000D01*
X134400000Y-133010000D02*
X137374000Y-135984000D01*
X155875000Y-127215000D02*
X159070000Y-127215000D01*
%TO.N,~{LOWRAM}*%
X142964800Y-132270000D02*
X142720400Y-132514400D01*
X145870000Y-132270000D02*
X142964800Y-132270000D01*
X154767700Y-109610000D02*
X144470000Y-109610000D01*
X155197200Y-109180500D02*
X154767700Y-109610000D01*
X163736800Y-84049800D02*
X166966600Y-80820000D01*
X165160000Y-94997600D02*
X153454358Y-94997600D01*
X153454358Y-94997600D02*
X153369100Y-95082858D01*
X144470000Y-109610000D02*
X144110000Y-109250000D01*
X169856400Y-90301200D02*
X165160000Y-94997600D01*
X166966600Y-80820000D02*
X172670000Y-80820000D01*
%TO.N,~{BANKRAM}*%
X137506000Y-128460000D02*
X143075000Y-128460000D01*
X136703000Y-126318000D02*
X136703000Y-127657000D01*
X144345000Y-129730000D02*
X145870000Y-129730000D01*
X143075000Y-128460000D02*
X144345000Y-129730000D01*
X136703000Y-127657000D02*
X137506000Y-128460000D01*
X136750000Y-126270000D02*
X136703000Y-126318000D01*
%TO.N,~{DUASEL}*%
X145870000Y-119570000D02*
X140641000Y-119570000D01*
X139226000Y-118155000D02*
X136905000Y-118155000D01*
X140641000Y-119570000D02*
X139226000Y-118155000D01*
X132150000Y-113400000D02*
X129456192Y-113400000D01*
X119246000Y-112866000D02*
X118110000Y-112866000D01*
X120020000Y-113640000D02*
X119246000Y-112866000D01*
X129456192Y-113400000D02*
X129216192Y-113640000D01*
X129216192Y-113640000D02*
X120020000Y-113640000D01*
X136905000Y-118155000D02*
X132150000Y-113400000D01*
%TO.N,CTSB*%
X91764400Y-130761000D02*
X96284700Y-130761000D01*
X98190000Y-128856000D02*
X98190000Y-121650000D01*
X88175300Y-134350000D02*
X91764400Y-130761000D01*
X96284700Y-130761000D02*
X98190000Y-128856000D01*
X87000000Y-134350000D02*
X88175300Y-134350000D01*
%TO.N,CTSA*%
X90403600Y-130307000D02*
X96102100Y-130307000D01*
X92202792Y-141600000D02*
X85771600Y-135168808D01*
X85771600Y-133688500D02*
X86380000Y-133080000D01*
X96709200Y-122709200D02*
X95650000Y-121650000D01*
X109350000Y-144500000D02*
X106450000Y-141600000D01*
X96709200Y-129700000D02*
X96709200Y-122709200D01*
X106450000Y-141600000D02*
X92202792Y-141600000D01*
X85771600Y-135168808D02*
X85771600Y-133688500D01*
X96102100Y-130307000D02*
X96709200Y-129700000D01*
X87630200Y-133080000D02*
X90403600Y-130307000D01*
X86380000Y-133080000D02*
X87630200Y-133080000D01*
%TO.N,~{DUADTACK}*%
X134841000Y-123284000D02*
X134835000Y-123284000D01*
X123577000Y-122510000D02*
X118047000Y-116980000D01*
X137344000Y-125786000D02*
X134841000Y-123284000D01*
X151450000Y-119595000D02*
X150205000Y-120840000D01*
X96313100Y-116980000D02*
X94563100Y-118730000D01*
X161830000Y-118470000D02*
X163080000Y-119720000D01*
X150205000Y-120840000D02*
X144111000Y-120840000D01*
X94563100Y-123103100D02*
X95650000Y-124190000D01*
X154455000Y-119595000D02*
X155580000Y-118470000D01*
X155580000Y-118470000D02*
X161830000Y-118470000D01*
X139165000Y-125786000D02*
X137344000Y-125786000D01*
X134061000Y-122510000D02*
X123577000Y-122510000D01*
X144111000Y-120840000D02*
X139165000Y-125786000D01*
X94563100Y-118730000D02*
X94563100Y-123103100D01*
X134835000Y-123284000D02*
X134061000Y-122510000D01*
X118047000Y-116980000D02*
X96313100Y-116980000D01*
X151450000Y-119595000D02*
X154455000Y-119595000D01*
D33*
%TO.N,Net-(IC3-OP3)*%
X111750000Y-144030000D02*
X116990000Y-144030000D01*
X90110000Y-133190000D02*
X90110000Y-138835456D01*
X119416000Y-146456000D02*
X129544000Y-146456000D01*
X91490000Y-131810000D02*
X90110000Y-133190000D01*
X92399544Y-141125000D02*
X108845000Y-141125000D01*
X129544000Y-146456000D02*
X131000000Y-145000000D01*
X108845000Y-141125000D02*
X111750000Y-144030000D01*
X116990000Y-144030000D02*
X119416000Y-146456000D01*
X93110000Y-131810000D02*
X91490000Y-131810000D01*
X90110000Y-138835456D02*
X92399544Y-141125000D01*
D31*
%TO.N,RTSB*%
X93222000Y-125365000D02*
X94605100Y-126748000D01*
X89350600Y-125365000D02*
X93222000Y-125365000D01*
X94605100Y-128225000D02*
X95650000Y-129270000D01*
X88175300Y-124190000D02*
X89350600Y-125365000D01*
X94605100Y-126748000D02*
X94605100Y-128225000D01*
X87000000Y-124190000D02*
X88175300Y-124190000D01*
D33*
%TO.N,Net-(IC3-OP5)*%
X94470000Y-132990000D02*
X91570000Y-132990000D01*
X122000000Y-142690000D02*
X122000000Y-145000000D01*
X113000000Y-140620000D02*
X119930000Y-140620000D01*
X90610000Y-138628349D02*
X92606651Y-140625000D01*
X92606651Y-140625000D02*
X112995000Y-140625000D01*
X112995000Y-140625000D02*
X113000000Y-140620000D01*
X90610000Y-133949500D02*
X90610000Y-138628349D01*
X91570000Y-132990000D02*
X90610000Y-133949500D01*
X119930000Y-140620000D02*
X122000000Y-142690000D01*
X95650000Y-131810000D02*
X94470000Y-132990000D01*
D31*
%TO.N,RXDB*%
X90715300Y-126730000D02*
X93110000Y-126730000D01*
X87000000Y-129270000D02*
X88175300Y-129270000D01*
X88175300Y-129270000D02*
X90715300Y-126730000D01*
%TO.N,TXDB*%
X88175300Y-131810000D02*
X87000000Y-131810000D01*
X93110000Y-129270000D02*
X90715300Y-129270000D01*
X90715300Y-129270000D02*
X88175300Y-131810000D01*
%TO.N,SPICS2*%
X93110000Y-134350000D02*
X94380000Y-135620000D01*
X115825000Y-137500000D02*
X117000000Y-137500000D01*
X113945000Y-135620000D02*
X115825000Y-137500000D01*
X94380000Y-135620000D02*
X113945000Y-135620000D01*
%TO.N,Net-(IC3-\u002AIACK)*%
X113440000Y-120150000D02*
X114305000Y-121015000D01*
X108350000Y-121650000D02*
X109850000Y-120150000D01*
X114305000Y-121015000D02*
X118468984Y-121015000D01*
X118468984Y-121015000D02*
X119006992Y-121553008D01*
X109850000Y-120150000D02*
X113440000Y-120150000D01*
%TO.N,SPIMISO*%
X107299000Y-120161000D02*
X107299000Y-124624000D01*
X114232000Y-125677000D02*
X115825000Y-127270000D01*
X107299000Y-124624000D02*
X108351000Y-125677000D01*
X115825000Y-127270000D02*
X117000000Y-127270000D01*
X108350000Y-119110000D02*
X107299000Y-120161000D01*
X108351000Y-125677000D02*
X114232000Y-125677000D01*
%TO.N,TXDA*%
X113288000Y-131668000D02*
X113288000Y-134462000D01*
X110890000Y-129270000D02*
X113288000Y-131668000D01*
%TO.N,HWRST*%
X143014000Y-114490000D02*
X144504000Y-115980000D01*
X129700000Y-108780000D02*
X130620000Y-108780000D01*
X130620000Y-108780000D02*
X136330000Y-114490000D01*
X136330000Y-114490000D02*
X143014000Y-114490000D01*
%TO.N,BANKCLK*%
X170945000Y-143785000D02*
X172070000Y-144910000D01*
X160400000Y-143785000D02*
X170945000Y-143785000D01*
X159070000Y-142455000D02*
X160400000Y-143785000D01*
%TO.N,~{WR}*%
X137870000Y-69480000D02*
X144310000Y-63040000D01*
X128740000Y-68120000D02*
X132420000Y-68120000D01*
X150710000Y-63040000D02*
X151835000Y-64165000D01*
X171545000Y-64165000D02*
X172670000Y-63040000D01*
X144310000Y-63040000D02*
X150710000Y-63040000D01*
X132420000Y-68120000D02*
X133780000Y-69480000D01*
X133780000Y-69480000D02*
X137870000Y-69480000D01*
X151835000Y-64165000D02*
X171545000Y-64165000D01*
%TO.N,BE*%
X102501000Y-70660000D02*
X93611100Y-79550000D01*
X88000000Y-82034700D02*
X88000000Y-83160000D01*
X90484700Y-79550000D02*
X88000000Y-82034700D01*
X93611100Y-79550000D02*
X90484700Y-79550000D01*
X106848000Y-70660000D02*
X102501000Y-70660000D01*
%TO.N,BANK1*%
X118020000Y-58920000D02*
X154180000Y-58920000D01*
X113900000Y-63040000D02*
X118020000Y-58920000D01*
%TO.N,BANK5*%
X147994700Y-68120000D02*
X150710000Y-68120000D01*
X144209800Y-71904900D02*
X147994700Y-68120000D01*
%TO.N,BANK4*%
X156840200Y-136105000D02*
X155979600Y-136965600D01*
X144336100Y-73821100D02*
X147497200Y-70660000D01*
X170543100Y-129670000D02*
X170543100Y-130719700D01*
X172070000Y-129670000D02*
X170543100Y-129670000D01*
X170543100Y-130719700D02*
X165157800Y-136105000D01*
X165157800Y-136105000D02*
X156840200Y-136105000D01*
X147497200Y-70660000D02*
X150710000Y-70660000D01*
%TO.N,Net-(S1-S)*%
X143558200Y-101970000D02*
X142599200Y-102929000D01*
X154140000Y-103000000D02*
X153110000Y-101970000D01*
X153110000Y-101970000D02*
X143558200Y-101970000D01*
X142599200Y-102929000D02*
X141788800Y-103739400D01*
%TD*%
M02*
