M48
; DRILL file {KiCad (6.0.0-0)} date Sunday, 10 September 2023 at 11:44:06
; FORMAT={-:-/ absolute / inch / decimal}
; #@! TF.CreationDate,2023-09-10T11:44:06+01:00
; #@! TF.GenerationSoftware,Kicad,Pcbnew,(6.0.0-0)
; #@! TF.FileFunction,Plated,1,4,PTH
FMAT,2
INCH
; #@! TA.AperFunction,Plated,PTH,ViaDrill
T1C0.0157
; #@! TA.AperFunction,Plated,PTH,ComponentDrill
T2C0.0315
; #@! TA.AperFunction,Plated,PTH,ComponentDrill
T3C0.0320
; #@! TA.AperFunction,Plated,PTH,ComponentDrill
T4C0.0354
; #@! TA.AperFunction,Plated,PTH,ComponentDrill
T5C0.0394
; #@! TA.AperFunction,Plated,PTH,ComponentDrill
T6C0.0400
; #@! TA.AperFunction,Plated,PTH,ComponentDrill
T7C0.1378
%
G90
G05
T1
X3.7292Y-3.4634
X3.843Y-3.4612
X3.953Y-3.6335
X3.9776Y-4.6297
X4.04Y-2.97
X4.1013Y-2.9085
X4.1269Y-3.7588
X4.2997Y-3.7872
X4.3859Y-3.8206
X4.4602Y-5.2938
X4.65Y-4.4456
X4.6856Y-4.7091
X4.7035Y-4.7673
X4.8348Y-3.3847
X4.8842Y-4.3147
X5.092Y-4.6187
X5.1792Y-4.7779
X5.2673Y-4.7725
X5.3107Y-4.8156
X5.3345Y-4.1757
X5.3839Y-4.9713
X5.4454Y-3.9071
X5.5402Y-2.7906
X5.6892Y-4.5661
X5.7642Y-3.1984
X5.7681Y-2.7913
X5.7866Y-2.2921
X5.9374Y-2.1874
X6.115Y-2.375
X6.3296Y-2.9758
X6.3555Y-2.3008
X6.4561Y-2.4815
X6.5374Y-2.7581
X6.5978Y-3.6082
X6.611Y-2.4067
X6.7175Y-3.1555
X6.8794Y-2.6012
X6.8992Y-2.6795
X6.9158Y-2.5861
X7.1146Y-4.5862
X7.1169Y-4.6768
X7.1701Y-4.5862
X7.1701Y-4.678
T2
X3.4646Y-2.385
X3.4646Y-2.785
X3.4646Y-2.874
X3.4646Y-3.274
X3.4646Y-3.3661
X3.4646Y-3.7661
X3.4646Y-3.8551
X3.4646Y-4.2551
X3.6024Y-4.4882
X3.6066Y-2.3819
X3.6066Y-2.4819
X3.6066Y-2.5819
X3.6066Y-2.6819
X3.6066Y-2.7819
X3.6066Y-2.8819
X3.6066Y-2.9819
X3.6066Y-3.0819
X3.6066Y-3.1819
X3.6066Y-3.2819
X3.6066Y-3.3819
X3.6066Y-3.4819
X3.6066Y-3.5819
X3.6066Y-3.6819
X3.6066Y-3.7819
X3.6066Y-3.8819
X3.6066Y-3.9819
X3.6066Y-4.0819
X3.6066Y-4.1819
X3.6066Y-4.2819
X3.6657Y-4.7894
X3.6657Y-4.8894
X3.6657Y-4.9894
X3.6657Y-5.0894
X3.6657Y-5.1894
X3.6657Y-5.2894
X3.7008Y-4.4882
X3.7657Y-4.6894
X3.7657Y-4.7894
X3.7657Y-4.8894
X3.7657Y-4.9894
X3.7657Y-5.0894
X3.7657Y-5.1894
X3.7657Y-5.2894
X3.7657Y-5.3894
X3.8527Y-2.185
X3.8657Y-4.6894
X3.8657Y-4.7894
X3.8657Y-5.2894
X3.8657Y-5.3894
X3.8799Y-4.4815
X3.9511Y-2.185
X3.9657Y-4.6894
X3.9657Y-4.7894
X3.9657Y-5.2894
X3.9657Y-5.3894
X4.0657Y-4.6894
X4.0657Y-4.7894
X4.0657Y-5.2894
X4.0657Y-5.3894
X4.1349Y-2.1309
X4.1657Y-4.6894
X4.1657Y-4.7894
X4.1657Y-5.2894
X4.1657Y-5.3894
X4.2066Y-2.3819
X4.2066Y-2.4819
X4.2066Y-2.5819
X4.2066Y-2.6819
X4.2066Y-2.7819
X4.2066Y-2.8819
X4.2066Y-2.9819
X4.2066Y-3.0819
X4.2066Y-3.1819
X4.2066Y-3.2819
X4.2066Y-3.3819
X4.2066Y-3.4819
X4.2066Y-3.5819
X4.2066Y-3.6819
X4.2066Y-3.7819
X4.2066Y-3.8819
X4.2066Y-3.9819
X4.2066Y-4.0819
X4.2066Y-4.1819
X4.2066Y-4.2819
X4.2333Y-2.1309
X4.2657Y-4.6894
X4.2657Y-4.7894
X4.2657Y-4.8894
X4.2657Y-4.9894
X4.2657Y-5.0894
X4.2657Y-5.1894
X4.2657Y-5.2894
X4.2657Y-5.3894
X4.2799Y-4.4815
X4.3657Y-4.7894
X4.3657Y-4.8894
X4.3657Y-4.9894
X4.3657Y-5.0894
X4.3657Y-5.1894
X4.3657Y-5.2894
X4.4488Y-4.1217
X4.4488Y-4.4217
X4.4685Y-2.3819
X4.4685Y-2.4819
X4.4685Y-2.5819
X4.4685Y-2.6819
X4.4685Y-2.7819
X4.4685Y-2.8819
X4.4685Y-2.9819
X4.4685Y-3.0819
X4.4685Y-3.1819
X4.4685Y-3.2819
X4.4685Y-3.3819
X4.4685Y-3.4819
X4.4685Y-3.5819
X4.4685Y-3.6819
X4.4685Y-3.7819
X4.4685Y-3.8819
X4.7195Y-2.185
X4.7488Y-4.1217
X4.7488Y-4.4217
X4.8179Y-2.185
X4.8305Y-5.157
X4.8305Y-5.3049
X4.8305Y-5.4528
X4.9409Y-4.2224
X4.9409Y-4.3209
X4.9429Y-4.685
X5.0685Y-2.3819
X5.0685Y-2.4819
X5.0685Y-2.5819
X5.0685Y-2.6819
X5.0685Y-2.7819
X5.0685Y-2.8819
X5.0685Y-2.9819
X5.0685Y-3.0819
X5.0685Y-3.1819
X5.0685Y-3.2819
X5.0685Y-3.3819
X5.0685Y-3.4819
X5.0685Y-3.5819
X5.0685Y-3.6819
X5.0685Y-3.7819
X5.0685Y-3.8819
X5.1063Y-4.0827
X5.1063Y-4.1827
X5.1063Y-4.2827
X5.1063Y-4.3827
X5.135Y-4.685
X5.2067Y-3.878
X5.2305Y-5.157
X5.2305Y-5.3049
X5.2305Y-5.4528
X5.3051Y-3.878
X5.3343Y-2.3819
X5.3343Y-2.4819
X5.3343Y-2.5819
X5.3343Y-2.6819
X5.3343Y-2.7819
X5.3343Y-2.8819
X5.3343Y-2.9819
X5.3343Y-3.0819
X5.3343Y-3.1819
X5.3343Y-3.2819
X5.3343Y-3.3819
X5.3343Y-3.4819
X5.3343Y-3.5819
X5.3343Y-3.6819
X5.4063Y-4.0827
X5.4063Y-4.1827
X5.4063Y-4.2827
X5.4063Y-4.3827
X5.4429Y-4.6075
X5.4429Y-4.7075
X5.4429Y-4.8075
X5.4429Y-4.9075
X5.4429Y-5.0075
X5.4429Y-5.1075
X5.4429Y-5.2075
X5.4429Y-5.3075
X5.4429Y-5.4075
X5.4429Y-5.5075
X5.4429Y-5.6075
X5.4429Y-5.7075
X5.5512Y-4.4106
X5.5948Y-2.185
X5.6496Y-4.4106
X5.6932Y-2.185
X5.7429Y-4.6075
X5.7429Y-4.7075
X5.7429Y-4.8075
X5.7429Y-4.9075
X5.7429Y-5.0075
X5.7429Y-5.1075
X5.7429Y-5.2075
X5.7429Y-5.3075
X5.7429Y-5.4075
X5.7429Y-5.5075
X5.7429Y-5.6075
X5.7429Y-5.7075
X5.8114Y-4.4106
X5.9098Y-4.4106
X5.9343Y-2.3819
X5.9343Y-2.4819
X5.9343Y-2.5819
X5.9343Y-2.6819
X5.9343Y-2.7819
X5.9343Y-2.8819
X5.9343Y-2.9819
X5.9343Y-3.0819
X5.9343Y-3.1819
X5.9343Y-3.2819
X5.9343Y-3.3819
X5.9343Y-3.4819
X5.9343Y-3.5819
X5.9343Y-3.6819
X5.9626Y-4.6085
X5.9626Y-4.7085
X5.9626Y-4.8085
X5.9626Y-4.9085
X5.9626Y-5.0085
X5.9626Y-5.1085
X5.9626Y-5.2085
X5.9626Y-5.3085
X5.9626Y-5.4085
X5.9626Y-5.5085
X5.9626Y-5.6085
X5.9626Y-5.7085
X6.0205Y-3.8976
X6.0205Y-4.0551
X6.0205Y-4.2126
X6.0827Y-4.4106
X6.1811Y-4.4106
X6.2001Y-2.3809
X6.2001Y-2.4809
X6.2001Y-2.5809
X6.2001Y-2.6809
X6.2001Y-2.7809
X6.2001Y-2.8809
X6.2001Y-2.9809
X6.2001Y-3.0809
X6.2001Y-3.1809
X6.2001Y-3.2809
X6.2001Y-3.3809
X6.2001Y-3.4809
X6.2001Y-3.5809
X6.2001Y-3.6809
X6.2626Y-4.6085
X6.2626Y-4.7085
X6.2626Y-4.8085
X6.2626Y-4.9085
X6.2626Y-5.0085
X6.2626Y-5.1085
X6.2626Y-5.2085
X6.2626Y-5.3085
X6.2626Y-5.4085
X6.2626Y-5.5085
X6.2626Y-5.6085
X6.2626Y-5.7085
X6.3622Y-2.0622
X6.4205Y-3.8976
X6.4205Y-4.0551
X6.4205Y-4.2126
X6.4205Y-4.3134
X6.4205Y-4.7134
X6.4511Y-2.185
X6.4744Y-5.0051
X6.4744Y-5.1051
X6.4744Y-5.2051
X6.4744Y-5.3051
X6.4744Y-5.4051
X6.4744Y-5.5051
X6.4744Y-5.6051
X6.4744Y-5.7051
X6.5495Y-2.185
X6.5748Y-4.8043
X6.6732Y-4.8043
X6.6929Y-4.0551
X6.7622Y-2.0622
X6.7744Y-5.0051
X6.7744Y-5.1051
X6.7744Y-5.2051
X6.7744Y-5.3051
X6.7744Y-5.4051
X6.7744Y-5.5051
X6.7744Y-5.6051
X6.7744Y-5.7051
X6.7913Y-4.0551
X6.8001Y-2.3809
X6.8001Y-2.4809
X6.8001Y-2.5809
X6.8001Y-2.6809
X6.8001Y-2.7809
X6.8001Y-2.8809
X6.8001Y-2.9809
X6.8001Y-3.0809
X6.8001Y-3.1809
X6.8001Y-3.2809
X6.8001Y-3.3809
X6.8001Y-3.4809
X6.8001Y-3.5809
X6.8001Y-3.6809
X6.9425Y-4.9016
X7.0079Y-5.1969
X7.0409Y-4.9016
X7.1063Y-5.1969
T3
X4.7713Y-4.9606
X4.8713Y-4.9606
X4.9713Y-4.9606
X5.0862Y-4.9606
X5.1862Y-4.9606
X5.2862Y-4.9606
T4
X4.8031Y-5.7087
X4.9031Y-5.7087
X5.1575Y-5.7087
X5.2575Y-5.7087
T5
X3.4252Y-4.7894
X3.4252Y-4.8894
X3.4252Y-4.9894
X3.4252Y-5.0894
X3.4252Y-5.1894
X3.4252Y-5.2894
X3.435Y-4.438
X3.435Y-4.538
X3.8051Y-5.689
X3.9051Y-5.689
X4.0051Y-5.689
X4.1051Y-5.689
X4.2051Y-5.689
X4.3051Y-5.689
X4.5669Y-5.6191
X4.5669Y-5.7191
X4.6063Y-4.7106
X4.6063Y-4.8106
X4.6063Y-4.9106
X4.6063Y-5.0106
X4.6063Y-5.1106
X4.6063Y-5.2106
X4.6063Y-5.4134
X7.0085Y-5.4461
X7.0167Y-2.497
X7.0167Y-2.597
X7.0167Y-2.697
X7.0167Y-2.797
X7.0167Y-2.897
X7.0167Y-2.997
X7.0167Y-3.097
X7.0167Y-3.197
X7.0167Y-3.297
X7.0167Y-3.397
X7.0167Y-3.497
X7.0167Y-3.597
X7.0167Y-3.697
X7.0167Y-3.797
X7.0167Y-3.897
X7.0167Y-3.997
X7.0167Y-4.097
X7.0167Y-4.197
X7.1085Y-5.4461
X7.1167Y-2.497
X7.1167Y-2.597
X7.1167Y-2.697
X7.1167Y-2.797
X7.1167Y-2.897
X7.1167Y-2.997
X7.1167Y-3.097
X7.1167Y-3.197
X7.1167Y-3.297
X7.1167Y-3.397
X7.1167Y-3.497
X7.1167Y-3.597
X7.1167Y-3.697
X7.1167Y-3.797
X7.1167Y-3.897
X7.1167Y-3.997
X7.1167Y-4.097
X7.1167Y-4.197
T6
X5.5811Y-3.9653
X5.5811Y-4.1433
X5.8371Y-3.9653
X5.8371Y-4.1433
T7
X3.4823Y-2.1043
X3.4823Y-5.6909
X7.0689Y-2.1043
X7.0689Y-5.6909
T5
G00X6.6661Y-4.5653
M15
G01X6.6661Y-4.4865
M16
G05
G00X6.8236Y-4.3408
M15
G01X6.7449Y-4.3408
M16
G05
G00X6.9024Y-4.5653
M15
G01X6.9024Y-4.4865
M16
G05
T0
M30
