%TF.GenerationSoftware,KiCad,Pcbnew,(6.0.0-0)*%
%TF.CreationDate,2023-09-10T10:29:22+01:00*%
%TF.ProjectId,rosco_6502,726f7363-6f5f-4363-9530-322e6b696361,3*%
%TF.SameCoordinates,Original*%
%TF.FileFunction,Soldermask,Top*%
%TF.FilePolarity,Negative*%
%FSLAX46Y46*%
G04 Gerber Fmt 4.6, Leading zero omitted, Abs format (unit mm)*
G04 Created by KiCad (PCBNEW (6.0.0-0)) date 2023-09-10 10:29:22*
%MOMM*%
%LPD*%
G01*
G04 APERTURE LIST*
G04 Aperture macros list*
%AMRoundRect*
0 Rectangle with rounded corners*
0 $1 Rounding radius*
0 $2 $3 $4 $5 $6 $7 $8 $9 X,Y pos of 4 corners*
0 Add a 4 corners polygon primitive as box body*
4,1,4,$2,$3,$4,$5,$6,$7,$8,$9,$2,$3,0*
0 Add four circle primitives for the rounded corners*
1,1,$1+$1,$2,$3*
1,1,$1+$1,$4,$5*
1,1,$1+$1,$6,$7*
1,1,$1+$1,$8,$9*
0 Add four rect primitives between the rounded corners*
20,1,$1+$1,$2,$3,$4,$5,0*
20,1,$1+$1,$4,$5,$6,$7,0*
20,1,$1+$1,$6,$7,$8,$9,0*
20,1,$1+$1,$8,$9,$2,$3,0*%
G04 Aperture macros list end*
%ADD10O,1.600000X1.600000*%
%ADD11R,1.600000X1.600000*%
%ADD12C,1.600000*%
%ADD13R,1.800000X1.800000*%
%ADD14C,1.800000*%
%ADD15R,1.700000X1.700000*%
%ADD16O,1.700000X1.700000*%
%ADD17R,2.400000X1.600000*%
%ADD18O,2.400000X1.600000*%
%ADD19C,7.000000*%
%ADD20C,1.500000*%
%ADD21C,1.803400*%
%ADD22O,3.251200X1.727200*%
%ADD23R,3.500000X3.500000*%
%ADD24RoundRect,0.750000X0.750000X1.000000X-0.750000X1.000000X-0.750000X-1.000000X0.750000X-1.000000X0*%
%ADD25RoundRect,0.875000X0.875000X0.875000X-0.875000X0.875000X-0.875000X-0.875000X0.875000X-0.875000X0*%
%ADD26R,1.422400X1.422400*%
%ADD27C,1.422400*%
G04 APERTURE END LIST*
D10*
%TO.C,U3*%
X172723300Y-60475000D03*
X157483300Y-93495000D03*
X172723300Y-63015000D03*
X157483300Y-90955000D03*
X172723300Y-65555000D03*
X157483300Y-88415000D03*
X172723300Y-68095000D03*
X157483300Y-85875000D03*
X172723300Y-70635000D03*
X157483300Y-83335000D03*
X172723300Y-73175000D03*
X157483300Y-80795000D03*
X172723300Y-75715000D03*
X157483300Y-78255000D03*
X172723300Y-78255000D03*
X157483300Y-75715000D03*
X172723300Y-80795000D03*
X157483300Y-73175000D03*
X172723300Y-83335000D03*
X157483300Y-70635000D03*
X172723300Y-85875000D03*
X157483300Y-68095000D03*
X172723300Y-88415000D03*
X157483300Y-65555000D03*
X172723300Y-90955000D03*
X157483300Y-63015000D03*
X172723300Y-93495000D03*
D11*
X157483300Y-60475000D03*
%TD*%
D12*
%TO.C,C9*%
X91500000Y-114000000D03*
X94000000Y-114000000D03*
%TD*%
%TO.C,C10*%
X167000000Y-122030000D03*
X169500000Y-122030000D03*
%TD*%
D13*
%TO.C,LED1*%
X122000000Y-145000000D03*
D14*
X124540000Y-145000000D03*
%TD*%
D12*
%TO.C,C19*%
X147610000Y-112030000D03*
X150110000Y-112030000D03*
%TD*%
D15*
%TO.C,J1*%
X96650000Y-144500000D03*
D16*
X99190000Y-144500000D03*
X101730000Y-144500000D03*
X104270000Y-144500000D03*
X106810000Y-144500000D03*
X109350000Y-144500000D03*
%TD*%
D12*
%TO.C,C3*%
X142108300Y-55500000D03*
X144608300Y-55500000D03*
%TD*%
%TO.C,R9*%
X152920000Y-103000000D03*
D10*
X163080000Y-103000000D03*
%TD*%
D12*
%TO.C,C15*%
X132250000Y-98500000D03*
X134750000Y-98500000D03*
%TD*%
%TO.C,R10*%
X98550000Y-113830000D03*
D10*
X108710000Y-113830000D03*
%TD*%
D12*
%TO.C,C1*%
X97858300Y-55500000D03*
X100358300Y-55500000D03*
%TD*%
D17*
%TO.C,U4*%
X164450000Y-127130000D03*
D18*
X164450000Y-129670000D03*
X164450000Y-132210000D03*
X164450000Y-134750000D03*
X164450000Y-137290000D03*
X164450000Y-139830000D03*
X164450000Y-142370000D03*
X164450000Y-144910000D03*
X172070000Y-144910000D03*
X172070000Y-142370000D03*
X172070000Y-139830000D03*
X172070000Y-137290000D03*
X172070000Y-134750000D03*
X172070000Y-132210000D03*
X172070000Y-129670000D03*
X172070000Y-127130000D03*
%TD*%
D17*
%TO.C,U2*%
X135491700Y-60500000D03*
D18*
X135491700Y-63040000D03*
X135491700Y-65580000D03*
X135491700Y-68120000D03*
X135491700Y-70660000D03*
X135491700Y-73200000D03*
X135491700Y-75740000D03*
X135491700Y-78280000D03*
X135491700Y-80820000D03*
X135491700Y-83360000D03*
X135491700Y-85900000D03*
X135491700Y-88440000D03*
X135491700Y-90980000D03*
X135491700Y-93520000D03*
X150731700Y-93520000D03*
X150731700Y-90980000D03*
X150731700Y-88440000D03*
X150731700Y-85900000D03*
X150731700Y-83360000D03*
X150731700Y-80820000D03*
X150731700Y-78280000D03*
X150731700Y-75740000D03*
X150731700Y-73200000D03*
X150731700Y-70660000D03*
X150731700Y-68120000D03*
X150731700Y-65580000D03*
X150731700Y-63040000D03*
X150731700Y-60500000D03*
%TD*%
D17*
%TO.C,IC2*%
X138250000Y-117030000D03*
D18*
X138250000Y-119570000D03*
X138250000Y-122110000D03*
X138250000Y-124650000D03*
X138250000Y-127190000D03*
X138250000Y-129730000D03*
X138250000Y-132270000D03*
X138250000Y-134810000D03*
X138250000Y-137350000D03*
X138250000Y-139890000D03*
X138250000Y-142430000D03*
X138250000Y-144970000D03*
X145870000Y-144970000D03*
X145870000Y-142430000D03*
X145870000Y-139890000D03*
X145870000Y-137350000D03*
X145870000Y-134810000D03*
X145870000Y-132270000D03*
X145870000Y-129730000D03*
X145870000Y-127190000D03*
X145870000Y-124650000D03*
X145870000Y-122110000D03*
X145870000Y-119570000D03*
X145870000Y-117030000D03*
%TD*%
D11*
%TO.C,X1*%
X113000000Y-112310000D03*
D12*
X120620000Y-112310000D03*
X120620000Y-104690000D03*
X113000000Y-104690000D03*
%TD*%
%TO.C,R1*%
X88000000Y-60580000D03*
D10*
X88000000Y-70740000D03*
%TD*%
D19*
%TO.C,H4*%
X179550000Y-144550000D03*
%TD*%
D11*
%TO.C,C20*%
X170000000Y-103000000D03*
D12*
X172500000Y-103000000D03*
%TD*%
D15*
%TO.C,J3*%
X117000000Y-119650000D03*
D16*
X117000000Y-122190000D03*
X117000000Y-124730000D03*
X117000000Y-127270000D03*
X117000000Y-129810000D03*
X117000000Y-132350000D03*
%TD*%
D15*
%TO.C,JP2*%
X87250000Y-112725000D03*
D16*
X87250000Y-115265000D03*
%TD*%
D12*
%TO.C,R8*%
X152920000Y-107000000D03*
D10*
X163080000Y-107000000D03*
%TD*%
D20*
%TO.C,Q1*%
X125550000Y-119000000D03*
X130430000Y-119000000D03*
%TD*%
D17*
%TO.C,IC5*%
X151450000Y-117055000D03*
D18*
X151450000Y-119595000D03*
X151450000Y-122135000D03*
X151450000Y-124675000D03*
X151450000Y-127215000D03*
X151450000Y-129755000D03*
X151450000Y-132295000D03*
X151450000Y-134835000D03*
X151450000Y-137375000D03*
X151450000Y-139915000D03*
X151450000Y-142455000D03*
X151450000Y-144995000D03*
X159070000Y-144995000D03*
X159070000Y-142455000D03*
X159070000Y-139915000D03*
X159070000Y-137375000D03*
X159070000Y-134835000D03*
X159070000Y-132295000D03*
X159070000Y-129755000D03*
X159070000Y-127215000D03*
X159070000Y-124675000D03*
X159070000Y-122135000D03*
X159070000Y-119595000D03*
X159070000Y-117055000D03*
%TD*%
D12*
%TO.C,C4*%
X163858300Y-55500000D03*
X166358300Y-55500000D03*
%TD*%
%TO.C,C8*%
X154500000Y-112030000D03*
X157000000Y-112030000D03*
%TD*%
D19*
%TO.C,H1*%
X88450000Y-53450000D03*
%TD*%
D12*
%TO.C,R4*%
X88000000Y-97920000D03*
D10*
X88000000Y-108080000D03*
%TD*%
D21*
%TO.C,C13*%
X123730000Y-126000000D03*
X121190000Y-126000000D03*
X126270000Y-126000000D03*
%TD*%
D12*
%TO.C,R3*%
X88000000Y-85500000D03*
D10*
X88000000Y-95660000D03*
%TD*%
D11*
%TO.C,C16*%
X105026000Y-54125000D03*
D12*
X107526000Y-54125000D03*
%TD*%
D15*
%TO.C,J5*%
X178225000Y-63425000D03*
D16*
X180765000Y-63425000D03*
X178225000Y-65965000D03*
X180765000Y-65965000D03*
X178225000Y-68505000D03*
X180765000Y-68505000D03*
X178225000Y-71045000D03*
X180765000Y-71045000D03*
X178225000Y-73585000D03*
X180765000Y-73585000D03*
X178225000Y-76125000D03*
X180765000Y-76125000D03*
X178225000Y-78665000D03*
X180765000Y-78665000D03*
X178225000Y-81205000D03*
X180765000Y-81205000D03*
X178225000Y-83745000D03*
X180765000Y-83745000D03*
X178225000Y-86285000D03*
X180765000Y-86285000D03*
X178225000Y-88825000D03*
X180765000Y-88825000D03*
X178225000Y-91365000D03*
X180765000Y-91365000D03*
X178225000Y-93905000D03*
X180765000Y-93905000D03*
X178225000Y-96445000D03*
X180765000Y-96445000D03*
X178225000Y-98985000D03*
X180765000Y-98985000D03*
X178225000Y-101525000D03*
X180765000Y-101525000D03*
X178225000Y-104065000D03*
X180765000Y-104065000D03*
X178225000Y-106605000D03*
X180765000Y-106605000D03*
%TD*%
D11*
%TO.C,C17*%
X176338606Y-124500000D03*
D12*
X178838606Y-124500000D03*
%TD*%
%TO.C,R7*%
X152920000Y-99000000D03*
D10*
X163080000Y-99000000D03*
%TD*%
D17*
%TO.C,IC4*%
X129700000Y-103700000D03*
D18*
X129700000Y-106240000D03*
X129700000Y-108780000D03*
X129700000Y-111320000D03*
X137320000Y-111320000D03*
X137320000Y-108780000D03*
X137320000Y-106240000D03*
X137320000Y-103700000D03*
%TD*%
D15*
%TO.C,J2*%
X87000000Y-121650000D03*
D16*
X87000000Y-124190000D03*
X87000000Y-126730000D03*
X87000000Y-129270000D03*
X87000000Y-131810000D03*
X87000000Y-134350000D03*
%TD*%
D21*
%TO.C,C14*%
X131730000Y-126000000D03*
X129190000Y-126000000D03*
X134270000Y-126000000D03*
%TD*%
D22*
%TO.C,S1*%
X141758800Y-100719400D03*
X148261200Y-100719400D03*
X141758800Y-105240600D03*
X148261200Y-105240600D03*
%TD*%
D11*
%TO.C,C18*%
X178000000Y-132000000D03*
D12*
X180500000Y-132000000D03*
%TD*%
D19*
%TO.C,H3*%
X88450000Y-144550000D03*
%TD*%
D15*
%TO.C,JP1*%
X116000000Y-142725000D03*
D16*
X116000000Y-145265000D03*
%TD*%
D19*
%TO.C,H2*%
X179550000Y-53450000D03*
%TD*%
D12*
%TO.C,R5*%
X122695000Y-134743900D03*
D10*
X132855000Y-134743900D03*
%TD*%
D12*
%TO.C,R12*%
X132855000Y-130987800D03*
D10*
X122695000Y-130987800D03*
%TD*%
D12*
%TO.C,R6*%
X122695000Y-138500000D03*
D10*
X132855000Y-138500000D03*
%TD*%
D23*
%TO.C,J7*%
X169320000Y-114957500D03*
D24*
X175320000Y-114957500D03*
D25*
X172320000Y-110257500D03*
%TD*%
D15*
%TO.C,J4*%
X117000000Y-137500000D03*
%TD*%
D26*
%TO.C,IC3*%
X103270000Y-121650000D03*
D27*
X100730000Y-119110000D03*
X100730000Y-121650000D03*
X98190000Y-119110000D03*
X98190000Y-121650000D03*
X95650000Y-119110000D03*
X93110000Y-121650000D03*
X95650000Y-121650000D03*
X93110000Y-124190000D03*
X95650000Y-124190000D03*
X93110000Y-126730000D03*
X95650000Y-126730000D03*
X93110000Y-129270000D03*
X95650000Y-129270000D03*
X93110000Y-131810000D03*
X95650000Y-131810000D03*
X93110000Y-134350000D03*
X95650000Y-136890000D03*
X95650000Y-134350000D03*
X98190000Y-136890000D03*
X98190000Y-134350000D03*
X100730000Y-136890000D03*
X100730000Y-134350000D03*
X103270000Y-136890000D03*
X103270000Y-134350000D03*
X105810000Y-136890000D03*
X105810000Y-134350000D03*
X108350000Y-136890000D03*
X110890000Y-134350000D03*
X108350000Y-134350000D03*
X110890000Y-131810000D03*
X108350000Y-131810000D03*
X110890000Y-129270000D03*
X108350000Y-129270000D03*
X110890000Y-126730000D03*
X108350000Y-126730000D03*
X110890000Y-124190000D03*
X108350000Y-124190000D03*
X110890000Y-121650000D03*
X108350000Y-119110000D03*
X108350000Y-121650000D03*
X105810000Y-119110000D03*
X105810000Y-121650000D03*
X103270000Y-119110000D03*
%TD*%
D12*
%TO.C,R11*%
X163080000Y-109560000D03*
D10*
X163080000Y-119720000D03*
%TD*%
D12*
%TO.C,C2*%
X119875000Y-55500000D03*
X122375000Y-55500000D03*
%TD*%
%TO.C,C11*%
X125500000Y-109750000D03*
X125500000Y-107250000D03*
%TD*%
%TO.C,C12*%
X141000000Y-112030000D03*
X143500000Y-112030000D03*
%TD*%
%TO.C,R2*%
X88000000Y-73000000D03*
D10*
X88000000Y-83160000D03*
%TD*%
D15*
%TO.C,J6*%
X178015000Y-138330000D03*
D16*
X180555000Y-138330000D03*
%TD*%
D17*
%TO.C,IC1*%
X91608300Y-60500000D03*
D18*
X91608300Y-63040000D03*
X91608300Y-65580000D03*
X91608300Y-68120000D03*
X91608300Y-70660000D03*
X91608300Y-73200000D03*
X91608300Y-75740000D03*
X91608300Y-78280000D03*
X91608300Y-80820000D03*
X91608300Y-83360000D03*
X91608300Y-85900000D03*
X91608300Y-88440000D03*
X91608300Y-90980000D03*
X91608300Y-93520000D03*
X91608300Y-96060000D03*
X91608300Y-98600000D03*
X91608300Y-101140000D03*
X91608300Y-103680000D03*
X91608300Y-106220000D03*
X91608300Y-108760000D03*
X106848300Y-108760000D03*
X106848300Y-106220000D03*
X106848300Y-103680000D03*
X106848300Y-101140000D03*
X106848300Y-98600000D03*
X106848300Y-96060000D03*
X106848300Y-93520000D03*
X106848300Y-90980000D03*
X106848300Y-88440000D03*
X106848300Y-85900000D03*
X106848300Y-83360000D03*
X106848300Y-80820000D03*
X106848300Y-78280000D03*
X106848300Y-75740000D03*
X106848300Y-73200000D03*
X106848300Y-70660000D03*
X106848300Y-68120000D03*
X106848300Y-65580000D03*
X106848300Y-63040000D03*
X106848300Y-60500000D03*
%TD*%
D13*
%TO.C,LED2*%
X131000000Y-145000000D03*
D14*
X133540000Y-145000000D03*
%TD*%
D17*
%TO.C,U1*%
X113500000Y-60500000D03*
D18*
X113500000Y-63040000D03*
X113500000Y-65580000D03*
X113500000Y-68120000D03*
X113500000Y-70660000D03*
X113500000Y-73200000D03*
X113500000Y-75740000D03*
X113500000Y-78280000D03*
X113500000Y-80820000D03*
X113500000Y-83360000D03*
X113500000Y-85900000D03*
X113500000Y-88440000D03*
X113500000Y-90980000D03*
X113500000Y-93520000D03*
X113500000Y-96060000D03*
X113500000Y-98600000D03*
X128740000Y-98600000D03*
X128740000Y-96060000D03*
X128740000Y-93520000D03*
X128740000Y-90980000D03*
X128740000Y-88440000D03*
X128740000Y-85900000D03*
X128740000Y-83360000D03*
X128740000Y-80820000D03*
X128740000Y-78280000D03*
X128740000Y-75740000D03*
X128740000Y-73200000D03*
X128740000Y-70660000D03*
X128740000Y-68120000D03*
X128740000Y-65580000D03*
X128740000Y-63040000D03*
X128740000Y-60500000D03*
%TD*%
M02*
